<svg xmlns="http://www.w3.org/2000/svg" xmlns:xlink="http://www.w3.org/1999/xlink" width="201" height="201" viewBox="0 0 201 201"><defs><path id="a" d="M38.4444444,0 C41.7581529,0 44.4444444,2.6862915 44.4444444,6 L44.4444444,38.4444444 C44.4444444,41.7581529 41.7581529,44.4444444 38.4444444,44.4444444 L6,44.4444444 C2.6862915,44.4444444 0,41.7581529 0,38.4444444 L0,6 C0,2.6862915 2.6862915,0 6,0 L38.4444444,0 Z"/></defs><g fill="none" fill-rule="evenodd"><rect width="200" height="200" x="1" y="1" fill="#FFF" fill-rule="nonzero"/><rect width="201" height="201" fill="#FFF" fill-rule="nonzero"/><path fill="#231916" fill-rule="nonzero" d="M80.4,189.514286 L80.4,195.257143 L74.6571429,195.257143 L74.6571429,189.514286 L80.4,189.514286 Z M103.371429,183.771429 L103.371429,189.514286 L109.114286,189.514286 L109.114286,195.257143 L97.6285714,195.257143 L97.6285714,183.771429 L103.371429,183.771429 Z M183.771429,195.257143 L183.771429,183.771429 L189.514286,183.771429 L189.514286,189.514286 L195.257143,189.514286 L195.257143,195.257143 L183.771429,195.257143 Z M172.285714,166.542857 L172.285714,183.771429 L166.542857,183.771429 L166.542857,189.513857 L172.285714,189.514286 L172.285714,195.257143 L160.8,195.257143 L160.8,178.028571 L166.542857,178.028571 L166.542857,172.285714 L149.314286,172.285714 L149.314286,178.028571 L143.571429,178.028571 L143.571429,166.542857 L172.285714,166.542857 Z M63.1714286,178.028571 L63.1714286,195.257143 L57.4285714,195.257143 L57.4285714,183.771429 L51.6857143,183.771429 L51.6857143,178.028571 L63.1714286,178.028571 Z M143.571429,178.028571 L143.571429,183.771429 L149.314286,183.771429 L149.314286,178.028571 L155.057143,178.028571 L155.057143,195.257143 L126.342857,195.257143 L126.342857,189.514286 L132.085714,189.514286 L132.085714,178.028571 L143.571429,178.028571 Z M11.4857143,166.542857 L11.4857143,189.514286 L40.2,189.514286 L40.2,166.542857 L45.9428571,166.542857 L45.9428571,195.257143 L5.74285714,195.257143 L5.74285714,166.542857 L11.4857143,166.542857 Z M91.8857143,183.771429 L91.8857143,189.514286 L86.1428571,189.514286 L86.1428571,183.771429 L91.8857143,183.771429 Z M195.257143,178.028571 L195.257143,183.771429 L189.514286,183.771429 L189.514286,178.028571 L195.257143,178.028571 Z M34.4571429,166.542857 L34.4571429,183.771429 L17.2285714,183.771429 L17.2285714,166.542857 L34.4571429,166.542857 Z M183.771429,172.285714 L183.771429,183.771429 L178.028571,183.771429 L178.028571,172.285714 L183.771429,172.285714 Z M109.114286,172.285714 L109.114286,178.028571 L120.6,178.028571 L120.6,172.285714 L126.342857,172.285714 L126.342857,183.771429 L103.371429,183.771429 L103.371429,172.285714 L109.114286,172.285714 Z M86.1428571,166.542857 L86.1428571,172.285714 L80.4,172.285714 L80.4,178.028571 L74.6571429,178.028571 L74.6571429,172.285714 L51.6857143,172.285714 L51.6857143,166.542857 L86.1428571,166.542857 Z M97.6285714,166.542857 L97.6285714,172.285714 L91.8857143,172.285714 L91.8857143,178.028571 L86.1428571,178.028571 L86.1428571,166.542857 L97.6285714,166.542857 Z M189.514286,166.542857 L189.514286,172.285714 L183.771429,172.285714 L183.771429,166.542857 L189.514286,166.542857 Z M120.6,166.542857 L120.6,172.285714 L114.857143,172.285714 L114.857143,166.542857 L120.6,166.542857 Z M45.9428571,155.057143 L45.9428571,166.542857 L40.2,166.542857 L40.2,160.8 L11.4857143,160.8 L11.4857143,166.542857 L5.74285714,166.542857 L5.74285714,155.057143 L45.9428571,155.057143 Z M57.4285714,160.8 L57.4285714,166.542857 L51.6857143,166.542857 L51.6857143,160.8 L57.4285714,160.8 Z M80.4,149.314286 L80.4,155.057143 L86.1428571,155.057143 L86.1428571,166.542857 L80.4,166.542857 L80.4,160.8 L74.6571429,160.8 L74.6571429,166.542857 L68.9142857,166.542857 L68.9142857,160.8 L74.6571429,160.8 L74.6571429,149.314286 L80.4,149.314286 Z M195.257143,143.571429 L195.257143,166.542857 L189.514286,166.542857 L189.514286,160.8 L178.028571,160.8 L178.028571,149.314286 L183.771429,149.314286 L183.771429,155.057143 L189.514286,155.057143 L189.514286,143.571429 L195.257143,143.571429 Z M114.857143,126.342857 L114.857143,132.085714 L109.114286,132.085714 L109.114286,143.571429 L126.342857,143.571429 L126.342857,137.828571 L120.6,137.828571 L120.6,132.085714 L132.085714,132.085714 L132.085714,137.828571 L143.571429,137.828571 L143.571429,132.085714 L149.314286,132.085714 L149.314286,126.342857 L166.542857,126.342857 L166.542857,137.828571 L155.057143,137.828571 L155.057143,132.085714 L149.314286,132.085714 L149.314286,137.828571 L155.057143,137.828571 L155.057143,143.571429 L178.028571,143.571429 L178.028571,149.314286 L172.285714,149.314286 L172.285714,160.8 L178.028571,160.8 L178.028571,166.542857 L166.542857,166.542857 L166.542857,149.314286 L149.314286,149.314286 L149.314286,166.542857 L137.828571,166.542857 L137.828571,155.057143 L132.085714,155.057143 L132.085714,149.314286 L143.571429,149.314286 L143.571429,143.571429 L132.085714,143.571429 L132.085714,149.314286 L126.342857,149.314286 L126.342857,155.057143 L132.085714,155.057143 L132.085714,160.8 L120.6,160.8 L120.6,155.057143 L103.371429,155.057143 L103.371429,160.8 L114.857143,160.8 L114.857143,166.542857 L97.6285714,166.542857 L97.6285714,160.8 L91.8857143,160.8 L91.8857143,166.542857 L86.1428571,166.542857 L86.1428571,160.8 L91.8857143,160.8 L91.8857143,155.057143 L103.371429,155.057143 L103.371429,149.314286 L91.8857143,149.314286 L91.8857143,155.057143 L86.1428571,155.057143 L86.1428571,149.314286 L91.8857143,149.314286 L91.8857143,143.571429 L86.1428571,143.571429 L86.1428571,132.085714 L91.8857143,132.085714 L91.8857143,137.828571 L103.371429,137.828571 L103.371429,126.342857 L114.857143,126.342857 Z M160.8,155.057143 L160.8,160.8 L155.057143,160.8 L155.057143,155.057143 L160.8,155.057143 Z M86.1428571,126.342857 L86.1428571,137.828571 L80.4,137.828571 L80.4,132.085714 L74.6571429,132.085714 L74.6571429,149.314286 L68.9142857,149.314286 L68.9142857,155.057143 L63.1714286,155.057143 L63.1714286,149.314286 L57.4285714,149.314286 L57.4285714,155.057143 L51.6857143,155.057143 L51.6857143,149.314286 L40.2,149.314286 L40.2,143.571429 L57.4285714,143.571429 L57.4285714,137.828571 L63.1714286,137.828571 L63.1714286,132.085714 L74.6571429,132.085714 L74.6571429,126.342857 L86.1428571,126.342857 Z M11.4857143,143.571429 L11.4857143,149.314286 L5.74285714,149.314286 L5.74285714,143.571429 L11.4857143,143.571429 Z M28.7142857,126.342857 L28.7142857,132.085714 L34.4571429,132.085714 L34.4571429,126.342857 L40.2,126.342857 L40.2,132.085714 L45.9428571,132.085714 L45.9428571,126.342857 L51.6857143,126.342857 L51.6857143,137.828571 L34.4571429,137.828571 L34.4571429,149.314286 L22.9714286,149.314286 L22.9714286,137.828571 L17.2285714,137.828571 L17.2285714,143.571429 L11.4857143,143.571429 L11.4857143,137.828571 L17.2285714,137.828571 L17.2285714,132.085714 L22.9714286,132.085714 L22.9714286,126.342857 L28.7142857,126.342857 Z M195.257143,126.342857 L195.257143,137.828571 L189.514286,137.828571 L189.514286,143.571429 L183.771429,143.571429 L183.771429,126.342857 L195.257143,126.342857 Z M11.4857143,132.085714 L11.4857143,137.828571 L5.74285714,137.828571 L5.74285714,132.085714 L11.4857143,132.085714 Z M178.028571,132.085714 L178.028571,137.828571 L172.285714,137.828571 L172.285714,132.085714 L178.028571,132.085714 Z M143.571429,126.342857 L143.571429,132.085714 L132.085714,132.085714 L132.085714,126.342857 L143.571429,126.342857 Z M17.2285714,126.342857 L17.2285714,132.085714 L11.4857143,132.085714 L11.4857143,126.342857 L17.2285714,126.342857 Z M63.1714286,126.342857 L63.1714286,132.085714 L57.4285714,132.085714 L57.4285714,126.342857 L63.1714286,126.342857 Z M137.828571,114.857143 L137.828571,120.6 L132.085714,120.6 L132.085714,126.342857 L126.342857,126.342857 L126.342857,120.6 L120.6,120.6 L120.6,126.342857 L97.6285714,126.342857 L97.6285714,120.6 L120.6,120.6 L120.6,114.857143 L137.828571,114.857143 Z M160.8,120.6 L160.8,126.342857 L143.571429,126.342857 L143.571429,120.6 L160.8,120.6 Z M178.028571,120.6 L178.028571,126.342857 L172.285714,126.342857 L172.285714,120.6 L178.028571,120.6 Z M189.514286,97.6285714 L189.514286,103.371429 L195.257143,103.371429 L195.257143,126.342857 L183.771429,126.342857 L183.771429,120.6 L189.514286,120.6 L189.514286,114.857143 L178.028571,114.857143 L178.028571,109.114286 L172.285714,109.114286 L172.285714,103.371429 L183.771429,103.371429 L183.771429,97.6285714 L189.514286,97.6285714 Z M45.9428571,120.6 L45.9428571,126.342857 L17.2285714,126.342857 L17.2285714,120.6 L45.9428571,120.6 Z M68.9142857,120.6 L68.9142857,126.342857 L63.1714286,126.342857 L63.1714286,120.6 L68.9142857,120.6 Z M74.6571429,103.371429 L74.6571429,109.114286 L86.1428571,109.114286 L86.1428571,126.342857 L74.6571429,126.342857 L74.6571429,120.6 L80.4,120.6 L80.4,114.857143 L68.9142857,114.857143 L68.9142857,103.371429 L74.6571429,103.371429 Z M97.6285714,114.857143 L97.6285714,120.6 L91.8857143,120.6 L91.8857143,126.342857 L86.1428571,126.342857 L86.1428571,114.857143 L97.6285714,114.857143 Z M45.9428571,74.6571429 L45.9428571,80.4 L40.2,80.4 L40.2,86.1428571 L45.9428571,86.1428571 L45.9428571,80.4 L57.4285714,80.4 L57.4285714,74.6571429 L68.9142857,74.6571429 L68.9142857,91.8857143 L74.6571429,91.8857143 L74.6571429,97.6285714 L68.9142857,97.6285714 L68.9142857,103.371429 L57.4285714,103.371429 L57.4285714,109.114286 L63.1714286,109.114286 L63.1714286,120.6 L45.9428571,120.6 L45.9428571,114.857143 L51.6857143,114.857143 L51.6857143,109.114286 L45.9428571,109.114286 L45.9428571,103.371429 L40.2,103.371429 L40.2,109.114286 L45.9428571,109.114286 L45.9428571,114.857143 L17.2285714,114.857143 L17.2285714,109.114286 L11.4857143,109.114286 L11.4857143,114.857143 L17.2285714,114.857143 L17.2285714,120.6 L5.74285714,120.6 L5.74285714,91.8857143 L11.4857143,91.8857143 L11.4857143,103.371429 L22.9714286,103.371429 L22.9714286,109.114286 L34.4571429,109.114286 L34.4571429,97.6285714 L45.9428571,97.6285714 L45.9428571,91.8857143 L40.2,91.8857143 L40.2,86.1428571 L34.4571429,86.1428571 L34.4571429,91.8857143 L28.7142857,91.8857143 L28.7142857,86.1428571 L34.4571429,86.1428571 L34.4571429,74.6571429 L45.9428571,74.6571429 Z M172.285714,114.857143 L172.285714,120.6 L166.542857,120.6 L166.542857,114.857143 L172.285714,114.857143 Z M160.8,97.6285714 L160.8,114.857143 L155.057143,114.857143 L155.057143,109.114286 L149.314286,109.114286 L149.314286,97.6285714 L160.8,97.6285714 Z M91.8857143,91.8857143 L91.8857143,97.6285714 L103.371429,97.6285714 L103.371429,103.371429 L114.857143,103.371429 L114.857143,114.857143 L109.114286,114.857143 L109.114286,109.114286 L97.6285714,109.114286 L97.6285714,103.371429 L91.8857143,103.371429 L91.8857143,109.114286 L86.1428571,109.114286 L86.1428571,91.8857143 L91.8857143,91.8857143 Z M137.828571,63.1714286 L137.828571,74.6571429 L143.571429,74.6571429 L143.571429,68.9142857 L149.314286,68.9142857 L149.314286,63.1714286 L155.057143,63.1714286 L155.057143,68.9142857 L160.8,68.9142857 L160.8,86.1428571 L166.542857,86.1428571 L166.542857,91.8857143 L172.285714,91.8857143 L172.285714,97.6285714 L166.542857,97.6285714 L166.542857,91.8857143 L160.8,91.8857143 L160.8,86.1428571 L155.057143,86.1428571 L155.057143,80.4 L149.314286,80.4 L149.314286,86.1428571 L143.571429,86.1428571 L143.571429,80.4 L137.828571,80.4 L137.828571,86.1428571 L132.085714,86.1428571 L132.085714,91.8857143 L143.571429,91.8857143 L143.571429,97.6285714 L137.828571,97.6285714 L137.828571,103.371429 L132.085714,103.371429 L132.085714,109.114286 L120.6,109.114286 L120.6,103.371429 L114.857143,103.371429 L114.857143,97.6285714 L120.6,97.6285714 L120.6,91.8857143 L126.342857,91.8857143 L126.342857,86.1428571 L120.6,86.1428571 L120.6,80.4 L126.342857,80.4 L126.342857,86.1428571 L132.085714,86.1428571 L132.085714,74.6571429 L126.342857,74.6571429 L126.342857,68.9142857 L132.085714,68.9142857 L132.085714,63.1714286 L137.828571,63.1714286 Z M80.4,97.6285714 L80.4,103.371429 L74.6571429,103.371429 L74.6571429,97.6285714 L80.4,97.6285714 Z M28.7142857,97.6285714 L28.7142857,103.371429 L22.9714286,103.371429 L22.9714286,97.6285714 L28.7142857,97.6285714 Z M114.857143,57.4285714 L114.857143,63.1714286 L120.6,63.1714286 L120.6,68.9142857 L114.857143,68.9142857 L114.857143,74.6571429 L120.6,74.6571429 L120.6,80.4 L114.857143,80.4 L114.857143,97.6285714 L109.114286,97.6285714 L109.113857,86.1428571 L97.6285714,86.1428571 L97.6285714,80.4 L109.114286,80.4 L109.114286,57.4285714 L114.857143,57.4285714 Z M178.028571,51.6857143 L178.028571,63.1714286 L189.514286,63.1714286 L189.514286,51.6857143 L195.257143,51.6857143 L195.257143,97.6285714 L189.514286,97.6285714 L189.514286,91.8857143 L183.771429,91.8857143 L183.770857,86.1428571 L178.028571,86.1428571 L178.028571,80.4 L183.771429,80.4 L183.771429,74.6571429 L189.514286,74.6571429 L189.514286,68.9142857 L166.542857,68.9142857 L166.542857,63.1714286 L172.285714,63.1714286 L172.285714,51.6857143 L178.028571,51.6857143 Z M22.9714286,91.8857143 L22.9714286,97.6285714 L17.2285714,97.6285714 L17.2285714,91.8857143 L22.9714286,91.8857143 Z M57.4285714,91.8857143 L51.6857143,91.8857143 L51.6857143,97.6285714 L57.4285714,97.6285714 L57.4285714,91.8857143 Z M86.1428571,68.9142857 L86.1428571,80.4 L80.4,80.4 L80.4,86.1428571 L86.1428571,86.1428571 L86.1428571,91.8857143 L74.6571429,91.8857143 L74.6571429,74.6571429 L80.4,74.6571429 L80.4,68.9142857 L86.1428571,68.9142857 Z M91.8857143,63.1714286 L91.8857143,86.1428571 L86.1428571,86.1428571 L86.1428571,63.1714286 L91.8857143,63.1714286 Z M17.2285714,57.4285714 L17.2285714,68.9142857 L22.9714286,68.9142857 L22.9714286,74.6571429 L28.7142857,74.6571429 L28.7142857,80.4 L22.9714286,80.4 L22.9714286,86.1428571 L17.2285714,86.1428571 L17.2285714,80.4 L11.4857143,80.4 L11.4857143,86.1428571 L5.74285714,86.1428571 L5.74285714,74.6571429 L11.4857143,74.6571429 L11.4857143,68.9142857 L5.74285714,68.9142857 L5.74285714,63.1714286 L11.4857143,63.1714286 L11.4857143,57.4285714 L17.2285714,57.4285714 Z M57.4285714,63.1714286 L57.4285714,74.6571429 L51.6857143,74.6571429 L51.6857143,63.1714286 L57.4285714,63.1714286 Z M74.6571429,68.9142857 L74.6571429,74.6571429 L68.9142857,74.6571429 L68.9142857,68.9142857 L74.6571429,68.9142857 Z M34.4571429,63.1714286 L34.4571429,74.6571429 L28.7142857,74.6571429 L28.7142857,68.9142857 L22.9714286,68.9142857 L22.9714286,63.1714286 L34.4571429,63.1714286 Z M80.4,63.1714286 L80.4,68.9142857 L74.6571429,68.9142857 L74.6571429,63.1714286 L80.4,63.1714286 Z M45.9428571,63.1714286 L45.9428571,68.9142857 L40.2,68.9142857 L40.2,63.1714286 L45.9428571,63.1714286 Z M68.9142857,63.1714286 L68.9142857,68.9142857 L63.1714286,68.9142857 L63.1714286,63.1714286 L68.9142857,63.1714286 Z M149.314286,40.2 L149.314286,51.6857143 L155.057143,51.6857143 L155.057143,57.4285714 L149.314286,57.4285714 L149.314286,63.1714286 L143.571429,63.1714286 L143.571429,57.4285714 L137.828571,57.4285714 L137.828571,51.6857143 L143.571429,51.6857143 L143.571429,40.2 L149.314286,40.2 Z M149.314286,5.74285714 L149.314286,11.4857143 L143.571429,11.4857143 L143.571429,17.2285714 L149.314286,17.2285714 L149.314286,22.9714286 L137.828571,22.9714286 L137.828571,45.9428571 L132.085714,45.9428571 L132.085714,63.1714286 L120.6,63.1714286 L120.6,51.6857143 L126.342857,51.6857143 L126.342857,45.9428571 L120.6,45.9428571 L120.6,40.2 L126.342857,40.2 L126.342857,34.4571429 L132.085714,34.4571429 L132.085714,5.74285714 L149.314286,5.74285714 Z M160.8,57.4285714 L160.8,63.1714286 L155.057143,63.1714286 L155.057143,57.4285714 L160.8,57.4285714 Z M97.6285714,57.4285714 L97.6285714,63.1714286 L91.8857143,63.1714286 L91.8857143,57.4285714 L97.6285714,57.4285714 Z M51.6857143,57.4285714 L51.6857143,63.1714286 L45.9428571,63.1714286 L45.9428571,57.4285714 L51.6857143,57.4285714 Z M45.9428571,51.6857143 L45.9428571,57.4285714 L28.7142857,57.4285714 L28.7142857,51.6857143 L45.9428571,51.6857143 Z M57.4285714,40.2 L57.4285714,45.9428571 L63.1714286,45.9428571 L63.1714286,40.2 L68.9142857,40.2 L68.9142857,45.9428571 L74.6571429,45.9428571 L74.6571429,40.2 L80.4,40.2 L80.4,45.9428571 L74.6571429,45.9428571 L74.6571429,51.6857143 L68.9142857,51.6857143 L68.9142857,45.9428571 L63.1714286,45.9428571 L63.1714286,57.4285714 L51.6857143,57.4285714 L51.6857143,51.6857143 L57.4285714,51.6857143 L57.4285714,45.9428571 L51.6857143,45.9428571 L51.6857143,40.2 L57.4285714,40.2 Z M86.1428571,51.6857143 L86.1428571,57.4285714 L80.4,57.4285714 L80.4,51.6857143 L86.1428571,51.6857143 Z M91.8857143,51.6857143 L91.8857143,57.4285714 L86.1428571,57.4285714 L86.1428571,51.6857143 L91.8857143,51.6857143 Z M114.857143,5.74285714 L114.857143,11.4857143 L120.6,11.4857143 L120.6,17.2285714 L114.857143,17.2285714 L114.857143,22.9714286 L109.114286,22.9714286 L109.114286,40.2 L103.371429,40.2 L103.371429,51.6857143 L109.114286,51.6857143 L109.114286,57.4285714 L97.6285714,57.4285714 L97.6285714,22.9714286 L103.371429,22.9714286 L103.371429,17.2285714 L109.114286,17.2285714 L109.114286,5.74285714 L114.857143,5.74285714 Z M22.9714286,51.6857143 L22.9714286,57.4285714 L17.2285714,57.4285714 L17.2285714,51.6857143 L22.9714286,51.6857143 Z M195.257143,5.74285714 L195.257143,45.9428571 L155.057143,45.9428571 L155.057143,5.74285714 L195.257143,5.74285714 Z M91.8857143,40.2 L91.8857143,45.9428571 L86.1428571,45.9428571 L86.1428571,40.2 L91.8857143,40.2 Z M45.9428571,5.74285714 L45.9428571,45.9428571 L5.74285714,45.9428571 L5.74285714,5.74285714 L45.9428571,5.74285714 Z M114.857143,40.2 L114.857143,45.9428571 L109.114286,45.9428571 L109.114286,40.2 L114.857143,40.2 Z M132.085714,40.2 L126.342857,40.2 L126.342857,45.9428571 L132.085714,45.9428571 L132.085714,40.2 Z M86.1428571,34.4571429 L86.1428571,40.2 L80.4,40.2 L80.4,34.4571429 L86.1428571,34.4571429 Z M74.6571429,34.4571429 L74.6571429,40.2 L68.9142857,40.2 L68.9142857,34.4571429 L74.6571429,34.4571429 Z M40.2,11.4857143 L11.4857143,11.4857143 L11.4857143,40.2 L40.2,40.2 L40.2,11.4857143 Z M189.514286,11.4857143 L160.8,11.4857143 L160.8,40.2 L189.514286,40.2 L189.514286,11.4857143 Z M120.6,34.4571429 L120.6,40.2 L114.857143,40.2 L114.857143,34.4571429 L120.6,34.4571429 Z M34.4571429,17.2285714 L34.4571429,34.4571429 L17.2285714,34.4571429 L17.2285714,17.2285714 L34.4571429,17.2285714 Z M86.1428571,11.4857143 L86.1428571,28.7142857 L80.4,28.7142857 L80.4,34.4571429 L74.6571429,34.4571429 L74.6571429,28.7142857 L68.9142857,28.7142857 L68.9142857,34.4571429 L63.1714286,34.4571429 L63.1714286,28.7142857 L51.6857143,28.7142857 L51.6857143,22.9714286 L63.1714286,22.9714286 L63.1714286,17.2285714 L68.9142857,17.2285714 L68.9142857,22.9714286 L80.4,22.9714286 L80.4,11.4857143 L86.1428571,11.4857143 Z M91.8857143,28.7142857 L91.8857143,34.4571429 L86.1428571,34.4571429 L86.1428571,28.7142857 L91.8857143,28.7142857 Z M126.342857,28.7142857 L126.342857,34.4571429 L120.6,34.4571429 L120.6,28.7142857 L126.342857,28.7142857 Z M183.771429,17.2285714 L183.771429,34.4571429 L166.542857,34.4571429 L166.542857,17.2285714 L183.771429,17.2285714 Z M120.6,22.9714286 L120.6,28.7142857 L114.857143,28.7142857 L114.857143,22.9714286 L120.6,22.9714286 Z M126.342857,17.2285714 L126.342857,22.9714286 L120.6,22.9714286 L120.6,17.2285714 L126.342857,17.2285714 Z M63.1714286,11.4857143 L63.1714286,17.2285714 L57.4285714,17.2285714 L57.4285714,11.4857143 L63.1714286,11.4857143 Z M91.8857143,5.74285714 L91.8857143,17.2285714 L86.1428571,17.2285714 L86.1428571,5.74285714 L91.8857143,5.74285714 Z M57.4285714,5.74285714 L57.4285714,11.4857143 L51.6857143,11.4857143 L51.6857143,5.74285714 L57.4285714,5.74285714 Z M103.371429,5.74285714 L103.371429,11.4857143 L97.6285714,11.4857143 L97.6285714,5.74285714 L103.371429,5.74285714 Z"/><g transform="translate(75.778 75.778)"><path fill="#FFF" fill-rule="nonzero" d="M41.4444444,0 L9,0 C4.02943725,0 0,4.02943725 0,9 L0,41.4444444 C0,46.4150072 4.02943725,50.4444444 9,50.4444444 L41.4444444,50.4444444 C46.4150072,50.4444444 50.4444444,46.4150072 50.4444444,41.4444444 L50.4444444,9 C50.4444444,4.02943725 46.4150072,0 41.4444444,0 Z"/><g transform="translate(3 3)"><mask id="b" fill="#fff"><use xlink:href="#a"/></mask><use xlink:href="#a" fill="#231916" fill-rule="nonzero"/><polygon fill="#0080FF" points="29.982 -.278 44.722 -.278 44.722 14.462" mask="url(#b)"/><path fill="#FFF" fill-rule="nonzero" d="M36.4337932,6.88000593 L36.4337932,5.47321021 L36.9934861,5.47321021 C37.8002507,5.47321021 38.3901973,5.10008159 38.3901973,4.28827474 C38.3901973,3.45125649 37.8002507,3.16888889 36.973317,3.16888889 L35.8488889,3.16888889 L35.8488889,6.88000593 L36.4337932,6.88000593 Z M36.9380211,5.0042783 L36.4337932,5.0042783 L36.4337932,3.6378208 L36.917852,3.6378208 C37.5077985,3.6378208 37.8153775,3.79917371 37.8153775,4.28827474 C37.8153775,4.77737576 37.5330099,5.0042783 36.9380211,5.0042783 Z M39.6356401,6.88000593 L39.6356401,5.15050438 C39.8121199,4.71182614 40.0844029,4.5555155 40.3113054,4.5555155 C40.4222356,4.5555155 40.4928275,4.57064234 40.5886308,4.60089601 L40.6945186,4.09666815 C40.6087999,4.05632992 40.5180389,4.03616081 40.3818973,4.03616081 C40.0844029,4.03616081 39.7919507,4.24793651 39.5953019,4.60593829 L39.580175,4.60593829 L39.5347945,4.10675271 L39.0608204,4.10675271 L39.0608204,6.88000593 L39.6356401,6.88000593 Z M42.1769485,6.94555556 C42.8626984,6.94555556 43.4828987,6.4161163 43.4828987,5.4984216 C43.4828987,4.57064234 42.8626984,4.03616081 42.1769485,4.03616081 C41.4911986,4.03616081 40.8709984,4.57064234 40.8709984,5.4984216 C40.8709984,6.4161163 41.4911986,6.94555556 42.1769485,6.94555556 Z M42.1769485,6.47158137 C41.7433126,6.47158137 41.4710295,6.08332592 41.4710295,5.4984216 C41.4710295,4.908475 41.7433126,4.51517727 42.1769485,4.51517727 C42.6156268,4.51517727 42.8879098,4.908475 42.8879098,5.4984216 C42.8879098,6.08332592 42.6156268,6.47158137 42.1769485,6.47158137 Z" mask="url(#b)" transform="rotate(45 39.666 5.057)"/></g></g><path fill="#FFF" d="M114.824148,103.53492 L114.824148,105.795224 C114.824148,111.949974 106.073044,115.544343 103.093958,116.588128 L101.90279,117 L101.90279,113.092916 L102.399365,112.905553 C106.7014,111.286455 111.041842,108.493533 111.128221,105.874533 L111.129532,105.795224 L111.129532,103.53492 L114.824148,103.53492 Z M101.023926,85 L104.747625,86.1483678 L104.747625,90.1347442 L101.023926,88.9823964 L100.78023,89.0580154 L100.78023,98.0266733 L104.747625,98.0266733 L104.747625,101.721901 L100.78023,101.721901 L100.78023,116.945505 L99.5751371,116.495606 C99.1113805,116.319754 98.4438556,116.052446 97.6403123,115.690845 L97.5347365,115.643144 L97.0850025,115.437718 L97.0850025,86.2154146 L101.023926,85 Z M95.9161226,86.5909992 L95.9161226,90.5590065 L90.870468,92.1252688 L90.870468,98.0266121 L95.9161226,98.0266121 L95.9161226,115.118036 L94.7986759,114.543393 C91.3561992,112.771539 87.2586971,109.795254 87.1770913,105.647513 L87.1758524,105.521465 L87.1758524,103.534859 L90.870468,103.534859 L90.870468,105.521465 C90.870468,106.367438 91.2981738,107.255518 92.1429484,108.16975 L92.2208947,108.252933 L92.2208947,101.72184 L87.1758524,101.72184 L87.1758524,89.2887911 L95.9161226,86.5909992 Z M105.869266,86.4964601 L114.824148,89.2680341 L114.824148,101.721901 L109.566943,101.721901 L109.566943,107.115036 L109.512874,107.18212 C109.256197,107.491676 108.080378,108.815199 105.872634,109.946309 L105.869266,86.4964601 Z M109.566943,91.6247752 L109.566943,98.0266733 L111.129532,98.0266733 L111.129532,92.1072672 L109.566943,91.6247752 Z"/></g></svg>