<svg version="1.1" viewBox="0 0 528 44" xmlns="http://www.w3.org/2000/svg"><path d="M478.98.8h7v16.46h34.41c2.2 0 3.88 0 5.41 1.59s1.45 3.16 1.45 5.3v11.07c0 2.16 0 3.8-1.48 5.34s-3.2 1.52-5.38 1.52h-92.72c-2.13 0-3.73 0-5.26-1.45-1.53-1.45-1.63-3.21-1.63-5.41V7.67c0-2.13 0-3.73 1.52-5.25S425.49.8 427.67.8h37.53c2.31 0 4.13 0 5.68 1.72 1.36 1.5 1.36 3 1.36 5v16.6h-23.49v-6.86h16.45V8.89a1.15 1.15 0 00-.26-.89 1.26 1.26 0 00-1.07-.31h-34.86a1.11 1.11 0 00-1.34 1.38v24.64a1.33 1.33 0 00.39 1.15c.26.228.605.337.95.3h90.05c.395.06.795-.06 1.09-.33.31-.33.27-.67.27-1.12v-8.08a1.44 1.44 0 00-.25-1.1 1.31 1.31 0 00-1.11-.38h-40.08V.8zm-44.14 16.46v6.89h7v-6.89h-7zM25.77 26.34c0-9.33-5-15.19-12.66-15.19C4.98 11.15 0 17.07 0 27.03c0 10.14 5.17 15.94 13 15.94 6.3 0 11-3.4 12.41-9.07h-6.57c-1 2.33-2.9 3.59-5.8 3.59-3.9 0-6.55-2.46-6.86-8.95h19.53c.06-.57.06-1.38.06-2.2zM13.11 16.7c3.52 0 6 2 6.55 6.93H6.3c.76-4.92 3.15-6.93 6.81-6.93zm24.94 18V0h-6.36v35.53c0 4.54 2.52 7 7 7 1.273 0 2.534-.237 3.72-.7v-5.16a8.88 8.88 0 01-2.27.31c-1.3 0-2.09-.82-2.09-2.33v.05zm33.58-8.31c0-9.33-5-15.19-12.66-15.19-8.13-.05-13.13 5.87-13.13 15.83 0 10.14 5.17 15.94 13 15.94 6.3 0 11-3.4 12.41-9.07H64.7c-.94 2.33-2.9 3.59-5.79 3.59-3.91 0-6.56-2.46-6.87-8.95h19.53c.06-.57.06-1.38.06-2.2v.05zM58.97 16.7c3.53 0 6.05 2 6.55 6.93H52.17c.75-4.92 3.15-6.93 6.8-6.93zm17.07 10.39c0 9.7 4.92 15.88 13.17 15.88 7.06 0 11.47-4.35 12.35-10.77h-6.55c-.63 3.15-2.59 4.91-5.8 4.91-4.35 0-6.62-3.59-6.62-10s2.27-10 6.62-10c3.21 0 5.17 1.71 5.8 4.86h6.55c-.88-6.37-5.29-10.78-12.35-10.78-8.25-.04-13.17 6.14-13.17 15.9zm41.8 15.44a13.24 13.24 0 005.42-1v-5.1a14 14 0 01-3.65.5c-2.4 0-3.78-1.26-3.78-3.91V17.58h8.12v-5.55h-8.11V1.58h-1.2l-5.17 5v5.41h-5.41v5.55h5.41v16.17c.02 5.79 3.37 8.82 8.37 8.82zm25-30.87a7.79 7.79 0 00-7.37 4.41h-.38v-4h-6v30.02h6.43V25.26c0-5.1 2.27-7.62 7.37-7.62a12.51 12.51 0 012.14.13v-5.86a7.36 7.36 0 00-2.19-.25zm18.84 31.31c8.31 0 13.48-6.18 13.48-15.88s-5.17-15.94-13.48-15.94-13.49 6.24-13.49 15.94 5.09 15.88 13.47 15.88h.02zm0-5.86c-4.66 0-7-3.66-7-10s2.34-10 7-10 6.93 3.6 6.93 10-2.35 10-6.95 10h.02zm34.14-26a8.81 8.81 0 00-8.25 4.85h-.38v-4h-6.05v30.13h6.43v-17.2c0-4.79 2.27-7.82 6.24-7.82 3.59 0 4.91 2.34 4.91 5.86v19.16h6.43V22.24c-.02-6.99-2.92-11.09-9.31-11.09l-.02-.04zm16.7-4.28h6.42V0h-6.42v6.83zm0 35.22h6.42V12.03h-6.42v30.02zm12.47-15c0 9.7 4.92 15.88 13.17 15.88 7.06 0 11.47-4.35 12.35-10.77h-6.57c-.63 3.15-2.59 4.91-5.8 4.91-4.35 0-6.62-3.59-6.62-10s2.27-10 6.62-10c3.21 0 5.17 1.71 5.8 4.86h6.55c-.88-6.37-5.29-10.78-12.35-10.78-8.25 0-13.17 6.18-13.17 15.94l.02-.04zm58-15.94a9.35 9.35 0 00-8.32 4.54h-.44V0h-6.39v42.09h6v-4.35h.38a9.34 9.34 0 008.69 5.23c7.44 0 11.72-6.11 11.72-15.94s-4.26-15.88-11.7-15.88l.06-.04zm-1.76 26c-4.67 0-7-3.72-7-10.08s2.33-10 7-10 6.93 3.66 6.93 10-2.32 10.08-6.99 10.08h.06zm43.78-10.77c0-9.33-5-15.19-12.66-15.19-8.13 0-13.11 5.92-13.11 15.88 0 10.14 5.17 15.94 13 15.94 6.31 0 11-3.4 12.42-9.07h-6.62c-.94 2.33-2.9 3.59-5.8 3.59-3.9 0-6.55-2.46-6.86-8.95h19.53c.04-.57.04-1.38.04-2.2h.06zm-12.72-9.64c3.53 0 6.05 2 6.55 6.93h-13.36c.76-4.92 3.15-6.93 6.81-6.93zm42.27 20.47c-1 0-1.64-.63-1.64-1.89V22.62c0-6.87-3.84-11.47-11.46-11.47-6.24 0-10.59 3.34-11.22 9.26h6.18c.44-2.45 2.08-4 5-4 3.85 0 5.3 2.34 5.3 5.8v1.29h-1.88c-9.33 0-15.44 3.4-15.44 10.4 0 5.41 3.28 8.75 9 8.75a9.81 9.81 0 008.57-4.34h.25c.44 3 3 4.15 5.42 4.15a8.42 8.42 0 003.4-.69v-4.85a3.66 3.66 0 01-1.48.25zm-14.72.57a4.09 4.09 0 01-4.35-4.29c0-3.65 3.22-5.29 9.27-5.29h1.89v1.64c.04 4.41-2.61 7.94-6.81 7.94zm32 4.79a13.24 13.24 0 005.42-1v-5.1a14 14 0 01-3.65.5c-2.4 0-3.78-1.26-3.78-3.91V17.58h8.12v-5.55h-8.11V1.58h-1.2l-5.17 5v5.41h-5.42v5.55h5.42v16.17c-.03 5.79 3.31 8.82 8.37 8.82zm20.41.44c6.49 0 10.78-3.72 10.78-9.33 0-4.78-2.84-7.56-7.75-8.82l-3.84-1c-2.27-.57-3.47-1.64-3.47-3.66s1.7-3.72 4.35-3.72a4.18 4.18 0 014.47 4h6.17c-.63-5.67-4.66-9.2-10.64-9.2-6.56 0-10.65 4-10.65 9 0 5.17 2.83 7.63 7.12 8.82l3.9 1c2.15.63 4.1 1.52 4.1 4 0 2.26-1.83 3.65-4.54 3.65s-4.53-1.32-5-3.84h-6c.53 5.63 4.49 9.1 10.98 9.1h.02z" fill="#000" fill-rule="nonzero"/></svg>