<?xml version="1.0" encoding="UTF-8"?>
<svg width="124px" height="37px" viewBox="0 0 124 37" version="1.1" xmlns="http://www.w3.org/2000/svg" xmlns:xlink="http://www.w3.org/1999/xlink">
    <!-- Generator: Sketch 61 (89581) - https://sketch.com -->
    <title>SafePal Wallet</title>
    <desc>Created with Sketch.</desc>
    <g id="system" stroke="none" stroke-width="1" fill="none" fill-rule="evenodd">
        <g id="pc/header" transform="translate(-360.000000, -21.000000)" >
            <g id="safePal" transform="translate(360.000000, 21.728395)">
                <path fill="black" d="M31.1244768,20.59496 L31.1244768,23.09688 C31.1244768,30.04776 20.9131308,34.0484 17.7831288,35.10936 L17.7831288,35.10936 L16.6447548,35.498 L16.6447548,31.17384 L17.2009008,30.96648 C22.0706208,29.15624 26.9840808,26.02072 26.9840808,23.09688 L26.9840808,23.09688 L26.9840808,20.59496 L31.1244768,20.59496 Z M15.6595518,0.081312 L19.8325098,1.352192 L19.8325098,5.764032 L15.6595518,4.488832 L15.3865818,4.572352 L15.3865818,14.498912 L19.8325098,14.498912 L19.8325098,18.588832 L15.3865818,18.588832 L15.3865818,35.437472 L14.2273098,35.010912 C13.6891458,34.813312 12.8221218,34.476672 11.7495198,33.996192 L11.7495198,33.996192 L11.2456998,33.768992 L11.2456998,1.426592 L15.6595518,0.081312 Z M9.9358002,1.842032 L9.9358002,6.233872 L4.2816762,7.967472 L4.2816762,14.498832 L9.9358002,14.498832 L9.9358002,33.415472 L8.6835402,32.779312 C4.7866302,30.798352 0.1412802,27.457872 0.1412802,22.793712 L0.1412802,22.793712 L0.1412802,20.594992 L4.2816762,20.594992 L4.2816762,22.793712 C4.2816762,23.758832 4.7901942,24.772752 5.7949182,25.816912 L5.7949182,25.816912 L5.7949182,18.588752 L0.1412802,18.588752 L0.1412802,4.828112 L9.9358002,1.842032 Z M21.0893868,1.737472 L31.1244768,4.804832 L31.1244768,18.588832 L25.2325368,18.588832 L25.2325368,24.557312 C25.2325368,24.557312 23.9153148,26.262912 21.0931128,27.691072 C21.0931128,26.9017305 21.091327,14.766024 21.090228,7.37262743 L21.0893868,1.737472 Z M99.6641658,8.08005739 C103.108934,8.07096 105.90878,10.82152 105.918036,14.2236 C105.927086,17.62568 103.142306,20.39096 99.6976998,20.40008 L95.7285378,20.41032 L95.7473298,27.29048 L92.5073298,27.29912 L92.4553278,8.09912 L99.6641658,8.08005739 Z M84.4622802,14.001328 C88.1753202,14.001328 91.1852802,16.974128 91.1852802,20.641328 C91.1852802,21.221648 91.1097882,21.784688 90.9682002,22.321328 L81.4221882,22.321488 C82.0185102,23.371568 83.1563982,24.081328 84.4622802,24.081328 C85.0854942,24.081328 85.6704762,23.919728 86.1765642,23.636528 L86.1765642,23.647408 L89.7157782,24.785168 C88.4837682,26.306768 86.5882062,27.281328 84.4622802,27.281328 C80.7492402,27.281328 77.7392802,24.308528 77.7392802,20.641328 C77.7392802,16.974128 80.7492402,14.001328 84.4622802,14.001328 Z M77.0912802,8.081328 L77.0912802,11.281328 L76.2812802,11.281328 C75.0455442,11.281328 74.0408202,12.257328 74.0137662,13.471408 L74.0132802,14.001328 L77.0912802,14.001328 L77.0912802,17.201328 L74.0132802,17.201328 L74.0132802,27.281328 L70.7732802,27.281328 L70.7732802,17.201328 L69.3152802,17.201328 L69.3152802,14.001328 L70.7732802,14.001328 L70.7732802,12.881328 C70.7732802,10.230448 72.9492642,8.081328 75.6332802,8.081328 L77.0912802,8.081328 Z M61.293996,14.001248 C61.31052,14.001248 61.32834,14.002688 61.346484,14.002688 C61.439148,14.002688 61.531812,14.005728 61.624476,14.010368 C62.847738,14.067968 63.985302,14.448768 64.951632,15.068128 L68.019264,14.051648 L68.019264,27.281248 L64.810692,27.281248 L64.810692,26.301888 C64.607382,26.425888 64.394838,26.539648 64.176462,26.641728 L64.176462,26.634208 C63.84906,26.791008 63.512586,26.919328 63.166878,27.019808 L63.101268,27.037728 L63.101268,27.037728 C63.01881,27.059648 62.934894,27.080288 62.851302,27.101088 L62.724132,27.130688 L62.724132,27.130688 C62.65674,27.143968 62.589672,27.157248 62.52228,27.168928 C62.469792,27.179328 62.418924,27.188288 62.366598,27.197248 C62.300664,27.207488 62.235054,27.214848 62.167662,27.223808 C62.116956,27.231008 62.065926,27.238368 62.0136,27.242848 C61.932762,27.251648 61.850466,27.257888 61.76979,27.263648 C61.732368,27.264928 61.694946,27.269568 61.658982,27.271168 C61.537806,27.278208 61.415172,27.281248 61.292538,27.281248 C59.792256,27.281248 58.408614,26.795328 57.28968,25.973888 C57.030966,25.778688 56.781324,25.564608 56.540268,25.326688 C56.309904,25.099168 56.10222,24.863008 55.910574,24.617728 C55.128276,23.584928 54.643734,22.320288 54.580878,20.946368 C54.576342,20.854848 54.573264,20.763328 54.573264,20.670208 L54.573264,20.636288 C54.576342,16.973888 57.5829,14.004448 61.29108,14.001248 L61.293996,14.001248 Z M112.323996,14.001248 C112.34052,14.001248 112.35834,14.002688 112.376484,14.002688 C112.469148,14.002688 112.561812,14.005728 112.654476,14.010368 C113.877738,14.067968 115.015302,14.448768 115.981632,15.068128 L119.049264,14.051648 L119.049264,27.281248 L115.840692,27.281248 L115.840692,26.301888 C115.637382,26.425888 115.424838,26.539648 115.206462,26.641728 L115.206462,26.634208 C114.87906,26.791008 114.542586,26.919328 114.196878,27.019808 L114.131268,27.037728 L114.131268,27.037728 C114.04881,27.059648 113.964894,27.080288 113.881302,27.101088 L113.754132,27.130688 L113.754132,27.130688 C113.68674,27.143968 113.619672,27.157248 113.55228,27.168928 C113.499792,27.179328 113.448924,27.188288 113.39676,27.197248 C113.330664,27.207488 113.265054,27.214848 113.197662,27.223808 C113.146956,27.231008 113.095926,27.238368 113.0436,27.242848 C112.962762,27.251648 112.880466,27.257888 112.79979,27.263648 C112.76253,27.264928 112.724946,27.269568 112.688982,27.271168 C112.567806,27.278208 112.445172,27.281248 112.322538,27.281248 C110.822256,27.281248 109.438614,26.795328 108.31968,25.973888 C108.060966,25.778688 107.811324,25.564608 107.57043,25.326688 C107.339904,25.099168 107.132382,24.863008 106.940574,24.617728 C106.158276,23.584928 105.673734,22.320288 105.610716,20.946368 C105.606342,20.854848 105.603264,20.763328 105.603264,20.670208 L105.603264,20.636288 C105.606342,16.973888 108.6129,14.004448 112.32108,14.001248 L112.323996,14.001248 Z M123.58528,8.148512 L123.58528,27.281312 L120.34528,27.281312 L120.34528,9.188192 L123.58528,8.148512 Z M46.0837512,8.081248 C49.1476572,8.081248 51.4921212,9.637568 52.7443812,12.221888 C50.7028572,12.876128 49.5507132,13.243968 49.2876252,13.324928 C48.6242352,12.291648 47.6587152,11.615328 46.0837512,11.615328 C44.5384332,11.615328 43.6325292,12.406688 43.6325292,13.461408 C43.6325292,14.595488 44.3519712,15.202048 47.1761172,16.046048 C50.1334272,16.969088 53.2771992,17.944928 53.2771992,21.716608 C53.2771992,25.171328 50.4797832,27.281248 46.5099732,27.281248 C42.7000572,27.281248 40.1956992,25.461568 39.1831992,22.718528 C40.6523772,22.253888 41.8291452,21.914528 42.7135032,21.700448 C43.4548152,22.950688 44.6837472,23.720768 46.6165692,23.720768 C48.8280312,23.720768 49.6006092,22.797888 49.6006092,21.769248 C49.6006092,20.397888 48.3483492,19.870368 45.5775012,19.079008 C42.7266252,18.261568 39.9559392,17.074688 39.9559392,13.567168 C39.9559392,10.085568 42.8866812,8.081248 46.0837512,8.081248 Z M61.216074,17.041248 C59.247288,17.041248 57.651264,18.617568 57.651264,20.562208 C57.651264,22.504928 59.247288,24.081248 61.216074,24.081248 C63.183726,24.081248 64.779264,22.504928 64.779264,20.562208 C64.779264,18.617568 63.183726,17.041248 61.216074,17.041248 Z M112.246074,17.041248 C110.277288,17.041248 108.681264,18.617568 108.681264,20.562208 C108.681264,22.504928 110.277288,24.081248 112.246074,24.081248 C114.213726,24.081248 115.809264,22.504928 115.809264,20.562208 C115.809264,18.617568 114.213726,17.041248 112.246074,17.041248 Z M84.4622802,17.201328 C83.0911122,17.201328 81.9051102,17.983888 81.3368142,19.121328 L87.5877462,19.121328 C87.0194502,17.983888 85.8334482,17.201328 84.4622802,17.201328 Z M99.6729138,11.28008 L95.7039138,11.29048 L95.7199518,17.21048 L99.6889518,17.20008 C101.344106,17.19576 102.682388,15.8668 102.678024,14.23208 C102.673478,12.61528 101.357552,11.30472 99.7275078,11.2804 L99.6729138,11.28008 Z M25.2325368,7.413472 L25.2325368,14.498912 L26.9840808,14.498912 L26.9840808,7.947552 L25.2325368,7.413472 Z" id="safePal"></path>
            </g>
        </g>
    </g>
</svg>