<?xml version="1.0" encoding="UTF-8"?>
<svg width="162px" height="66px" viewBox="0 0 162 66" version="1.1" xmlns="http://www.w3.org/2000/svg" xmlns:xlink="http://www.w3.org/1999/xlink">
    <title>partners/1inch_logo</title>
    <g id="partners/1inch_logo" stroke="none" stroke-width="1" fill="none" fill-rule="evenodd">
        <rect id="矩形" stroke="#BFC7D2" stroke-width="0.655092094" fill="#FFFFFF" x="0.327546047" y="0.327546047" width="161.344908" height="65.3449079" rx="7.07539872"></rect>
        <g id="1inch" transform="translate(26.640000, 15.000000)" fill-rule="nonzero">
            <path d="M42.48,7.2 L46.8,7.2 L46.8,24.48 L51.12,24.48 L51.12,2.88 L46.8,2.88 C44.424,2.88 42.48,4.824 42.48,7.2 Z" id="路径" fill="#000000"></path>
            <path d="M55.44,24.48 L59.76,24.48 L59.76,15.84 C59.76,13.464 57.816,11.52 55.44,11.52 L55.44,24.48 Z" id="路径" fill="#000000"></path>
            <path d="M64.08,11.52 L64.08,24.48 L68.4,24.48 L68.4,15.84 L72.72,15.84 L72.72,20.16 C72.72,22.536 74.664,24.48 77.04,24.48 L77.04,15.84 C77.04,13.464 75.096,11.52 72.72,11.52 L64.08,11.52 Z" id="路径" fill="#000000"></path>
            <path d="M102.96,11.52 L98.64,11.52 L98.64,7.2 C98.64,4.824 96.696,2.88 94.32,2.88 L94.32,20.16 L85.68,20.16 L85.68,15.84 L90,15.84 L90,11.52 L85.68,11.52 C83.304,11.52 81.36,13.464 81.36,15.84 L81.36,20.16 C81.36,22.536 83.304,24.48 85.68,24.48 L98.64,24.48 L98.64,15.84 L102.96,15.84 L102.96,20.16 C102.96,22.536 104.904,24.48 107.28,24.48 L107.28,15.84 C107.28,13.464 105.336,11.52 102.96,11.52 Z" id="路径" fill="#000000"></path>
            <path d="M55.44,7.2 L59.76,7.2 C59.76,4.824 57.816,2.88 55.44,2.88 L55.44,7.2 Z" id="路径" fill="#000000"></path>
            <polygon id="路径" fill="#2F7AEA" points="48.59028 31.77792 46.8 31.77792 46.8 28.84608 48.547152 28.84608 48.547152 29.32776 47.33064 29.32776 47.33064 30.056544 48.417768 30.056544 48.417768 30.538152 47.33064 30.538152 47.33064 31.29624 48.59028 31.29624"></polygon>
            <polygon id="路径" fill="#2F7AEA" points="56.43828 28.84608 57.059496 28.84608 56.041416 30.282696 57.098376 31.77792 56.47716 31.77792 55.69632 30.676392 54.9198 31.77792 54.298584 31.77792 55.355472 30.282696 54.346032 28.84608 54.967248 28.84608 55.709208 29.905704"></polygon>
            <path d="M64.888704,31.107816 L65.091456,31.493088 C64.99656,31.590864 64.859976,31.670424 64.681632,31.73184 C64.506168,31.793256 64.320696,31.824 64.125144,31.824 C63.664992,31.824 63.289656,31.68576 62.999208,31.409352 C62.711568,31.132944 62.567784,30.767112 62.567784,30.312 C62.567784,29.8764 62.704368,29.514816 62.977608,29.227248 C63.247968,28.942416 63.626112,28.8 64.112184,28.8 C64.4976,28.8 64.803888,28.899144 65.031048,29.09736 L64.793808,29.478528 C64.589616,29.347272 64.362384,29.28168 64.112184,29.28168 C63.824616,29.28168 63.588744,29.375208 63.404712,29.562264 C63.220608,29.749392 63.128592,29.999304 63.128592,30.312 C63.128592,30.619152 63.224928,30.867624 63.417672,31.05756 C63.613224,31.247424 63.864864,31.34232 64.172592,31.34232 C64.437192,31.34232 64.675872,31.264128 64.888704,31.107816 Z" id="路径" fill="#2F7AEA"></path>
            <polygon id="路径" fill="#2F7AEA" points="73.44864 31.77792 72.92232 31.77792 72.92232 30.525624 71.54208 30.525624 71.54208 31.77792 71.01144 31.77792 71.01144 28.84608 71.54208 28.84608 71.54208 30.043944 72.92232 30.043944 72.92232 28.84608 73.44864 28.84608"></polygon>
            <path d="M79.82424,31.77792 L79.28928,31.77792 L80.56584,28.837728 L81.03168,28.837728 L82.30896,31.77792 L81.74376,31.77792 L81.42912,31.028184 L80.13888,31.028184 L79.82424,31.77792 Z M81.22608,30.546576 L80.78616,29.503656 L80.34192,30.546576 L81.22608,30.546576 Z" id="形状" fill="#2F7AEA"></path>
            <polygon id="路径" fill="#2F7AEA" points="90.73368 28.84608 90.73368 31.77792 90.31032 31.77792 88.65 29.746584 88.65 31.77792 88.15392 31.77792 88.15392 28.84608 88.57656 28.84608 90.2376 30.88584 90.2376 28.84608"></polygon>
            <path d="M98.94744,30.680568 L98.21808,30.680568 L98.21808,30.198888 L99.44352,30.198888 L99.44352,31.413528 C99.31392,31.539168 99.14112,31.63968 98.92584,31.715136 C98.70984,31.787712 98.50608,31.824 98.31312,31.824 C97.82424,31.824 97.43904,31.6872 97.1568,31.413528 C96.87816,31.142664 96.73848,30.775536 96.73848,30.312 C96.73848,29.882016 96.87672,29.523168 97.15248,29.2356 C97.42896,28.945224 97.79256,28.8 98.244,28.8 C98.6292,28.8 98.9532,28.899144 99.21456,29.09736 L98.99064,29.507832 C98.91576,29.437992 98.8164,29.38356 98.69256,29.344464 C98.56872,29.302632 98.44128,29.28168 98.3088,29.28168 C98.00712,29.28168 97.76376,29.37384 97.57944,29.558088 C97.39296,29.7396 97.29936,29.99088 97.29936,30.312 C97.29936,30.62196 97.39296,30.871872 97.57944,31.061736 C97.76376,31.248792 98.01144,31.34232 98.32176,31.34232 C98.4312,31.34232 98.54928,31.322808 98.67528,31.283712 C98.802,31.241808 98.89272,31.19436 98.94744,31.141296 L98.94744,30.680568 Z" id="路径" fill="#2F7AEA"></path>
            <polygon id="路径" fill="#2F7AEA" points="107.28 31.77792 105.48936 31.77792 105.48936 28.84608 107.2368 28.84608 107.2368 29.32776 106.02 29.32776 106.02 30.056544 107.1072 30.056544 107.1072 30.538152 106.02 30.538152 106.02 31.29624 107.28 31.29624"></polygon>
            <polygon id="路径" fill="#FFFFFF" points="9.30708 19.838088 10.31508 12.246624 1.55808 6.167088 9.55908 8.876088 11.44908 5.978088 18.347616 1.6940952 33.56208 10.073088 34.349616 22.862088 27.57708 32.280624 22.22208 33.099624 24.99408 28.028088 24.99408 23.145624 22.97808 19.334088 20.930616 17.979624 17.780616 21.224088 17.780616 24.657624 15.323616 26.957088 12.20508 27.335088 10.81908 28.122624 8.55108 27.398088 7.60608 23.996088 9.30708 21.602088"></polygon>
            <path d="M23.293008,6.104088 C21.623544,5.757624 19.796544,5.852088 19.796544,5.852088 C19.796544,5.852088 19.198008,8.624088 15.481008,9.348624 C15.512544,9.348624 20.395008,11.018088 23.293008,6.104088 Z" id="路径" fill="#94A6C3"></path>
            <path d="M24.805008,31.24116 C26.821008,29.66616 28.333008,27.492624 29.026008,25.035624 C29.057472,24.94116 29.341008,24.783624 29.530008,24.657624 C29.845008,24.468624 30.160008,24.31116 30.223008,24.05916 C30.349008,23.334624 30.412008,22.578624 30.412008,21.822624 C30.412008,21.53916 30.128472,21.255624 29.845008,20.97216 C29.624472,20.78316 29.404008,20.562624 29.404008,20.40516 C29.089008,17.538624 27.766008,14.86116 25.655472,12.90816 L25.435008,13.128624 C27.482472,15.05016 28.805472,17.664624 29.089008,20.436624 C29.120472,20.688624 29.372472,20.940624 29.624472,21.192624 C29.845008,21.381624 30.097008,21.66516 30.097008,21.79116 C30.097008,22.515624 30.034008,23.24016 29.908008,23.964624 C29.876472,24.090624 29.593008,24.216624 29.372472,24.342624 C29.057472,24.50016 28.774008,24.657624 28.711008,24.909624 C27.955008,27.58716 26.222472,29.91816 23.923008,31.43016 C24.332472,30.54816 25.624008,27.681624 26.317008,26.232624 L26.191008,21.570624 L22.190472,17.69616 L19.922472,18.01116 L17.434008,22.04316 C17.434008,22.04316 18.599472,23.523624 16.961472,25.25616 C15.355008,26.95716 14.095008,27.33516 14.095008,27.33516 L12.929472,26.70516 C13.276008,26.26416 13.969008,25.602624 14.504472,25.161624 C15.418008,24.405624 16.331472,24.342624 16.331472,23.523624 C16.363008,21.822624 14.536008,22.29516 14.536008,22.29516 L13.874472,22.92516 L13.591008,25.25616 L12.205008,26.988624 L12.047472,26.95716 L9.779472,26.45316 C9.779472,26.45316 11.165472,25.728624 11.386008,24.909624 C11.606472,24.12216 10.945008,21.507624 10.913472,21.35016 C10.945008,21.381624 11.575008,21.91716 11.858472,22.79916 C12.362472,21.41316 13.024008,20.09016 13.213008,19.96416 C13.402008,19.83816 15.953472,18.483624 15.953472,18.483624 L15.103008,20.72016 L15.733008,20.373624 L17.245008,16.656624 C17.245008,16.656624 18.725472,15.93216 19.828008,15.93216 C21.812472,15.900624 24.742008,13.47516 23.419008,9.12816 C23.797008,9.285624 30.349008,12.561624 31.483008,18.987624 C32.333472,23.93316 29.530008,28.563624 24.805008,31.24116 Z" id="路径" fill="#94A6C3"></path>
            <path d="M17.30808,6.797088 C18.032544,5.946552 17.74908,4.6865592 17.74908,4.6865592 L15.638544,7.805088 C15.60708,7.805088 16.394544,7.836552 17.30808,6.797088 Z" id="路径" fill="#1B314F"></path>
            <path d="M10.220544,23.838624 L10.472544,22.578624 C10.472544,22.578624 9.433008,24.405624 9.338544,24.657624 C9.244008,24.94116 9.401544,25.44516 9.811008,25.413624 C10.220544,25.38216 10.724544,24.783624 10.724544,24.342624 C10.724544,23.775624 10.220544,23.838624 10.220544,23.838624 Z" id="路径" fill="#1B314F"></path>
            <path d="M28.931544,3.8045952 C28.931544,3.8045952 30.506544,3.8675952 32.144544,4.0565952 C28.459008,1.1585952 24.962544,0.3080952 22.127544,0.3080952 C18.221544,0.3080952 15.575544,1.9145952 15.418008,2.0090952 L16.646544,0.0560952 C16.646544,0.0560952 11.732544,-0.4164048 10.000008,4.7810952 C9.559008,3.6785952 9.149544,2.0720952 9.149544,2.0720952 C9.149544,2.0720952 6.598008,4.3085952 7.795008,8.025624 C4.8655368,6.954624 0.6760368,5.474088 0.5185368,5.442624 C0.2980368,5.411088 0.2350368,5.505624 0.2350368,5.505624 C0.2350368,5.505624 0.1720368,5.600088 0.3610368,5.757624 C0.7075368,6.041088 7.322544,10.923624 8.771544,11.868624 C8.456544,13.002624 8.456544,13.538088 8.771544,14.073624 C9.212544,14.798088 9.244008,15.176088 9.181008,15.711624 C9.118008,16.247088 8.551008,20.877624 8.425008,21.444624 C8.299008,22.011624 6.976008,24.027624 7.039008,24.626088 C7.102008,25.224624 7.921008,27.776088 8.645544,28.059624 C9.181008,28.248624 10.504008,28.658088 11.386008,28.658088 C11.701008,28.658088 11.984544,28.595088 12.110544,28.469088 C12.646008,27.996624 12.803544,27.902088 13.181544,27.902088 C13.213008,27.902088 13.244544,27.902088 13.276008,27.902088 C13.433544,27.902088 13.622544,27.933624 13.843008,27.933624 C14.347008,27.933624 15.008544,27.839088 15.481008,27.398088 C16.174008,26.705088 17.371008,25.760088 17.749008,25.319088 C18.221544,24.720624 18.473544,23.901624 18.347544,23.082624 C18.253008,22.326624 18.662544,21.665088 19.135008,21.003624 C19.733544,20.216088 20.836008,18.798624 20.836008,18.798624 C23.009544,20.436624 24.364008,22.925088 24.364008,25.697088 C24.364008,30.611088 20.080008,34.580088 14.788008,34.580088 C13.969008,34.580088 13.181544,34.485624 12.394008,34.296624 C14.819544,35.147088 16.867008,35.430624 18.536544,35.430624 C22.096008,35.430624 23.986008,34.139088 23.986008,34.139088 C23.986008,34.139088 23.324544,34.989624 22.253544,35.966088 C22.285008,35.966088 22.285008,35.966088 22.285008,35.966088 C28.175544,35.147088 31.042008,30.296088 31.042008,30.296088 C31.042008,30.296088 30.821544,31.871088 30.538008,32.942088 C38.381544,27.051624 37.058544,19.680624 37.027008,19.428624 C37.090008,19.523088 37.877544,20.468088 38.287008,20.972088 C39.547008,7.994088 28.931544,3.8045952 28.931544,3.8045952 Z M16.867008,24.531624 C16.741008,24.689088 16.205544,25.161624 15.827544,25.508088 C15.449544,25.854624 15.040008,26.201088 14.725008,26.516088 C14.599008,26.642088 14.347008,26.705088 13.969008,26.705088 C13.843008,26.705088 13.717008,26.705088 13.622544,26.705088 C13.559544,26.705088 13.496544,26.705088 13.433544,26.705088 C13.370544,26.705088 13.339008,26.705088 13.307544,26.705088 C13.213008,26.705088 13.118544,26.705088 13.024008,26.705088 C13.496544,26.075088 14.882544,24.626088 15.355008,24.311088 C15.922008,23.933088 16.205544,23.555088 15.859008,22.893624 C15.512544,22.232088 14.599008,22.389624 14.599008,22.389624 C14.599008,22.389624 15.134544,22.169088 15.607008,22.169088 C15.008544,22.011624 14.252544,22.169088 13.906008,22.515624 C13.528008,22.862088 13.591008,24.090624 13.433544,24.878088 C13.276008,25.697088 12.740544,26.106624 11.921544,26.862624 C11.480544,27.272088 11.165544,27.398088 10.913544,27.398088 C10.378008,27.303624 9.748008,27.146088 9.307008,26.988624 C8.992008,26.579088 8.519544,25.224624 8.393544,24.657624 C8.488008,24.342624 8.866008,23.681088 9.055008,23.303088 C9.433008,22.578624 9.653544,22.169088 9.716544,21.791088 C9.842544,21.255624 10.252008,17.948088 10.409544,16.562088 C10.819008,17.097624 11.386008,17.979624 11.260008,18.546624 C12.173544,17.255088 11.512008,15.995088 11.197008,15.491088 C10.913544,14.987088 10.535544,13.979088 10.850544,12.908088 C11.165544,11.837088 12.299544,8.876088 12.299544,8.876088 C12.299544,8.876088 12.677544,9.537624 13.213008,9.411624 C13.748544,9.285624 18.064008,2.7965952 18.064008,2.7965952 C18.064008,2.7965952 19.229544,5.348088 18.001008,7.206624 C16.741008,9.065088 15.512544,9.411624 15.512544,9.411624 C15.512544,9.411624 17.245008,9.726624 18.851544,8.561088 C19.513008,10.104624 20.143008,11.711088 20.174544,11.931624 C20.080008,12.152088 18.820008,15.176088 18.694008,15.365088 C18.631008,15.428088 18.190008,15.554088 17.875008,15.617088 C17.339544,15.774624 17.024544,15.869088 16.898544,15.963624 C16.678008,16.152624 15.670008,18.924624 15.197544,20.279088 C14.630544,20.436624 14.063544,20.751624 13.654008,21.381624 C13.874544,21.224088 14.567544,21.129624 15.071544,21.066624 C15.512544,21.035088 16.867008,21.759624 17.213544,23.114088 C17.213544,23.145624 17.213544,23.145624 17.213544,23.177088 C17.276544,23.681088 17.119008,24.153624 16.867008,24.531624 Z M13.906008,24.909624 C14.189544,24.500088 14.158008,23.807088 14.189544,23.586624 C14.221008,23.366088 14.284008,22.956624 14.536008,22.893624 C14.788008,22.830624 15.386544,22.925088 15.386544,23.366088 C15.386544,23.775624 14.945544,23.870088 14.630544,24.153624 C14.410008,24.374088 13.969008,24.846624 13.906008,24.909624 Z M26.474544,18.893088 C26.789544,17.286624 26.821008,15.900624 26.726544,14.766624 C27.955008,16.404624 28.711008,18.389088 28.931544,20.436624 C28.963008,20.688624 29.215008,20.940624 29.467008,21.192624 C29.687544,21.381624 29.939544,21.633624 29.939544,21.791088 C29.939544,22.515624 29.876544,23.240088 29.750544,23.964624 C29.719008,24.059088 29.435544,24.216624 29.215008,24.342624 C28.900008,24.500088 28.616544,24.657624 28.553544,24.909624 C27.860544,27.335088 26.380008,29.477088 24.395544,30.989088 C27.325008,27.933624 28.742544,22.893624 26.474544,18.893088 Z M24.490008,31.272624 C26.537544,29.697624 28.112544,27.492624 28.805544,25.004088 C28.837008,24.909624 29.120544,24.752088 29.309544,24.626088 C29.624544,24.468624 29.939544,24.279624 30.002544,24.027624 C30.128544,23.303088 30.191544,22.547088 30.191544,21.791088 C30.191544,21.507624 29.908008,21.224088 29.624544,20.940624 C29.467008,20.751624 29.215008,20.531088 29.215008,20.373624 C28.963008,18.074088 28.049544,15.900624 26.632008,14.105088 C26.002008,10.325088 23.482008,9.159624 23.419008,9.128088 C23.482008,9.222624 25.120008,11.585088 23.986008,14.357088 C22.820544,17.160624 19.828008,16.719624 19.576008,16.751088 C19.324008,16.751088 18.347544,18.011088 17.119008,20.342088 C16.961544,20.279088 16.300008,20.121624 15.544008,20.247624 C16.111008,18.672624 16.961544,16.436088 17.119008,16.247088 C17.182008,16.184088 17.654544,16.058088 17.969544,15.963624 C18.568008,15.806088 18.851544,15.711624 18.946008,15.585624 C19.009008,15.491088 19.324008,14.766624 19.639008,14.010624 C19.922544,14.010624 20.647008,13.947624 20.710008,13.916088 C20.773008,13.853088 21.371544,12.309624 21.371544,12.120624 C21.371544,11.963088 20.143008,8.907624 19.670544,7.742088 C19.891008,7.490088 20.111544,7.175088 20.332008,6.828624 C26.789544,7.521624 31.829544,13.002624 31.829544,19.649088 C31.829544,24.752088 28.837008,29.193624 24.490008,31.272624 Z" id="形状" fill="#1B314F"></path>
            <path d="M16.111008,14.262552 C16.709544,13.569552 16.394544,12.278088 15.292008,12.057552 C15.575544,11.396088 15.985008,10.073088 15.985008,10.073088 C15.985008,10.073088 12.772008,15.113088 12.488544,15.207552 C12.205008,15.302088 11.921544,14.199552 11.921544,14.199552 C11.323008,16.499088 12.929544,16.814088 13.118544,16.089552 C14.000544,15.869088 15.512544,14.924088 16.111008,14.262552 Z" id="路径" fill="#1B314F"></path>
            <path d="M13.370616,15.491232 L15.008616,12.687696 C15.008616,12.687696 15.953616,13.160232 15.48108,13.916232 C14.882616,14.798232 13.370616,15.491232 13.370616,15.491232 Z" id="路径" fill="#FFD923"></path>
            <path d="M33.624936,28.469232 C33.1524,29.099232 32.616936,29.760696 31.986936,30.390696 C36.0504,22.578696 32.175936,15.428232 32.0184,15.144696 C32.301936,15.428232 32.5854,15.743232 32.8374,16.026696 C35.955936,19.491696 36.333936,24.689232 33.624936,28.469232 Z" id="路径" fill="#D82122"></path>
            <path d="M37.404936,18.420696 C35.9874,14.609232 33.9714,11.364696 29.529936,8.435232 C25.245936,5.600232 20.646936,5.820696 20.394936,5.852232 C20.3634,5.852232 20.331936,5.852232 20.331936,5.852232 C20.4894,5.789232 20.646936,5.757696 20.8044,5.726232 C21.780936,5.411232 23.040936,5.159232 24.300936,5.0017176 C27.639936,4.5292176 31.0104,5.663232 33.309936,8.088696 C33.3414,8.120232 33.3414,8.120232 33.372936,8.151696 C35.9874,10.923696 37.341936,14.388696 37.404936,18.420696 Z" id="路径" fill="#D82122"></path>
            <path d="M28.521936,2.8282968 C23.8284,1.9462968 20.8044,2.3872968 18.630936,3.2062968 C18.567936,2.9542968 18.3474,2.4502968 18.1584,2.0407968 C17.496936,2.8282968 16.803936,3.7732968 16.362936,4.3717968 C15.165936,5.190768 14.661936,5.978304 14.661936,5.978304 C15.354936,3.6157968 17.370936,1.8517968 19.827936,1.4107968 C20.520936,1.2847968 21.276936,1.2217968 22.095936,1.2217968 C24.2694,1.2532968 26.442936,1.7887968 28.521936,2.8282968 Z" id="路径" fill="#D82122"></path>
            <path d="M11.1654,8.876304 C7.479936,8.750304 8.7084,4.4662968 8.7714,4.2142968 C8.7714,4.2457968 9.0234,7.584768 11.1654,8.876304 Z" id="路径" fill="#D82122"></path>
            <path d="M14.787936,1.1587536 C11.952936,2.8597464 12.519936,6.923232 12.519936,6.923232 C9.810936,2.7967464 14.5674,1.2532536 14.787936,1.1587536 Z" id="路径" fill="#D82122"></path>
            <path d="M10.126008,10.010088 C10.315008,10.167624 10.504008,10.451088 10.283544,10.860624 C10.157544,11.081088 9.968544,11.049624 9.685008,10.923624 C9.307008,10.734624 7.039008,9.411624 4.9915296,8.057088 C7.322544,8.876088 9.685008,9.758088 10.063008,9.947088 C10.063008,9.947088 10.094544,9.978624 10.126008,10.010088 Z" id="路径" fill="#FFFFFF"></path>
        </g>
    </g>
</svg>