<?xml version="1.0" encoding="UTF-8"?>
<svg width="162px" height="66px" viewBox="0 0 162 66" version="1.1" xmlns="http://www.w3.org/2000/svg" xmlns:xlink="http://www.w3.org/1999/xlink">
    <title>partners/aave_logo</title>
    <defs>
        <linearGradient x1="82.1818321%" y1="20.9388017%" x2="34.4180594%" y2="92.8285348%" id="linearGradient-1">
            <stop stop-color="#B67BB3" offset="0%"></stop>
            <stop stop-color="#3AB2C5" offset="100%"></stop>
        </linearGradient>
        <linearGradient x1="83.6909813%" y1="16.853391%" x2="27.4732747%" y2="87.0566521%" id="linearGradient-2">
            <stop stop-color="#A669AA" offset="0%"></stop>
            <stop stop-color="#3AB2C5" offset="100%"></stop>
        </linearGradient>
        <linearGradient x1="65.3441804%" y1="21.6531756%" x2="21.2858963%" y2="64.6452755%" id="linearGradient-3">
            <stop stop-color="#9E60A4" offset="0%"></stop>
            <stop stop-color="#3AB2C5" offset="100%"></stop>
        </linearGradient>
        <linearGradient x1="96.8074594%" y1="64.6452755%" x2="-2.12353188%" y2="64.6452755%" id="linearGradient-4">
            <stop stop-color="#AF57A2" offset="0%"></stop>
            <stop stop-color="#38B3C2" offset="100%"></stop>
        </linearGradient>
    </defs>
    <g id="partners/aave_logo" stroke="none" stroke-width="1" fill="none" fill-rule="evenodd">
        <rect id="矩形" stroke="#BFC7D2" stroke-width="0.655092094" fill="#FFFFFF" x="0.327546047" y="0.327546047" width="161.344908" height="65.3449079" rx="7.07539872"></rect>
        <g id="dapps/A/aave" transform="translate(18.250000, 19.456835)">
            <g id="编组-7">
                <path d="M9.25656722,-7.63798449e-15 C14.3688281,-7.63798449e-15 18.5131344,4.14430631 18.5131344,9.25656722 L18.5131344,21.2068188 L0,21.2068188 L0,9.25656722 C0,4.14430631 4.14430631,-7.63798449e-15 9.25656722,-7.63798449e-15 Z M5.5601528,6.77158273 C4.49652804,6.77158273 3.63428982,7.63382096 3.63428982,8.69744571 C3.63428982,9.76107047 4.49652804,10.6233087 5.5601528,10.6233087 C6.62377755,10.6233087 7.48601577,9.76107047 7.48601577,8.69744571 C7.48601577,7.63382096 6.62377755,6.77158273 5.5601528,6.77158273 Z M12.3938601,6.77158273 C11.3302354,6.77158273 10.4679972,7.63382096 10.4679972,8.69744571 C10.4679972,9.76107047 11.3302354,10.6233087 12.3938601,10.6233087 C13.4574849,10.6233087 14.3197231,9.76107047 14.3197231,8.69744571 C14.3197231,7.63382096 13.4574849,6.77158273 12.3938601,6.77158273 Z" id="形状结合" fill="url(#linearGradient-1)"></path>
                <path d="M9.25656722,1.24249224 C14.3688281,1.24249224 18.5131344,4.43584292 18.5131344,12.4559848 L18.5131344,21.8850934 L0,21.8850934 L0,9.08561434 C0,4.20786081 4.14430631,1.24249224 9.25656722,1.24249224 Z M5.5601528,6.77158273 C4.49652804,6.77158273 3.63428982,7.63382096 3.63428982,8.69744571 C3.63428982,9.76107047 4.49652804,10.6233087 5.5601528,10.6233087 C6.62377755,10.6233087 7.48601577,9.76107047 7.48601577,8.69744571 C7.48601577,7.63382096 6.62377755,6.77158273 5.5601528,6.77158273 Z M12.3938601,6.77158273 C11.3302354,6.77158273 10.4679972,7.63382096 10.4679972,8.69744571 C10.4679972,9.76107047 11.3302354,10.6233087 12.3938601,10.6233087 C13.4574849,10.6233087 14.3197231,9.76107047 14.3197231,8.69744571 C14.3197231,7.63382096 13.4574849,6.77158273 12.3938601,6.77158273 Z" id="形状结合" fill="url(#linearGradient-2)"></path>
                <path d="M9.25656722,2.14329912 C14.3688281,2.14329912 18.5131344,5.2253431 18.5131344,12.9659367 L18.5131344,26.0302125 C18.5131344,26.6134906 18.0402941,27.0863309 17.457016,27.0863309 C16.8737379,27.0863309 16.4008976,26.6134906 16.4008976,26.0302125 L16.4008976,23.0909418 C16.4008976,22.5599914 15.9388647,22.1284156 15.3648479,22.1185645 L15.3447792,22.1183924 C14.7682055,22.1183924 14.2995453,22.5438654 14.2888477,23.0724611 L14.2886608,24.3812249 C14.2886608,24.9301925 13.8436346,25.3752187 13.294667,25.3752187 C12.7456994,25.3752187 12.3006732,24.9301925 12.3006732,24.3812249 L12.3006732,23.0909418 C12.3006732,22.5599914 11.8386403,22.1284156 11.2646235,22.1185645 L11.2445548,22.1183924 C10.6679811,22.1183924 10.1993209,22.5438654 10.1886233,23.0724611 L10.1884364,23.342173 C10.1884364,23.8911406 9.74341023,24.3361668 9.19444261,24.3361668 C8.645475,24.3361668 8.20044882,23.8911406 8.20044882,23.342173 L8.20044882,23.0909418 C8.20044882,22.5599914 7.73841592,22.1284156 7.16439912,22.1185645 L7.14433041,22.1183924 C6.56775666,22.1183924 6.09909648,22.5438654 6.08839886,23.0724611 L6.088212,24.3812249 C6.088212,24.9301925 5.64318582,25.3752187 5.0942182,25.3752187 C4.54525059,25.3752187 4.10022441,24.9301925 4.10022441,24.3812249 L4.10022441,23.0909418 C4.10022441,22.5599914 3.63819151,22.1284156 3.06417471,22.1185645 L3.044106,22.1183924 C2.46753225,22.1183924 1.99887207,22.5438654 1.98817445,23.0724611 L1.98798759,23.0909418 L1.98798759,26.0923371 C1.98798759,26.6413048 1.54296141,27.0863309 0.993993796,27.0863309 C0.445026181,27.0863309 -6.46981361e-16,26.6413048 0,26.0923371 L0,9.71304317 C0,5.00530749 4.14430631,2.14329912 9.25656722,2.14329912 Z M5.5601528,6.77158273 C4.49652804,6.77158273 3.63428982,7.63382096 3.63428982,8.69744571 C3.63428982,9.76107047 4.49652804,10.6233087 5.5601528,10.6233087 C6.62377755,10.6233087 7.48601577,9.76107047 7.48601577,8.69744571 C7.48601577,7.63382096 6.62377755,6.77158273 5.5601528,6.77158273 Z M12.3938601,6.77158273 C11.3302354,6.77158273 10.4679972,7.63382096 10.4679972,8.69744571 C10.4679972,9.76107047 11.3302354,10.6233087 12.3938601,10.6233087 C13.4574849,10.6233087 14.3197231,9.76107047 14.3197231,8.69744571 C14.3197231,7.63382096 13.4574849,6.77158273 12.3938601,6.77158273 Z" id="形状结合" fill="url(#linearGradient-3)"></path>
                <rect id="矩形" fill="#FFFFFF" opacity="0.256347656" x="0.496996898" y="11.3998663" width="1" height="3.23047984" rx="0.5"></rect>
                <rect id="矩形" fill="#FFFFFF" opacity="0.256347656" x="17.3948914" y="14.6303462" width="1" height="5.18740512" rx="0.5"></rect>
                <rect id="矩形" fill="#FFFFFF" opacity="0.256347656" x="17.3948914" y="12.4559848" width="1" height="1.45992839" rx="0.5"></rect>
                <path d="M9.29397605,13.6461287 C10.1376781,13.6461287 10.7621184,12.9650369 10.7621184,12.4875074 C10.7621184,12.2974462 10.6502922,12.1327201 10.4780016,12.1102818 C10.2174112,12.0763437 9.80187698,12.2233372 9.29397605,12.2233372 C8.80793374,12.2233372 8.52052358,12.0849089 8.1434891,12.0849089 C7.76645462,12.0849089 7.78701513,12.5260719 7.83972295,12.7004265 C7.98220691,13.1717556 8.45027398,13.6461287 9.29397605,13.6461287 Z" id="椭圆形" fill="#6B709E"></path>
                <path d="M9.31869184,13.2548963 C10.1764537,13.2548963 10.8112999,12.6187228 10.8112999,12.1726866 C10.8112999,11.9951601 10.6976103,11.8412978 10.5224485,11.8203393 C10.2575155,11.7886395 9.83505665,11.9259386 9.31869184,11.9259386 C8.8245499,11.9259386 8.53235021,11.7966397 8.14903266,11.7966397 C7.76571511,11.7966397 7.78661825,12.2087079 7.84020441,12.3715636 C7.98506278,12.8118084 8.46092994,13.2548963 9.31869184,13.2548963 Z" id="椭圆形" fill="#FFFFFF"></path>
                <path d="M5.83971355,6.46095967 C6.81756211,6.46095967 7.610265,7.43445444 7.610265,8.6353211 C7.610265,9.83618776 6.81756211,10.8096825 5.83971355,10.8096825 C4.86186499,10.8096825 4.0691621,9.83618776 4.0691621,8.6353211 C4.0691621,7.43445444 4.86186499,6.46095967 5.83971355,6.46095967 Z M5.83971355,6.6901492 C4.96493555,6.6901492 4.25578786,7.56103233 4.25578786,8.6353211 C4.25578786,9.70960988 4.96493555,10.580493 5.83971355,10.580493 C6.71449155,10.580493 7.42363924,9.70960988 7.42363924,8.6353211 C7.42363924,7.56103233 6.71449155,6.6901492 5.83971355,6.6901492 Z" id="形状结合" fill="#D8D8D8" style="mix-blend-mode: multiply;"></path>
                <path d="M12.7044832,6.46095967 C13.6823318,6.46095967 14.4750347,7.43445444 14.4750347,8.6353211 C14.4750347,9.83618776 13.6823318,10.8096825 12.7044832,10.8096825 C11.7266346,10.8096825 10.9339318,9.83618776 10.9339318,8.6353211 C10.9339318,7.43445444 11.7266346,6.46095967 12.7044832,6.46095967 Z M12.7044832,6.6901492 C11.8297052,6.6901492 11.1205575,7.56103233 11.1205575,8.6353211 C11.1205575,9.70960988 11.8297052,10.580493 12.7044832,10.580493 C13.5792612,10.580493 14.2884089,9.70960988 14.2884089,8.6353211 C14.2884089,7.56103233 13.5792612,6.6901492 12.7044832,6.6901492 Z" id="形状结合" fill="#D8D8D8" style="mix-blend-mode: multiply;"></path>
                <path d="M5.83971355,6.6901492 C6.71449155,6.6901492 7.42363924,7.56103233 7.42363924,8.6353211 C7.42363924,8.67248203 7.42279071,8.70939958 7.42111614,8.74604612 L7.42363924,8.85803738 C7.42363924,7.76558881 6.73171051,6.87998426 5.87817318,6.87998426 C5.02463584,6.87998426 4.33270711,7.76558881 4.33270711,8.85803738 C4.33270711,9.06815165 4.35830302,9.27061433 4.4057217,9.46059615 C4.309346,9.21042571 4.25578786,8.93055448 4.25578786,8.6353211 C4.25578786,7.56103233 4.96493555,6.6901492 5.83971355,6.6901492 Z" id="形状结合" fill="#B4B4B6" style="mix-blend-mode: multiply;"></path>
                <path d="M12.7044832,6.6901492 C13.5792612,6.6901492 14.2884089,7.56103233 14.2884089,8.6353211 C14.2884089,8.67248203 14.2875604,8.70939958 14.2858858,8.74604612 L14.2884089,8.85803738 C14.2884089,7.76558881 13.5964802,6.87998426 12.7429428,6.87998426 C11.8894055,6.87998426 11.1974768,7.76558881 11.1974768,8.85803738 C11.1974768,9.06815165 11.2230727,9.27061433 11.2704913,9.46059615 C11.1741157,9.21042571 11.1205575,8.93055448 11.1205575,8.6353211 C11.1205575,7.56103233 11.8297052,6.6901492 12.7044832,6.6901492 Z" id="形状结合" fill="#B4B4B6" style="mix-blend-mode: multiply;"></path>
            </g>
            <path d="M68.9983441,8.33563957e-05 C70.021557,0.0239070703 70.9240999,0.659239313 71.2971553,1.60064186 L71.3543584,1.7603239 L80.8054961,24.6705316 C80.8789102,24.8355286 80.917247,25.0104519 80.9238198,25.1874508 L80.9228455,25.3204665 C80.9436688,25.7872848 80.781768,26.2438452 80.4715017,26.5932559 C80.1412846,26.9319491 79.6798651,27.1099253 79.2077393,27.0807071 C78.8569964,27.0757432 78.5164094,26.9622142 78.2328368,26.7557396 C77.9868542,26.5714562 77.7856922,26.3351253 77.6431955,26.0645203 L77.5648481,25.8981865 L68.5831079,3.48445694 L65.2612181,11.7169666 L66.8680017,11.7169666 C67.7530951,11.726321 68.475552,12.4086177 68.549767,13.2756544 L68.5560273,13.414019 L68.5560273,13.4591534 C68.5513934,14.344284 67.8729595,15.0703695 67.006331,15.1492076 L66.8680017,15.1562058 L63.89816,15.1562058 L59.5742871,25.8981865 C59.4321149,26.238511 59.2014775,26.5345995 58.9062984,26.7557396 C58.6227257,26.9622142 58.2821388,27.0757432 57.9313959,27.0807071 C57.4623488,27.1072583 57.004768,26.9294931 56.6766603,26.5932559 C56.3631254,26.2452436 56.1979296,25.7885259 56.2162897,25.3204665 C56.2185905,25.1542454 56.2414688,24.9891652 56.2842494,24.8289657 L56.3336391,24.6705316 L60.2513027,15.1562058 L58.5813309,15.1562058 C57.6962375,15.1468513 56.9737806,14.4645547 56.8995656,13.5975179 L56.8933053,13.4410996 C56.8979392,12.5559689 57.5763731,11.8298835 58.4430016,11.7510453 L58.5813309,11.7440472 L61.6956026,11.7440472 L65.8028305,1.7603239 C66.1168172,0.782936316 66.9861582,0.0967658704 67.9979853,0.00909994548 L68.1678717,8.33563957e-05 L68.9983441,8.33563957e-05 Z M40.7713073,8.33563957e-05 C41.8008607,0.016675906 42.7120011,0.652932865 43.0877749,1.5997062 L43.1453753,1.7603239 L52.5874862,24.6705316 C52.6495418,24.8252163 52.6858453,24.9886252 52.6953186,25.1542897 L52.6960293,25.4755598 C52.6788224,25.8874199 52.5202571,26.2826686 52.2444649,26.5932559 C51.9142478,26.9319491 51.4528283,27.1099253 50.9807025,27.0807071 C50.6299596,27.0757432 50.2893726,26.9622142 50.0058,26.7557396 C49.7598174,26.5714562 49.5586554,26.3351253 49.4161587,26.0645203 L49.3378113,25.8981865 L40.3560711,3.48445694 L37.0612619,11.7169666 L38.6590187,11.7169666 C39.5474628,11.721655 40.2749989,12.4050033 40.3497627,13.2751472 L40.3560711,13.414019 L40.3560711,13.4591534 C40.3513826,14.3475974 39.6680343,15.0751335 38.7978904,15.1498974 L38.6590187,15.1562058 L35.6711232,15.1562058 L31.3472503,25.8981865 C31.2050781,26.238511 30.9744407,26.5345995 30.6792615,26.7557396 C30.3956889,26.9622142 30.055102,27.0757432 29.7043591,27.0807071 C29.235312,27.1072583 28.7777312,26.9294931 28.4496235,26.5932559 C28.1360886,26.2452436 27.9708928,25.7885259 27.9892529,25.3204665 C27.9915537,25.1542454 28.014432,24.9891652 28.0572126,24.8289657 L28.1066023,24.6705316 L32.0242659,15.1562058 L30.3542941,15.1562058 C29.4692007,15.1468513 28.7467438,14.4645547 28.6725288,13.5975179 L28.6662685,13.4410996 C28.6709024,12.5559689 29.3493362,11.8298835 30.2159648,11.7510453 L30.3542941,11.7440472 L33.4685658,11.7440472 L37.5757937,1.7603239 C37.8897804,0.782936316 38.7591214,0.0967658704 39.7709485,0.00909994548 L39.9408349,8.33563957e-05 L40.7713073,8.33563957e-05 Z M80.2638836,8.33563957e-05 C80.6146265,0.00504722291 80.9552134,0.118576212 81.2387861,0.325050841 C81.5339653,0.546190922 81.7646026,0.842279428 81.9067748,1.18260393 L90.888515,23.5963335 L99.8702552,1.18260393 C100.014933,0.841207781 100.248773,0.545010206 100.547271,0.325050841 C100.830843,0.118576212 101.17143,0.00504722291 101.522173,8.33563957e-05 C101.988136,-0.0238233693 102.441892,0.153732954 102.767882,0.487534584 C103.084691,0.834138363 103.253185,1.29101666 103.237279,1.7603239 C103.234212,1.98195205 103.194562,2.20155198 103.11993,2.41025887 L93.6778192,25.3204665 C93.3463889,26.3521534 92.3961841,27.0593669 91.3127781,27.0807071 L90.4732788,27.0807071 C89.3898728,27.0593669 88.439668,26.3521534 88.1082376,25.3204665 L78.6661268,2.41025887 C78.5914952,2.20155198 78.5518452,1.98195205 78.5487774,1.7603239 C78.5304173,1.29226452 78.6956131,0.835546797 79.009148,0.487534584 C79.3372557,0.151297358 79.7948365,-0.0264678455 80.2638836,8.33563957e-05 Z M123.82758,0.180620848 C124.264793,0.169972238 124.68555,0.347479013 124.98302,0.668072075 C125.299802,0.968197118 125.476559,1.38717651 125.470471,1.82351202 C125.48306,2.25585821 125.30478,2.67184398 124.98302,2.96089822 C124.673436,3.26706568 124.253923,3.43617151 123.818553,3.4302957 L110.251161,3.4302957 L110.251161,11.8794503 L122.455495,11.8794503 C122.892708,11.8688017 123.313465,12.0463085 123.610935,12.3669015 C123.924093,12.6695237 124.100156,13.0868592 124.098387,13.5223415 C124.110975,13.9546877 123.932695,14.3706734 123.610935,14.6597277 C123.30356,14.9636589 122.887747,15.1325829 122.455495,15.1291251 L110.251161,15.1291251 L110.251161,23.6143873 L123.818553,23.6143873 C124.258883,23.6011186 124.683452,23.7788451 124.98302,24.1018385 C125.302139,24.4040982 125.479104,24.8268472 125.470471,25.2663053 C125.48306,25.6986515 125.30478,26.1146373 124.98302,26.4036915 C124.671957,26.7065565 124.252626,26.8723388 123.818553,26.8640621 L108.481894,26.8640621 C108.019692,26.8976894 107.567483,26.718136 107.254239,26.3766109 C106.93085,26.0511779 106.754718,25.6075855 106.766787,25.1489559 L106.766787,1.94988827 C106.755203,1.48065211 106.930552,1.02604324 107.254239,0.686125824 C107.572135,0.34952139 108.019151,0.165455758 108.481894,0.180620848 L123.82758,0.180620848 Z" id="形状" fill="url(#linearGradient-4)"></path>
        </g>
    </g>
</svg>