<?xml version="1.0" encoding="UTF-8"?>
<svg width="162px" height="66px" viewBox="0 0 162 66" version="1.1" xmlns="http://www.w3.org/2000/svg" xmlns:xlink="http://www.w3.org/1999/xlink">
    <!-- Generator: Sketch 61 (89581) - https://sketch.com -->
    <title>partners/binance_logo</title>
    <desc>Created with Sketch.</desc>
    <g id="partners/binance_logo" stroke="none" stroke-width="1" fill="none" fill-rule="evenodd">
        <g id="binance_logo">
            <rect id="矩形" stroke="#BFC7D2" stroke-width="0.655092094" fill="#FFFFFF" x="0.327546047" y="0.327546047" width="161.344908" height="65.3449079" rx="7.07539872"></rect>
            <g id="Commonly/binance" transform="translate(17.316726, 20.263345)" fill="#F0B90B">
                <path d="M126.715375,19.7216569 L126.715375,16.9871791 L119.131787,16.9871791 L119.131787,14.0535453 L125.718104,14.0535453 L125.718104,11.3198134 L119.131787,11.3198134 L119.131787,8.48613052 L126.615424,8.48613052 L126.615424,5.75239857 L116.078808,5.75239857 L116.078808,19.7216569 L126.715375,19.7216569 Z M113.603159,17.4667943 L111.647403,15.4908991 C110.550181,16.4889163 109.572303,17.1274087 107.975326,17.1274087 C105.580979,17.1274087 103.92433,15.1313742 103.92433,12.7370278 L103.92433,12.6974949 C103.92433,10.3024026 105.620512,8.34664679 107.975326,8.34664679 C109.372401,8.34664679 110.470369,8.94486044 111.548198,9.92348426 L113.503208,7.66787569 C112.206084,6.39089095 110.629992,5.51296393 107.995465,5.51296393 C103.704289,5.51296393 100.710983,8.76584389 100.710983,12.7370278 L100.710983,12.7765606 C100.710983,16.7880232 103.764707,19.9610916 107.875375,19.9610916 C110.569574,19.9610916 112.166551,19.003353 113.603159,17.4667943 L113.603159,17.4667943 Z M97.7370708,19.7216569 L97.7370708,5.75239857 L94.7034861,5.75239857 L94.7034861,14.353398 L88.1581934,5.75239857 L85.3245105,5.75239857 L85.3245105,19.7216569 L88.3573493,19.7216569 L88.3573493,10.8409441 L95.1226832,19.7216569 L97.7370708,19.7216569 Z M77.4999954,13.8745288 L73.7883855,13.8745288 L75.6441904,9.34391817 L77.4999954,13.8745288 Z M83.0882954,19.7216569 L77.1009376,5.65244767 L74.2672548,5.65244767 L68.2806429,19.7216569 L71.4134326,19.7216569 L72.6904173,16.5881214 L78.5979636,16.5881214 L79.8749483,19.7216569 L83.0882954,19.7216569 Z M66.0638212,19.7216569 L66.0638212,5.75239857 L63.0309825,5.75239857 L63.0309825,14.353398 L56.4849438,5.75239857 L53.651261,5.75239857 L53.651261,19.7216569 L56.6848456,19.7216569 L56.6848456,10.8409441 L63.4501796,19.7216569 L66.0638212,19.7216569 Z M46.4712054,19.7216569 L49.5443229,19.7216569 L49.5443229,5.75239857 L46.4712054,5.75239857 L46.4712054,19.7216569 Z M40.0460029,15.5102925 C40.0460029,16.5485885 39.2277481,17.0274578 37.8709518,17.0274578 L34.2190141,17.0274578 L34.2190141,13.9543403 L37.7710009,13.9543403 C39.3478384,13.9543403 40.0460029,14.5324146 40.0460029,15.4707597 L40.0460029,15.5102925 Z M39.2680268,9.92348426 C39.2680268,10.9602885 38.4094933,11.3996249 37.052697,11.3996249 L34.2190141,11.3996249 L34.2190141,8.4465977 L37.2518529,8.4465977 C38.548977,8.4465977 39.2680268,8.9649998 39.2680268,9.88320554 L39.2680268,9.92348426 Z M43.0989811,15.8899568 L43.0989811,15.850424 C43.0989811,13.9737338 42.1017097,13.0361346 40.4853394,12.4177816 C41.4826108,11.8583548 42.321005,10.9811737 42.321005,9.40433626 L42.321005,9.36405753 C42.321005,7.16886705 40.564405,5.75239857 37.7113287,5.75239857 L31.2249623,5.75239857 L31.2249623,19.7216569 L37.8709518,19.7216569 C41.0238809,19.7216569 43.0989811,18.4446722 43.0989811,15.8899568 L43.0989811,15.8899568 Z M12.7362819,15.613227 L15.6124811,12.7370278 L12.7362819,9.86082847 L9.86008257,12.7370278 L12.7362819,15.613227 Z M12.7362819,19.7216569 L7.80586762,14.7912427 L4.93041423,17.667442 L9.86008257,22.5978562 L12.7362819,25.4733096 L15.6124811,22.5978562 L20.5428954,17.667442 L17.6666961,14.7912427 L12.7362819,19.7216569 Z M22.5971103,9.86082847 L19.720911,12.7370278 L22.5971103,15.613227 L25.4733096,12.7370278 L22.5971103,9.86082847 Z M12.7362819,5.75239857 L17.6666961,10.6828128 L20.5428954,7.80661352 L15.6124811,2.87619929 L12.7362819,0 L9.86008257,2.87619929 L4.93041423,7.80661352 L7.80586762,10.6828128 L12.7362819,5.75239857 Z M5.75165267,12.7370278 L2.87545338,15.613227 L2.41331668e-14,12.7370278 L2.87545338,9.86082847 L5.75165267,12.7370278 Z" id="binance"></path>
            </g>
        </g>
    </g>
</svg>