<?xml version="1.0" encoding="UTF-8"?>
<svg width="162px" height="66px" viewBox="0 0 162 66" version="1.1" xmlns="http://www.w3.org/2000/svg" xmlns:xlink="http://www.w3.org/1999/xlink">
    <!-- Generator: Sketch 61 (89581) - https://sketch.com -->
    <title>partners/coinpayments_logo</title>
    <desc>Created with Sketch.</desc>
    <g id="partners/coinpayments_logo" stroke="none" stroke-width="1" fill="none" fill-rule="evenodd">
        <g id="coinpayments_logo">
            <rect id="矩形" stroke="#BFC7D2" stroke-width="0.655092094" fill="#FFFFFF" x="0.327546047" y="0.327546047" width="161.344908" height="65.3449079" rx="7.07539872"></rect>
            <g id="collection/Coinpayments_horizontal" transform="translate(28.461299, 17.079181)">
                <polygon id="Clip-2" points="0.000462656264 17.2166189 18.5668109 17.2166189 18.5668109 30.7216006 0.000462656264 30.7216006"></polygon>
                <path d="M0.89073254,18.2806512 L5.16064163,18.5182388 L5.16064163,18.5182388 L10.3750499,18.8167882 L10.3750499,18.8167882 L14.4168967,19.0380467 L14.4168967,19.0380467 C15.5468665,19.1007775 16.6769725,19.1628278 17.8065342,19.2329067 C18.2328583,19.2594414 18.5524994,19.5649306 18.5576702,19.99003 C18.5714138,21.0998608 18.5608,22.2098276 18.559031,23.3199305 C18.5588949,23.3396614 18.5456956,23.3593923 18.5352178,23.3886485 L17.9295413,23.3929425 C17.8313604,23.3926401 17.7340513,23.3909618 17.6368482,23.3866074 L15.0612135,23.2582883 L15.0612135,23.2582883 C14.1779483,23.221548 13.4194642,23.7680267 13.1907215,24.5885611 C12.8740741,25.7237019 13.6703872,26.8514946 14.8594138,26.9285132 C15.804049,26.9896111 16.7504532,27.0245825 17.6957688,27.0731614 L18.5485532,27.1277276 L18.5485532,27.1277276 L18.5634207,27.3031842 C18.56523,27.3288621 18.566379,27.3534766 18.566379,27.3781063 L18.5646101,30.9696796 L18.5646101,30.9696796 C18.5642018,31.0984069 18.5529076,31.2344823 18.5099078,31.3538204 C18.4058101,31.6432527 18.1426403,31.797154 17.777278,31.7820496 L16.7664251,31.7337258 L16.7664251,31.7337258 L8.58579482,31.271767 L8.58579482,31.271767 L4.70710242,31.0560875 L0.860659883,30.845715 L0.860659883,30.845715 C0.308193873,30.8138733 0.00324896495,30.4932798 0.00284073883,29.9413581 C0.000255306769,26.3280126 0.000391382141,22.7145311 0.00270466346,19.1011857 C0.00311288958,18.5274919 0.319896355,18.247721 0.89073254,18.2806512 Z M15.1791365,24.19915 C15.6905077,24.2003789 16.1139743,24.6381334 16.0964205,25.1471914 C16.0787307,25.6563854 15.6705046,26.0427034 15.1585891,26.0345389 C14.6542937,26.0266465 14.2479727,25.6109362 14.2549125,25.1103149 C14.2621245,24.612143 14.6820531,24.1980657 15.1791365,24.19915 Z M15.6228102,13.925314 C15.9457171,13.9112982 16.1673838,14.1434428 16.2023552,14.4693433 L16.2082297,14.5670284 L16.2082297,14.5670284 L16.2084786,18.3542952 L16.2084786,18.3542952 L16.1986812,18.5337534 C16.1960201,18.567238 16.1931474,18.6034038 16.1905167,18.6435914 L13.898327,18.5126869 L13.898327,18.5126869 C13.8652607,18.2062452 13.8862163,17.9051104 13.8825423,17.6060167 L13.8815897,16.6681853 L13.8815897,16.6681853 L11.8898545,16.6681853 L11.8898545,15.3328776 L9.3357198,15.3328776 C9.32007113,16.1647064 9.33204576,16.9954465 9.32823565,17.8749017 L10.6429959,17.8923193 L10.6429959,17.8923193 L10.6429959,18.3156498 C10.5378096,18.3156498 10.4333037,18.3206846 10.32907,18.3149694 C8.99280986,18.242033 7.65654971,18.1685523 6.32028956,18.0931666 L2.49163888,17.8707344 L2.49163888,17.8707344 L1.43232613,17.8143481 C0.958919909,17.7914875 0.477621319,17.7030385 0.00598407992,17.9951923 L0.00103433827,17.6571981 C-0.00037744371,17.5535937 0.000462656263,17.4569462 0.00884166273,17.360945 C0.0435408826,16.969184 0.320182114,16.6421949 0.704458964,16.546806 C0.965043301,16.4823063 1.23324786,16.4481514 1.53832884,16.3931769 L1.53832884,17.2279993 L4.42448748,17.2279993 C4.48436064,16.7898367 4.41686726,16.3456866 4.46680692,15.8720083 L5.29305658,15.7283127 L5.29305658,15.7283127 L5.29305658,16.5492554 L8.79264299,16.5492554 L8.79264299,15.1444133 L8.89167562,15.0927953 C8.90526804,15.0865207 8.91814984,15.0818639 8.93143987,15.0795053 C9.60555726,14.9586704 10.2796747,14.8376994 10.9550167,14.7236682 C11.0471851,14.7081556 11.1415912,14.702259 11.2360577,14.6999709 L14.6717794,14.6974057 L14.6717794,14.057035 L15.1570412,13.9778561 C15.3142593,13.9526992 15.4682286,13.9319817 15.6228102,13.925314 Z M14.1615376,11.6166592 L14.1615376,14.1909331 L11.6566622,14.1909331 C11.58046,13.9389215 11.5718872,11.9398382 11.6465926,11.6166592 L14.1615376,11.6166592 Z M6.22292763,10.8148215 L6.22292763,12.1476798 C5.78041052,12.1627841 5.35258955,12.1520342 4.90041109,12.1532589 L4.90041109,10.8148215 L6.22292763,10.8148215 Z M6.60112191,3.51791577 C6.67269756,3.75686412 6.68807407,5.81867815 6.62098892,6.21873975 L3.94778824,6.21873975 L3.94778824,3.51791577 L6.60112191,3.51791577 Z M11.135997,3.42115257 L11.135997,4.65821377 L10.0522927,4.65821377 L10.0522927,5.36961582 L9.22046396,5.36961582 L9.22046396,4.55683762 L9.89512565,4.55683762 L9.89512565,3.43693731 C10.3245795,3.40400707 10.7194703,3.42686773 11.135997,3.42115257 Z" id="形状" fill="#116BB6" fill-rule="evenodd"></path>
                <path d="M38.4888885,23.2905926 C39.6485228,24.12351 40.0947139,25.2770209 39.8235157,26.6611796 C39.555039,28.0309143 38.670413,28.8654645 37.3318396,29.2193966 C37.0814609,29.2855292 36.8176108,29.3006336 36.559884,29.339279 C34.8954101,29.3762915 33.4848527,28.2844227 33.142351,26.6785972 C32.7149383,24.6758399 34.1860491,22.7812625 36.2320784,22.6877787 C37.0515243,22.6502219 37.8193976,22.8098383 38.4888885,23.2905926 Z M29.5051516,20.3127872 C30.027681,20.3653123 30.5425902,20.4559385 31.0225281,20.6706654 C31.2978086,20.7938136 31.5683264,20.9451295 31.8082273,21.1269262 C32.2029819,21.4260198 32.4015159,21.8387364 32.3903577,22.3443925 C32.3838261,22.636002 32.389133,22.9280198 32.389133,23.2446672 L30.9672815,23.2446672 L30.9624029,22.9290328 L30.9695948,22.7801058 C31.0072876,22.4063068 30.8114752,22.1821907 30.5008151,22.0382229 C29.9365105,21.7768221 29.3407726,21.6577562 28.7221739,21.7418508 C27.3245438,21.9319481 26.3623548,22.9805449 26.254311,24.4071591 C26.1977036,25.1553015 26.3386777,25.8590833 26.7304387,26.5042166 C27.4246952,27.6469776 28.6695127,28.1250104 30.0091748,27.7607366 C30.6959472,27.5741773 31.2999858,27.245147 31.7939394,26.649273 C32.0866375,27.0184455 32.349399,27.3835357 32.6419611,27.7728473 L32.2864516,28.131663 C32.2265381,28.1886634 32.1648355,28.2426702 32.0991564,28.2912945 C30.7846683,29.2651859 29.3241714,29.597482 27.7518204,29.1129176 C26.0246157,28.5804546 25.0738571,27.3270644 24.7533996,25.5802649 C24.582489,24.648965 24.6853619,23.7371239 25.0654204,22.8639283 C25.866224,21.0240532 27.7082763,20.131807 29.5051516,20.3127872 Z M48.7167625,22.7973874 C49.2920891,22.9481589 49.678271,23.3306668 49.8902765,23.8846296 C50.035605,24.2649603 50.091532,24.6618922 50.0918041,25.0676689 L50.0927566,27.8652425 L50.8147726,27.8652425 L50.8416248,28.0214772 L50.8470224,28.0851403 L50.8470224,28.0851403 L50.8483832,29.1178163 L50.8483832,29.1178163 L50.767121,29.1604028 L50.738026,29.167756 L50.738026,29.167756 L49.8460772,29.1734812 C49.6974426,29.1728059 49.5488634,29.1703414 49.4004051,29.1646262 C48.9279514,29.1463921 48.6913164,28.911526 48.6343008,28.4407052 C48.6187882,28.3115697 48.6157945,28.180257 48.6156585,28.0500328 C48.6138895,27.1796948 48.6185161,26.3093567 48.6115762,25.4391547 C48.6098072,25.2010228 48.6006902,24.9578561 48.5506144,24.726528 C48.4564503,24.2904064 48.1879736,24.0858851 47.7417824,24.0634327 C46.8262673,24.0174392 46.0783971,24.5941266 45.8560499,25.5344075 C45.8065185,25.7438274 45.7880122,25.9646778 45.7861072,26.1804933 L45.7813786,27.4695523 L45.7825692,29.1095157 C45.5463424,29.1880312 44.7854089,29.2055849 44.3060154,29.1410852 L44.3060154,24.1405874 L43.5797811,24.1405874 L43.5797811,22.8352164 L44.565249,22.8264471 C44.7277129,22.8277171 44.8894612,22.8324495 45.0507559,22.8437891 C45.3620963,22.8655612 45.6007557,23.0248466 45.6971591,23.3259462 L45.7265062,23.4455144 C45.7335821,23.4852484 45.7518162,23.5229413 45.7753572,23.5931562 L45.9553849,23.4335398 C46.7559164,22.7006378 47.6906181,22.5283664 48.7167625,22.7973874 Z M41.9158787,22.8570429 C42.2866841,22.8864351 42.4756928,23.1350448 42.5253603,23.516328 C42.5384235,23.6164795 42.5445923,23.717901 42.5472936,23.8193427 L42.5504832,25.6998615 L42.5502621,27.8631197 L43.2367623,27.8631197 C43.3133727,28.1198939 43.3243948,28.7684292 43.2634331,29.1476712 L42.2084054,29.1560575 C42.0324499,29.1545657 41.8566405,29.1494856 41.6812847,29.1376017 C41.392941,29.1181429 41.1916855,28.9079064 41.1322206,28.6089488 C41.1009233,28.4506932 41.0850025,28.2865863 41.0845942,28.1250648 L41.0822809,24.1475817 L40.3521005,24.1475817 L40.3376765,23.4782269 L40.3371322,22.8467011 L41.1378847,22.8365635 C41.4002211,22.8340461 41.6587643,22.8366316 41.9158787,22.8570429 Z M36.4738844,24.0003385 C35.399025,24.0030833 34.5756329,24.8626714 34.5727511,25.9851571 C34.5697817,27.1257409 35.395487,27.9958068 36.4812324,27.9959429 C37.5722848,27.996079 38.395949,27.1358105 38.3978625,25.9942742 C38.399623,24.8587252 37.5684747,23.9973681 36.4738844,24.0003385 Z M42.3514151,19.9793617 C42.4225825,20.2444365 42.3760448,20.5138658 42.3847536,20.7793488 C42.3929181,21.0372117 42.3863865,21.2954827 42.3863865,21.5789277 L41.0950312,21.5789277 L41.0950312,19.9793617 L42.3514151,19.9793617 Z" id="形状" fill="#116BB6" fill-rule="evenodd"></path>
                <path d="M70.4448968,22.9669782 L70.4448968,23.9480816 L70.3481302,23.9662306 L70.3481302,23.9662306 L70.2541192,23.9789707 C70.0946388,23.988496 69.9923101,24.0709576 69.9331174,24.2149254 L69.8197666,24.4855793 L69.8197666,24.4855793 C69.0774754,26.3191949 68.340083,28.1548517 67.5885387,29.9845212 C67.4700171,30.2727288 67.3214227,30.5617529 67.1283318,30.8036949 C66.3373257,31.7952761 64.89724,31.6960772 64.1865183,30.919495 L64.6381525,30.1297136 L64.6381525,30.1297136 L64.9373822,30.3336906 L64.9373822,30.3336906 C65.4408611,30.6533316 65.9851626,30.5886958 66.3226295,30.1059004 C66.5433438,29.7900695 66.6856786,29.4166786 66.838083,29.0582561 C66.8710133,28.9811014 66.809235,28.8523741 66.7685485,28.7571213 L64.9123444,24.4440763 L64.9123444,24.4440763 L64.8466613,24.282434 C64.7525756,24.0748113 64.6201361,23.9137634 64.301502,23.9789707 L64.301502,23.0399146 C64.5573237,22.9464308 65.1938843,22.9535067 65.409972,23.0543385 C65.6359932,23.159933 65.7342396,23.3678562 65.8210557,23.5808142 L66.2194674,24.5627851 L66.2194674,24.5627851 L66.614103,25.5462868 C66.8873423,26.230882 67.1560912,26.9172462 67.4370868,27.6286482 C67.5040359,27.4174593 67.5592825,27.2174285 67.6304499,27.0231128 C68.0408532,25.9003549 68.4545224,24.7786857 68.8692801,23.6574246 C68.910647,23.5458428 68.9597702,23.4356217 69.0182826,23.3320684 C69.1199309,23.1521767 69.2728797,23.0278038 69.48298,23.011883 C69.7944566,22.9880698 70.1072938,22.9818104 70.4448968,22.9669782 Z M86.3261991,23.0306342 C87.2421224,23.3993985 87.6835509,24.144139 87.839085,25.0816983 C87.8958285,25.4240639 87.9324327,25.7718726 87.8196263,26.1441748 L83.4594992,26.1441748 L83.4775619,26.4026273 C83.481241,26.4417112 83.4862153,26.4793738 83.4939263,26.516477 C83.7478429,27.7358484 84.8888349,28.4147285 86.1286176,28.0783501 C86.3366769,28.0220149 86.5402456,27.9369678 86.7326562,27.8391296 C86.9249307,27.7414275 87.100604,27.6109312 87.3039006,27.4819318 L87.7944523,28.2884505 L87.7944523,28.2884505 L87.6118392,28.431874 L87.6118392,28.431874 C86.4984705,29.2287313 85.2982857,29.4044046 84.0353702,28.8629607 C82.859815,28.3588015 82.1968558,27.1935881 82.2565929,25.8243977 C82.2752352,25.3983457 82.359602,24.9849487 82.5290158,24.5895137 C83.2336141,22.9455871 85.0824702,22.5298768 86.3261991,23.0306342 Z M61.9115967,22.9979217 C62.7113116,23.2401359 63.1075631,23.8243074 63.2161512,24.6245667 C63.248265,24.8609296 63.2581985,25.1016469 63.2601036,25.3404592 L63.2629272,26.4338248 L63.2622808,27.5271904 C63.2626262,27.9373216 63.2728117,28.0099665 63.5616677,28.0293715 L63.7484781,28.0363845 C63.8225031,28.0381535 63.896392,28.0467262 63.9885151,28.05353 L63.9885151,29.015855 L63.5840991,29.0236113 L63.5840991,29.0236113 L62.9312094,29.0233392 L62.9312094,29.0233392 C62.4409979,29.0223413 62.1853,28.7868298 62.1710333,28.3808452 L62.1731335,28.2659436 C62.1765354,28.2173647 62.1666019,28.1679694 62.1584374,28.0582926 L61.9355459,28.3576584 L61.9355459,28.3576584 C61.0940558,29.4668088 59.4732621,29.3212082 58.7102875,28.5906195 C58.037803,27.9465747 57.9255408,26.5773844 58.962299,25.8934695 C59.3976042,25.6060783 59.8833932,25.4485031 60.3924512,25.3777439 C60.8439493,25.3150131 61.3011625,25.2946018 61.7560625,25.2566368 L62.0895832,25.2369059 L62.0895832,25.2369059 C62.1163901,24.8843346 62.0683555,24.5685036 61.9184004,24.2719954 C61.8042332,24.0458381 61.6122308,23.906633 61.3732825,23.8360099 C60.9881892,23.722387 60.5987415,23.7268775 60.2129678,23.8274372 C59.9006748,23.9090007 59.8047458,24.0086406 59.7741006,24.2992604 L59.7660963,24.4034442 C59.7636469,24.4460358 59.7549381,24.4883552 59.7463653,24.5516303 L58.7489329,24.5516303 C58.5261775,23.8292061 58.7535594,23.3175627 59.4448223,23.0645986 C60.2550151,22.7683625 61.0852109,22.7478152 61.9115967,22.9979217 Z M104.183955,23.1239411 C104.624976,23.3148548 104.851133,23.665385 104.819972,24.161788 C104.811943,24.2890184 104.818747,24.4172014 104.818747,24.5634825 L103.815871,24.5634825 C103.803216,24.5289193 103.785118,24.5006156 103.783077,24.4712234 C103.755046,24.0570099 103.638701,23.9058302 103.246396,23.8164287 C102.934239,23.7452612 102.619497,23.753834 102.310061,23.8417387 C102.032331,23.9207985 101.810801,24.0670795 101.7595,24.3762427 C101.70752,24.6888079 101.871626,24.9014937 102.121189,25.0484551 C102.326118,25.16929 102.544111,25.2705301 102.762784,25.3653746 C103.081745,25.5034911 103.413224,25.6142565 103.726742,25.7627147 C103.970861,25.8783788 104.214708,26.0098276 104.426305,26.1755674 C105.26072,26.8295456 105.24684,28.0278253 104.409568,28.6801707 C104.083668,28.9340873 103.707691,29.0746532 103.303275,29.1273144 C102.276042,29.2609404 101.362841,29.0070237 100.592518,28.2958938 C100.552648,28.2591535 100.516044,28.218603 100.480256,28.1777804 C100.466376,28.1619957 100.459708,28.1402236 100.428819,28.0817112 L100.995981,27.3441827 L100.995981,27.3441827 C101.096133,27.4337203 101.181044,27.5141408 101.270718,27.5889823 C101.819373,28.0475563 102.431032,28.3220203 103.161893,28.1794133 C103.335661,28.1455305 103.518275,28.0626606 103.655166,27.9512149 C103.96569,27.6985229 103.966371,27.2708381 103.660065,27.0146081 C103.495958,26.877172 103.300282,26.7703528 103.105014,26.6791823 C102.750673,26.5138508 102.378915,26.3853956 102.028113,26.2135324 C101.736776,26.0710615 101.440812,25.9187932 101.188936,25.7182181 C100.268386,24.9855883 100.406911,23.6445655 101.468163,23.1326499 C102.359457,22.7027878 103.281912,22.7334048 104.183955,23.1239411 Z M98.0995491,21.3412857 L98.0995491,22.9748705 L99.5313341,22.9748705 L99.5313341,23.9042653 L98.1298939,23.9042653 L98.1085553,24.1124002 C98.1060202,24.1418983 98.1044024,24.1698391 98.1043117,24.1977799 L98.1055364,26.7772246 L98.1055364,26.7772246 C98.1389384,27.5439459 98.5283063,27.9710592 99.2504068,28.0355528 L99.4102271,28.0438142 C99.4749989,28.0449028 99.5397708,28.0439503 99.64659,28.0439503 C99.6725804,28.372028 99.659245,28.6912608 99.6550267,29.0065475 C98.4861392,29.2373313 97.1215754,28.7126247 96.981826,27.2552574 C96.9548831,26.9742618 96.9473989,26.6906807 96.9454939,26.4081882 L96.9427213,25.3632655 L96.9427213,25.3632655 L96.9437249,23.9305279 L96.1833357,23.9305279 C96.1287695,23.613064 96.1663263,23.3240399 96.1562567,22.9792249 L96.9703956,22.9792249 L96.9703956,21.3412857 L98.0995491,21.3412857 Z M79.5137352,22.9156777 C80.0841632,23.0668575 80.4616363,23.4250079 80.6581291,23.9781542 C80.7984228,24.3734532 80.8325777,24.7850812 80.8350271,25.1994307 L80.8369322,27.5825187 C80.8376125,27.9300779 80.8582317,28.0072817 81.1035328,28.0284018 L81.4570377,28.0440309 C81.4887785,28.04581 81.522117,28.0476697 81.5578595,28.0493933 L81.5578595,29.0072278 L80.6620904,29.0158359 C80.5143277,29.0146666 80.3672,29.0101761 80.2205107,28.9993355 C79.8773286,28.9738894 79.7070983,28.7612036 79.6845098,28.4075437 L79.6745663,28.1360834 L79.6745663,28.1360834 L79.6756649,27.5917718 C79.6748485,26.85193 79.6801554,26.1119522 79.6719909,25.3721104 C79.6695415,25.1450006 79.6503549,24.9144889 79.6066747,24.6918696 C79.49346,24.11491 79.076389,23.8235726 78.4886795,23.8914742 C78.0190834,23.9457683 77.6523602,24.1802262 77.3614311,24.5431392 C76.9610973,25.0422637 76.8225726,25.6275238 76.8172657,26.250613 L76.8136767,27.4421059 L76.8136767,27.4421059 L76.8150885,29.0119905 L75.6855268,29.0119905 C75.6776344,28.8892505 75.6640269,28.7750833 75.6637547,28.6607799 C75.6618497,27.6052433 75.6670206,26.5497066 75.6589921,25.494306 C75.6568149,25.2129022 75.6398055,24.92728 75.5875525,24.6515913 C75.4863125,24.1173594 75.1210862,23.8366359 74.4778579,23.8956926 C74.0701761,23.9331133 73.7313484,24.1210334 73.4587894,24.423665 C73.0494747,24.8784289 72.8320263,25.4175595 72.8208681,26.0258164 L72.8120333,26.8961344 L72.8120333,26.8961344 L72.8125675,29.0051867 L72.8125675,29.0051867 L71.6491231,29.0051867 L71.648987,24.5249051 C71.648987,24.4378169 71.6530692,24.3504565 71.647218,24.2637765 C71.6325219,24.0476888 71.5850316,23.9946194 71.3734343,23.9796511 C71.2345014,23.9697176 71.0944798,23.977746 70.9336387,23.977746 C70.8802972,23.6378297 70.9066958,23.3290747 70.908737,22.9781363 C71.3994247,22.9879338 71.8643943,22.9307821 72.3255537,23.0229051 C72.6005621,23.0780157 72.743033,23.2638946 72.761131,23.5587699 L72.7727144,23.8286414 C72.7782765,23.9196418 72.7888904,24.012037 72.8146086,24.1068815 C72.8738014,24.0206098 72.9291841,23.9316165 72.9925952,23.8487466 C73.5748617,23.0871327 74.3234123,22.7224507 75.2947183,22.8743108 C75.9346808,22.9741902 76.364679,23.3217267 76.5855293,23.9298475 L76.6776523,24.1772325 L76.6776523,24.1772325 L76.8714237,23.892835 L76.8714237,23.892835 C77.4579085,23.0429082 78.5171192,22.6516915 79.5137352,22.9156777 Z M93.7746111,22.9983163 C94.4140293,23.2352235 94.7097211,23.7501327 94.8249769,24.3849244 C94.8713786,24.6402018 94.8894766,24.9035076 94.8921981,25.1635476 L94.8967907,26.3716418 L94.8967907,26.3716418 L94.8958722,27.579838 C94.8964392,27.9261498 94.9191184,28.0058862 95.1629831,28.0280426 L95.6191128,28.0490259 L95.6191128,28.0490259 L95.6191128,29.0065883 L94.7246238,29.0145714 C94.5768057,29.0134223 94.4295419,29.0091284 94.2827165,28.998832 C93.958585,28.9762435 93.8112154,28.798393 93.754608,28.4701792 C93.7411819,28.3922533 93.7362832,28.3123922 93.7344689,28.2324505 L93.7333803,28.1127092 C93.7313391,27.1984187 93.7374625,26.2841283 93.7279373,25.369974 C93.7253518,25.1217725 93.7031715,24.868128 93.6458838,24.6272746 C93.5427387,24.1934663 93.2637842,23.9719356 92.8162323,23.9180498 C91.9359607,23.8121831 91.1249515,24.2925292 90.7817694,25.1254465 C90.6475991,25.4509388 90.5829633,25.7894943 90.5847322,26.1432903 L90.5854126,29.0098541 L89.4219682,29.0098541 L89.4219682,24.5355598 C89.4219682,24.4484716 89.4255062,24.3612472 89.4203353,24.2744312 C89.4068638,24.0397011 89.3612786,23.9913944 89.1262764,23.978059 C88.9884321,23.9701666 88.8496352,23.9765622 88.6962782,23.9765622 L88.6962782,22.9818512 C89.1764882,22.9848449 89.650847,22.9279653 90.1201709,23.0289333 C90.3663313,23.0818666 90.5141091,23.2593089 90.5309825,23.5164913 C90.5433653,23.7078133 90.5332958,23.900496 90.5332958,24.1701974 L90.7255703,23.9126067 C91.4791557,22.8212823 92.8068431,22.6397577 93.7746111,22.9983163 Z M55.1378327,20.5982869 C56.8172749,20.605635 57.9336373,21.8915473 57.6995876,23.6470557 C57.5127562,25.0480877 56.5247129,25.8846791 55.1089847,25.8995113 L53.7059115,25.9014163 L53.7059115,25.9014163 C53.5997728,25.9018246 53.493634,25.9106695 53.352932,25.9172011 L53.352932,29.0040709 L52.1585985,29.0040709 L52.1585985,21.6230706 L51.4176681,21.6230706 L51.3918944,21.5051285 C51.3891074,21.490004 51.387414,21.4762452 51.3873233,21.4625016 L51.3862347,20.6242773 L51.3862347,20.6242773 L51.5635359,20.6024549 C51.5914968,20.5996779 51.6189689,20.5978787 51.6464108,20.5978787 C52.8102635,20.5963819 53.97398,20.5932522 55.1378327,20.5982869 Z M61.9603116,26.1064275 L61.325486,26.1282336 C61.1140589,26.1368744 60.9034823,26.1510602 60.6957632,26.1833101 C60.3919069,26.2305282 60.0858734,26.3410214 59.8119537,26.4830841 C59.4758475,26.6572606 59.3326962,26.9778542 59.3728384,27.358457 C59.4128446,27.737699 59.6238975,27.9985555 59.9770131,28.1374885 C60.2343316,28.2387286 60.4995425,28.2645829 60.7744148,28.2023964 C61.5995758,28.0158371 62.2168137,27.0468444 62.0778808,26.1320097 C62.0415486,26.123573 62.0004539,26.1043864 61.9603116,26.1064275 Z M84.981094,23.781226 C84.1698126,23.9099533 83.5653658,24.5320899 83.5397837,25.2820012 L86.6597198,25.2820012 L86.6738313,25.183392 C86.6754138,25.1688924 86.6761849,25.1549976 86.6755045,25.1411632 C86.6318243,24.2264646 85.8955205,23.6360335 84.981094,23.781226 Z M53.4251881,21.6403521 C53.4087229,21.6403521 53.3922578,21.6643014 53.3662674,21.6845766 L53.3662674,24.8513227 C54.0088153,24.8513227 54.6193855,24.8892877 55.2230159,24.8407088 C55.8310006,24.7918578 56.2348723,24.4200998 56.4153083,23.8333428 C56.5292034,23.4628096 56.5326052,23.0837036 56.434631,22.7066388 C56.2777361,22.1024641 55.8375322,21.6907 55.2159399,21.6513742 C54.6211545,21.6138174 54.0221507,21.64008 53.4251881,21.6403521 Z" id="形状" fill="#05ABE8" fill-rule="evenodd"></path>
                <path d="M11.3909342,15.8324103 L11.3909342,17.1421358 L13.3705587,17.1421358 L13.3828055,17.8146203 L13.3833498,18.4804371 L11.1695395,18.3638205 L11.1695395,17.411565 L9.89029498,17.411565 C9.80429534,17.1590091 9.78619732,16.3225538 9.8515135,15.8324103 L11.3909342,15.8324103 Z M3.94369237,14.8358487 L3.94369237,16.728385 L2.0433998,16.728385 L2.0433998,14.8519056 C2.67873571,14.8127159 3.30060016,14.8357127 3.94369237,14.8358487 Z M9.37191585,12.3166854 L9.37191585,13.6786638 L8.29923369,13.6786638 L8.29501536,16.0708688 L5.81966827,16.0708688 L5.81966827,13.5864047 L7.97864012,13.5864047 L7.97864012,12.3166854 L9.37191585,12.3166854 Z M11.5414335,6.8983818 L11.5414335,10.5031545 L7.95448674,10.5031545 L7.95448674,6.8983818 L11.5414335,6.8983818 Z M15.3233627,4.55848413 L15.3233627,6.45455837 L13.4637567,6.45455837 C13.3925893,6.22336631 13.3753077,5.00140947 13.4383106,4.55848413 L15.3233627,4.55848413 Z M8.73607646,-1.9608198e-13 C8.79867113,0.215951615 8.76206685,0.432311456 8.76832632,0.644316886 C8.77485794,0.860540652 8.76982315,1.07717264 8.76982315,1.33054499 L7.41954724,1.33054499 C7.40553147,0.888980404 7.40730045,0.453811365 7.41886686,-1.9608198e-13 L8.73607646,-1.9608198e-13 Z" id="形状" fill="#05ABE8" fill-rule="evenodd"></path>
            </g>
        </g>
    </g>
</svg>