<?xml version="1.0" encoding="UTF-8"?>
<svg width="162px" height="66px" viewBox="0 0 162 66" version="1.1" xmlns="http://www.w3.org/2000/svg" xmlns:xlink="http://www.w3.org/1999/xlink">
    <!-- Generator: Sketch 61 (89581) - https://sketch.com -->
    <title>partners/compound_logo</title>
    <desc>Created with Sketch.</desc>
    <g id="partners/compound_logo" stroke="none" stroke-width="1" fill="none" fill-rule="evenodd">
        <g id="coinpayments_logo">
            <rect id="矩形" stroke="#BFC7D2" stroke-width="0.655092094" fill="#FFFFFF" x="0.327546047" y="0.327546047" width="161.344908" height="65.3449079" rx="7.07539872"></rect>
            <g id="compound-logo" transform="translate(16.337617, 18.956676)">
                <path d="M126.072716,14.4395375 C126.072716,12.7637121 125.085625,11.5020403 123.527508,11.5020403 C121.969391,11.5020403 120.981238,12.7637121 120.981238,14.4395375 C120.981238,16.1152567 121.969391,17.3769345 123.527508,17.3769345 C125.08881,17.3801126 126.072716,16.1184408 126.072716,14.4395375 Z M125.996296,10.3774998 L125.996296,5.9873129 C125.996296,5.6973948 126.19053,5.44570789 126.470737,5.37242967 L128.799422,4.7511781 L128.799422,19.6070106 L126.216004,19.6070106 L126.216004,18.3454449 C125.566434,19.2915661 124.399969,19.845929 122.94056,19.845929 C119.943201,19.845929 118.187665,17.4406118 118.187665,14.4427216 C118.187665,11.4447254 119.943201,9.03940811 122.94056,9.03940811 C124.396785,9.03622395 125.464541,9.66700677 125.996296,10.3774998 Z M110.102012,9.2719582 L110.102012,10.53363 C110.576453,9.64471763 111.641025,9.03303978 113.178976,9.03303978 C115.664746,9.03303978 116.986174,10.689654 116.986174,13.1555765 L116.986174,19.6070106 L114.186233,19.6070106 L114.186233,13.4742052 C114.186233,12.2698483 113.673583,11.4415412 112.430698,11.4415412 C111.069998,11.4415412 110.32172,12.3081644 110.32172,13.6908344 L110.32172,19.6070106 L107.521778,19.6070106 L107.521778,9.2719582 L110.102012,9.2719582 Z M100.974289,19.845929 C97.9572937,19.845929 96.2782842,18.5429692 96.2782842,15.1913185 L96.2782842,9.2719582 L99.07865,9.2719582 L99.07865,15.2296346 C99.07865,16.6696196 99.728644,17.3386124 100.971105,17.3386124 C102.213565,17.3386124 102.863559,16.6664354 102.863559,15.2296346 L102.863559,9.2719582 L105.663943,9.2719582 L105.663943,15.1881344 C105.670293,18.5429692 103.991284,19.845929 100.974289,19.845929 Z M87.0328526,14.4395375 C87.0328526,16.293676 88.1766042,17.3769285 89.6547991,17.3769285 C91.1331002,17.3769285 92.2768518,16.2904918 92.2768518,14.4395375 C92.2768518,12.588477 91.1331002,11.5020403 89.6547991,11.5020403 C88.1797883,11.5020403 87.0328526,12.5852928 87.0328526,14.4395375 Z M89.6579833,19.845929 C86.3446487,19.845929 84.2323806,17.3801126 84.2323806,14.4427216 C84.2323806,11.5053306 86.3414645,9.03940811 89.6579833,9.03940811 C92.9713179,9.03940811 95.0835859,11.5053306 95.0835859,14.4427216 C95.0804018,17.3801126 92.9713179,19.845929 89.6579833,19.845929 Z M75.6974421,14.4395375 C75.6974421,16.1152567 76.6850635,17.3769285 78.2429687,17.3769285 C79.8008738,17.3769285 80.7884953,16.1152567 80.7884953,14.4395375 C80.7884953,12.7637121 79.8008738,11.5020403 78.2429687,11.5020403 C76.6850635,11.5020403 75.6974421,12.7637121 75.6974421,14.4395375 Z M75.7770462,18.5046531 L75.7770462,22.802425 C75.7770462,23.0923962 75.582706,23.3440513 75.3023935,23.417287 L72.9766803,24.029071 L72.9766803,9.2719582 L75.5604169,9.2719582 L75.5604169,10.53363 C76.2103047,9.58740268 77.3763455,9.03303978 78.8355415,9.03303978 C81.8334317,9.03303978 83.5888611,11.438357 83.5888611,14.4363533 C83.5888611,17.4342434 81.8334317,19.8395607 78.8355415,19.8395607 C77.3731613,19.845929 76.3091199,19.2151462 75.7770462,18.5046531 Z M64.6582649,13.7290444 L64.6582649,19.6070106 L61.8578991,19.6070106 L61.8578991,13.4742052 C61.8578991,12.3304536 61.4437456,11.4415412 60.2011787,11.4415412 C58.898219,11.4415412 58.1877259,12.2890594 58.1877259,13.6717295 L58.1877259,19.6101948 L55.3873601,19.6101948 L55.3873601,9.2719582 L57.9710966,9.2719582 L57.9710966,10.53363 C58.4457493,9.64471763 59.4716868,9.03303978 60.9498818,9.03303978 C62.3516568,9.03303978 63.3553052,9.58421852 63.947878,10.4921297 C64.8557892,9.48540331 65.9008318,9.03303978 67.3790267,9.03303978 C69.8640542,9.03303978 71.1256198,10.7502593 71.1256198,13.1555765 L71.1256198,19.6070106 L68.325254,19.6070106 L68.325254,13.4742052 C68.325254,12.3304536 67.9111004,11.4415412 66.6685336,11.4415412 C65.3464689,11.4415412 64.6582649,12.2890594 64.6582649,13.7290444 Z M46.0431133,14.4395375 C46.0431133,16.293676 47.1868649,17.3769285 48.6650598,17.3769285 C50.1433609,17.3769285 51.2871125,16.2904918 51.2871125,14.4395375 C51.2871125,12.588477 50.1433609,11.5020403 48.6650598,11.5020403 C47.1868649,11.5020403 46.0431133,12.5852928 46.0431133,14.4395375 Z M48.6650598,19.845929 C45.3517252,19.845929 43.2395633,17.3801126 43.2395633,14.4427216 C43.2395633,11.5053306 45.348541,9.03940811 48.6650598,9.03940811 C51.9815786,9.03940811 54.0906625,11.5053306 54.0906625,14.4427216 C54.0906625,17.3801126 51.9783944,19.845929 48.6650598,19.845929 Z M28.7086322,12.5852928 C28.7086322,8.20787437 31.7257335,5.30553039 35.749455,5.30553039 C39.2412089,5.30553039 42.0033648,7.37636186 42.5354385,10.7884692 L39.4578382,10.7884692 C39.0436846,9.03303978 37.6228046,8.04539711 35.749455,8.04539711 C33.1848234,8.04539711 31.7448384,9.81995277 31.7448384,12.5821086 C31.7448384,15.3442645 33.1848234,17.1187989 35.749455,17.1187989 C37.6228046,17.1187989 39.0436846,16.1311775 39.4578382,14.3757481 L42.5354385,14.3757481 C42.0033648,17.7878979 39.2412089,19.8586761 35.749455,19.8586761 C31.7257335,19.865034 28.7086322,16.9658529 28.7086322,12.5852928 Z" id="形状" fill="#000000"></path>
                <path d="M1.15010931,22.3959636 C0.436467117,21.9594148 0,21.1821604 0,20.3473788 L0,15.6864 C0,15.5079807 0.0477884595,15.3360359 0.136993336,15.1830899 C0.414166295,14.7051469 1.02904423,14.5427546 1.5069267,14.8230671 L12.0267986,20.9558725 C12.6416606,21.3158953 13.0207883,21.9722576 13.0207883,22.6858287 L13.0207883,27.5156743 C13.0207883,27.7354877 12.9601831,27.9553012 12.8455532,28.143273 C12.4982671,28.7103725 11.7591165,28.8887918 11.192017,28.5415057 L1.15010931,22.3959636 Z M16.8310648,13.5454745 C17.4459268,13.9054973 17.8250545,14.5618595 17.8250545,15.2754306 L17.8250545,25.0752251 C17.8250545,25.3651963 17.6689244,25.6327722 17.4172693,25.7729815 L15.1138453,27.0696791 C15.0851878,27.0855999 15.0533462,27.0983366 15.0215045,27.1078891 L15.0215045,21.6663656 C15.0215045,20.9622409 14.6519293,20.3091689 14.0466198,19.9459619 L4.80751404,14.418466 L4.80751404,8.27605505 C4.80751404,8.09763574 4.85530834,7.92560599 4.94450738,7.77268122 C5.22167821,7.29479132 5.83656145,7.13231406 6.31444074,7.41266906 L16.8310648,13.5454745 Z M21.4347286,6.30716988 C22.0527748,6.66398727 22.4319026,7.32665419 22.4319026,8.04029957 L22.4319026,22.3545695 C22.4319026,22.6476187 22.2694041,22.9183788 22.0113807,23.0585881 L19.8289549,24.2373655 L19.8289549,14.2718884 C19.8289549,13.5678698 19.4594858,12.9178758 18.8573604,12.5546689 L9.41431963,6.89019025 L9.41431963,1.06318554 C9.41431963,0.884775788 9.46210331,0.712737546 9.5481288,0.559813838 C9.82529964,0.0819301983 10.4401723,-0.0805501395 10.9180728,0.19662282 L21.4347286,6.30716988 Z" id="形状" fill="#00D395"></path>
            </g>
        </g>
    </g>
</svg>