<?xml version="1.0" encoding="UTF-8"?>
<svg width="162px" height="66px" viewBox="0 0 162 66" version="1.1" xmlns="http://www.w3.org/2000/svg" xmlns:xlink="http://www.w3.org/1999/xlink">
    <!-- Generator: Sketch 61 (89581) - https://sketch.com -->
    <title>partners/dash_logo</title>
    <desc>Created with Sketch.</desc>
    <g id="partners/dash_logo" stroke="none" stroke-width="1" fill="none" fill-rule="evenodd">
        <g id="dash_logo">
            <rect id="矩形" stroke="#BFC7D2" stroke-width="0.655092094" fill="#FFFFFF" x="0.327546047" y="0.327546047" width="161.344908" height="65.3449079" rx="7.07539872"></rect>
            <g id="collection/DASH" transform="translate(32.600712, 20.263345)" fill="#3583F6" fill-rule="nonzero">
                <path d="M20.5443277,0 C30.5817782,0 32.3559355,5.4743454 30.9338483,13.171565 C29.9742846,18.3421636 27.5857304,22.3046784 23.5748922,24.1547724 C21.7662182,24.9900761 20.0541909,25.4595029 16.0364494,25.4595029 L4.63904175,25.4595029 L5.58479877,20.1646443 L15.6015392,20.1715476 C21.6281515,20.1784509 23.2366288,17.56899 24.0167057,15.2770824 C24.3066458,14.4210688 24.9900761,11.7701878 25.0107861,10.2031305 C25.0591095,7.1449527 23.5541822,5.301762 18.4802303,5.301762 L8.17354975,5.28795533 L9.11930677,0 L20.5443277,0 Z M55.8617944,25.4733096 L56.6694847,20.8756879 L66.4238984,20.8756879 C67.1901687,20.8756879 67.7286289,20.4131644 67.8390823,19.6468941 C67.9909556,18.8806238 67.6112722,18.4181003 66.8450019,18.4181003 L62.1783468,18.4181003 C58.4988687,18.4181003 56.7385181,16.2711628 57.3874316,12.5916847 C58.0363452,8.9122067 60.5698695,6.76526922 64.2493476,6.76526922 L74.8459682,6.76526922 L74.0037612,11.362891 L64.6635477,11.362891 C63.8972774,11.362891 63.3588172,11.8254145 63.2483639,12.5916847 C63.0964905,13.357955 63.4761739,13.8204785 64.2424442,13.8204785 L68.9090993,13.8204785 C72.5885774,13.8204785 74.348928,15.967416 73.7000145,19.6468941 C73.0511009,23.3263721 70.5589966,25.4733096 66.8795186,25.4733096 L55.8617944,25.4733096 Z M41.0058155,25.4664063 C34.9515899,25.4664063 32.2247722,22.1666117 33.3016926,16.1123861 C34.337193,10.0581605 38.2444811,6.75836588 44.30561,6.75836588 L55.0402974,6.75836588 L51.7405028,25.4664063 L41.0058155,25.4664063 Z M47.9781848,11.362891 L45.2168504,11.362891 C41.9170558,11.362891 39.9703151,12.8194948 39.3973382,16.1123861 C38.7829413,19.4121807 40.0117351,20.8687845 43.3046263,20.8687845 L46.3282875,20.8687845 L47.9781848,11.362891 Z M88.1486966,25.4664063 L90.067824,14.5798455 C90.4129908,12.432908 89.5431704,11.5147643 87.396233,11.5147643 L84.3449585,11.5147643 L81.8873709,25.4664063 L75.6743685,25.4664063 L80.1684402,9.59232693e-14 L86.3814426,9.59232693e-14 L85.1871655,6.76526922 L89.8400139,6.76526922 C95.2798426,6.76526922 97.24039,9.14001678 96.2808263,14.5867488 L94.3616989,25.4733096 L88.1486966,25.4664063 Z M4.19032491,10.0719671 L15.884576,10.0719671 C15.884576,10.0719671 15.7672193,10.6932674 15.3944391,12.2396146 C15.1114024,13.4200851 14.6833955,15.3668258 11.6942511,15.3668258 L0,15.3668258 C0,15.3668258 0.117356711,14.7455256 0.490136852,13.1991783 C0.773173625,12.0187079 1.20118045,10.0719671 4.19032491,10.0719671 Z" id="形状"></path>
            </g>
        </g>
    </g>
</svg>