<?xml version="1.0" encoding="UTF-8"?>
<svg width="162px" height="66px" viewBox="0 0 162 66" version="1.1" xmlns="http://www.w3.org/2000/svg" xmlns:xlink="http://www.w3.org/1999/xlink">
    <!-- Generator: Sketch 61 (89581) - https://sketch.com -->
    <title>partners/digibyte_logo</title>
    <desc>Created with Sketch.</desc>
    <defs>
        <polygon id="path-1" points="3.23851919e-05 0.00828781712 42.36218 0.00828781712 42.36218 42.3773054 3.23851919e-05 42.3773054"></polygon>
    </defs>
    <g id="partners/digibyte_logo" stroke="none" stroke-width="1" fill="none" fill-rule="evenodd">
        <g id="digibyte_logo">
            <rect id="矩形" stroke="#BFC7D2" stroke-width="0.655092094" fill="#FFFFFF" x="0.327546047" y="0.327546047" width="161.344908" height="65.3449079" rx="7.07539872"></rect>
            <g id="collection/digibyte" transform="translate(25.807829, 11.772242)">
                <g id="编组" transform="translate(0.000000, 0.000000)">
                    <path d="M75.0157068,12.6202266 C75.1173498,12.6214776 75.219071,12.620383 75.3207141,12.620383 C76.4790538,12.6923932 77.2108055,11.9298358 77.460691,10.9358451 C77.5813335,10.455699 77.3088519,10.0272345 76.83715,9.97844581 C76.5417597,9.94779652 76.2401927,9.95936819 75.9423004,9.97242541 C74.9277464,10.0166792 74.4032684,10.6990168 74.1591687,11.5220908 C73.9649523,12.1771411 74.3283653,12.6118606 75.0157068,12.6202266 M61.1421355,12.6201484 C61.2437003,12.6218685 61.3453434,12.620383 61.4469082,12.620383 C62.5552083,12.6964589 63.2932931,12.0122449 63.5800047,11.0639153 C63.7428681,10.5252854 63.5975968,10.1400582 63.1236274,10.01449 C61.9545761,9.7046351 60.6551871,10.1101908 60.3014693,11.5804183 C60.1565889,12.182536 60.5101503,12.6088895 61.1421355,12.6201484 M59.9882524,13.3110865 C59.8850456,13.3135103 59.7337539,13.4491647 59.6917675,13.5569063 C58.8131807,15.8152583 57.9470256,18.0785361 57.0787595,20.3409538 C56.9750054,20.6114024 56.8734405,20.882633 56.7653862,21.167859 L59.5059171,21.167859 C60.5135905,18.5600895 61.5192311,15.9576367 62.5461386,13.2998276 C61.6616096,13.2998276 60.8246182,13.2910707 59.9882524,13.3110865 M74.0326622,13.2893506 C73.7125648,13.2760588 73.582149,13.3959976 73.4781603,13.6691828 C72.7237344,15.6520821 71.9581277,17.6308376 71.1968214,19.6111567 C71.0001812,20.122734 70.8061212,20.6353276 70.5990821,21.1784142 C71.4840021,21.1784142 72.3201333,21.1867802 73.1556391,21.1673117 C73.2560312,21.1649661 73.401928,21.0305627 73.4438362,20.9246976 C73.9290645,19.6977879 74.3974825,18.4642323 74.871921,17.2330223 C75.3703628,15.9394974 75.8704466,14.6465979 76.3905462,13.2995931 C75.5677849,13.2995931 74.7991289,13.3211727 74.0326622,13.2893506 M101.836021,14.7892891 C101.840556,14.7694296 101.866358,14.7555123 101.876757,14.7358874 C102.123671,14.269815 102.369725,13.8033516 102.635014,13.3010004 L100.369781,13.3010004 C100.645078,12.5795694 100.911304,11.8819854 101.1866,11.1604762 C100.404105,11.2435889 99.6720409,11.3295946 98.9382563,11.3959753 C98.5118247,11.4345215 98.1912582,11.5461724 98.1057216,12.0460998 C98.0542746,12.3467286 97.8693625,12.6221031 97.7849206,12.9203081 C97.6966475,13.2322741 97.5256526,13.3611262 97.2093082,13.2996712 C96.6856902,13.1982628 96.3683293,13.3825494 96.1721583,13.9066366 C95.9924065,14.386939 95.6982671,14.824395 95.4314151,15.3240879 L96.823612,15.3240879 C96.6905378,15.6715507 96.5604347,15.984924 96.4498001,16.3049432 C96.0869345,17.3536648 95.7006128,18.3956623 95.3822355,19.4579885 C95.1239058,20.3198433 95.6011589,21.0992108 96.4779475,21.2313468 C97.1154057,21.3272822 97.7765546,21.3367428 98.4208933,21.2931145 C98.8914223,21.2612142 99.4173078,21.2505808 99.6522596,20.6479157 C99.8417066,20.1621402 100.129435,19.7145981 100.396678,19.2059137 C100.128575,19.2345302 99.9303706,19.2640848 99.7311502,19.2744055 C99.5280987,19.2849608 99.3239526,19.2772202 99.1202756,19.2766729 C98.4975947,19.2751092 98.2465364,18.9321812 98.4310576,18.3335037 C98.4539663,18.2589915 98.4840683,18.1865904 98.5118247,18.113642 C98.8355969,17.2607005 99.1531141,16.4051789 99.4918982,15.5582578 C99.5318517,15.458413 99.6841599,15.3487167 99.7915887,15.3408199 C100.140224,15.31494 100.494646,15.3088414 100.842343,15.3422272 C101.314749,15.387732 101.709202,15.3435564 101.836021,14.7892891 M107.524982,15.7574781 C107.517789,15.8352742 107.508563,15.9133047 107.493004,15.9898498 C107.400978,16.4427868 107.339366,16.4919664 106.873528,16.4919664 C106.26625,16.4920446 105.658972,16.4919664 105.047707,16.4919664 C105.210101,15.6454362 106.168751,14.948165 106.980254,15.0673219 C107.364777,15.1238511 107.560948,15.3714691 107.524982,15.7574781 M108.677614,13.2691001 C107.937575,13.1110843 107.124821,13.1453302 106.366955,13.2515081 C105.050912,13.4360293 103.992026,14.1419011 103.216646,15.2192391 C102.378951,16.3831301 101.827499,17.6839265 101.604822,19.1031761 C101.510138,19.706623 101.645245,20.2779351 102.116321,20.7353288 C102.650417,21.2538646 103.338462,21.3600425 104.010635,21.3638737 C104.904781,21.3689558 105.802054,21.2641853 106.693073,21.1633241 C107.036783,21.1244652 107.400274,21.0766148 107.590503,20.6577673 C107.812945,20.167926 108.119907,19.7165527 108.418737,19.1989551 C107.779872,19.2636157 107.203399,19.3228814 106.626614,19.3800361 C105.962416,19.4459477 105.300485,19.4590831 104.6685,19.2001279 C104.338551,19.0649427 104.26357,18.7820623 104.370764,18.2471853 C104.436754,17.9177055 104.69438,18.0629769 104.863655,18.0611004 C106.028875,18.0478868 107.194408,18.0539854 108.359784,18.0542199 C108.824215,18.0542981 109.197323,17.8867435 109.366598,17.4316954 C109.613825,16.7671845 109.927198,16.1091631 110.047137,15.4196323 C110.235333,14.3371339 109.935017,13.5375941 108.677614,13.2691001 M92.9334201,13.3086627 C92.828415,13.3103829 92.6879912,13.4099148 92.6270836,13.5045992 C91.9148004,14.6125084 91.2162782,15.7293308 90.5104064,16.8413057 C90.2409741,17.2657827 89.9620813,17.6843174 89.6874887,18.1054324 C89.6723204,18.0955026 89.657074,18.0855729 89.6419057,18.0756431 C89.7856133,16.4951721 89.9293209,14.9146228 90.0743577,13.3196089 L87.0074745,13.3196089 C86.9973102,13.3705868 86.9854257,13.4025653 86.9853476,13.4344655 C86.9842529,15.9351971 86.9840184,18.4359286 86.983862,20.936582 C86.983862,21.0350193 87.0231119,21.158242 86.9784671,21.2279066 C86.6280332,21.7745116 86.2872162,22.3733454 85.5656288,22.45638 C85.0199621,22.5190859 84.4613163,22.4688117 83.8491906,22.4688117 C83.5074355,23.0794518 83.1289324,23.755769 82.7313518,24.4661756 C83.740589,24.7597676 84.7093253,24.8734515 85.7085546,24.6786096 C86.9990303,24.4269258 87.9243729,23.6069792 88.7106209,22.6521601 C89.7906173,21.3404958 90.7839043,19.9573686 91.8097954,18.6014504 C92.8244275,17.2605441 93.8344465,15.9161195 94.8441529,14.5714602 C95.1491602,14.1652008 95.4463488,13.7529992 95.779347,13.2997494 C94.7852781,13.2997494 93.8592318,13.2933381 92.9334201,13.3086627 M67.1400131,18.1322505 C66.8483757,18.8007489 66.3184246,19.1451625 65.5600893,19.0742469 C65.2280293,19.0431285 64.9904192,18.7976215 65.0654786,18.488783 C65.3002741,17.5226268 65.5761176,16.5669477 66.230777,15.7832798 C66.6731588,15.2537196 67.6669932,14.9835837 68.2443256,15.3854646 C67.879818,16.2991574 67.5350918,17.2266892 67.1400131,18.1322505 M71.018086,13.689355 C70.0715547,13.1787942 69.0534042,13.1421245 68.0148469,13.1561982 C67.1278941,13.1683172 66.2898863,13.3640973 65.5052021,13.7598015 C64.3613269,14.3366648 63.543335,15.2491848 63.0207334,16.4023641 C62.5427766,17.4567152 62.0535608,18.5213088 62.1241636,19.7289063 C62.1503562,20.1773866 62.3089976,20.5558115 62.7126768,20.7967055 C63.4040059,21.2092981 64.1503003,21.2728641 64.9073846,21.0681706 C65.3680621,20.9436188 65.8044235,20.7293865 66.2739362,20.54682 C66.1700257,20.7806772 66.0851147,21.0211803 65.9618921,21.2401037 C65.4952723,22.0693546 64.7911206,22.545044 63.8315321,22.6029805 C63.0284739,22.6514564 62.2435551,22.5326123 61.4688006,22.3219766 C61.3877207,22.2999279 61.2320505,22.3498112 61.1905332,22.4161919 C60.8189888,23.0093181 60.4653492,23.6136251 60.0874716,24.2462357 C60.2612812,24.3166822 60.4094455,24.3907252 60.5658194,24.437872 C61.6879586,24.776656 62.8293317,24.8474152 63.9936919,24.7156702 C65.1569574,24.5840816 66.1595487,24.1059683 67.0352426,23.3577974 C68.0099993,22.5249499 68.653087,21.4632493 69.1064932,20.26996 C69.840825,18.3371785 70.5986912,16.4134667 71.3457675,14.4855328 C71.5483499,13.9626966 71.5296632,13.9652768 71.018086,13.689355 M54.7427678,13.9939714 C54.616105,15.2002397 54.0975691,16.2794542 53.5451001,17.3327889 C53.224299,17.9444454 52.7467331,18.4794006 52.0679921,18.6793246 C51.5417939,18.8343693 50.9665725,18.8251433 50.4123052,18.8808124 C50.2567914,18.8963716 50.0983846,18.8832362 49.9008843,18.8832362 C50.1785262,18.1647763 50.4420944,17.4825169 50.7058972,16.8003357 C51.1944093,15.5370691 51.6883163,14.2758354 52.1659604,13.0084248 C52.2387525,12.8153031 52.3308567,12.7354742 52.531328,12.7549427 C53.043218,12.8045133 53.5632395,12.8077971 54.0660598,12.903107 C54.6128211,13.0066265 54.8046919,13.4033471 54.7427678,13.9939714 M57.3406858,11.46822 C56.7514689,10.7908083 55.9531019,10.5558565 55.1181434,10.5285692 C53.6149992,10.479546 52.1091185,10.5144174 50.6044106,10.51215 C50.4455347,10.5119154 50.3614837,10.5436593 50.2916627,10.7274768 C49.5814906,12.5972396 48.8508336,14.459262 48.1265096,16.3235517 C47.5029687,17.9284953 46.8802096,19.5336735 46.2416567,21.1785706 C47.7106332,21.1785706 49.1246443,21.1831054 50.538499,21.1753649 C50.8854927,21.1734884 51.2373339,21.1609785 51.5784636,21.1031984 C53.6933425,20.7451021 55.2479338,19.587857 56.2444265,17.707539 C57.0076093,16.267648 57.6435038,14.7671622 57.8220047,13.1270344 C57.8864307,12.5357065 57.7594551,11.9495389 57.3406858,11.46822 M81.6835684,14.6118047 C81.260577,14.5879577 80.8351618,14.6078172 80.380661,14.6078172 C80.6518915,13.9060111 80.9074847,13.244784 81.1860648,12.5241348 C81.8203956,12.5553314 82.4829518,12.5503275 83.1341709,12.633753 C83.539023,12.6855909 83.6403533,12.9533812 83.5175216,13.3473653 C83.2146253,14.3190727 82.6942911,14.6687248 81.6835684,14.6118047 M82.0709847,17.6374834 C81.7261021,18.7251422 81.3086619,19.0862877 80.113418,19.1375783 C79.6425761,19.1578288 79.1700924,19.1408622 78.6381083,19.1408622 C78.7831451,18.7557915 78.9084006,18.4177892 79.0374873,18.081429 C79.1922193,17.6779061 79.3443711,17.2732104 79.5121603,16.8750825 C79.5434351,16.800883 79.6437489,16.703853 79.7109897,16.7047074 C80.3282757,16.7131573 80.9492365,16.7049476 81.5608931,16.7744559 C82.0406482,16.8289522 82.2200091,17.1672671 82.0709847,17.6374834 M84.6320766,17.9231786 C84.96054,17.0295799 84.9096403,16.1338701 84.1818761,15.5848413 C85.3795439,14.979127 86.0350633,13.9855272 86.3542225,12.756741 C86.5308468,12.0767491 86.4291256,11.4295175 85.8317772,10.9676672 C85.4117569,10.6428785 84.9033072,10.5231743 84.3821129,10.5190304 C82.8662243,10.507146 81.3498665,10.5306021 79.8342906,10.5035494 C79.4603224,10.4969035 79.3148946,10.6331052 79.1917502,10.9564082 C78.2668767,13.3855987 77.3250366,15.8083778 76.3889042,18.2333462 C76.0129814,19.2070084 75.6382313,20.1811396 75.2538642,21.1785706 C76.7960237,21.1785706 78.3106614,21.1816199 79.8252991,21.1755995 C80.0817523,21.1745831 80.338831,21.1417445 80.5942677,21.1117989 C82.5938209,20.8777072 83.9387929,19.809517 84.6320766,17.9231786" id="Fill-1" fill="#002352"></path>
                    <g transform="translate(0.000000, 0.069899)">
                        <mask id="mask-2" fill="white">
                            <use xlink:href="#path-1"></use>
                        </mask>
                        <g id="Clip-4"></g>
                        <path d="M42.36218,21.2109791 C42.4112466,32.6879639 32.9403826,42.7577399 20.4493912,42.3662578 C9.41471005,42.0203587 0.0196092881,33.0890629 3.23851919e-05,21.2196578 C-0.019406002,9.43453826 9.38750099,-0.0131041335 21.2581571,0.00828272995 C32.8888574,0.0293513825 42.3460386,9.39849408 42.36218,21.2109791" id="Fill-3" fill="#0066CC" mask="url(#mask-2)"></path>
                    </g>
                    <path d="M38.4118275,21.1655837 C38.3316859,16.5991529 36.7403468,12.5654097 33.4864403,9.23620924 C30.1796795,5.85290336 26.1088757,4.10894336 21.3984245,4.04733204 C16.755605,3.98650259 12.6772953,5.5859731 9.30845398,8.80274076 C5.79809431,12.1547719 3.97070882,16.3224493 3.96412426,21.1604234 C3.95100571,30.9136986 11.6142654,38.1313709 20.4651068,38.4664802 C25.3529642,38.6515487 29.6231447,37.0416011 33.1402285,33.6448471 C36.6288522,30.2757712 38.3431793,26.0994933 38.4118275,21.1655837" id="Fill-5" fill="#002352"></path>
                    <path d="M17.34214,26.7728237 C18.853963,26.7762639 20.2566369,26.4746187 21.5663466,25.8040873 C24.040651,24.5374587 25.6437181,22.5406421 26.4381757,19.8881496 C26.6431037,19.204092 26.7678119,18.494389 26.5315309,17.801418 C26.2097916,16.8580924 25.4503617,16.4046081 24.5225172,16.2117209 C24.1997614,16.1446365 23.8600391,16.140258 23.5279791,16.1399453 C19.3573306,16.1354104 15.1866039,16.1369742 11.0159554,16.1369742 L10.6032065,16.1369742 C10.9487928,15.5249267 11.2720959,14.950018 11.5977445,14.3764385 C11.8434861,13.9435174 12.0923552,13.5123163 12.3398169,13.0803334 C12.5308276,12.7469442 12.8072967,12.5685216 13.20261,12.5691471 C15.422494,12.5726655 17.642378,12.5667233 19.8622619,12.5760275 C20.1442041,12.5771221 20.2936976,12.5216094 20.3803287,12.2140219 C20.5078516,11.7612413 20.709574,11.3279292 20.9014448,10.8960244 C20.9419456,10.8048585 21.0748634,10.6986024 21.1677495,10.6961004 C21.8175613,10.6788211 22.4680768,10.6824959 23.1182795,10.6889072 C23.4176573,10.6918783 23.5029593,10.824327 23.3995179,11.1218284 C23.2343089,11.5970487 23.0582319,12.068516 22.8842659,12.5481148 C23.8864663,12.6405318 23.8816969,12.6388898 24.1967903,11.7367688 C24.3160254,11.3954045 24.3746656,10.9430148 24.6222837,10.7622466 C24.8602848,10.588437 25.3068105,10.695084 25.6618574,10.6883599 C26.020501,10.6815576 26.3794573,10.6824959 26.7381009,10.6882817 C27.0428736,10.6932075 27.1360725,10.8232324 27.0403716,11.1105694 C26.9571807,11.3605331 26.8617926,11.6065875 26.7696884,11.8536583 C26.6779751,12.0993217 26.5837598,12.344125 26.5118278,12.5334156 C27.4293517,12.7898688 28.362904,12.9954223 29.255799,13.3147379 C30.3032696,13.6892534 31.1635607,14.3492295 31.7111821,15.349006 C32.1989905,16.2393991 32.2960205,17.1944527 32.1473089,18.1883653 C31.77639,20.6677518 30.5771585,22.7659769 29.0519656,24.679368 C27.7757981,26.2804023 26.1135435,27.4263103 24.2736481,28.3217854 C22.9694115,28.9565071 21.6028599,29.4071767 20.2036262,29.7605036 C19.9276262,29.8301682 19.8015107,29.9297783 19.717147,30.1910791 C19.575394,30.6301771 19.4075266,31.0641929 19.2067425,31.479131 C19.1314485,31.6348012 18.9385613,31.8307377 18.7911789,31.8377746 C18.0341728,31.8739751 17.2745865,31.8545066 16.4665244,31.8545066 C16.6612099,31.3387854 16.8397889,30.8658326 17.0382274,30.3402598 C16.6894354,30.3680944 16.3779385,30.3827154 16.070742,30.4267346 C16.011789,30.435257 15.9547125,30.5535539 15.9221086,30.6317408 C15.8035772,30.9162631 15.7138967,31.21439 15.5761313,31.4885916 C15.5104543,31.6193984 15.3641665,31.7976647 15.2490753,31.801574 C14.461029,31.8290958 13.6716535,31.8160386 12.8461556,31.8160386 C13.001904,31.4056353 13.1547595,31.0030507 13.3191867,30.5698167 C12.439818,30.5217318 11.5932097,30.4755233 10.6942943,30.4264219 C11.0072767,29.6551076 11.2919554,28.9533797 11.5767122,28.2517299 C12.3293399,26.3974481 13.0807165,24.542619 13.8352206,22.6891191 C14.4530539,21.1710412 15.0775331,19.655778 15.6912225,18.1361364 C15.7690185,17.9434837 15.8733981,17.8792922 16.0829392,17.8810905 C17.3385434,17.8918022 18.5942259,17.8856254 19.8499084,17.8867982 C20.3912749,17.8872673 20.6156714,18.1751517 20.4285701,18.6776592 C19.8991662,20.0992544 19.3530303,21.5145947 18.8119766,22.9318896 C18.3266702,24.2031313 17.8394091,25.4736693 17.34214,26.7728237" id="Fill-7" fill="#FFFFFF"></path>
                    <path d="M41.7103787,26.531398 C40.9814417,29.3759176 39.663757,32.0245788 37.8766378,34.3135019 L106.634089,34.3135019 L109.940928,26.531398 L41.7103787,26.531398 Z" id="Fill-9" fill="#002352"></path>
                    <path d="M102.262164,27.8753067 C101.915014,27.8753067 101.633384,27.8841418 101.352615,27.8721792 C101.173019,27.8644387 101.112033,27.9413746 101.050109,28.1053327 C100.663397,29.1301291 100.256199,30.147185 99.8601822,31.1683848 C99.6052145,31.8259371 99.3576746,32.4863823 99.0969993,33.1713 C99.3307783,33.1713 99.5367227,33.1480785 99.7353958,33.1762258 C100.117339,33.2303311 100.276997,33.0623074 100.401392,32.7086678 C100.739551,31.7477501 101.126264,30.8038772 101.49429,29.8534366 C101.741751,29.214571 101.990073,28.5760963 102.262164,27.8753067 M69.6825981,27.8753067 C69.3440486,27.8753067 69.0843115,27.8871911 68.8262946,27.8713973 C68.6283252,27.8592783 68.5388793,27.9246426 68.4670255,28.1189372 C68.1287888,29.0332554 67.7674087,29.9388949 67.4159583,30.8482874 C67.1204116,31.6132686 66.8272105,32.3791098 66.5227505,33.1709872 C67.5729577,33.1709872 68.5895445,33.1751311 69.6058967,33.164185 C69.6987046,33.1631685 69.8276349,33.0879527 69.8756417,33.0084366 C70.0114524,32.7834145 70.1138773,32.5383766 70.2360835,32.2874747 L67.9823446,32.2874747 C68.5548295,30.8019225 69.1098005,29.361797 69.6825981,27.8753067 M89.9442781,28.0441905 C89.87649,28.0062698 89.8247302,27.9598268 89.7656209,27.9468477 C89.2728867,27.8388715 88.7865639,27.772569 88.2720155,27.8641259 C87.6495692,27.974995 87.097882,28.1826596 86.6348589,28.6240249 C85.7128783,29.5028463 85.3444614,30.6594659 85.0590008,31.8386815 C84.8887097,32.5422859 85.2002065,33.0219629 85.8571333,33.1548807 C86.2913836,33.2426847 86.7508883,33.2384626 87.1969449,33.2212615 C87.4265018,33.2124263 87.7087567,33.1447946 87.8642706,32.996083 C88.0625527,32.8064797 88.1566898,32.5080401 88.3018829,32.2454101 C87.9363589,32.2839562 87.5935091,32.346584 87.2497993,32.3513534 C86.3022516,32.3646452 86.0873157,32.0616707 86.3949813,31.1647882 C86.5458821,30.724752 86.6963138,30.2819011 86.8891229,29.8595352 C87.2143024,29.1470957 87.726427,28.6882164 88.5751463,28.7568646 C88.8845321,28.7818844 89.1948561,28.7947852 89.4880572,28.8121427 C89.6429456,28.5513893 89.789077,28.3054913 89.9442781,28.0441905 M81.0351093,28.1853179 C81.0518413,28.1367638 81.0855398,28.0940738 81.1173619,28.0380919 C81.0537959,28.0006403 81.010324,27.9583412 80.9602843,27.9479423 C80.4557439,27.8427027 79.9591786,27.7824987 79.4320421,27.8623276 C78.56878,27.9931344 77.8861297,28.4051015 77.384404,29.0820441 C76.781348,29.8956576 76.4635181,30.8521967 76.2284099,31.8267971 C76.0686739,32.4890406 76.3867385,33.0271232 77.0205219,33.1518314 C77.4553978,33.2374462 77.9133387,33.2431538 78.3583789,33.2241544 C78.5960672,33.2139901 78.8798077,33.1329102 79.0494734,32.9801329 C79.2437679,32.8052287 79.3346212,32.5153114 79.4841146,32.2513523 C79.149709,32.2881002 78.838134,32.3652707 78.5318757,32.3479132 C77.6693954,32.2992027 77.1632131,32.2859891 77.5737728,31.1274148 C77.703094,30.7624381 77.8421886,30.4006671 77.9854271,30.0408507 C78.3482928,29.129269 78.9803561,28.5854006 79.9996794,28.7731275 C80.5706787,28.8782889 80.861847,28.6861054 81.0351093,28.1853179 M97.4478801,30.9874602 L96.2079914,30.9874602 C96.6692944,30.3218546 97.1060467,29.6915896 97.5428772,29.0614028 C97.5633622,29.0665631 97.5838472,29.0718016 97.6043322,29.076962 C97.5531197,29.7023012 97.5019073,30.3277187 97.4478801,30.9874602 M97.8361565,27.8706154 C97.5550744,27.8455174 97.3956512,27.9604523 97.2332569,28.1889927 C96.2086169,29.6306038 95.163961,31.0579066 94.1277493,32.4913862 C93.9753629,32.7022565 93.8330626,32.9204762 93.6705901,33.1580082 C94.7442534,33.2095334 94.7442534,33.2095334 95.2874182,32.3866939 C95.3665434,32.2669115 95.4365207,32.1397013 95.5272175,32.0296141 C95.5792901,31.9663608 95.6636538,31.8904413 95.7350385,31.8887994 C96.2622531,31.8769932 96.7897805,31.8823881 97.3326325,31.8823881 C97.3047979,32.331963 97.2796217,32.7390825 97.2535073,33.1602756 L98.3815105,33.1602756 C98.4622776,31.4013819 98.542732,29.6493686 98.6242028,27.8752285 C98.3302198,27.8752285 98.081429,27.8926642 97.8361565,27.8706154 M83.2053445,30.3069209 C83.8388152,29.7762661 84.4892525,29.266018 85.1318711,28.7463093 C85.4620546,28.4793009 85.7862177,28.2047083 86.1832511,27.8753067 C85.7536137,27.8753067 85.4370348,27.8685044 85.1210813,27.8796069 C85.0290552,27.8828126 84.9212354,27.915182 84.8506326,27.9715548 C84.3442157,28.3762505 83.8473376,28.7926742 83.3438136,29.2010447 C83.0228562,29.461329 82.6958002,29.7142638 82.3714807,29.9704043 C82.3572506,29.9564088 82.3430206,29.9424133 82.3287906,29.9284961 C82.5844619,29.2613268 82.8400551,28.5940793 83.1154295,27.8753848 C82.7928302,27.8753848 82.5237889,27.8569327 82.2596733,27.8849237 C82.162096,27.8953225 82.0300382,27.9960273 81.9920394,28.0879752 C81.6784315,28.8463104 81.3807738,29.6113698 81.083116,30.3762728 C80.7258798,31.294344 80.3733349,32.2143699 80.0097655,33.1569918 L81.075141,33.1569918 C81.3652928,32.4146066 81.6515352,31.6822294 81.9683487,30.8716653 C82.2696031,31.6135031 82.5333277,32.2709772 82.805731,32.9247765 C82.8434171,33.015317 82.9201967,33.1549589 82.9848573,33.158321 C83.3938533,33.1798224 83.8044912,33.1692671 84.2579755,33.1692671 C83.875954,32.2870837 83.514183,31.4651043 83.1690658,30.6362444 C83.1305978,30.5438274 83.142404,30.3596189 83.2053445,30.3069209 M94.9776414,27.8756194 C94.6334625,27.8756194 94.3297843,27.8598256 94.0296246,27.8855492 C93.9429153,27.8929769 93.8288405,28.0042369 93.7915454,28.0945429 C93.5794241,28.6076057 93.3941993,29.131771 93.1815307,29.6445992 C93.137746,29.7500734 93.0192928,29.8958139 92.9300815,29.8994887 C92.3691683,29.9227884 91.8067695,29.9112949 91.2105158,29.9112949 C91.474475,29.2176985 91.7239695,28.5620227 91.9853485,27.8752285 C91.6793248,27.8752285 91.4176331,27.8970426 91.161258,27.8690517 C90.9138745,27.841999 90.8282598,27.9667072 90.7524966,28.1643638 C90.308082,29.3239545 89.8541285,30.4798705 89.4076028,31.6385229 C89.2153411,32.1374339 89.0330873,32.6400978 88.8350398,33.1713 C89.1455202,33.1713 89.4061173,33.1572263 89.6642906,33.1756003 C89.8808685,33.1910031 89.9875937,33.1083595 90.0597602,32.907419 C90.2811857,32.2911494 90.5134009,31.6783983 90.7578134,31.0708075 C90.7931539,30.9829253 90.9168456,30.8749491 91.0026949,30.8721344 C91.5557112,30.8543078 92.1095876,30.8629865 92.7002119,30.8629865 C92.4055252,31.6328153 92.1209247,32.3763732 91.8166211,33.1713 C92.1151389,33.1713 92.3646334,33.1548807 92.6109224,33.1759912 C92.8517382,33.1965544 92.9694095,33.110236 93.0538514,32.8808355 C93.3565913,32.0578396 93.6826309,31.2434443 93.9981935,30.4251396 C94.3205583,29.5891647 94.6408902,28.7524079 94.9776414,27.8756194 M74.9828135,29.4019069 C74.705328,30.1695465 74.4124397,30.9343712 74.0695899,31.6744108 C73.8451152,32.1589353 73.4102393,32.3934962 72.8569102,32.356201 C72.2578418,32.3563574 72.0504118,32.1329772 72.2181228,31.5500153 C72.4842712,30.62522 72.7118734,29.6699318 73.4580897,28.9727387 C73.7591877,28.6914221 74.3885145,28.5968159 74.7432487,28.7679671 C75.0241744,28.9033869 75.0648316,29.1749302 74.9828135,29.4019069 M75.3634276,27.8723356 C75.1207353,27.84325 74.8785121,27.8099424 74.6361326,27.7785112 C73.5475356,27.7542733 72.7004581,28.2058811 72.1009206,29.0832169 C71.5504844,29.8886989 71.242506,30.8123996 71.0048959,31.7504867 C70.810914,32.5160151 71.1574386,33.0995244 71.8658906,33.2230598 C72.1992016,33.281309 72.5507301,33.248236 72.8934235,33.237368 C73.8000013,33.2086734 74.4925031,32.7748139 74.9985291,32.0488481 C75.6040089,31.180191 75.9406037,30.1978501 76.1718807,29.1694571 C76.323798,28.4935309 75.907687,27.9376217 75.3634276,27.8723356 M65.986779,29.2573393 C65.8471371,29.7997222 65.5620674,29.9997244 64.9053752,30.0452292 C64.6590863,30.0623521 64.4106863,30.0479657 64.1181108,30.0479657 C64.1806603,29.8736088 64.2217867,29.7489006 64.2697153,29.6267726 C64.6373503,28.6901711 64.6377413,28.6903275 65.6477603,28.7581156 C65.9413523,28.7778969 66.0596492,28.9741461 65.986779,29.2573393 M65.2333695,31.4920006 C65.0271123,32.1849716 64.6865299,32.2677715 64.1889481,32.3472877 C63.8931669,32.394669 63.5837029,32.3560446 63.2301415,32.3560446 C63.4087987,31.8705036 63.5614978,31.4342204 63.7348383,31.0063032 C63.7620474,30.9391406 63.8808915,30.8742455 63.9610332,30.8694761 C64.2414898,30.8529004 64.5246047,30.8475837 64.8047486,30.8668177 C65.1933378,30.8935576 65.3512754,31.0958273 65.2333695,31.4920006 M66.0293127,30.399807 C66.5569964,30.1430411 66.8853034,29.7521845 67.0791289,29.2415455 C67.3615402,28.4972057 67.069981,27.9688964 66.3655948,27.9423911 C65.5902147,27.9132273 64.8143656,27.8895367 64.0386728,27.8878164 C63.9561856,27.8876602 63.8381233,28.0374664 63.7961369,28.1416114 C63.4114571,29.0961178 63.0367852,30.0546116 62.6657099,31.0144347 C62.3946357,31.7154589 62.1332568,32.4202361 61.8745361,33.1048411 C62.753983,33.1048411 63.5998876,33.1537079 64.4376608,33.0924094 C65.4720742,33.0167244 66.0773195,32.3586248 66.3398713,31.3962998 C66.4355721,31.0456313 66.4750565,30.6428903 66.0293127,30.399807 M106.655254,27.8856273 C106.546496,27.8993882 106.399426,28.003846 106.359082,28.1032216 C105.963534,29.0797767 105.587533,30.0643068 105.203635,31.0456313 C105.171891,31.1269457 105.12365,31.2017706 105.04601,31.3507168 C104.815202,30.2013685 104.608632,29.1453755 104.38189,28.0938392 C104.362891,28.0059571 104.21715,27.9204987 104.112692,27.8832035 C104.012457,27.8472375 103.88595,27.8928205 103.776801,27.8720228 C103.447009,27.8091605 103.297359,27.9753078 103.189852,28.2616284 C102.760684,29.4044089 102.318302,30.5420291 101.88022,31.6814476 C101.694526,32.1641738 101.507425,32.6463528 101.304686,33.1708309 C101.640108,33.1708309 101.921894,33.1844354 102.200787,33.1623085 C102.280772,33.1559753 102.389686,33.0612909 102.422056,32.9814621 C102.65951,32.3956072 102.87859,31.802481 103.108068,31.2133423 C103.291573,30.7422659 103.481411,30.2736915 103.692516,29.7437403 C103.741539,29.8687612 103.769373,29.9182536 103.780476,29.9711861 C103.957569,30.8173254 104.123795,31.665732 104.310818,32.509682 C104.462657,33.1943651 104.473447,33.1852955 105.18143,33.1756785 C105.369313,33.1730983 105.44836,33.1121907 105.516383,32.9322825 C105.853369,32.0401693 106.21686,31.1580641 106.56096,30.2686093 C106.864013,29.4852542 107.153774,28.6966606 107.462612,27.8753848 C107.169411,27.8753848 106.908971,27.8535707 106.655254,27.8856273" id="Fill-11" fill="#FFFFFF"></path>
                </g>
            </g>
        </g>
    </g>
</svg>