<?xml version="1.0" encoding="UTF-8"?>
<svg width="162px" height="66px" viewBox="0 0 162 66" version="1.1" xmlns="http://www.w3.org/2000/svg" xmlns:xlink="http://www.w3.org/1999/xlink">
    <!-- Generator: Sketch 61 (89581) - https://sketch.com -->
    <title>partners/harmony_logo</title>
    <desc>Created with Sketch.</desc>
    <defs>
        <linearGradient x1="6.61358973%" y1="94.1825111%" x2="93.3864102%" y2="6.09375873%" id="linearGradient-1">
            <stop stop-color="#00AEE9" offset="0%"></stop>
            <stop stop-color="#69FABD" offset="100%"></stop>
        </linearGradient>
    </defs>
    <g id="partners/harmony_logo" stroke="none" stroke-width="1" fill="none" fill-rule="evenodd">
        <g id="harmony_logo">
            <rect id="矩形" stroke="#BFC7D2" stroke-width="0.655092094" fill="#FFFFFF" x="0.327546047" y="0.327546047" width="161.344908" height="65.3449079" rx="7.07539872"></rect>
            <g id="Commonly/harmony_horizontal" transform="translate(22.595015, 21.324733)">
                <g id="编组-2" transform="translate(0.000000, 0.389176)">
                    <path d="M18.2485374,-6.53773068e-14 C15.4813461,-0.00215992005 13.2349598,2.25052779 13.2278305,5.0347921 L13.2278305,10.6171535 C12.7107649,10.6522709 12.1820653,10.6743818 11.6339758,10.6743818 C11.0858863,10.6743818 10.559772,10.6964928 10.0401211,10.7277082 L10.0401211,5.0347921 C9.99613384,2.27677419 7.76151105,0.0641489478 5.02006056,0.0641489478 C2.27861008,0.0641489478 0.0439872482,2.27677419 2.74829392e-14,5.0347921 L2.74829392e-14,18.376792 C0.0439872482,21.1348099 2.27861008,23.3474352 5.02006056,23.3474352 C7.76151105,23.3474352 9.99613384,21.1348099 10.0401211,18.376792 L10.0401211,12.7944305 C10.5571867,12.7593132 11.0858863,12.7372022 11.6339758,12.7372022 C12.1820653,12.7372022 12.7081796,12.7150913 13.2278305,12.6838759 L13.2278305,18.376792 C13.2718178,21.1348099 15.5064406,23.3474352 18.2478911,23.3474352 C20.9893415,23.3474352 23.2239643,21.1348099 23.2679516,18.376792 L23.2679516,5.0347921 C23.2608232,2.25103585 21.0152242,-0.00144225104 18.2485374,-6.53773068e-14 Z M5.01941423,2.06282167 C6.65248214,2.06209911 7.97792329,3.39164899 7.98220007,5.0347921 L7.98220007,10.9462163 C6.51345199,11.1603598 5.07916702,11.5683745 3.71640894,12.1597166 C3.12596378,12.4204551 2.57013855,12.7542612 2.06179905,13.1534081 L2.06179905,5.0347921 C2.06606928,3.39367856 3.38836466,2.06496533 5.01941423,2.06282167 Z M7.98220007,18.376792 C7.98220007,20.023194 6.65571561,21.3578666 5.01941423,21.3578666 C3.38311279,21.3578666 2.05662839,20.023194 2.05662839,18.376792 L2.05662839,17.0384299 C2.05662839,15.8561451 2.98734646,14.7362911 4.54759188,14.0391463 C5.64696963,13.5619185 6.80049281,13.2225056 7.98220007,13.0285464 L7.98220007,18.376792 Z M18.2485374,21.3487624 C16.6154695,21.349485 15.2900283,20.0199351 15.2857516,18.376792 L15.2857516,12.4653678 C16.7544996,12.2512242 18.1887846,11.8432096 19.5515427,11.2518675 C20.1419879,10.9911289 20.6978131,10.6573228 21.2061526,10.2581759 L21.2061526,18.376792 C21.2018824,20.0179055 19.8795869,21.3466188 18.2485374,21.3487624 Z M18.7203597,9.36463394 C17.620982,9.84186172 16.4674588,10.1812746 15.2857516,10.3752338 L15.2857516,5.0347921 C15.2857516,3.38839004 16.612236,2.05371746 18.2485374,2.05371746 C19.8848388,2.05371746 21.2113232,3.38839004 21.2113232,5.0347921 L21.2113232,6.37315415 C21.2113232,7.55023641 20.2806052,8.67009037 18.7203597,9.36463394 Z" id="Shape" fill="url(#linearGradient-1)" fill-rule="nonzero"></path>
                    <path d="M88.980525,8.50881043 C86.760978,8.50828448 84.7596913,9.85315572 83.9099452,11.9162567 C83.060199,13.9793576 83.5293549,16.3543509 85.0986268,17.9336817 C86.6678986,19.5130124 89.0282109,19.985624 91.0788549,19.1311186 C93.129499,18.2766132 94.4665909,16.2632896 94.4665909,14.0300418 C94.4665909,10.9812578 92.0106046,8.5095288 88.980525,8.50881043 Z M88.980525,17.7602906 C87.4799285,17.762392 86.125951,16.854425 85.5503682,15.46005 C84.9747854,14.0656751 85.2910415,12.4597158 86.351569,11.3915245 C87.4120966,10.3233331 89.0078714,10.0034443 90.3942936,10.5811205 C91.7807158,11.1587967 92.6845289,12.5201809 92.6840075,14.0300418 C92.6840075,16.0886764 91.026529,17.7581337 88.980525,17.7602906 Z M55.6039411,8.54782989 C55.3680701,8.54782989 55.1418597,8.64210768 54.9750736,8.80992319 C54.8082876,8.97773883 54.7145882,9.20534557 54.7145882,9.44267254 L54.7145882,9.96943311 C52.5287951,7.94251852 49.1364059,8.03530135 47.0632768,10.1786987 C44.9901477,12.3220962 44.9901477,15.7366867 47.0632768,17.8800842 C49.1364059,20.0234815 52.5287951,20.1162644 54.7145882,18.0893498 L54.7145882,18.6096071 C54.7145882,19.1038151 55.1127651,19.5044498 55.6039411,19.5044498 C56.095117,19.5044498 56.4932939,19.1038151 56.4932939,18.6096071 L56.4932939,9.44267254 C56.4932939,9.20534557 56.3995945,8.97773883 56.2328085,8.80992319 C56.0660224,8.64210768 55.839812,8.54782989 55.6039411,8.54782989 Z M51.0059353,17.7602872 C49.5058075,17.7602872 48.1534164,16.8509842 47.5794633,15.4564414 C47.0055101,14.0618986 47.3230437,12.4567921 48.383979,11.3896799 C49.4449144,10.3225675 51.0402841,10.0036335 52.4260713,10.5816156 C53.8118584,11.1595979 54.7151111,12.5206541 54.7145885,14.0300418 C54.7145885,15.0195897 54.3238151,15.9685893 53.6282705,16.6681834 C52.9327261,17.3677775 51.9894123,17.7606321 51.0059353,17.7602872 Z M65.0300506,9.40495388 C65.0293348,9.89814654 64.6321536,10.2977795 64.1419866,10.2984959 C64.1225967,10.2984959 64.1057921,10.2984959 64.0876948,10.2984959 C64.0695975,10.2984959 64.0476222,10.2984959 64.0269395,10.2984959 C63.0432385,10.2981507 62.0997288,10.6911838 61.4041471,11.3910592 C60.7085654,12.0909346 60.3179435,13.0402685 60.3182866,14.0300418 C60.2717507,14.2147331 60.2911406,17.0540376 60.30536,18.7331682 C60.2740325,18.9700184 60.1494656,19.1842817 59.9596335,19.3278404 C59.7698014,19.4713989 59.5306151,19.5322205 59.2957894,19.4966459 C58.8513322,19.4167561 58.5306368,19.0234787 58.539581,18.5692872 L58.539581,9.44267254 C58.5395825,9.19699323 58.6399739,8.96212058 58.8172121,8.79313539 C58.9944502,8.62415034 59.2329436,8.53591808 59.4767623,8.54913053 C59.9604716,8.59213696 60.3283327,9.00491057 60.3182866,9.49339763 L60.3182866,9.96943311 C61.3276488,9.03011743 62.6520457,8.50851456 64.0269395,8.50881046 L64.1419866,8.50881046 C64.3779635,8.50881046 64.6042377,8.6033074 64.7708558,8.77144196 C64.937474,8.93957665 65.0307337,9.16752143 65.0300506,9.40495388 Z M105.182776,13.1364998 L105.182776,18.6122084 C105.182776,19.1064164 104.784598,19.5070511 104.293422,19.5070511 C103.802751,19.5063335 103.405362,19.1059088 103.405362,18.6122084 L103.405362,17.7173658 L103.405362,13.1364998 C103.404373,12.3615876 103.083847,11.621832 102.520248,11.0937102 C101.95665,10.5655882 101.200517,10.2964573 100.432235,10.3505216 C98.9585983,10.4493705 97.8469072,11.7487133 97.8469072,13.234048 L97.8469072,14.3226865 L97.8469072,17.7173658 L97.8469072,18.6122084 C97.8469072,19.1064164 97.4487304,19.5070511 96.9575544,19.5070511 C96.4663784,19.5070511 96.0682016,19.1064164 96.0682016,18.6122084 L96.0682016,9.44787511 C96.0682016,8.95366717 96.4663784,8.55303246 96.9575544,8.55303246 C97.4487304,8.55303246 97.8469072,8.95366717 97.8469072,9.44787511 L97.8469072,9.53241693 C98.5751383,8.94426833 99.4697622,8.60324172 100.402504,8.55823504 C101.648337,8.49589104 102.865055,8.95044873 103.768557,9.81577068 C104.67206,10.6810926 105.183253,11.8814269 105.182776,13.1364998 Z M43.6920425,4.78506857 L43.6920425,18.6265155 C43.673932,19.1014333 43.2860289,19.4770426 42.8136773,19.4770426 C42.3413258,19.4770426 41.9534226,19.1014333 41.9353121,18.6265155 L41.9353121,12.3561137 L32.7806658,12.3561137 L32.7806658,18.6330187 C32.7625554,19.1079365 32.3746522,19.4835458 31.9023007,19.4835458 C31.4299491,19.4835458 31.042046,19.1079365 31.0239355,18.6330187 L31.0239355,4.78506857 C31.042046,4.31015078 31.4299491,3.93454147 31.9023007,3.93454147 C32.3746522,3.93454147 32.7625554,4.31015078 32.7806658,4.78506857 L32.7806658,10.8226552 L41.9314342,10.8226552 L41.9314342,4.78506857 C41.9495446,4.31015078 42.3374478,3.93454147 42.8097993,3.93454147 C43.2821509,3.93454147 43.670054,4.31015078 43.6881645,4.78506857 L43.6920425,4.78506857 Z M81.8889748,13.5592089 L81.8889748,18.6109078 C81.8889748,19.1051157 81.4907936,19.5057504 80.9996176,19.5057504 C80.5084416,19.5057504 80.1102648,19.1051157 80.1102648,18.6109078 L80.1102648,14.0079308 L80.1102648,12.7970318 C80.1308131,11.891035 79.662185,11.0448696 78.885627,10.5857975 C78.1090688,10.1267254 77.1463384,10.1267254 76.3697802,10.5857975 C75.5932222,11.0448696 75.1245941,11.891035 75.1451424,12.7970318 L75.1451424,18.6109078 C75.1451424,19.1051157 74.7469656,19.5057504 74.2557896,19.5057504 C73.7646136,19.5057504 73.3664368,19.1051157 73.3664368,18.6109078 L73.3664368,14.0079308 L73.3664368,12.7970318 C73.3869851,11.891035 72.9183571,11.0448696 72.141799,10.5857975 C71.3652408,10.1267254 70.4025104,10.1267254 69.6259523,10.5857975 C68.8493942,11.0448696 68.3807661,11.891035 68.4013145,12.7970318 L68.4013145,18.6109078 C68.4013145,19.1051157 68.0031376,19.5057504 67.5119616,19.5057504 C67.0207856,19.5057504 66.6225141,19.1051157 66.6225141,18.6109078 L66.6225141,9.44787511 C66.615801,8.97472498 66.9767869,8.57827496 67.4458321,8.54377643 C67.9148771,8.50927778 68.3293243,8.8486942 68.3909731,9.31781077 C70.255676,7.96081558 72.8549872,8.34300236 74.2557896,10.1801373 C75.3668636,8.72398526 77.2766815,8.14221814 79.0038962,8.73377299 C80.7311109,9.32532797 81.8915663,10.958635 81.8889748,12.7944305 L81.8889748,13.5592089 Z M116.259613,9.83936877 L110.264237,22.8913252 C110.029204,23.2968646 109.526242,23.4561052 109.102759,23.2590563 C108.679275,23.0620073 108.474129,22.5732801 108.629017,22.1304488 L110.240969,18.6187116 L106.20398,9.83806813 C106.028012,9.539218 106.036384,9.16566346 106.225561,8.87509804 C106.414738,8.58453262 106.751751,8.42759451 107.094333,8.47053421 C107.436915,8.51347391 107.725361,8.74880791 107.837907,9.07719175 L111.233735,16.4609443 L114.628271,9.07719175 C114.740817,8.74880791 115.029264,8.51347391 115.371845,8.47053421 C115.714427,8.42759451 116.05144,8.58453262 116.240617,8.87509804 C116.429794,9.16566346 116.438166,9.539218 116.262198,9.83806813 L116.259613,9.83936877 Z" id="Shape" fill="#555B68" fill-rule="nonzero"></path>
                </g>
            </g>
        </g>
    </g>
</svg>