<?xml version="1.0" encoding="UTF-8"?>
<svg width="162px" height="66px" viewBox="0 0 162 66" version="1.1" xmlns="http://www.w3.org/2000/svg" xmlns:xlink="http://www.w3.org/1999/xlink">
    <!-- Generator: Sketch 61 (89581) - https://sketch.com -->
    <title>partners/kusama_logo</title>
    <desc>Created with Sketch.</desc>
    <g id="partners/kusama_logo" stroke="none" stroke-width="1" fill="none" fill-rule="evenodd">
        <g id="kusama_logo">
            <rect id="矩形" stroke="#BFC7D2" stroke-width="0.655092094" fill="#FFFFFF" x="0.327546047" y="0.327546047" width="161.344908" height="65.3449079" rx="7.07539872"></rect>
            <g id="编组-2" transform="translate(22.000000, 19.500000)" fill="#000000" fill-rule="nonzero">
                <path d="M2.90004522,26.9671631 C1.3038963,26.9671631 -1.13517031e-13,25.6747993 -1.13517031e-13,24.0927678 L-1.13517031e-13,10.2109983 C-1.13517031e-13,8.62896674 1.3038963,7.3588851 2.90004522,7.3588851 C4.49619414,7.3588851 5.80009044,8.65124887 5.80009044,10.2332804 L5.80009044,24.1150499 C5.77760947,25.6747993 4.49619414,26.9671631 2.90004522,26.9671631 Z" id="路径"></path>
                <path d="M15.1521743,26.9671631 C14.2978974,26.9671631 13.4661015,26.5883668 12.9265582,25.9421849 L7.08150578,19.0124412 C6.18226695,17.9428988 6.18226695,16.4054315 7.08150578,15.3358891 L12.9265582,8.38386326 C13.9606828,7.15834589 15.7816414,7.00237095 16.9956139,8.00506698 C18.2095863,9.00776302 18.389434,10.834898 17.3777904,12.0381332 L17.3777904,12.0381332 L13.083925,17.1630241 L17.3777904,22.2656328 C18.389434,23.4911501 18.2320672,25.296003 16.9956139,26.298699 C16.4785515,26.7220596 15.8266034,26.9671631 15.1521743,26.9671631 Z" id="路径"></path>
                <path d="M34.3958852,26.9671631 L22.1437562,26.9671631 C20.5476072,26.9671631 19.2437109,25.6747993 19.2437109,24.0927678 L19.2437109,10.2109983 C19.2437109,8.62896674 20.5476072,7.33660296 22.1437562,7.33660296 C23.7399051,7.33660296 25.0438014,8.62896674 25.0438014,10.2109983 L25.0438014,21.2183725 L31.5183209,21.2183725 L31.5183209,10.2109983 C31.5183209,8.62896674 32.8222172,7.33660296 34.4183662,7.33660296 C36.0145151,7.33660296 37.3184114,8.62896674 37.3184114,10.2109983 L37.3184114,24.0927678 C37.2959304,25.6747993 35.9920341,26.9671631 34.3958852,26.9671631 C34.3958852,26.9671631 34.3958852,26.9671631 34.3958852,26.9671631 Z" id="路径"></path>
                <path d="M53.6620771,26.9671631 L41.4099481,26.9671631 C39.8137991,26.9225988 38.5548648,25.6079529 38.5998267,24.0259214 C38.6447887,22.5107362 39.881242,21.2852189 41.4099481,21.2406546 L50.7620319,21.2406546 L50.7620319,21.0846797 L40.6006331,18.2102844 C39.3641797,17.8537702 38.5099028,16.7396635 38.5099028,15.4472998 L38.5099028,10.2109983 C38.5099028,8.62896674 39.8137991,7.3588851 41.4099481,7.3588851 L53.6620771,7.3588851 C55.258226,7.3588851 56.5621223,8.65124887 56.5621223,10.2332804 C56.5621223,11.8153119 55.258226,13.1076757 53.6620771,13.1076757 L44.3099933,13.1076757 L44.3099933,13.2859328 L54.471392,16.160328 C55.7078454,16.5168422 56.5621223,17.6309489 56.5621223,18.9233127 L56.5621223,24.1150499 C56.5621223,25.6970814 55.258226,26.9671631 53.6620771,26.9671631 L53.6620771,26.9671631 Z" id="路径"></path>
                <path d="M93.9254956,26.9671631 C92.3293467,26.9671631 91.0479314,25.6747993 91.0479314,24.0927678 L91.0479314,16.4499958 L89.6990732,17.6086668 C88.6199866,18.5222343 87.0238376,18.5222343 85.9222701,17.6086668 L84.5734118,16.4499958 L84.5734118,24.0927678 C84.5734118,25.6747993 83.2695155,26.9671631 81.6733666,26.9671631 C80.0772177,26.9671631 78.7733214,25.6747993 78.7733214,24.0927678 C78.7733214,24.0927678 78.7733214,24.0927678 78.7733214,24.0927678 L78.7733214,10.2109983 C78.7733214,8.62896674 80.0772177,7.33660296 81.6733666,7.33660296 C82.3702767,7.33660296 83.0222248,7.58170644 83.5617681,8.02734912 L87.8106716,11.6370548 L92.0370941,8.02734912 C93.2510665,7.00237095 95.0720252,7.13606376 96.1286308,8.33929899 C96.5782502,8.85178808 96.8255409,9.5202521 96.8255409,10.2109983 L96.8255409,24.0927678 C96.8480218,25.6747993 95.5441255,26.9671631 93.9254956,26.9671631 L93.9254956,26.9671631 L93.9254956,26.9671631 Z" id="路径"></path>
                <path d="M74.6593037,26.9671631 C73.0631548,26.9671631 71.7592585,25.6747993 71.7592585,24.0927678 L71.7592585,21.6640152 L64.5428669,13.0853935 L63.5537042,13.0853935 L63.5537042,21.2183725 L67.9150125,21.2183725 C69.5111614,21.2629367 70.7700958,22.5775827 70.7251339,24.1596142 C70.6801719,25.6747993 69.4437185,26.9003167 67.9150125,26.9448809 L60.653659,26.9448809 C59.0575101,26.9448809 57.7760947,25.6525171 57.7760947,24.0704856 L57.7760947,10.2109983 C57.7760947,8.62896674 59.079991,7.3588851 60.653659,7.3588851 L65.9142061,7.3588851 C66.768483,7.3588851 67.6002789,7.73768138 68.1398222,8.38386326 L76.8849198,18.7896199 C77.3120583,19.3021089 77.559349,19.9482908 77.559349,20.6167549 L77.559349,24.0927678 C77.559349,25.6747993 76.2779336,26.9671631 74.6593037,26.9671631 L74.6593037,26.9671631 Z" id="路径"></path>
                <path d="M114.945203,26.9671631 C113.349054,26.9671631 112.045158,25.6747993 112.045158,24.0927678 L112.045158,21.6640152 L104.828766,13.0853935 L103.817123,13.0853935 L103.817123,21.2183725 L108.178431,21.2183725 C109.77458,21.2629367 111.033514,22.5775827 110.988552,24.1596142 C110.94359,25.6747993 109.707137,26.9003167 108.178431,26.9448809 L100.939559,26.9448809 C99.3434096,26.9448809 98.0395133,25.6525171 98.0395133,24.0704856 L98.0395133,10.2109983 C98.0395133,8.62896674 99.3434096,7.3588851 100.939559,7.3588851 L106.200106,7.3588851 C107.054383,7.3588851 107.863697,7.73768138 108.425722,8.38386326 L117.170819,18.7896199 C117.597958,19.3021089 117.845248,19.9482908 117.845248,20.6167549 L117.845248,24.0927678 C117.845248,25.6970814 116.541352,26.9671631 114.945203,26.9671631 L114.945203,26.9671631 Z" id="路径"></path>
                <path d="M63.4188184,0.362295006 C63.2164896,0.184037934 62.9916799,0.0503451293 62.7219083,0.00578086116 C62.3846937,-0.0387834069 62.0474792,0.184037934 61.8226695,0.340012872 C61.5978598,0.49598781 61.1482403,0.897066223 60.9683926,1.05304116 C60.7885448,1.2090161 60.3389254,1.29814464 59.5970534,1.74378732 C58.8551813,2.18943 55.9776171,4.01656499 55.9776171,4.01656499 L56.7194891,4.01656499 L53.3698245,5.73228931 L53.707039,5.73228931 L53.2349387,6.08880346 C53.5047103,6.15564986 53.7744819,6.11108559 54.0217726,5.97739279 L54.0217726,6.08880346 C54.0217726,6.08880346 58.0009044,4.52905407 58.7652574,4.93013249 L58.2931571,5.06382529 C58.338119,5.06382529 59.079991,5.10838956 59.079991,5.10838956 C59.124953,5.42033943 59.3048007,5.71000718 59.5745724,5.86598212 C60.0241918,6.15564986 60.0466728,6.33390693 60.0466728,6.33390693 C60.0466728,6.33390693 59.8218631,6.42303547 59.8218631,6.55672827 C60.2490015,6.42303547 60.6986209,6.42303547 61.1032784,6.55672827 C61.1032784,6.55672827 61.0807974,6.42303547 60.7660638,6.33390693 C60.4513303,6.20021413 60.1815586,5.99967492 59.9792299,5.71000718 C59.7993821,5.4649037 59.7319392,5.15295383 59.844344,4.86328608 C59.9567489,4.57361834 60.3389254,4.4176434 61.1257594,4.01656499 C62.0474792,3.54864017 62.2722889,3.19212603 62.3846937,2.90245829 C62.4970986,2.61279054 62.7219083,2.07801933 62.8118322,1.81063372 C62.9017561,1.56553024 63.0591229,1.36499104 63.2614516,1.18673397 C63.5087423,1.05304116 63.7785139,0.941630491 64.0258046,0.852501955 C64.0707665,0.874784089 63.5761852,0.473705676 63.4188184,0.362295006 Z" id="路径"></path>
            </g>
        </g>
    </g>
</svg>