<?xml version="1.0" encoding="UTF-8"?>
<svg width="162px" height="66px" viewBox="0 0 162 66" version="1.1" xmlns="http://www.w3.org/2000/svg" xmlns:xlink="http://www.w3.org/1999/xlink">
    <!-- Generator: Sketch 61 (89581) - https://sketch.com -->
    <title>partners/litecoin_logo</title>
    <desc>Created with Sketch.</desc>
    <defs>
        <polygon id="path-1" points="0 0.0255144768 35.6460229 0.0255144768 35.6460229 35.3562718 0 35.3562718"></polygon>
    </defs>
    <g id="partners/litecoin_logo" stroke="none" stroke-width="1" fill="none" fill-rule="evenodd">
        <g id="litecoin_logo">
            <rect id="矩形" stroke="#BFC7D2" stroke-width="0.655092094" fill="#FFFFFF" x="0.327546047" y="0.327546047" width="161.344908" height="65.3449079" rx="7.07539872"></rect>
            <g id="collection/Litecoin" transform="translate(17.637096, 15.225713)">
                <g id="编组" stroke-width="1" transform="translate(0.000000, -0.000000)">
                    <mask id="mask-2" fill="white">
                        <use xlink:href="#path-1"></use>
                    </mask>
                    <g id="Clip-2"></g>
                    <path d="M35.6460229,17.6908989 C35.6460229,27.4472593 27.6664219,35.3562834 17.8229997,35.3562834 C7.97969459,35.3562834 -2.3391329e-05,27.4472593 -2.3391329e-05,17.6908989 C-2.3391329e-05,7.9345386 7.97969459,0.0255144768 17.8229997,0.0255144768 C27.6664219,0.0255144768 35.6460229,7.9345386 35.6460229,17.6908989" id="Fill-1" fill="#3583F6" mask="url(#mask-2)"></path>
                </g>
                <path d="M18.7121977,16.2130531 C18.7436591,16.0542397 18.7517291,15.9835272 18.7717287,15.9162923 C19.7147501,12.74895 20.6587072,9.58172354 21.6028982,6.41461304 C21.8283906,5.65822067 21.6371665,5.4114223 20.8175343,5.41003124 C19.804105,5.40840832 18.7907926,5.40904788 17.7774802,5.40991531 C16.9946894,5.41049492 16.8336401,5.52699674 16.6187907,6.2494239 C15.5128487,9.96635341 14.4004741,13.6814282 13.3117246,17.4032264 C13.1938323,17.8059401 12.9968774,18.0082244 12.5961839,18.1129021 C11.9443845,18.28296 11.301123,18.4902289 10.6663992,18.7152339 C10.4908473,18.7776 10.2775184,18.9302696 10.2202096,19.0902422 C10.0243073,19.6375109 9.89004104,20.2064571 9.7126178,20.8371898 C10.6735336,20.5483117 11.5610006,20.2815747 12.5132616,19.9953628 C11.6560864,22.8798549 10.8212498,25.6893454 9.96208633,28.5810248 L10.680434,28.5810248 L16.9942216,28.5810248 C19.566566,28.5810248 22.1389105,28.573258 24.711138,28.5868581 C25.3223534,28.5900667 25.6980181,28.3815227 25.8451496,27.7592523 C26.024912,26.9985708 26.2591761,26.2505248 26.4716863,25.4974942 C26.7134357,24.6404814 26.5470064,24.421968 25.6370837,24.4215043 C22.7335181,24.4199973 19.8299524,24.4209247 16.9262698,24.4209247 L16.2321321,24.4209247 C16.8369149,22.4182527 17.4147977,20.4815405 18.0174753,18.5523632 C18.066597,18.3950568 18.263669,18.2273173 18.4289287,18.1710951 C19.1023651,17.9415691 19.793345,17.7628171 20.4707578,17.5437241 C20.6396432,17.4891247 20.8713344,17.3853744 20.920807,17.2493976 C21.134019,16.6638746 21.2900391,16.0579492 21.4914385,15.3765585 C20.5266631,15.6669436 19.6678505,15.9254502 18.7121977,16.2130531" id="Fill-3" fill="#000000"></path>
                <path d="M51.7788938,5.28500914 C50.9975065,5.26901188 50.3931915,5.81720797 50.3610284,6.5712819 C50.3292162,7.3142273 50.9268647,7.94148234 51.6804164,7.95608853 C52.4695228,7.97127434 53.0663526,7.42968581 53.0999192,6.66796102 C53.132784,5.91921951 52.541802,5.30054272 51.7788938,5.28500914 M111.454151,5.28442953 C110.665161,5.27364876 110.076284,5.82601806 110.061548,6.59075683 C110.046928,7.35955288 110.618378,7.94472816 111.394737,7.95574077 C112.174838,7.9668693 112.769094,7.4082402 112.784766,6.64918162 C112.800439,5.88884789 112.221386,5.29497845 111.454151,5.28442953 M51.1099018,11.8914088 C50.146413,11.8911836 50.151676,11.8916473 50.0591633,12.8826662 C50.0198659,13.3036957 49.9540193,13.7224067 49.8994006,14.142045 C49.6037342,16.4131928 49.3067812,18.6839929 49.0120505,20.9551406 C48.7174367,23.2258248 48.4339338,25.4978999 48.125987,27.7667293 C48.0285621,28.4844036 48.0717191,28.564274 48.8226977,28.5684472 C48.9784839,28.5692587 49.1345041,28.5629989 49.2899395,28.5686791 C49.6941417,28.5834012 49.8845471,28.3972301 49.9339028,27.9944005 C50.1978739,25.8353495 50.480792,23.678501 50.7508449,21.5201455 C51.1163345,18.59879 51.4702453,15.6759276 51.8421674,12.7553836 C51.9524575,11.889097 51.9725741,11.8916473 51.1099018,11.8914088 M110.409728,11.8832904 C110.008567,11.8820258 109.792431,11.9960932 109.740619,12.4097036 C109.424602,14.9293886 109.099579,17.4480303 108.775844,19.9667879 C108.447312,22.5233362 108.127553,25.0809278 107.781595,27.6351576 C107.66265,28.5133842 107.680545,28.5678676 108.562515,28.5686014 C109.503431,28.5694905 109.508694,28.561376 109.595943,27.6060611 C109.622142,27.3189218 109.672667,27.0338691 109.709274,26.7475413 C110.002602,24.4576141 110.296748,22.1679187 110.587853,19.8777597 C110.881297,17.5685894 111.188074,15.2610421 111.456139,12.9490896 C111.580464,11.875766 111.545143,11.8871263 110.409728,11.8832904 M45.2860457,5.40313386 C44.9242988,5.43999713 44.411327,5.24026317 44.3347203,5.90519292 C44.2664177,6.4976713 44.1798698,7.08806308 44.1060701,7.67996185 C43.7061953,10.8884566 43.3148584,14.0981105 42.9066797,17.3055619 C42.4595545,20.8185843 41.9953535,24.3292882 41.5433161,27.841615 C41.4580547,28.5039945 41.521913,28.5635785 42.2120742,28.5685631 C42.3289139,28.5693746 42.4463384,28.561376 42.5624763,28.5698383 C43.0180224,28.6028761 43.2571988,28.4693337 43.3191858,27.9479157 C43.6759036,24.9483128 44.0708662,21.952999 44.4558874,18.956526 C45.0003206,14.7193376 45.5486134,10.482497 46.0925787,6.24519274 C46.2006467,5.4038294 46.1951497,5.40324979 45.2860457,5.40313386 M61.2638438,13.3100714 C60.2749754,13.2967403 59.2858731,13.3048549 58.2254272,13.3048549 C58.4485804,11.436189 58.6643655,9.62954145 58.8924309,7.71867986 C58.39057,7.71867986 58.004613,7.73572043 57.6209952,7.71357929 C57.2672014,7.69306106 57.1325843,7.86439407 57.0938716,8.18051392 C56.8575022,10.110039 56.6186768,12.0393322 56.3775122,13.9683936 C56.0861732,16.2985458 55.7735481,18.6261477 55.5044308,20.9587342 C55.2991719,22.7362853 55.0968369,24.5169662 54.9894707,26.3019363 C54.9196476,27.4626653 55.7071167,28.376596 56.8290818,28.6711543 C57.8007576,28.9261831 58.7592173,28.8328658 59.6893735,28.4975028 C59.8657441,28.4339775 60.0700674,28.2159278 60.10609,28.0382191 C60.3808212,26.6822771 60.3687746,26.6798427 59.0468137,27.0218132 C57.3897719,27.4503776 56.6197294,26.828339 56.7337621,25.1511766 C56.7417152,25.0361818 56.7692,24.9228099 56.7835856,24.8081628 C57.0386681,22.7646862 57.2918792,20.7208619 57.5482482,18.6775012 C57.7104671,17.385896 57.8771303,16.0948705 58.0416883,14.8039608 C58.1734984,14.7905138 58.2494033,14.7762554 58.3254251,14.7761395 C59.2992061,14.773821 60.2731041,14.7870362 61.2464173,14.7675612 C61.8102653,14.7563168 61.9510811,14.5123005 61.9445315,13.684616 C61.940438,13.1654005 61.5417328,13.3137809 61.2638438,13.3100714 M90.1141243,14.1245408 C89.3267721,12.4364817 87.8470367,11.7761888 86.0202908,11.6434579 C82.8074918,11.4097587 80.1075476,13.379161 79.391773,16.2235441 C78.7123718,18.923604 78.3107427,21.6752494 78.3872323,24.4601644 C78.4371728,26.2752742 79.3288503,27.6952053 81.080393,28.3771756 C84.5078075,29.7113242 88.6815223,27.9895317 89.6241929,24.040526 C89.7192786,23.6418695 89.640099,23.4931414 89.2377681,23.5053132 C89.0625671,23.5106456 88.8845591,23.5252518 88.712165,23.5024151 C88.2014153,23.4347166 87.953935,23.6298136 87.8124175,24.1423057 C87.5421307,25.1206891 86.9471722,25.9096556 86.0882426,26.4696757 C84.7399664,27.348366 83.2785931,27.542188 81.8311377,26.823934 C80.4277749,26.1275893 79.9860297,24.8214939 80.1373716,23.358092 C80.3490631,21.3098626 80.6289404,19.2671975 80.9330276,17.2299807 C81.2776989,14.9230129 82.5906542,13.5845752 84.8738818,13.2233616 C86.4694043,12.9707671 88.2918228,13.736781 88.7318137,15.6865925 C88.8159055,16.0589346 88.8355542,16.4455351 88.8920443,16.8802434 C89.3631456,16.8802434 89.9109706,16.8774612 90.3584467,16.8649416 C90.5038238,16.8608844 90.6483822,16.8087194 90.605693,16.4131928 C90.4862803,15.6408032 90.4369246,14.8167123 90.1141243,14.1245408 M103.128241,17.1222889 C103.101224,17.3581906 102.736436,21.5184066 102.284867,23.7602261 C101.779029,26.2708692 99.3135831,27.7147961 96.8951536,27.0957716 C95.4703877,26.7311962 94.4691219,25.5291989 94.522688,24.0533934 C94.5750846,22.6124804 94.7349644,21.1728425 94.9057211,19.7394645 C95.0329699,18.6711255 95.1905105,17.5986133 95.4440725,16.5540383 C96.0197331,14.1820382 98.2943059,12.7941017 100.690046,13.2879302 C102.04955,13.5682301 103.092452,14.7657065 103.16555,16.1398483 C103.179819,16.4093674 103.155141,16.8862713 103.128241,17.1222889 M100.392391,11.6374299 C97.2468422,11.452534 94.5240915,13.2610363 93.7368563,16.2794186 C93.1120739,18.6741395 92.8635411,21.128908 92.7498592,23.596544 C92.7498592,23.8669905 92.7467014,24.137437 92.7502101,24.4077675 C92.7755897,26.3204839 93.9863249,27.9778236 95.8368129,28.5283381 C99.2774435,29.5516994 103.118183,27.831182 103.955475,24.0712454 C104.401899,22.0666027 104.648327,20.0133887 104.891362,17.9711872 C105.00177,17.04323 105.015804,16.0644988 104.844814,15.150916 C104.454763,13.0667507 102.698659,11.772943 100.392391,11.6374299 M74.0510647,17.3937787 C74.0066212,17.5480712 73.8349288,17.7331989 73.6832361,17.7803793 C71.0600155,18.5965875 68.4307131,19.3933208 65.5938128,20.2579845 C65.9332209,18.6771534 66.0892411,17.2036663 66.5770673,15.8473766 C67.3893312,13.5890961 70.235822,12.5368703 72.3227964,13.5633614 C73.6665113,14.224118 74.4619334,15.9634147 74.0510647,17.3937787 M71.25545,11.6365025 C68.1356315,11.4601849 65.4134656,13.2368086 64.6262304,16.2309631 C64.0027346,18.6020359 63.7150212,21.032113 63.6267189,23.4824765 C63.6267189,23.8107682 63.6105789,24.1398713 63.629292,24.4671197 C63.7275356,26.1785951 64.4772277,27.5120482 66.0622241,28.2604419 C68.9668424,29.6319175 73.3225418,28.5278745 74.6613445,24.6935158 C75.0829732,23.4859542 75.0902245,23.5022992 73.815748,23.4982419 C73.3962245,23.4969668 73.2007899,23.6283066 73.084652,24.0480609 C72.7678164,25.1929086 72.0604626,26.0626729 71.0246946,26.6672072 C69.2682397,27.6920754 66.9622055,27.3154441 65.9340396,25.8388271 C65.3810686,25.044876 65.3630573,24.1479859 65.3798991,23.2341712 C65.4013021,22.0726307 65.3897234,22.0725148 66.4775372,21.7381951 C66.6067743,21.6984338 66.7351927,21.6558904 66.8644298,21.616129 C69.6233201,20.7692014 72.3847834,19.9298088 75.1370072,19.0621311 C75.3732596,18.987709 75.7178139,18.732912 75.7258839,18.5495231 C75.7748887,17.4377133 75.8771088,16.3010961 75.7052995,15.2124707 C75.3670609,13.0676781 73.5306077,11.7649443 71.25545,11.6365025 M126.198173,14.7203809 C125.896074,13.5417999 125.297022,12.54626 124.130731,12.0841941 C122.103287,11.2809691 120.164965,11.5239421 118.414591,12.8533379 C118.103253,13.0897033 117.88279,13.4434978 117.620339,13.7431567 L117.48619,13.6285097 C117.506774,13.3646707 117.524318,13.1006 117.54958,12.8373406 C117.562445,12.7033346 117.579872,12.5684011 117.611216,12.4376409 C117.710279,12.0249578 117.542446,11.856407 117.126899,11.8895607 C116.971931,11.9019644 116.815209,11.8911836 116.659306,11.8915314 C115.88517,11.8929225 115.880492,11.9250329 115.788096,12.6999728 C115.516874,14.9761053 115.224482,17.2498034 114.937353,19.5240811 C114.599349,22.2003769 114.247075,24.874934 113.923807,27.5529687 C113.796792,28.6050786 113.824394,28.5895451 114.928348,28.5767936 C115.424361,28.5711134 115.62693,28.3610624 115.662017,27.8947074 C115.699326,27.3957782 115.76529,26.8985879 115.829499,26.4020931 C116.20493,23.4982419 116.610652,20.5981003 116.950411,17.6903077 C117.149355,15.986715 117.72712,14.5266749 119.331532,13.6966719 C121.447862,12.6017867 124.597037,13.2756425 124.453765,16.6844508 C124.407801,17.7786405 124.232717,18.8684251 124.095761,19.957746 C123.771323,22.5379424 123.442441,25.1176751 123.097302,27.6952053 C122.992625,28.4783757 123.043268,28.5647377 123.856467,28.5684472 C123.973424,28.5690268 124.090965,28.5607964 124.20722,28.5696064 C124.638556,28.6024124 124.84557,28.4095179 124.897264,27.9810694 C125.248017,25.0735087 125.604852,22.1665277 125.972447,19.2609377 C126.063439,18.5414085 126.201565,17.8276755 126.317937,17.1112763 L126.317937,15.0246767 C126.27747,14.9234766 126.224956,14.8251746 126.198173,14.7203809" id="Fill-5" fill="#000000"></path>
                <path d="M18.7121977,16.2130531 C19.6678505,15.9254502 20.5266631,15.6669436 21.4914385,15.3765585 C21.2900391,16.0579492 21.134019,16.6638746 20.920807,17.2493976 C20.8713344,17.3853744 20.6396432,17.4891247 20.4707578,17.5437241 C19.793345,17.7628171 19.1023651,17.9415691 18.4289287,18.1710951 C18.263669,18.2273173 18.066597,18.3950568 18.0174753,18.5523632 C17.4147977,20.4815405 16.8369149,22.4182527 16.2321321,24.4209247 L16.9262698,24.4209247 C19.8299524,24.4209247 22.7335181,24.4199973 25.6370837,24.4215043 C26.5470064,24.421968 26.7134357,24.6404814 26.4716863,25.4974942 C26.2591761,26.2505248 26.024912,26.9985708 25.8451496,27.7592523 C25.6980181,28.3815227 25.3223534,28.5900667 24.711138,28.5868581 C22.1389105,28.573258 19.566566,28.5810248 16.9942216,28.5810248 L10.680434,28.5810248 L9.96208633,28.5810248 C10.8212498,25.6893454 11.6560864,22.8798549 12.5132616,19.9953628 C11.5610006,20.2815747 10.6735336,20.5483117 9.7126178,20.8371898 C9.89004104,20.2064571 10.0243073,19.6375109 10.2202096,19.0902422 C10.2775184,18.9302696 10.4908473,18.7776 10.6663992,18.7152339 C11.301123,18.4902289 11.9443845,18.28296 12.5961839,18.1129021 C12.9968774,18.0082244 13.1938323,17.8059401 13.3117246,17.4032264 C14.4004741,13.6814282 15.5128487,9.96635341 16.6187907,6.2494239 C16.8336401,5.52699674 16.9946894,5.41049492 17.7774802,5.40991531 C18.7907926,5.40904788 19.804105,5.40840832 20.8175343,5.41003124 C21.6371665,5.4114223 21.8283906,5.65822067 21.6028982,6.41461304 C20.6587072,9.58172354 19.7147501,12.74895 18.7717287,15.9162923 C18.7517291,15.9835272 18.7436591,16.0542397 18.7121977,16.2130531" id="Fill-7" fill="#FFFFFF"></path>
            </g>
        </g>
    </g>
</svg>