<?xml version="1.0" encoding="UTF-8"?>
<svg width="162px" height="66px" viewBox="0 0 162 66" version="1.1" xmlns="http://www.w3.org/2000/svg" xmlns:xlink="http://www.w3.org/1999/xlink">
    <!-- Generator: Sketch 61 (89581) - https://sketch.com -->
    <title>partners/neo_logo</title>
    <desc>Created with Sketch.</desc>
    <g id="partners/neo_logo" stroke="none" stroke-width="1" fill="none" fill-rule="evenodd">
        <g id="neo_logo">
            <rect id="矩形" stroke="#BFC7D2" stroke-width="0.655092094" fill="#FFFFFF" x="0.327546047" y="0.327546047" width="161.344908" height="65.3449079" rx="7.07539872"></rect>
            <g id="collection/neo" transform="translate(27.930605, 11.772242)">
                <g id="neo">
                    <path d="M57.6828944,13.5857651 C59.2101488,15.0362093 60.0182386,17.0875142 59.8905813,19.1898932 L59.8905813,31.756726 L56.663962,31.756726 L56.663962,20.2088256 C56.819907,18.6412746 56.3970919,17.0708182 55.4752076,15.793452 C54.517359,14.879694 53.2319771,14.3900248 51.9089442,14.4348754 C50.9030785,14.3979349 49.9058296,14.6325817 49.0219692,15.1141637 C48.0400682,15.6153379 47.2168951,16.3797128 46.6444603,17.3218505 C46.06661,18.5418081 45.7761328,19.8780032 45.7953499,21.227758 L45.7953499,31.756726 L42.7385528,31.756726 L42.7385528,12.7366548 L45.6255279,13.9254093 L45.6255279,15.1141637 C46.2143493,13.9801143 47.1730402,13.0813416 48.3426809,12.5668327 C49.5697955,12.0102889 50.9011681,11.72086 52.2485884,11.7177224 C54.2267255,11.6601004 56.1582727,12.3240697 57.6828944,13.5857651 Z" id="路径" fill="#000033" fill-rule="nonzero"></path>
                    <path d="M82.1372716,23.0958007 L67.3627521,23.0958007 C67.3957033,24.8365218 68.1306159,26.4900752 69.4006168,27.6809964 C70.5623215,28.8516933 72.1692067,29.4697261 73.8159905,29.3792171 C75.0340879,29.3511612 76.2391362,29.1216282 77.3822539,28.6999288 C78.2644655,28.2301484 78.9330171,27.4400419 79.2502966,26.492242 L81.9674496,27.8508185 C81.1593088,29.1641014 80.0541132,30.269297 78.7408304,31.0774377 C77.2101388,31.8232358 75.5169534,32.17355 73.8159905,32.0963701 C71.2109641,32.2426566 68.6706503,31.2513146 66.8532859,29.3792171 C65.0345959,27.3319851 64.1164906,24.6388763 64.3059549,21.9070463 C64.1729344,19.2113056 65.0171373,16.5580966 66.6834638,14.4348754 C68.4740238,12.5228008 71.0337834,11.5238702 73.6461684,11.7177224 C75.2596442,11.6408745 76.8584657,12.0553838 78.2313642,12.9064769 C79.5799611,13.6916514 80.6488902,14.8793504 81.2881613,16.3029181 C81.9802563,17.7311075 82.3291702,19.3012198 82.3070937,20.8881139 C82.3351156,21.6280827 82.2781356,22.3688231 82.1372716,23.0958007 L82.1372716,23.0958007 Z M69.4006168,15.963274 C68.2968305,17.1993159 67.5872347,18.7367733 67.3627521,20.3786477 L79.2502966,20.3786477 C79.2168874,18.7537648 78.6161164,17.1917603 77.5520759,15.963274 C76.5070953,14.9516492 75.1002078,14.401128 73.6461684,14.4348754 C72.0793396,14.3269319 70.5391158,14.8814125 69.4006168,15.963274 Z" id="形状" fill="#000033" fill-rule="nonzero"></path>
                    <path d="M103.195208,14.4348754 C104.861534,16.5580966 105.705737,19.2113056 105.572716,21.9070463 C105.737605,24.6068383 104.889884,27.271105 103.195208,29.3792171 C101.377843,31.2513146 98.8375294,32.2426566 96.232503,32.0963701 C93.6163495,32.3157428 91.0458446,31.312619 89.2697983,29.3792171 C87.4511083,27.3319851 86.5330031,24.6388763 86.7224674,21.9070463 C86.5703526,19.1802144 87.4837334,16.5009642 89.2697983,14.4348754 C91.0458446,12.5014736 93.6163495,11.4983497 96.232503,11.7177224 C98.8375294,11.5714359 101.377843,12.5627779 103.195208,14.4348754 L103.195208,14.4348754 Z M91.4774852,16.4727402 C90.2479505,18.006048 89.641566,19.9464782 89.7792645,21.9070463 C89.6059954,23.871612 90.2164329,25.825012 91.4774852,27.3413523 C92.6682477,28.7109645 94.4194993,29.4615009 96.232503,29.3792171 C97.9916066,29.4342388 99.6797588,28.683949 100.817699,27.3413523 C102.078751,25.825012 102.689188,23.871612 102.515919,21.9070463 C102.653618,19.9464782 102.047233,18.006048 100.817699,16.4727402 C99.6797588,15.1301435 97.9916066,14.3798537 96.232503,14.4348754 C94.4194993,14.3525917 92.6682477,15.103128 91.4774852,16.4727402 Z" id="形状" fill="#000033" fill-rule="nonzero"></path>
                    <polygon id="路径" fill="#00E599" fill-rule="nonzero" points="0.113214709 7.98163701 0.113214709 35.1531673 17.7747094 41.6064057 17.7747094 14.0952313 36.9646026 6.96270463 19.47293 0.84911032"></polygon>
                    <polygon id="路径" fill="#00AF92" fill-rule="nonzero" points="19.1332859 15.1141637 19.1332859 29.7188612 36.9646026 36.1720996 36.9646026 8.4911032"></polygon>
                </g>
            </g>
        </g>
    </g>
</svg>