<?xml version="1.0" encoding="UTF-8"?>
<svg width="162px" height="66px" viewBox="0 0 162 66" version="1.1" xmlns="http://www.w3.org/2000/svg" xmlns:xlink="http://www.w3.org/1999/xlink">
    <title>partners/pancakeswap_logo</title>
    <g id="partners/pancakeswap_logo" stroke="none" stroke-width="1" fill="none" fill-rule="evenodd">
        <rect id="矩形" stroke="#BFC7D2" stroke-width="0.655092094" fill="#FFFFFF" x="0.327546047" y="0.327546047" width="161.344908" height="65.3449079" rx="7.07539872"></rect>
        <g id="dapps/pancakeswap" transform="translate(20.000000, 23.567010)">
            <path d="M56.2875785,12.4338099 C56.1822085,12.248871 56.05534,12.2104421 55.8647717,12.3177227 C55.6293482,12.4503556 55.3883511,12.5773844 55.1385952,12.6793276 C54.6109493,12.8949562 54.0599469,12.9408574 53.5139874,12.778869 C52.5388512,12.4890514 52.2851141,11.5534153 52.5170872,10.4912842 C52.6548378,9.85960978 53.0890574,9.47558802 53.7228694,9.37444538 C54.3895929,9.26823228 55.022874,9.39926402 55.5967021,9.77341171 C55.6635868,9.81691104 55.7365761,9.88976576 55.8037262,9.88629649 C55.9255518,9.88069228 56.103911,9.86628146 56.1551362,9.78755566 C56.4017071,9.40940497 56.6185515,9.01123925 56.8361921,8.61467474 C56.9516478,8.40411659 56.9033422,8.21944455 56.6883557,8.10255676 C56.3985221,7.94510517 56.1158547,7.7607 55.807442,7.65368629 C54.7258742,7.27767054 53.609537,7.26859706 52.5038164,7.49143109 C51.3957071,7.71479886 50.4821472,8.27521978 49.9298178,9.30826234 C49.4621558,10.1827858 49.4265902,11.1189557 49.6017643,12.0735393 C49.8114425,13.216798 50.478166,13.9904457 51.5308035,14.4459879 C52.2559184,14.7598236 53.0192531,14.849224 53.8003707,14.8137307 C54.0517191,14.8137307 54.3049254,14.8337458 54.5541504,14.8099946 C55.3432304,14.7347381 56.0901094,14.5177751 56.7748811,14.1033305 C57.020125,13.9546855 57.0806397,13.7817556 56.9266988,13.5290325 C56.7072002,13.1676944 56.4969912,12.8007521 56.2875785,12.4338099 M80.4159624,10.274855 C80.1558553,10.2871309 79.8946865,10.2780574 79.6340486,10.2780574 C79.2733491,10.2769899 78.9123841,10.2753887 78.5514191,10.2777905 C78.3685479,10.2791249 78.3019287,10.2070708 78.335371,10.0165276 C78.4017249,9.63811008 78.608218,9.36323697 78.9471535,9.21219018 C79.3965018,9.01150612 79.8700029,9.00723625 80.3204128,9.20098177 C80.4939945,9.27543769 80.6696995,9.42248146 80.7644528,9.58366919 C80.8684957,9.76166955 80.8804394,9.99384393 80.9324608,10.2028009 C80.7604716,10.2276195 80.5890132,10.2665821 80.4159624,10.274855 M81.4160476,7.63767426 C80.6020186,7.34225238 79.7609172,7.31503193 78.9166307,7.39669327 C78.1052558,7.4751522 77.3318353,7.69691876 76.7065166,8.25840715 C75.6520212,9.20498477 75.4465897,10.4392451 75.5981419,11.7653078 C75.7499595,13.0905698 76.5071897,13.9722987 77.7172185,14.4710734 C78.7820651,14.9100697 79.8965444,14.8905884 81.0126162,14.7635597 C81.666069,14.6888369 82.2866102,14.4969595 82.851945,14.1428268 C83.0756902,14.0027216 83.1208108,13.8335278 83.002701,13.6088257 C82.8673391,13.3507653 82.7309156,13.0929716 82.5918379,12.8362455 C82.4116208,12.5031953 82.3319962,12.4580948 81.9991653,12.6408988 C81.2573292,13.0484048 80.4661259,13.0833644 79.6555472,13.0043717 C78.961486,12.9368544 78.487454,12.5749826 78.3566042,12.0559261 C78.2942316,11.8080065 78.3446605,11.7031277 78.620958,11.7079314 C79.3245742,11.7204741 80.0287213,11.7122012 80.732603,11.7122012 L80.732603,11.7114006 C81.4364846,11.7114006 82.1403663,11.7183392 82.844248,11.7089988 C83.3628697,11.7020603 83.5531725,11.5152533 83.5698937,10.9948624 C83.5775907,10.7544152 83.5584808,10.509698 83.5205264,10.2716526 C83.317749,8.99576096 82.6544759,8.08707847 81.4160476,7.63767426 M47.1758675,7.60351527 C46.3727205,7.25632117 45.5395815,7.28621029 44.7263487,7.53119429 C44.2547055,7.67290072 43.8175663,7.92962688 43.3520277,8.14018502 C43.22569,7.5773623 43.22569,7.57709543 42.6192158,7.57709543 C42.2067602,7.57682856 41.7945701,7.57122435 41.38238,7.57923037 C41.0155759,7.58616891 40.9194955,7.67076578 40.9186992,8.02196289 C40.9141872,9.98850659 40.9123293,11.9553172 40.921088,13.921594 C40.9234767,14.4249053 41.1302353,14.6162491 41.6265621,14.6229207 C42.1289935,14.6301262 42.6319557,14.6293381 43.1346525,14.6242551 C43.619301,14.6194515 43.8303063,14.4147644 43.8507433,13.9242627 C43.8629524,13.63231 43.8541937,13.3395568 43.8544591,13.0470705 C43.8549899,12.1191736 43.8443733,11.1912766 43.859502,10.2633797 C43.8695877,9.63624201 44.2151586,9.34802554 44.8840054,9.3637707 C45.417225,9.37604659 45.6192061,9.62449986 45.619737,10.2721863 C45.6205332,11.4725546 45.6184099,12.6729228 45.6207986,13.8730242 C45.6218603,14.3883446 45.8392355,14.6149147 46.3514872,14.6231876 C46.8743556,14.6314605 47.3974894,14.6319942 47.9200923,14.6210527 C48.3418374,14.6122461 48.5634592,14.4059578 48.5653172,13.9869764 C48.5716871,12.5248116 48.5897354,11.0615792 48.5472689,9.60074869 C48.5201965,8.66991623 48.045103,7.97926416 47.1758675,7.60351527 M36.89394,11.782921 C36.8822617,12.3823045 36.5980018,12.7169559 36.015415,12.8298407 C35.1005281,13.0070404 34.492196,12.552032 34.4821102,11.6244019 C34.4773327,11.1992826 34.5152871,10.742673 34.667901,10.3535808 C35.0471796,9.387255 35.8697019,9.23487389 36.6993905,9.40967184 C36.780873,9.42675134 36.8796076,9.59274268 36.8862429,9.69521964 C36.9088033,10.0570914 36.8950017,10.4210982 36.8950017,10.7840374 C36.8952671,11.1168207 36.9005754,11.4498709 36.89394,11.782921 M39.3195714,8.11696758 C37.8993336,7.37507703 36.3931011,7.18640199 34.8428097,7.48716122 C33.669939,7.71453199 32.6778162,8.28776253 32.0628487,9.37364478 C31.4930018,10.3797338 31.4308946,11.4581437 31.6628677,12.5645748 C31.7937175,13.1885101 32.0739962,13.7366551 32.5700576,14.16044 C33.4305343,14.8956589 34.44044,14.9172752 35.4771525,14.7632928 C36.0512461,14.6778954 36.566152,14.4307764 37.0120498,13.9869764 C37.0762804,14.0929227 37.1373259,14.1607069 37.162275,14.2399664 C37.2612749,14.5519341 37.4720147,14.6461382 37.7854703,14.6306599 C38.2066846,14.6101111 38.6297568,14.6269237 39.0517673,14.6253225 C39.5515445,14.6234545 39.6149788,14.5623419 39.6149788,14.0723739 C39.6160404,12.2478035 39.6102013,10.4229662 39.6216418,8.59839584 C39.623472,8.34700703 39.5319037,8.2279843 39.3195714,8.11696758 M63.091237,10.7880404 L63.0710655,10.7880404 C63.0710655,11.1811357 63.0922987,11.5758321 63.0654917,11.9670593 C63.034969,12.4129942 62.7310683,12.7305661 62.2928675,12.8159636 C61.7774308,12.9160387 61.2763265,12.9109683 60.9206698,12.443684 C60.2579275,11.5726297 60.7699139,9.77768158 61.7991948,9.4432971 C62.118755,9.33921893 62.4913982,9.38431947 62.8393578,9.38912307 C63.008162,9.39152488 63.0981378,9.51054761 63.0938912,9.69842205 C63.0851325,10.0613613 63.091237,10.4248343 63.091237,10.7880404 M65.5792411,8.15246091 C63.9421588,7.312897 62.2358032,7.10687559 60.4702599,7.64487967 C59.3499414,7.9862027 58.4961001,8.68352645 58.0446285,9.7880894 C57.6597761,10.7290628 57.6305804,11.7097994 57.8888296,12.6940053 C58.1672504,13.7550689 58.8098211,14.4921559 59.8919197,14.7269989 C61.0735491,14.9834582 62.2111195,14.8756439 63.2181056,13.9963168 C63.270127,14.0897203 63.3194943,14.1521672 63.3420546,14.2234207 C63.4378696,14.5268486 63.6308266,14.6466719 63.9535717,14.6311936 C64.4249495,14.6087768 64.8984505,14.6301262 65.37089,14.6231876 C65.70956,14.6186509 65.8051096,14.5215112 65.805375,14.1884611 C65.8074983,12.3027781 65.8037825,10.4170952 65.8104242,8.5314122 C65.8112141,8.34060222 65.7366324,8.23332164 65.5792411,8.15246091 M109.839118,10.7891079 L109.830625,10.7891079 C109.830625,11.1613875 109.842303,11.5342009 109.827705,11.9059467 C109.81125,12.3182564 109.592813,12.6078072 109.214596,12.7583203 C108.858674,12.8997598 108.469309,12.9440598 108.129312,12.7772678 C107.896278,12.6630487 107.633782,12.4428834 107.554422,12.2115096 C107.301747,11.4720208 107.335986,10.7237255 107.765162,10.0384107 C108.205221,9.33574965 108.946792,9.27036721 109.62599,9.39739595 C109.786301,9.42755194 109.848408,9.53056264 109.842569,9.70189132 C109.830625,10.0637631 109.839118,10.4267024 109.839118,10.7891079 M112.10497,8.03183698 C110.713397,7.36733789 109.254143,7.19067186 107.757731,7.49196482 C106.491965,7.74708978 105.458702,8.39584371 104.876116,9.60581916 C104.397837,10.6004329 104.351389,11.6558923 104.636976,12.7036125 C105.00033,14.0358131 105.967238,14.7769031 107.270428,14.8278747 C108.251934,14.8660367 109.177172,14.7302013 109.956963,13.9920469 C110.017477,14.0897203 110.068703,14.1433606 110.087282,14.2071418 C110.180973,14.5263148 110.380566,14.6520093 110.715785,14.6314605 C111.116563,14.6074424 111.519994,14.6266569 111.921833,14.6255894 C112.503624,14.6242551 112.567854,14.5612744 112.567854,13.9888445 C112.568385,12.254742 112.551664,10.5203727 112.580329,8.78653715 C112.586964,8.38276722 112.436473,8.19035604 112.10497,8.03183698 M103.455878,7.5781629 C102.822331,7.57762916 102.188519,7.57762916 101.554973,7.57869663 C101.347152,7.5789635 101.210729,7.68357541 101.1603,7.88372573 C101.05785,8.29336674 100.963362,8.70514268 100.864362,9.11585116 C100.70644,9.76994243 100.547987,10.4235 100.389534,11.0770575 L100.317341,11.0786587 C100.277528,10.9889914 100.232408,10.9011921 100.198965,10.8091229 C99.9343461,10.0813763 99.6697269,9.35336288 99.4098853,8.62401508 C99.3063732,8.33339681 99.1317299,8.17514461 98.8018186,8.20556746 C98.5624139,8.2279843 98.3182317,8.22398129 98.0782961,8.20663493 C97.7717414,8.18475183 97.6278862,8.33633234 97.531275,8.60933739 C97.2690446,9.34829241 96.9885005,10.0811095 96.7129993,10.8152609 C96.6803532,10.9019927 96.6328438,10.9828534 96.5646321,11.1232255 C96.519246,11.0031353 96.4929699,10.9518968 96.48023,10.897456 C96.2490532,9.91778681 96.0205305,8.93731707 95.7896191,7.95764792 C95.7466218,7.77457709 95.6858417,7.59203999 95.4557265,7.58963818 C94.7722818,7.58163217 94.0883063,7.57682856 93.4048616,7.58536831 C93.2042076,7.58803698 93.1198055,7.71106272 93.1896097,7.91708412 C93.2442853,8.07907246 93.2915293,8.24319572 93.3401003,8.40705213 C93.9171134,10.355182 94.4943919,12.3035787 95.0695471,14.2519755 C95.1414747,14.4953583 95.2863915,14.6274575 95.5480911,14.6255894 C96.0407021,14.6218533 96.5338439,14.6239882 97.0264549,14.6247888 C97.2446263,14.6250557 97.3821115,14.5223118 97.4535083,14.3141555 C97.5413608,14.0574293 97.6403607,13.8047062 97.7337869,13.5498481 C97.9607171,12.9331182 98.1871165,12.3163884 98.4424461,11.6209327 C98.5178241,11.7842553 98.5642718,11.8691191 98.5974487,11.9587864 C98.8721536,12.70468 99.1508398,13.4489723 99.4141319,14.1983352 C99.5224214,14.5062998 99.6965339,14.6544111 100.038654,14.6317274 C100.429346,14.6058412 100.822691,14.62639 101.21471,14.6255894 C101.669632,14.6247888 101.760935,14.5505998 101.892316,14.1070666 C102.232047,12.9595381 102.574964,11.8128101 102.916554,10.6658153 C103.18595,9.75953462 103.454285,8.85298706 103.72554,7.94724011 C103.800122,7.69878683 103.710942,7.57842977 103.455878,7.5781629 M74.907531,13.9338699 C74.1877244,13.0793614 73.4663253,12.226721 72.747315,11.3716788 C72.4357173,11.0007335 72.4383715,10.9983317 72.7619128,10.6460671 C72.7757144,10.6311226 72.791374,10.6180461 72.8043793,10.6031015 C73.5037489,9.79796348 74.2086922,8.99762903 74.8958527,8.18261689 C74.9855631,8.07640378 75.0566945,7.86317697 75.0086543,7.75829819 C74.962472,7.65795616 74.7512013,7.58857072 74.6107966,7.58483458 C73.9172661,7.56802195 73.2232048,7.58029784 72.5288781,7.57549423 C72.2791222,7.57389302 72.0888194,7.65608809 71.9367363,7.8653119 C71.6530073,8.25547161 71.3517608,8.63308857 71.0579459,9.01577599 C70.7590882,9.40486823 70.4604958,9.79342674 70.1616381,10.1822521 L70.0674156,10.1574335 C70.0618419,10.04188 70.0512253,9.92659342 70.0512253,9.81130683 C70.0501636,8.43934305 70.0509599,7.06764613 70.0496328,5.69568234 C70.0493674,5.54490242 70.0477749,5.39225444 70.0283996,5.24307573 C69.976909,4.84704494 69.8532254,4.68612408 69.4612068,4.66317351 C68.8807433,4.62901452 68.2955024,4.62607898 67.7150389,4.6575693 C67.2709989,4.68185421 67.1152,4.87853526 67.1146692,5.32874007 C67.1109534,8.20343253 67.110688,11.0783919 67.1152,13.9530843 C67.1159963,14.4214361 67.3147924,14.6133135 67.7819235,14.6218533 C68.2644488,14.6306599 68.7475048,14.6279912 69.2302954,14.6247888 C69.8452629,14.6207858 70.0392816,14.4299758 70.0483057,13.807108 C70.0560028,13.2624322 70.0488365,12.7177565 70.0517561,12.1730807 C70.0522869,12.0708706 70.0687427,11.9686605 70.0780322,11.8661835 C70.2147212,11.9320997 70.2831983,12.0132273 70.3458364,12.0983579 C70.8883455,12.8365123 71.4234229,13.5797372 71.9768141,14.309085 C72.0776719,14.4419848 72.2491303,14.6026388 72.3929854,14.6077093 C73.2064837,14.6373316 74.0218398,14.6301262 74.8363997,14.6202521 C75.1044692,14.6170497 75.2114316,14.385409 75.0712923,14.1502991 C75.0253754,14.0731745 74.9659224,14.0029885 74.907531,13.9338699 M91.2003213,9.65732452 C90.4842305,9.26049313 89.7134641,8.96347004 88.9724243,8.61067173 C88.6037623,8.43507317 88.20617,8.28482699 87.8940415,8.03290445 C87.3573716,7.59897853 87.5521865,6.80157962 88.2128054,6.6070335 C88.4033737,6.55099141 88.6072127,6.52323723 88.8060089,6.51576495 C89.5658932,6.48827764 90.2838419,6.64065876 90.929863,7.06310939 C91.1260049,7.19147246 91.2974633,7.21415617 91.4383989,6.98331612 C91.6693103,6.60516543 91.9057954,6.23101775 92.1382993,5.8542014 C92.266495,5.64657879 92.2242939,5.46484229 92.0331948,5.32580453 C91.8707606,5.20811614 91.7083263,5.07948619 91.5265168,5.001561 C89.9143836,4.3111758 88.2531486,4.1886838 86.5839511,4.71868187 C85.6000561,5.03145011 84.9006865,5.69888474 84.7194078,6.77756158 C84.5588315,7.73294582 84.6912738,8.6320211 85.4800884,9.28050816 C85.9018335,9.62690167 86.3936482,9.90177478 86.8844013,10.1472925 C87.5657227,10.4872812 88.2844676,10.7514796 88.970301,11.0829286 C89.407971,11.2945542 89.5807564,11.6796434 89.4907806,12.0674013 C89.4008048,12.4554261 89.105132,12.6774595 88.6212797,12.728698 C87.5253795,12.8455858 86.5045919,12.5963319 85.5493618,12.0716712 C85.304118,11.9371702 85.166102,11.9788015 85.0352522,12.2021692 C84.9081182,12.4191322 84.7727563,12.6312915 84.6355365,12.8421165 C84.1254081,13.6240372 84.1615046,13.7556026 85.0126918,14.152434 C86.1194741,14.6688219 87.2944681,14.8364144 88.5992503,14.8289421 C89.2826949,14.8532271 90.0500109,14.7883783 90.7761874,14.4729414 C91.7863585,14.033945 92.3800927,13.274975 92.4464466,12.1616054 C92.5098809,11.0984069 92.1656371,10.1915925 91.2003213,9.65732452 M118.765304,12.3502805 C118.541293,12.7449769 118.062749,12.9555351 117.574916,12.8701376 C117.048066,12.7778016 116.766726,12.5354862 116.736203,12.0006846 C116.691348,11.2179633 116.709396,10.4312391 116.715501,9.64664983 C116.716032,9.57593005 116.812377,9.46384586 116.88457,9.44383083 C117.084428,9.38778874 117.294903,9.37017551 117.501661,9.33708399 C118.491395,9.35763276 118.963038,9.78488699 119.051422,10.7738965 C119.100258,11.3239096 119.044786,11.8579107 118.765304,12.3502805 M121.911273,10.1622371 C121.765294,9.22926968 121.294978,8.49351707 120.472456,8.00034666 C119.899955,7.65688869 119.271451,7.4994371 118.618529,7.42204564 C117.038246,7.23470493 115.536525,7.46874739 114.13354,8.25493788 C113.91351,8.37823048 113.829108,8.52073751 113.83016,8.7779974 C113.839725,11.4109083 113.835744,14.0438191 113.836009,16.67673 C113.836274,16.7674648 113.834151,16.8587333 113.842644,16.9489344 C113.88458,17.3994061 114.067982,17.5808757 114.516799,17.5894155 C114.999325,17.5990227 115.482381,17.5968878 115.965171,17.5920842 C116.532364,17.5862131 116.720544,17.3967374 116.724525,16.8248412 C116.729302,16.1488668 116.72479,15.4731593 116.727179,14.7969181 C116.727444,14.6923062 116.742042,14.5871605 116.754251,14.4278409 C117.475385,14.83935 118.212974,14.8788463 118.959057,14.8107952 C119.996035,14.716858 120.846692,14.2767941 121.414946,13.3742496 C122.042123,12.3785684 122.086181,11.2804102 121.911273,10.1622371 M28.0943575,8.50419175 C28.0242879,8.96266944 27.6625267,9.32294003 27.2012347,9.36030143 C26.7155245,9.39979776 26.2237097,9.36910804 25.7045572,9.36910804 C25.7045572,8.54342122 25.7019031,7.73908376 25.7101309,6.93501318 C25.7106618,6.87897108 25.794533,6.77409231 25.8367341,6.77567539 C26.3654416,6.79384048 26.9002536,6.78583446 27.4194062,6.87096507 C27.8185909,6.93661438 28.0444594,7.26993139 28.0972771,7.66809711 C28.133639,7.9424365 28.1360278,8.2311867 28.0943575,8.50419175 M28.1599151,4.71708066 C26.6282028,4.61380309 25.0869356,4.6388886 23.5496495,4.63835487 C22.9434407,4.638088 22.7560574,4.87426539 22.755792,5.48592479 C22.7546599,6.86722893 22.7552612,8.2482662 22.7555266,9.62957034 C22.7555266,11.0511714 22.7528725,12.4727725 22.7568537,13.8943735 C22.7581808,14.4024885 22.9697168,14.6173165 23.468167,14.6234545 C23.9705983,14.6301262 24.4732951,14.6301262 24.9759919,14.6237213 C25.4845278,14.6173165 25.697391,14.4072921 25.7011068,13.9079838 C25.7061497,13.2125281 25.714643,12.5165387 25.6971256,11.8213499 C25.6904902,11.549946 25.7820585,11.4872323 26.0416348,11.4810943 C26.8835325,11.4605455 27.7323309,11.4642817 28.5641428,11.353265 C29.4992013,11.2283712 30.2869542,10.7744302 30.7063106,9.87775674 C31.2419189,8.73263 31.2416535,7.54533824 30.7601899,6.39087115 C30.2880159,5.25935462 29.283684,4.79287092 28.1599151,4.71708066" id="Fill-1" fill="#191226"></path>
            <g id="pan" transform="translate(0.000000, 0.000000)">
                <path d="M3.34892889,2.94887639 C3.06268482,1.41608631 4.23880766,0 5.79809264,0 C7.17413002,0 8.28958105,1.1154864 8.28958105,2.49150609 L8.28958105,5.56314694 C8.63376726,5.53885699 8.98349535,5.52639955 9.33770411,5.52639955 C9.67799922,5.52639955 10.0141674,5.53789601 10.3452653,5.56034063 L10.3452653,2.49150609 C10.3452653,1.1154864 11.4607164,0 12.8367537,0 C14.3960269,0 15.5721439,1.41608631 15.2859116,2.94887639 L14.6116887,6.55940625 C16.92566,7.56967945 18.6754206,9.32433344 18.6754206,11.5292358 L18.6754206,12.8631785 C18.6754206,14.676317 17.4758981,16.1944388 15.7989483,17.2192152 C14.1089103,18.2520097 11.8226484,18.8659794 9.33770411,18.8659794 C6.85275985,18.8659794 4.56649203,18.2520097 2.8764717,17.2192152 C1.19953375,16.1944388 0,14.676317 0,12.8631785 L0,11.5292358 C0,9.33600677 1.73176072,7.58813273 4.02624703,6.57585503 L3.34892889,2.94887639 Z M13.7476268,7.03376772 L14.5366374,2.80894388 C14.7352608,1.74510309 13.9190124,0.76226221 12.8367537,0.76226221 C11.8817225,0.76226221 11.1075098,1.53646894 11.1075098,2.49150609 L11.1075098,6.40040142 C10.8572408,6.36832925 10.6030218,6.34286018 10.3452653,6.32446585 C10.0147569,6.30082442 9.67858878,6.28867945 9.33770411,6.28867945 C8.98290579,6.28867945 8.63311874,6.30182668 8.28958105,6.32741366 C8.0318246,6.34663338 7.77754658,6.37280992 7.52733652,6.40564852 L7.52733652,2.49150609 C7.52733652,1.53646894 6.75312389,0.76226221 5.79809264,0.76226221 C4.71586342,0.76226221 3.89956787,1.74510309 4.09823842,2.80894388 L4.88982544,7.04779929 C2.41519851,7.96704414 0.76226162,9.63013918 0.76226162,11.5292358 L0.76226162,12.8631785 C0.76226162,15.7574555 4.60161813,18.1037349 9.33770411,18.1037349 C14.0737724,18.1037349 17.9131761,15.7574555 17.9131761,12.8631785 L17.9131761,11.5292358 C17.9131761,9.62047036 16.2433011,7.95006476 13.7476268,7.03376772 Z" id="形状" fill="#633001"></path>
                <path d="M17.9131761,12.8632374 C17.9131761,15.7575145 14.0738314,18.1037938 9.33770411,18.1037938 C4.60164171,18.1037938 0.762285203,15.7575145 0.762285203,12.8632374 L0.762285203,11.5292948 L17.9131761,11.5292948 L17.9131761,12.8632374 Z" id="路径" fill="#FEDC90" fill-rule="nonzero"></path>
                <path d="M4.09825611,2.80896746 C3.89959145,1.74512668 4.71588111,0.762285793 5.79811623,0.762285793 C6.75312389,0.762285793 7.52733652,1.53649253 7.52733652,2.49152967 L7.52733652,6.40570747 C8.1109438,6.32900548 8.71665966,6.28867945 9.33770411,6.28867945 C9.94442222,6.28867945 10.5364602,6.32717784 11.1075098,6.40040142 L11.1075098,2.49152967 C11.1075098,1.53649253 11.8817225,0.762285793 12.8367537,0.762285793 C13.9190124,0.762285793 14.7353198,1.74512668 14.5366374,2.80896746 L13.7476858,7.03382668 C16.2433011,7.95006476 17.9131761,9.62047036 17.9131761,11.5292358 C17.9131761,14.4235129 14.0738314,16.7697922 9.33770411,16.7697922 C4.60164171,16.7697922 0.762285203,14.4235129 0.762285203,11.5292358 C0.762285203,9.63019813 2.41522209,7.96704414 4.88984902,7.04779929 L4.09825611,2.80896746 Z" id="路径" fill="#D1884F"></path>
                <path d="M6.95557944,11.1480841 C6.95557944,11.9374485 6.52897248,12.5772999 6.00272957,12.5772999 C5.47651613,12.5772999 5.04992096,11.9374485 5.04992096,11.1480841 C5.04992096,10.3587197 5.47651613,9.71886823 6.00272957,9.71886823 C6.52897248,9.71886823 6.95557944,10.3587197 6.95557944,11.1480841 Z" id="路径" fill="#633001" fill-rule="nonzero"></path>
                <path d="M13.5301374,11.1480841 C13.5301374,11.9374485 13.1035305,12.5772999 12.5772876,12.5772999 C12.0511036,12.5772999 11.6244966,11.9374485 11.6244966,11.1480841 C11.6244966,10.3587197 12.0511036,9.71886823 12.5772876,9.71886823 C13.1035305,9.71886823 13.5301374,10.3587197 13.5301374,11.1480841 Z" id="路径" fill="#633001" fill-rule="nonzero"></path>
            </g>
        </g>
    </g>
</svg>