<?xml version="1.0" encoding="UTF-8"?>
<svg width="162px" height="66px" viewBox="0 0 162 66" version="1.1" xmlns="http://www.w3.org/2000/svg" xmlns:xlink="http://www.w3.org/1999/xlink">
    <!-- Generator: Sketch 61 (89581) - https://sketch.com -->
    <title>partners/polkadot_logo</title>
    <desc>Created with Sketch.</desc>
    <g id="partners/polkadot_logo" stroke="none" stroke-width="1" fill="none" fill-rule="evenodd">
        <g id="polkadot_logo">
            <rect id="矩形" stroke="#BFC7D2" stroke-width="0.655092094" fill="#FFFFFF" x="0.327546047" y="0.327546047" width="161.344908" height="65.3449079" rx="7.07539872"></rect>
            <g id="collection/Polkadot" transform="translate(13.750858, 17.001135)" fill-rule="nonzero">
                <g id="polkadot">
                    <path d="M30.7515577,12.1722468 C28.333798,12.1424735 26.0515187,13.2861832 24.6281995,15.2408215 C22.9938734,17.2563206 22.122225,19.7833683 22.166444,22.3778437 C22.0842137,24.0465359 22.6359856,25.6846085 23.7110749,26.9634667 C24.7417436,28.1345887 26.2487362,28.7739189 27.807105,28.7011765 C30.1106047,28.6992843 32.2830827,27.6295999 33.6891146,25.8049935 C35.4330588,23.7127354 36.3743044,21.0674686 36.343949,18.3438747 C36.4136447,16.7472163 35.9556308,15.1720364 35.0406666,13.8616868 C34.1235421,12.7514834 32.6754506,12.1722468 30.7515577,12.1722468 Z M30.8480971,24.4189631 C30.0720747,25.211505 29.012794,25.6630017 27.9036444,25.6739757 C27.1571793,25.7148806 26.4372978,25.3909339 25.9728558,24.8051209 C25.4673914,24.1088554 25.2232578,23.2568292 25.2832885,22.3985308 C25.2156585,20.563183 25.7402918,18.7547698 26.7796496,17.2405669 C27.6054689,15.9358046 29.0489312,15.1527327 30.5929572,15.1718648 C32.3214727,15.1718648 33.188029,16.2315 33.1926261,18.3507703 C33.2220988,20.6000167 32.3822158,22.7738316 30.8480971,24.4189631 L30.8480971,24.4189631 Z M124.187935,19.7919661 C123.455794,19.5390304 122.653069,19.8981441 122.353686,20.6125513 C121.00903,23.9914314 119.367859,25.6739757 117.340531,25.6739757 C116.278598,25.6739757 115.747631,24.7568511 115.747631,23.0260371 C115.879323,21.062053 116.165225,19.1114628 116.602694,17.1922972 L117.037122,15.1649691 L121.174526,15.1649691 C121.886194,15.1715293 122.497135,14.6599752 122.615722,13.9582263 C122.704107,13.5233023 122.593938,13.0716192 122.315229,12.7262327 C122.036519,12.3808462 121.618306,12.1777396 121.174526,12.1722468 L117.726689,12.1722468 L118.416256,8.80026238 C118.513107,8.345105 118.401489,7.87048108 118.111929,7.50619625 C117.82237,7.14191142 117.385168,6.92608493 116.919895,6.91774349 C116.195482,6.90684968 115.566357,7.41420878 115.423534,8.12448637 L114.533992,12.1239771 L104.880049,12.1239771 C102.448945,12.1020177 100.159318,13.2648394 98.7428995,15.2408215 C97.1085735,17.2563206 96.2369251,19.7833683 96.2811441,22.3778437 C96.2809431,23.0744462 96.3619392,23.768698 96.5224926,24.4465458 C95.8927294,25.1838498 94.9816078,25.6218891 94.0124674,25.6532887 C93.5192392,25.7007766 93.0342898,25.5021537 92.7160808,25.1223218 C92.4186554,24.5964108 92.2842457,23.9939676 92.3299231,23.3915078 C92.3944079,21.6518253 92.6253174,19.9223136 93.0194904,18.2266482 L95.52262,6.55916846 C95.7130387,5.73465519 95.1990036,4.91189021 94.3744903,4.72147144 C93.549977,4.53105267 92.7272121,5.04508783 92.5367933,5.8696011 L91.0887018,12.9928319 C90.0681367,12.3823153 88.89901,12.064981 87.7098218,12.0757074 C85.2892479,12.0401377 82.9834463,13.1055246 81.4416544,14.9718903 C79.7488361,17.0324539 78.8596211,19.6364087 78.9385249,22.3019913 C78.9217381,23.1487803 79.0357083,23.9930897 79.2764129,24.8051209 C78.6856136,25.3176257 77.9344572,25.6078452 77.1525454,25.625706 C76.6353995,25.6719416 76.1260337,25.4758358 75.7734107,25.0947391 C75.4342785,24.5847457 75.2808886,23.9736209 75.3389833,23.3639251 C75.3905348,22.2019719 75.5521573,21.0475254 75.8216804,19.9160883 C75.9073425,19.4810623 75.806995,19.0300404 75.5449667,18.6723719 C75.2829385,18.3147034 74.883156,18.0830477 74.4425457,18.0335694 C73.6683813,17.9343409 72.9435188,18.4334265 72.7600013,19.1920425 C72.3563399,20.8439288 71.6349673,22.4014378 70.6361339,23.7776655 C69.9281035,24.8689292 68.7480735,25.5636655 67.4503327,25.6532887 C66.7740838,25.639958 66.1541168,25.2737327 65.816058,24.6878944 C65.3701988,23.9134715 65.1504127,23.0295489 65.181656,22.1364952 C65.0925299,20.3295863 65.6174908,18.5456914 66.6711215,17.0750707 C67.5674499,15.7787654 69.0535148,15.0176102 70.6292382,15.0477427 C71.4258851,15.0537457 72.2134172,15.2178149 72.9461845,15.5304398 C73.3899973,15.7476387 73.9160943,15.7108119 74.3253193,15.4339004 C74.8088417,15.1452524 75.0882363,14.6085912 75.0473896,14.046948 C75.0065428,13.4853047 74.6524391,12.9947162 74.1322404,12.7790661 C73.7458949,12.6113845 73.3440176,12.4820447 72.9323932,12.3929083 C72.1931809,12.1862816 71.4310588,12.0727741 70.6637166,12.0550203 C68.2663012,12.0451245 65.9899715,13.1074117 64.4576103,14.9512033 C63.5431361,15.9791033 62.8673118,17.1965289 62.478552,18.5162665 L62.478552,18.5162665 C60.9821908,23.2673856 59.0582979,25.584332 56.7413515,25.584332 C56.0687202,25.6376727 55.414781,25.347033 55.0036418,24.8120165 C54.6208213,24.2642818 54.4337659,23.6035147 54.4726749,22.9363933 C54.460657,22.7260074 54.4768914,22.5149598 54.5209446,22.308887 C55.9172322,21.7647021 57.136464,20.8461029 58.0446338,19.6540527 C58.9267307,18.5246866 59.4115062,17.1358049 59.4237686,15.7028317 C59.4237686,13.2893459 58.1273819,12.082603 55.4725476,12.082603 C53.6285276,12.0737944 51.8578042,12.8039384 50.5559323,14.1099311 L52.1971026,6.52469009 C52.2906412,6.07494507 52.176317,5.60700204 51.8859374,5.25105293 C51.5955579,4.89510382 51.1601088,4.68913112 50.7007414,4.69044091 C49.9763286,4.6795471 49.3472033,5.1869062 49.2043803,5.89718379 L44.7221924,26.8255532 C44.626203,27.2744683 44.7386517,27.7427048 45.0280324,28.0990719 C45.3174132,28.455439 45.7525986,28.6616036 46.2116579,28.6598024 L46.2116579,28.6598024 C46.9255589,28.6373405 47.5250847,28.1156378 47.645958,27.4116855 L49.0250927,20.998709 C49.2623704,20.1474402 49.5858419,19.322588 49.9904871,18.5369535 C50.4981253,17.6342325 51.1886312,16.8474316 52.0178151,16.2269029 C52.8583736,15.4965353 53.9384759,15.101316 55.0519115,15.1166994 C55.3712877,15.0696233 55.6941058,15.1764319 55.922379,15.4047051 C56.1506522,15.6329783 56.2574608,15.9557964 56.2103847,16.2751726 C56.1316324,17.2988225 55.6007848,18.2341253 54.7622932,18.8265718 C53.8850748,19.6171086 52.7977703,20.1368114 51.6316574,20.322933 C51.5351179,21.2400576 51.4868482,21.9158336 51.4868482,22.3019913 C51.4126653,23.9611227 51.8850572,25.5987479 52.8315046,26.9634667 C53.7601516,28.1304994 55.2057203,28.7629358 56.6930818,28.6529067 C58.75123,28.6341495 60.6873983,27.6736881 61.9475851,26.0463421 L62.5268217,25.3567747 C62.745061,25.9188003 63.0549712,26.4407544 63.4439463,26.9014056 C64.3833817,28.0554953 65.811743,28.6994077 67.2986278,28.6391154 C69.3673299,28.6391154 71.1119354,27.6737211 72.5600268,25.646393 C73.1806374,27.6737211 74.6287289,28.6391154 77.0422147,28.6391154 C78.3977948,28.6221016 79.7058852,28.137353 80.7451914,27.2668763 C81.6768258,28.1402779 82.9165992,28.6089122 84.1930282,28.5701587 C86.2617303,28.5701587 87.99944,27.6047643 89.4475315,25.5774363 C90.0750378,27.6047643 91.5162336,28.5701587 93.9297194,28.5701587 C95.4614006,28.5855543 96.9412178,28.0158247 98.0671235,26.977258 C99.0818472,28.039888 100.501596,28.6193263 101.970075,28.5701587 C104.274065,28.5703708 106.447421,27.5002538 107.852084,25.6739757 C109.588317,23.5907794 110.529072,20.9591095 110.506919,18.2473352 C110.527903,17.1439889 110.331068,16.0473372 109.927682,15.02016 L113.934069,15.02016 L113.547911,16.7578697 C113.055276,18.7683675 112.732343,20.8166838 112.582517,22.8812279 C112.582517,26.63937 114.127147,28.5701587 117.161244,28.5701587 C120.609081,28.5701587 123.188063,26.2532123 125.022312,21.674485 C125.184704,21.3162763 125.186434,20.9057752 125.027067,20.5462105 C124.867699,20.1866459 124.562397,19.9122284 124.187935,19.7919661 Z M89.9991854,17.957717 C89.4682185,20.6125513 88.6200507,22.5433399 87.6339693,23.7983525 C86.647888,25.0533651 85.5169975,25.6739757 84.3585244,25.6739757 C83.6805641,25.6603361 83.0586702,25.2945161 82.7173541,24.7085814 C82.282591,23.9475396 82.0655063,23.0815861 82.0898478,22.2054519 C81.9999708,20.397407 82.5276472,18.6125476 83.5862089,17.1440275 C84.3008761,16.045968 85.4614409,15.3168756 86.7608694,15.1496355 C88.060298,14.9823955 89.3676555,15.3938595 90.3370734,16.2751726 L89.9991854,17.957717 Z M106.783255,21.5779456 C106.316293,22.5741935 105.732994,23.5116373 105.045545,24.3706934 C104.280312,25.1848938 103.218296,25.6549666 102.101093,25.6739757 C101.356568,25.7149476 100.638736,25.3907656 100.1772,24.8051209 C99.6717352,24.1088554 99.4276016,23.2568292 99.4876323,22.3985308 C99.4209136,20.5643091 99.9428501,18.7568624 100.977098,17.2405669 C101.811247,15.9447486 103.249335,15.1645924 104.790405,15.1718144 C106.528115,15.1718144 107.39697,16.2315 107.39697,18.3507703 C107.363635,19.4552594 107.144505,20.5462451 106.748777,21.5779456 L106.783255,21.5779456 Z M43.8188592,4.69716447 C43.0944463,4.68644277 42.465321,5.19380188 42.322498,5.90407946 L37.8403101,26.8324489 C37.7443207,27.281364 37.8567694,27.7496005 38.1461502,28.1059676 C38.435531,28.4623347 38.8707163,28.6684993 39.3297756,28.6668702 C40.0541885,28.6775919 40.6833138,28.1702328 40.8261368,27.4599552 L45.3152203,6.53158576 C45.4009054,6.08292944 45.2836249,5.61935566 44.9948914,5.2654243 C44.7061579,4.91149294 44.2755827,4.70350164 43.8188592,4.69716447 Z M11.7470812,0.0703395815 C5.68595291,0.093026513 0.778064336,5.00091508 0.755377329,11.0620433 C0.755377329,12.2760882 0.950825475,13.4822161 1.33461399,14.6340023 C1.62070016,15.4166028 2.46767046,15.840088 3.2654026,15.5993966 C4.03954192,15.305214 4.4505835,14.4589519 4.20321421,13.668608 C3.87673668,12.7729072 3.73141454,11.8212816 3.77568245,10.8689645 C3.90280642,6.58397684 7.41228216,3.17575609 11.6991548,3.17409927 C15.9860274,3.17244245 19.4981365,6.57794944 19.6285726,10.8628375 C19.7590088,15.1477256 16.4605445,18.760553 12.1815086,19.0196507 C12.1815086,19.0196507 10.6437734,19.1161901 9.87145793,19.2127296 C9.58825687,19.252697 9.30742315,19.307943 9.03018575,19.3782257 C8.98900613,19.4091104 8.931383,19.4050153 8.89498502,19.3686173 C8.85858704,19.3322193 8.85449189,19.2745962 8.8853766,19.2334166 L9.12672518,17.9301343 L10.5748166,11.3723486 C10.7480977,10.5592605 10.2294316,9.75965029 9.41634347,9.58636921 C8.60325533,9.41308813 7.8036451,9.93175422 7.630364,10.7448423 C7.630364,10.7448423 4.18252719,26.7565965 4.18252719,26.9014056 C4.08657314,27.2918515 4.1556638,27.7045813 4.37354412,28.0424915 C4.59142444,28.3804017 4.93885841,28.6136592 5.33410469,28.6873851 C5.72540554,28.7811339 6.13803334,28.7102452 6.47560992,28.4912766 C6.81318649,28.272308 7.04614906,27.9244354 7.12008416,27.5289119 C7.16835387,27.3358331 7.60278131,25.2119656 7.60278131,25.2119656 C7.9305369,23.6107861 9.22122793,22.3833912 10.8368522,22.1364952 C11.1678446,22.0882255 12.5676663,21.991686 12.5676663,21.991686 C18.3761034,21.4548405 22.7520248,16.4717003 22.5338228,10.6425896 C22.3156208,4.81347885 17.5793983,0.171434961 11.7470812,0.0703395815 Z" id="形状" fill="#000000"></path>
                    <path d="M132.16823,27.9973165 C131.653278,27.8929226 131.117956,27.9980944 130.680775,28.2895486 C130.243593,28.5810027 129.940618,29.0346959 129.838924,29.550187 C129.728226,30.0657385 129.830795,30.6041446 130.12329,31.0428863 C130.415784,31.4816279 130.873325,31.783386 131.391794,31.8794929 C131.907042,31.9966958 132.447816,31.8966683 132.887049,31.6029139 C133.326281,31.3091595 133.62525,30.847576 133.713706,30.3266223 C133.894576,29.2638738 133.217719,28.2437307 132.16823,27.9973165 L132.16823,27.9973165 Z" id="路径" fill="#E6007A"></path>
                </g>
            </g>
        </g>
    </g>
</svg>