<?xml version="1.0" encoding="UTF-8"?>
<svg width="162px" height="66px" viewBox="0 0 162 66" version="1.1" xmlns="http://www.w3.org/2000/svg" xmlns:xlink="http://www.w3.org/1999/xlink">
    <title>partners/polygon_logo</title>
    <g id="partners/polygon_logo" stroke="none" stroke-width="1" fill="none" fill-rule="evenodd">
        <rect id="矩形" stroke="#BFC7D2" stroke-width="0.655092094" fill="#FFFFFF" x="0.327546047" y="0.327546047" width="161.344908" height="65.3449079" rx="7.07539872"></rect>
        <g id="dapps/P/polygon" transform="translate(17.000000, 19.086957)">
            <path d="M87.7719661,9.99378759 C89.916928,7.57769087 93.6775771,7.61140711 95.924156,9.4400451 C96.0020078,8.60591926 96.5699158,8.62500171 97.1821934,8.65169374 C97.9187997,8.683771 98.6579815,8.65930331 99.4757175,8.65930331 L99.4757175,8.65930331 L99.4755861,14.0302689 L99.4755861,14.0302689 L99.4767735,18.7406946 C99.4789955,21.8287748 97.9028781,23.8772708 94.8667771,24.6049798 C92.1139862,25.2647879 89.6217938,24.7330547 87.4076433,22.7340794 C88.1040945,21.9267627 88.7619125,21.1641668 89.4300327,20.3895126 C90.3164889,21.1830151 91.2683875,21.792366 92.4547778,21.8277212 C93.0288906,21.8448134 93.6330904,21.7929513 94.1792233,21.6263603 C95.4358558,21.2429551 95.9460482,20.4653742 95.9481554,19.1336996 L95.9481554,19.1336996 L95.9482725,17.872033 C94.5969301,19.5215535 92.8905135,19.865506 91.0398663,19.6520868 C89.6699097,19.494159 88.5473226,18.7910348 87.6533739,17.7492263 C85.7289724,15.5067448 85.8158385,12.1974017 87.7719661,9.99378759 Z M86.1023915,8.6622769 C85.8469441,9.24950149 85.626969,9.76402543 85.3998527,10.2753885 C83.3545176,14.8826899 81.3023924,19.4870646 79.2707545,24.1004536 C79.0939784,24.5018877 78.8826665,24.640733 78.4473991,24.6224701 C77.5541528,24.5847734 76.6582138,24.6111143 75.6793891,24.6111143 C76.2092492,23.4536403 76.7086711,22.3617256 77.2090296,21.2701622 C77.4443408,20.756926 77.6512041,20.3283317 77.929246,19.7386486 C78.207288,19.1489655 78.2111513,18.6173493 77.9054807,18.0130325 C76.4465507,15.1297082 75.0254344,12.2271844 73.5929623,9.3306312 C73.5004768,9.14355287 73.4257859,8.94792841 73.3030963,8.6646183 C74.5975425,8.6646183 75.8162443,8.6504528 77.0335412,8.68440318 C77.1701622,8.68814943 77.3450652,8.94383095 77.4249072,9.11814862 C78.2605549,10.9398795 79.0801641,12.7688687 79.9050414,14.5955165 C79.9591278,14.7155135 80.0190678,14.832935 80.1155337,15.0321887 C80.7303869,13.6740562 81.315036,12.3839415 81.8986314,11.0933586 C82.2113261,10.4018244 82.5111432,9.70420251 82.8426862,9.02191684 C82.9144503,8.87440827 83.0941532,8.68241299 83.2294865,8.67808139 C84.1593758,8.64799432 85.09067,8.6622769 86.1023915,8.6622769 Z M42.8018243,9.63846754 C44.5361037,8.32177795 46.4150819,7.73033882 48.5208253,8.24814073 C49.6301834,8.52091452 50.5437999,9.16140609 51.2274904,10.0795884 C52.9316827,12.3681956 52.8019688,16.0042818 50.9653701,17.9993938 C49.1446928,19.9770623 45.82575,20.2109687 42.9718104,18.5191859 L42.9718104,18.5191859 L42.9718104,24.5357795 L39.5558163,24.5357795 L39.5558163,8.34683099 C40.4590136,8.34683099 41.3685327,8.33758244 42.2773494,8.36041114 C42.3736983,8.36286962 42.5084462,8.53859213 42.5505915,8.65987696 C42.6512719,8.95032835 42.7073486,9.25646717 42.8018243,9.63846754 Z M58.2180855,8.33177575 C60.2446894,7.87309434 62.1918025,8.06684567 63.8895559,9.34384844 C65.9147549,10.866933 66.5180181,12.982159 65.9563149,15.3712125 C65.4093624,17.6964627 63.8050311,19.044293 61.4918392,19.5450026 C60.9816469,19.655517 59.8429041,19.8288981 58.8577576,19.6310493 C58.1951397,19.4980575 57.5373217,19.3468026 56.9305464,19.0822238 C54.6255494,18.0776436 53.4427882,15.8636102 53.7111133,13.3450769 C53.9851749,10.7723402 55.6410171,8.91490288 58.2180855,8.33177575 Z M106.828036,8.15641616 C107.672933,8.01218555 108.779364,8.05175531 109.204915,8.13639714 C110.690419,8.43188256 111.962739,9.12201194 112.93372,10.4247702 C115.182641,13.4416716 114.136501,18.788389 109.016197,19.5630432 C107.283908,19.8250465 105.628885,19.5981643 104.126639,18.673426 C102.157985,17.4615143 101.45252,15.5859312 101.622974,13.3769318 C101.815438,10.8819297 103.218525,9.25594036 105.551736,8.45635025 C105.963121,8.31539762 106.393706,8.23052165 106.828036,8.15641616 Z M126.76389,9.43059753 C127.131491,9.88248886 127.40286,10.5508432 127.417727,11.1278827 C127.486916,13.8189775 127.450975,16.512765 127.450624,19.2057329 C127.450624,19.2602877 127.425454,19.3149595 127.403913,19.4025281 L123.957364,19.4025281 C123.948583,19.2106499 123.931257,19.0061281 123.93114,18.8014892 C123.929384,16.8306108 123.92915,14.8596153 123.931959,12.8887369 C123.933013,12.1508429 123.819104,11.4468992 123.036606,11.1481358 C122.225309,10.8384849 121.450069,10.9870471 120.818007,11.603071 C119.850304,12.5463063 119.663459,13.7810467 119.633021,15.0468107 C119.603637,16.2755805 119.626934,17.5055211 119.627168,18.7348762 L119.627168,19.4092011 L116.222178,19.4092011 L116.222178,8.70686897 L119.334375,8.70686897 C119.411992,9.19200827 119.493005,9.69880557 119.592866,10.3229073 C120.334389,9.24890443 121.220143,8.54390712 122.392251,8.28565005 C124.038025,7.92320042 125.614728,8.01791029 126.76389,9.43059753 Z M71.7746265,-3.46003419e-14 L71.7746265,19.4029964 L68.3511399,19.4029964 L68.3511399,-3.46003419e-14 L71.7746265,-3.46003419e-14 Z M47.959122,11.8357599 C47.1623416,11.0009316 45.7343181,10.7527426 44.5378597,11.2508767 C44.4703102,11.2789736 44.4054532,11.3087094 44.341884,11.3390306 C44.3230357,11.348045 44.3047728,11.3575277 44.2861586,11.3666592 C44.2403841,11.3894879 44.1957803,11.4130191 44.1522302,11.4370185 L44.1522302,11.4370185 L44.0981437,11.4672226 C44.0444084,11.4981292 43.9921951,11.5299723 43.942089,11.562869 C43.9379915,11.5655617 43.9335429,11.5681372 43.9294454,11.5708298 C43.8757101,11.6065363 43.8247845,11.6436475 43.7753809,11.6815783 L43.7753809,11.6815783 L43.7332356,11.7152946 C43.6976462,11.7438597 43.6632275,11.7730102 43.6299796,11.8027461 L43.6299796,11.8027461 L43.5886538,11.8404427 C43.5503718,11.8765004 43.5137288,11.9132604 43.4788418,11.9510741 L43.4788418,11.9510741 L43.4632715,11.9673469 C43.4242871,12.0106629 43.3878782,12.0552667 43.3534595,12.1009241 L43.3534595,12.1009241 L43.3253627,12.1401427 C43.3006608,12.1744442 43.2772468,12.2094483 43.2551205,12.2450376 C43.2457549,12.2601397 43.2363893,12.2751247 43.2274919,12.2904609 C43.2037266,12.3312014 43.1817174,12.3728784 43.1612301,12.4153749 C43.1571327,12.423921 43.1523328,12.432233 43.1483524,12.4408962 C43.1248213,12.4918218 43.1040998,12.5440352 43.0853686,12.5973022 L43.0853686,12.5973022 L43.0714372,12.6412035 C43.0583253,12.6817098 43.0465012,12.7226844 43.0363161,12.7644785 C43.0318674,12.7820391 43.0276529,12.7997167 43.0239067,12.8175114 C43.0140728,12.8631688 43.0058778,12.9096457 42.9993219,12.956825 C42.9976829,12.9685321 42.9953415,12.9798879 42.9939367,12.991712 L42.9939367,12.991712 L42.9924148,13.0018971 C42.9899563,13.0232039 42.9880832,13.0546958 42.9865612,13.0901681 C42.9809419,13.1674345 42.9793029,13.246574 42.9822296,13.3277037 C42.9812931,13.7668344 43.0043559,14.4848265 43.0297602,14.8430616 C43.0305797,14.8550028 43.0315162,14.8668269 43.0323357,14.878651 C43.0351454,14.9155281 43.0380722,14.9490102 43.0408819,14.9755852 L43.0408819,14.9755852 L43.0436915,14.995253 C43.0481402,15.0355252 43.0539937,15.0750949 43.0601985,15.1146647 C43.0630081,15.1322252 43.0651154,15.1499028 43.0682763,15.1672292 C43.0782273,15.2236571 43.0899343,15.2794997 43.1038657,15.3345227 C43.1057388,15.341664 43.1081973,15.3485711 43.1100704,15.3557124 C43.122714,15.403243 43.1366454,15.4503052 43.152684,15.4967821 C43.1588887,15.514928 43.1663812,15.5326056 43.1731713,15.5505174 C43.1864002,15.5858726 43.2002145,15.6208766 43.2157849,15.6555294 C43.2246822,15.6755485 43.2346332,15.6953333 43.24435,15.7151182 L43.2687885,15.7631609 L43.2687885,15.7631609 L43.2948073,15.8107647 L43.2948073,15.8107647 L43.3302796,15.8705876 C43.3497133,15.9018453 43.3707859,15.9327519 43.392561,15.9635414 C43.40579,15.9822726 43.4189018,16.001238 43.4331844,16.0197351 C43.4583545,16.0525148 43.485749,16.0848262 43.5138458,16.1169035 C43.527426,16.1324738 43.5400696,16.1482783 43.5544692,16.1637316 C43.5982535,16.2106768 43.6448475,16.2570366 43.6957731,16.3024599 C45.1111529,17.565063 47.757644,17.0428124 48.5511465,15.3135671 C49.0753872,14.1710781 48.8338712,12.7521862 47.959122,11.8357599 Z M95.5035224,11.9200622 C94.2561385,10.4892291 91.5693752,10.5760952 90.4223205,12.0844289 C89.6468468,13.103877 89.655393,14.5804846 90.443159,15.6856282 C91.2470807,16.8132493 92.669953,17.2164394 94.1553409,16.7372707 C95.4870155,16.3077398 95.9483896,15.5924403 95.9483896,13.9575536 C95.9483896,12.5284765 95.9198244,12.397709 95.5035224,11.9200622 Z M60.9866809,11.1212096 C60.0546843,10.7318338 59.1491455,10.7945835 58.3312925,11.4111928 C57.3941448,12.1178291 57.1536824,13.1382137 57.2507337,14.2276699 C57.3539897,15.3847927 57.8719086,16.3460569 59.0371093,16.7408179 C60.9378626,17.3848216 62.5862123,16.0628638 62.5927893,13.9407306 C62.5968657,12.6065975 62.0039047,11.5461748 60.9866809,11.1212096 Z M107.814588,10.9465525 C106.32639,10.9285236 105.099025,12.2037704 105.081465,13.7860925 C105.06168,15.5764485 106.157809,16.8593047 107.722805,16.8772165 C109.337204,16.8957136 110.424085,15.7375372 110.457567,13.9628686 C110.490581,12.2229699 109.388832,10.9656349 107.814588,10.9465525 Z" id="蒙版" fill="#000000"></path>
            <path d="M24.061035,8.50078132 C23.4727457,8.1478077 22.7079695,8.1478077 22.0608512,8.50078132 L17.4721941,11.2069124 L14.3542605,12.9717805 L9.76560346,15.6779116 C9.17731409,16.0308852 8.41253792,16.0308852 7.76541962,15.6779116 L4.11802555,13.5600699 C3.52973619,13.2070962 3.11793363,12.5599779 3.11793363,11.8540307 L3.11793363,7.67717621 C3.11793363,6.97122897 3.47090725,6.32411067 4.11802555,5.97113705 L7.70659068,3.91212428 C8.29488004,3.55915066 9.05965622,3.55915066 9.70677452,3.91212428 L13.2953396,5.97113705 C13.883629,6.32411067 14.2954316,6.97122897 14.2954316,7.67717621 L14.2954316,10.3833073 L17.4133652,8.55961026 L17.4133652,5.85347918 C17.4133652,5.14753194 17.0603916,4.50041364 16.4132733,4.14744002 L9.76560346,0.264730214 C9.17731409,-0.0882434047 8.41253792,-0.0882434047 7.76541962,0.264730214 L1.00009192,4.14744002 C0.352973619,4.50041364 1.64763533e-14,5.14753194 1.64763533e-14,5.85347918 L1.64763533e-14,13.6777277 C1.64763533e-14,14.383675 0.352973619,15.0307933 1.00009192,15.3837669 L7.76541962,19.2664767 C8.35370898,19.6194503 9.11848515,19.6194503 9.76560346,19.2664767 L14.3542605,16.6191746 L17.4721941,14.7954775 L22.0608512,12.1481754 C22.6491405,11.7952018 23.4139167,11.7952018 24.061035,12.1481754 L27.6496001,14.2071882 C28.2378895,14.5601618 28.6496921,15.2072801 28.6496921,15.9132273 L28.6496921,20.0900818 C28.6496921,20.796029 28.2967184,21.4431473 27.6496001,21.796121 L24.061035,23.9139627 C23.4727457,24.2669363 22.7079695,24.2669363 22.0608512,23.9139627 L18.4722861,21.8549499 C17.8839967,21.5019763 17.4721941,20.854858 17.4721941,20.1489107 L17.4721941,17.4427797 L14.3542605,19.2664767 L14.3542605,21.9726078 C14.3542605,22.678555 14.7072341,23.3256733 15.3543524,23.6786469 L22.1196801,27.5613567 C22.7079695,27.9143304 23.4727457,27.9143304 24.119864,27.5613567 L30.8851917,23.6786469 C31.473481,23.3256733 31.8852836,22.678555 31.8852836,21.9726078 L31.8852836,14.1483592 C31.8852836,13.442412 31.53231,12.7952937 30.8851917,12.4423201 L24.061035,8.50078132 Z" id="蒙版" fill="#8247E5" fill-rule="nonzero"></path>
        </g>
    </g>
</svg>