<?xml version="1.0" encoding="UTF-8"?>
<svg width="162px" height="66px" viewBox="0 0 162 66" version="1.1" xmlns="http://www.w3.org/2000/svg" xmlns:xlink="http://www.w3.org/1999/xlink">
    <!-- Generator: Sketch 61 (89581) - https://sketch.com -->
    <title>partners/qtum_logo</title>
    <desc>Created with Sketch.</desc>
    <g id="partners/qtum_logo" stroke="none" stroke-width="1" fill="none" fill-rule="evenodd">
        <g id="qtum_logo">
            <rect id="矩形" stroke="#BFC7D2" stroke-width="0.655092094" fill="#FFFFFF" x="0.327546047" y="0.327546047" width="161.344908" height="65.3449079" rx="7.07539872"></rect>
            <g id="collection/qtum" transform="translate(19.535873, 13.134620)" fill="#2E9AD0">
                <path d="M41.6802325,34.0943396 C41.1522226,34.0965933 40.641974,34.2835721 40.2394743,34.6223003 L36.238653,31.2092753 L39.3121163,21.7907932 C39.3460347,21.7907932 39.3784112,21.80149 39.4138713,21.80149 C40.2798273,21.80149 40.9818232,21.1057029 40.9818232,20.247406 C40.9818232,19.3891092 40.2798273,18.6933221 39.4138713,18.6933221 C39.3784112,18.6933221 39.3460347,18.7009626 39.3113454,18.7032548 L36.6287138,10.4782236 C37.2187839,10.1103338 37.4925628,9.40022005 37.3003937,8.7360551 C37.1082245,8.07189015 36.496356,7.61351633 35.7992565,7.61149656 C35.4333546,7.61337835 35.0800554,7.74418595 34.8025201,7.98053419 L27.7282355,2.89041272 C27.950537,2.35433057 27.8512392,1.74000863 27.4710978,1.29958929 C27.0909564,0.859169947 26.4939976,0.666831854 25.9252373,0.801518287 C25.3564769,0.936204721 24.9117099,1.37523081 24.7734863,1.93840261 L16.2083369,1.93840261 C16.0684664,1.37725877 15.6239759,0.940613639 15.056599,0.806993107 C14.4892222,0.673372576 13.8940749,0.86517702 13.5144881,1.30398565 C13.1349013,1.74279427 13.0345095,2.35504443 13.2543586,2.89041272 L6.17930318,7.98053419 C5.9015662,7.74401608 5.54796328,7.6131972 5.18179591,7.61149656 C4.48498096,7.61419162 3.87374098,8.07279536 3.68197961,8.73678514 C3.49021824,9.40077492 3.76404681,10.1104864 4.35388029,10.4782236 L1.6835826,18.6642881 C1.64503905,18.6642881 1.60649549,18.6528273 1.56795193,18.6528273 C0.701995991,18.6528273 -8.54469564e-14,19.3486144 -8.54469564e-14,20.2069112 C-8.54469564e-14,21.0652081 0.701995991,21.7609951 1.56795193,21.7609951 C1.59801591,21.7609951 1.62730901,21.7541187 1.65814386,21.7518265 L4.3561929,30.0165884 C3.76635942,30.3843257 3.49253086,31.0940372 3.68429223,31.7580269 C3.8760536,32.4220167 4.48729357,32.8806205 5.18410852,32.8833155 C5.54173174,32.8822665 5.88774726,32.7574081 6.16234402,32.530323 L13.2543586,37.6082196 C13.0360768,38.1437209 13.1377133,38.7552052 13.5177705,39.1930063 C13.8978277,39.6308074 14.4926982,39.8216537 15.059499,39.6876236 C15.6262998,39.5535934 16.0701697,39.1171185 16.2098787,38.5564095 L24.7757989,38.5564095 C24.9650854,39.3157562 25.6978007,39.8145066 26.4808029,39.716985 C27.2638052,39.6194634 27.8492422,38.9565394 27.8430953,38.1743829 C27.8421531,37.9794497 27.8045065,37.7864036 27.7320898,37.6051634 L35.7799847,31.809821 L39.744575,35.193812 C39.2240351,36.0677784 39.362518,37.1795934 40.0818757,37.9018433 C40.8012334,38.6240932 41.9210907,38.7756775 42.8094954,38.2710549 C43.6979002,37.7664323 44.1320894,36.7321344 43.8670437,35.7518309 C43.601998,34.7715273 42.7041762,34.0910242 41.6802325,34.0943396 L41.6802325,34.0943396 Z M36.0528731,11.1651073 L38.5874974,18.9347629 C38.2480025,19.1479349 38.0044834,19.4826171 37.9075891,19.8691998 L36.6055877,19.8691998 C36.4854777,19.334974 36.0894074,18.9034698 35.5641408,18.734581 L36.0528731,11.1651073 Z M35.3251707,10.6386748 L34.8048327,18.6810973 C34.7686017,18.6879737 34.7323708,18.6979064 34.6961398,18.7070751 L31.4723567,12.6382016 C31.8004752,12.3458906 31.9881682,11.9293989 31.9888403,11.492122 C31.9869641,11.4057067 31.9779404,11.3195894 31.9618599,11.2346362 L32.3812138,11.0550837 L34.569717,10.1107141 C34.7615756,10.3586797 35.0250877,10.5428392 35.3251707,10.6386748 L35.3251707,10.6386748 Z M26.5804083,18.7238842 C26.3408012,18.6745066 26.0924405,18.6866044 25.8588729,18.7590307 L21.5597245,11.3408395 C21.7189251,11.1928402 21.8452133,11.0135409 21.9305135,10.814407 L28.8868548,11.6739667 C28.9322368,12.0686633 29.1303848,12.4305021 29.4395694,12.6832808 L26.5804083,18.7238842 Z M30.1325826,13.0156438 C30.2301277,13.0345237 30.3292141,13.0444982 30.4285971,13.0454419 C30.5543287,13.0438902 30.6793856,13.0269528 30.8009279,12.9950144 L34.0285654,19.0700003 C33.7960072,19.2836034 33.6346634,19.5623916 33.5660427,19.8691998 L27.790676,19.8691998 C27.7136194,19.5633163 27.5435383,19.288312 27.3034855,19.0814611 L30.1325826,13.0156438 Z M25.1990072,19.1357088 C24.9924506,19.3367678 24.8462161,19.5906791 24.7765698,19.8691998 L16.207566,19.8691998 C16.1390675,19.5897828 15.9926848,19.3350846 15.7851287,19.1341807 L20.0889023,11.7091131 C20.3517407,11.7865413 20.6316242,11.7865413 20.8944627,11.7091131 L25.1990072,19.1357088 Z M15.1237212,18.7590307 C14.9874432,18.7179714 14.846017,18.6961092 14.7035964,18.6940862 C14.6026406,18.6942388 14.5019439,18.7042194 14.4029567,18.7238842 L11.5461082,12.6878651 C11.855908,12.4345225 12.0550259,12.0723823 12.1019063,11.6770229 L19.0443719,10.7838449 C19.1267055,10.9896433 19.2517131,11.1760169 19.4113066,11.3309069 L15.1237212,18.7590307 Z M13.7176522,19.0531911 C13.4600254,19.2627907 13.2770902,19.5488272 13.1957724,19.8691998 L7.46203279,19.8691998 C7.38666418,19.5701043 7.22260944,19.3002513 6.99103051,19.09445 L10.1955419,12.9988347 C10.3142436,13.028753 10.4361471,13.0444012 10.5586222,13.0454419 C10.6595777,13.0445687 10.7602295,13.0343368 10.859262,13.0148798 L13.7176522,19.0531911 Z M7.46203279,20.6294326 L13.1896055,20.6294326 C13.2711314,20.9501179 13.4543293,21.2364105 13.7122561,21.4462053 L10.8515533,27.4913931 C10.7540954,27.471843 10.6549695,27.4616087 10.5555387,27.460831 C10.4322329,27.4622762 10.3095516,27.4784377 10.1901458,27.5089663 L6.98640528,21.4057105 C7.21987419,21.2000583 7.38558585,20.9295982 7.46203279,20.6294326 Z M14.3998732,21.7755122 C14.4989221,21.794766 14.5995787,21.8047426 14.7005129,21.8053102 C14.8440123,21.803409 14.9865092,21.7812845 15.1237212,21.7396017 L19.4059105,29.1287588 C19.244969,29.2850628 19.1200563,29.4740327 19.0397467,29.6826973 L12.1019063,28.8246657 C12.0539526,28.4305747 11.8542789,28.0700707 11.5445664,27.8184078 L14.3998732,21.7755122 Z M15.7874413,21.3636876 C15.9935903,21.1622566 16.1392954,20.9080733 16.2083369,20.6294326 L24.7734863,20.6294326 C24.8431225,20.9080084 24.9890444,21.1621045 25.1951528,21.3636876 L20.9145053,28.7543728 C20.6387772,28.6666734 20.3422752,28.6666734 20.0665471,28.7543728 L15.7874413,21.3636876 Z M25.8588729,21.7396017 C25.9960301,21.7815201 26.1385614,21.8036499 26.2820812,21.8053102 C26.3825074,21.8047831 26.4826562,21.7948057 26.5811792,21.7755122 L29.4426529,27.8206999 C29.1344701,28.0718935 28.935935,28.4312413 28.8883966,28.8239016 L21.9420766,29.6826973 C21.8620525,29.4738883 21.7371019,29.284861 21.5759128,29.1287588 L25.8588729,21.7396017 Z M27.2680254,21.4462053 C27.525502,21.2361537 27.7083845,20.9499318 27.7899052,20.6294326 L33.5899397,20.6294326 C33.6712084,20.9165076 33.8345137,21.1741584 34.0601711,21.3713281 L30.7978444,27.5059101 C30.6772539,27.4745528 30.5532578,27.4578754 30.4285971,27.4562466 C30.3275949,27.4569805 30.2269054,27.4674722 30.1279574,27.4875728 L27.2680254,21.4462053 Z M27.2788176,3.50547543 L34.3546439,8.5955969 C34.2802195,8.77792904 34.2417526,8.97271249 34.2413259,9.16940075 C34.2427284,9.2527359 34.2512383,9.33580426 34.2667646,9.41771799 L31.6542823,10.5439322 C31.3085049,10.0830326 30.7271313,9.85889311 30.1580213,9.96707214 L27.4060113,3.88291764 L27.2518371,3.53221729 C27.2580041,3.52075649 27.2695671,3.51464407 27.2788176,3.50241922 L27.2788176,3.50547543 Z M25.7016152,3.76066915 C25.8857934,3.83567019 26.0829642,3.87434032 26.2820812,3.87451306 C26.3739288,3.87315342 26.4654873,3.86395073 26.5557404,3.84700715 L26.9735526,4.77074729 L29.4650082,10.2803339 C29.2508121,10.4473686 29.0844462,10.6670524 28.9824428,10.9175541 L22.0322685,10.022848 C21.9966506,9.73836947 21.8818794,9.46932313 21.7007939,9.24580605 L25.7016152,3.76066915 Z M16.2083369,2.69939945 L24.7742572,2.69939945 C24.8308547,2.92068279 24.9361548,3.12681099 25.0826057,3.30300137 L21.0386156,8.76598073 C20.6759809,8.62537012 20.2726283,8.62865378 19.9123728,8.77514937 L15.8961341,3.30758569 C16.0448249,3.12942229 16.1514892,2.92059095 16.2083369,2.69634324 L16.2083369,2.69939945 Z M14.7012838,3.87451306 C14.9001511,3.87433888 15.0970694,3.83566692 15.2809789,3.76066915 L19.2794876,9.245042 C19.0989915,9.46766136 18.9844936,9.73563446 18.9487839,10.0190277 L12.0032348,10.9229025 C11.9023801,10.6704862 11.735881,10.4490449 11.5206694,10.2810979 L14.4253119,3.84624309 C14.5163865,3.86259534 14.608728,3.87103198 14.7012838,3.87145684 L14.7012838,3.87451306 Z M13.7030057,3.50547543 L13.7353822,3.53298134 L10.8307397,9.96707214 C10.7409894,9.95034371 10.6499394,9.94139594 10.5586222,9.94033028 C10.0733476,9.94033028 9.61639316,10.1667867 9.32522837,10.5515727 L6.71274602,9.42230231 C6.72757943,9.3395353 6.73582745,9.25574087 6.7374139,9.17169291 C6.736749,8.97517372 6.69883231,8.78052835 6.62563758,8.59788906 L13.7030057,3.50547543 Z M6.41210627,10.1145344 L9.02381775,11.2438048 C9.00902666,11.3265931 9.00052321,11.4103647 8.998379,11.4944142 C8.99970608,11.9353568 9.1903242,12.3548973 9.52257138,12.6481343 L6.31728912,18.7437496 C6.28799602,18.7368731 6.25870291,18.7299967 6.22940981,18.7246483 L5.66590299,10.6356186 C5.96209317,10.5391314 6.22211245,10.3564914 6.41210627,10.1114782 L6.41210627,10.1145344 Z M4.94128411,29.3556825 L2.38815884,21.5249028 C2.71950797,21.3198167 2.96148324,20.9993099 3.06652546,20.6263764 L4.45023918,20.6263764 C4.58031744,21.1401596 4.96702384,21.5519975 5.47472695,21.7174441 L4.94128411,29.3556825 Z M4.45023918,19.8691998 L3.09119333,19.8691998 C3.00241227,19.4697824 2.75768251,19.1214555 2.4105141,18.9003805 L4.94051324,11.1391295 L5.47395608,18.7796601 C4.96545153,18.9439418 4.577514,19.3552742 4.44638483,19.8691998 L4.45023918,19.8691998 Z M5.66975735,29.8591935 L6.23326416,21.773984 C6.26255727,21.7693997 6.2910795,21.7632873 6.3203726,21.7564108 L9.3082692,27.4486061 L9.524884,27.8604307 C9.1931235,28.1532366 9.00301869,28.5723258 9.00223335,29.0126227 C9.00456867,29.0938406 9.0128127,29.1747856 9.02690123,29.2548275 L6.4059393,30.3741653 C6.21630763,30.1335003 5.95868975,29.9542308 5.66590299,29.8591935 L5.66975735,29.8591935 Z M13.7045474,36.994685 L6.62563758,31.9267211 C6.7049578,31.737355 6.74557071,31.5342686 6.74512261,31.3292316 C6.74350036,31.2459795 6.7355118,31.1629692 6.72122561,31.0809143 L9.3298536,29.9554642 C9.67455006,30.42134 10.2590809,30.648861 10.8315106,30.5399648 L13.7384657,36.965651 L13.7045474,36.994685 Z M15.2848333,36.7371991 C15.1007633,36.6628182 14.9039179,36.62442 14.7051382,36.6241193 C14.6133365,36.6256426 14.5218132,36.6345862 14.4314789,36.6508611 L13.8055315,35.2671611 L11.5245238,30.2244109 C11.7435578,30.0541775 11.9121461,29.8284775 12.0124852,29.5711455 L13.6960678,29.7789679 L18.9557217,30.428413 C18.9909244,30.7222323 19.1114322,30.999603 19.3026137,31.2268485 L18.6227054,32.1589932 L15.2848333,36.7371991 Z M24.7781116,37.7984688 L16.2083369,37.7984688 C16.150946,37.5738171 16.0431771,37.3648864 15.8930506,37.1872264 L19.9116019,31.6799319 C20.28199,31.8308983 20.6975206,31.8308983 21.0679087,31.6799319 L25.08646,37.1872264 C24.9370584,37.3649274 24.8303082,37.573927 24.7742572,37.7984688 L24.7781116,37.7984688 Z M26.5595948,36.6523892 C26.4692657,36.6360771 26.3777394,36.6271332 26.2859355,36.6256474 C26.0869059,36.6259457 25.8898077,36.6643422 25.7054696,36.7387272 L24.0596596,34.4840067 L21.6876891,31.2314328 C21.878859,31.0040211 21.9998336,30.726808 22.0361229,30.4329974 L27.3736347,29.7728555 L28.9809011,29.5749658 C29.0777018,29.8192142 29.235211,30.0352536 29.4387986,30.2030174 L26.6574954,36.4346341 L26.5595948,36.6523892 Z M27.2857554,36.9954491 L27.252608,36.9687072 L27.3505086,36.7478959 L30.1587922,30.5407288 C30.2489841,30.5580877 30.3405798,30.5672942 30.4324515,30.5682347 C30.911389,30.5663225 31.3624871,30.344884 31.6542823,29.9684531 L35.0353231,31.4140415 L27.2857554,36.9954491 Z M31.967256,29.2624681 C31.9820591,29.1804524 31.9905631,29.0974418 31.9926947,29.0141508 C31.9907517,28.5765034 31.8019885,28.1601228 31.4731275,27.8680712 L33.2746534,24.4779678 L34.7393086,21.7227925 L34.8048327,21.7373095 L35.3868404,30.7401467 L31.967256,29.2624681 Z M35.562599,21.6822977 C36.0578135,21.5216631 36.4395125,21.1267169 36.5801489,20.6294326 L37.9075891,20.6294326 C38.005537,21.0153302 38.2488234,21.3494193 38.5874974,21.5631054 L36.0528731,29.3327609 L35.562599,21.6822977 Z M71.6856214,27.9521171 L64.7369888,27.9521171 C63.8980705,27.9604603 63.0661843,27.7998177 62.2917855,27.4799323 C61.5583549,27.176842 60.8951881,26.7283275 60.3430232,26.1619408 C59.7851662,25.5831072 59.3481942,24.9007298 59.0572101,24.1540093 C58.4396109,22.5156696 58.4396109,20.7113962 59.0572101,19.0730565 C59.3483931,18.3266623 59.7853476,17.6445718 60.3430232,17.0658891 C60.8951881,16.4995024 61.5583549,16.0509878 62.2917855,15.7478976 C63.8540593,15.1190847 65.6021882,15.1190847 67.164462,15.7478976 C67.8973174,16.0501695 68.5599916,16.4979257 69.1116826,17.0635969 C69.670466,17.6412775 70.1082664,18.322942 70.3998083,19.0692362 C70.7148826,19.8778007 70.8718485,20.738404 70.862331,21.6051283 C70.8746339,22.6446338 70.630093,23.6713303 70.150046,24.595632 C69.6620608,25.5106111 68.9214459,26.269056 68.0147329,26.7823518 L68.0147329,26.8182623 L71.6856214,26.8182623 L71.6856214,27.9528811 L71.6856214,27.9521171 Z M59.8982305,21.6104767 C59.8942974,22.2866866 60.0071578,22.9585762 60.2320177,23.5970146 C60.4444114,24.2038825 60.7670687,24.7670992 61.1840436,25.25883 C61.6024651,25.7436544 62.1204651,26.1343838 62.7034307,26.4049096 C63.9922937,26.9734088 65.4639539,26.9734088 66.7528168,26.4049096 C67.3372316,26.1331338 67.8575049,25.7426707 68.2799126,25.25883 C68.7027805,24.7683261 69.0312177,24.2050543 69.2488976,23.5970146 C69.70732,22.3137252 69.70732,20.9133406 69.2488976,19.6300512 C69.0311595,19.0218072 68.702733,18.4582946 68.2799126,17.9674717 C67.3933286,16.9456616 66.0933962,16.3686668 64.7339053,16.3935224 C64.0323997,16.382122 63.3373231,16.5275858 62.7003472,16.8191 C62.117221,17.0893626 61.5991685,17.4801316 61.1809601,17.9651796 C60.7640469,18.4572379 60.4414016,19.0206927 60.2289343,19.627759 C60.0040282,20.265415 59.8908758,20.9365161 59.8942974,21.6120048 L59.8982305,21.6104767 Z M82.8655657,27.9521171 L81.6321719,27.9521171 L81.6321719,16.7060201 L77.557347,16.7060201 L77.557347,15.5866824 L86.9257441,15.5866824 L86.9257441,16.703728 L82.8593988,16.703728 L82.8593988,27.9482968 L82.8655657,27.9521171 Z M99.0083786,28.2653788 C98.2303529,28.2957709 97.4571772,28.1309926 96.7605183,27.7863176 C96.209684,27.4934892 95.7347538,27.0782011 95.3729502,26.5730013 C95.0336118,26.0907896 94.7917282,25.5479921 94.6606653,24.9746023 C94.5343831,24.4392285 94.4684552,23.8916143 94.4640931,23.3418209 L94.4640931,15.5866824 L95.697487,15.5866824 L95.697487,23.198943 C95.6959908,23.6898884 95.7534391,24.1792664 95.8686204,24.6567562 C95.9733381,25.1068493 96.1623937,25.5334512 96.4259602,25.9143876 C96.6905138,26.2870715 97.0405881,26.5921503 97.4473645,26.8045094 C98.4378193,27.2589061 99.5797088,27.2589061 100.570164,26.8045094 C100.976559,26.5919064 101.326329,26.2868623 101.590797,25.9143876 C101.854239,25.533197 102.043763,25.1067176 102.149679,24.6567562 C102.264495,24.1792024 102.321938,23.6898677 102.320812,23.198943 L102.320812,15.5866824 L103.554206,15.5866824 L103.554206,23.3380007 C103.549287,23.8878478 103.482843,24.4354572 103.356092,24.970782 C103.225769,25.544547 102.983541,26.0875284 102.643036,26.569181 C102.279469,27.0765211 101.800748,27.4921218 101.245447,27.7824973 C100.550998,28.1266135 99.7804,28.2921391 99.0045243,28.2638507 L99.0083786,28.2653788 Z M121.933316,15.5820981 L116.587324,18.4190271 L111.576662,15.5820981 L110.596114,16.2109137 L110.596114,27.9528811 L111.829508,27.9528811 L111.829508,17.2125873 L111.864968,17.2125873 L121.335891,22.9513898 L121.335891,27.950589 L122.576222,27.950589 L122.576222,16.4638153 L121.933316,15.5820981 Z M117.986456,19.3954869 L121.348996,17.5617595 L121.341287,21.4225196 L117.986456,19.3954869 Z" id="LOGO"></path>
            </g>
        </g>
    </g>
</svg>