<?xml version="1.0" encoding="UTF-8"?>
<svg width="162px" height="66px" viewBox="0 0 162 66" version="1.1" xmlns="http://www.w3.org/2000/svg" xmlns:xlink="http://www.w3.org/1999/xlink">
    <!-- Generator: Sketch 61 (89581) - https://sketch.com -->
    <title>partners/simplex_logo</title>
    <desc>Created with Sketch.</desc>
    <g id="partners/simplex_logo" stroke="none" stroke-width="1" fill="none" fill-rule="evenodd">
        <g id="simplex_logo">
            <rect id="矩形" stroke="#BFC7D2" stroke-width="0.655092094" fill="#FFFFFF" x="0.327546047" y="0.327546047" width="161.344908" height="65.3449079" rx="7.07539872"></rect>
            <g id="collection/simplex" transform="translate(16.467616, 12.833630)">
                <path d="M24.7077765,-1.91054237e-14 C26.097741,-1.91054237e-14 27.2245298,1.1267888 27.2245298,2.51675323 C27.2245298,2.90685703 27.1357742,3.27623086 26.977355,3.60578284 L35.3401503,10.254168 C35.7708924,9.90916436 36.3175027,9.70282499 36.9123061,9.70282499 C38.3022705,9.70282499 39.4290593,10.8296138 39.4290593,12.2195782 C39.4290593,13.4169333 38.5929154,14.4189965 37.4726757,14.6737195 L37.4721449,25.5192535 C38.5926512,25.7737806 39.4290593,26.7759712 39.4290593,27.9735154 C39.4290593,29.3634798 38.3022705,30.4902686 36.9123061,30.4902686 C36.3238277,30.4902686 35.7825229,30.2882943 35.3539307,29.9498845 L26.9700125,36.7118136 C27.1330292,37.0451774 27.2245298,37.4198966 27.2245298,37.815987 C27.2245298,39.2059514 26.097741,40.3327402 24.7077765,40.3327402 C23.3840009,40.3327402 22.2989333,39.3107096 22.1985953,38.0126698 L22.1910247,37.8132857 L22.1910247,37.8132857 L11.654367,35.4004274 C11.2474071,36.2426045 10.3850504,36.8235482 9.3870069,36.8235482 C7.99704247,36.8235482 6.87025367,35.6967594 6.87025367,34.306795 C6.87025367,33.5119279 7.23874239,32.8031259 7.81421267,32.3418963 L3.11015171,22.6127651 C2.91987479,22.6587551 2.72115977,22.6831233 2.51675323,22.6831233 C1.1267888,22.6831233 -3.43897627e-13,21.5563345 -3.43897627e-13,20.1663701 C-3.43897627e-13,18.7764057 1.1267888,17.6496169 2.51675323,17.6496169 C2.71201014,17.6496169 2.90207366,17.6718524 3.08454976,17.7139295 L7.81120526,7.98034369 C7.23745888,7.51905693 6.87025367,6.81134073 6.87025367,6.01785915 C6.87025367,4.62789472 7.99704247,3.50110592 9.3870069,3.50110592 C10.38533,3.50110592 11.2478903,4.08237518 11.6547089,4.92493468 L22.1908398,2.51715511 C22.1910233,1.1516096 23.277929,0.0403263781 24.6335708,0.00107300534 L24.7077765,-1.91054237e-14 Z M17.7105445,32.9663648 L11.9035361,34.3016511 L11.9037587,34.3094962 L22.4294752,36.7195503 L17.7105445,32.9663648 Z M21.346373,32.1297405 L19.1065055,32.6451033 L23.1375975,35.8489951 L23.1375975,35.8489951 L21.346373,32.1297405 Z M34.6455839,29.0684669 L28.8642277,30.3999141 L26.2736895,35.8330703 L34.649427,29.0763726 L34.6455839,29.0684669 Z M24.1475378,31.4852569 L22.4656066,31.8723392 L24.1475378,35.3630818 L24.1475378,31.4852569 Z M27.4699473,30.7206154 L25.2678917,31.2272954 L25.2678917,35.3389942 L27.4699473,30.7206154 Z M16.5893504,32.0745631 L14.8186311,30.6662782 L11.6530904,33.2105248 L11.6530904,33.2105248 L16.5893504,32.0745631 Z M12.6098534,28.9095633 L10.9654539,32.3216011 L13.9195471,29.9512123 L12.6098534,28.9095633 Z M8.82669834,25.9005728 L4.14473941,22.1770767 L8.82716812,31.8525331 L8.82716812,31.8525331 L8.82669834,25.9005728 Z M9.94705223,26.7918143 L9.94705223,31.8538533 L11.7107694,28.1944974 L9.94705223,26.7918143 Z M19.0177175,27.2968139 L15.7146341,29.9472911 L17.9853113,31.7533016 L20.8475355,31.0948136 L19.0177175,27.2968139 Z M21.7777093,25.0818742 L19.9142807,26.5769865 L21.9670491,30.8371322 L24.1475378,30.3354937 L24.1475378,25.6246857 L21.7777093,25.0818742 Z M25.2678917,25.8812467 L25.2678917,30.0778123 L28.0855818,29.4294075 L29.3333759,26.8122608 L25.2678917,25.8812467 Z M15.182466,23.5716372 L13.1086909,27.8746364 L14.8155501,29.2322252 L18.5185998,26.2607666 L17.4758304,24.0968031 L15.182466,23.5716372 Z M30.4526095,27.0688218 L29.4798622,29.1087062 L34.3944164,27.976133 L34.3955543,27.9708141 L30.4526095,27.0688218 Z M9.94705223,22.3728585 L9.94705223,25.3602822 L12.2093268,27.1595705 L14.0621121,23.3150761 L9.94705223,22.3728585 Z M31.6723948,24.5104937 L30.9466855,26.0324945 L34.6416127,26.8786418 L31.6723948,24.5104937 Z M33.1473407,21.4166365 L32.1673111,23.4722058 L35.3421271,26.0065235 L35.3460553,26.0033901 L33.1473407,21.4166365 Z M27.0674602,20.8374135 L25.2678917,22.2812696 L25.2678917,24.7320437 L29.827452,25.7762135 L30.7730307,23.7929071 L27.0674602,20.8374135 Z M18.873752,24.4169442 L19.4154431,25.5412193 L20.3851094,24.7631335 L18.873752,24.4169442 Z M36.352113,14.6956334 L33.7668964,20.117306 L36.352113,25.5095693 L36.352113,14.6956334 Z M24.1475378,23.1803536 L22.8919012,24.1878318 L24.1475378,24.4754827 L24.1475378,23.1803536 Z M8.82669834,22.1162975 L4.8132498,21.1975263 L4.7866575,21.2547217 L4.7866575,21.2547217 L8.82669834,24.4690406 L8.82669834,22.1162975 Z M21.4598089,16.3644006 L18.3046122,17.0934709 L16.8246247,20.1643609 L18.2513954,23.1251761 L21.4990212,23.8690911 L24.1475378,21.7437798 L24.1475378,18.5081977 L21.4598089,16.3644006 Z M16.2028283,21.4547285 L15.6813036,22.5367103 L16.8534738,22.805035 L16.2028283,21.4547285 Z M31.2575838,17.4749514 L27.9631831,20.1187065 L31.2682271,22.7548992 L32.5249841,20.1187065 L31.2575838,17.4749514 Z M14.5225775,17.9673469 L9.94705223,19.0244008 L9.94705223,21.2233754 L14.5609497,22.2801492 L15.5807518,20.1638007 L14.5225775,17.9673469 Z M8.82669834,19.2832025 L5.16706234,20.1287896 L8.82669834,20.9668144 L8.82669834,19.2832025 Z M25.2678917,19.4019601 L25.2678917,20.8449759 L26.1697766,20.1212273 L25.2678917,19.4019601 Z M29.8014038,14.4373919 L25.2678917,15.4846427 L25.2678917,17.9687473 L27.0654996,19.4025202 L30.7604267,16.4375037 L29.8014038,14.4373919 Z M8.82669834,15.8633223 L4.80378759,19.0627729 L8.82669834,18.1334394 L8.82669834,15.8633223 Z M16.90473,17.416973 L15.641531,17.7088252 L16.2028283,18.8734331 L16.90473,17.416973 Z M35.3490614,14.1920929 L32.1549872,16.7548439 L33.1445398,18.8190959 L35.3490614,14.1920929 Z M8.81887501,8.47022239 L4.09740446,18.1930982 L8.82670446,14.4317901 L8.82670446,8.47201567 L8.81887501,8.47022239 Z M12.2115675,13.1711119 L9.94705223,14.9720808 L9.94705223,17.8743575 L14.0240201,16.93242 L12.2115675,13.1711119 Z M24.1475378,15.7434444 L22.853249,16.0425789 L24.1475378,17.074985 L24.1475378,15.7434444 Z M14.8379572,11.082212 L13.1106515,12.456046 L15.1429735,16.6738983 L17.5282069,16.1229643 L18.5359653,14.0321038 L14.8379572,11.082212 Z M19.4344891,14.7488502 L18.9280891,15.7997422 L20.3422558,15.472879 L19.4344891,14.7488502 Z M34.6471611,13.3177826 L30.9200771,14.1788702 L31.6578302,15.7173962 L34.6471611,13.3177826 Z M21.9961783,9.43277101 L19.9333267,13.7136432 L21.7354159,15.1510573 L24.1475378,14.5936812 L24.1475378,9.91760416 L21.9961783,9.43277101 Z M25.2678917,10.1699639 L25.2678917,14.3348795 L29.305087,13.4021849 L28.0567327,10.7984824 L25.2678917,10.1699639 Z M9.94730934,8.47201567 L9.94705223,13.5405486 L11.7130101,12.136185 L9.94730934,8.47201567 Z M29.4498927,11.1121815 L30.4237604,13.1436632 L34.3942946,12.2263735 L29.4498927,11.1121815 Z M18.0343268,8.54012905 L15.7376013,10.3668661 L19.0348028,12.9968968 L20.8744239,9.18013121 L18.0343268,8.54012905 Z M10.9576114,7.9872344 L12.6120941,11.420839 L13.9391532,10.3654656 L10.9576114,7.9872344 Z M26.2799424,4.48215542 L26.273851,4.48701898 L28.8325777,9.82489488 L34.6412578,11.1336115 L34.6425939,11.130827 L26.2799424,4.48215542 Z M11.6581886,7.10354734 L11.6549774,7.11022745 L14.8387974,9.65011967 L16.6316437,8.22418925 L11.6581886,7.10354734 Z M25.2678917,4.98104481 L25.2678917,9.02160114 L27.4396978,9.5109157 L25.2678917,4.98104481 Z M24.1475378,8.76924142 L24.1472676,4.97086279 L22.495576,8.39700384 L24.1475378,8.76924142 Z M23.1361767,4.48260859 L19.1594422,7.64524638 L21.3735416,8.14408395 L23.1378454,4.48394323 L23.1361767,4.48260859 Z M22.4311557,3.61141218 L11.9183149,6.01373102 L17.7567591,7.32930658 L22.4311557,3.61141218 Z" id="simplex" fill="#2EA849"></path>
                <g id="simplex" stroke-width="1" transform="translate(46.731337, 9.609760)">
                    <path d="M13.9764327,0.0930645136 C15.3663971,0.0930645136 16.4931859,1.21985332 16.4931859,2.60981775 C16.4931859,3.80732556 15.6568286,4.80949166 14.5363735,5.06405644 L14.5366096,15.4080221 C14.5366096,15.7173993 14.2858099,15.9681991 13.9764327,15.9681991 C13.6811181,15.9681991 13.4391767,15.7396811 13.4177922,15.4498288 L13.4162557,15.4080221 L13.4154915,5.06382895 C12.295539,4.80889511 11.4596794,3.80696916 11.4596794,2.60981775 C11.4596794,1.21985332 12.5864683,0.0930645136 13.9764327,0.0930645136 Z" id="形状结合" fill="#2EA849"></path>
                    <path d="M44.7738563,4.87259402 C47.8711027,4.87259402 50.381917,7.3834083 50.381917,10.4806547 C50.381917,13.577901 47.8711027,16.0887153 44.7738563,16.0887153 C42.9385211,16.0887153 41.3091051,15.20707 40.2860234,13.8441944 L40.2861496,19.7162217 C40.2861496,20.0255989 40.0353498,20.2763986 39.7259726,20.2763986 C39.430658,20.2763986 39.1887167,20.0478807 39.1673322,19.7580284 L39.1657957,19.7162217 L39.1657957,5.63537384 C39.1657957,5.32599665 39.4165955,5.07519689 39.7259726,5.07519689 C40.0212872,5.07519689 40.2632286,5.30371486 40.2846131,5.59356718 L40.2861496,5.63537384 L40.2860234,7.11711495 C41.3091051,5.75423931 42.9385211,4.87259402 44.7738563,4.87259402 Z M4.87869428,4.89084426 C6.56148589,4.89084426 7.57786411,5.27716205 8.95615832,6.23692713 C9.21004545,6.41371957 9.27254304,6.76285435 9.0957506,7.01674148 C8.91895816,7.27062861 8.56982338,7.3331262 8.31593625,7.15633376 C7.1109352,6.3172401 6.30575776,6.01119815 4.87869428,6.01119815 C2.6639243,6.01119815 1.30739126,6.68835639 1.30739126,8.20171608 C1.30739126,9.04243866 1.97059729,9.51761301 3.25518203,9.72765168 C3.7548669,9.80935368 4.20147122,9.83613777 4.84968964,9.84032301 L5.23788848,9.84073169 C6.01236399,9.84071979 6.48411414,9.86600561 7.05318066,9.97726578 C8.65816024,10.2910609 9.67787921,11.1926875 9.67787921,12.8379803 C9.67787921,14.1877075 8.95162487,15.1320484 7.73384578,15.6701608 C6.88131869,16.0468755 5.84381968,16.2050669 4.79712924,16.2050669 C3.0658096,16.2050669 1.13285072,15.6280061 0.132172946,14.4428318 C-0.0674154368,14.206445 -0.0375844246,13.8530173 0.198802377,13.6534289 C0.435189179,13.4538405 0.788616897,13.4836715 0.98820528,13.7200583 C1.72829253,14.5965966 3.36331761,15.084713 4.79712924,15.084713 C7.00406742,15.084713 8.55752531,14.3982709 8.55752531,12.8379803 C8.55752531,11.8160324 7.97222859,11.2985181 6.83820662,11.0768016 C6.38875922,10.9889286 5.99276257,10.9639512 5.35949488,10.9613258 L4.97394047,10.9612145 C4.19895181,10.9596406 3.68056336,10.9324357 3.07439693,10.8333232 C1.31456774,10.5455788 0.18703736,9.73772495 0.18703736,8.20171608 C0.18703736,5.8579744 2.12446337,4.89084426 4.87869428,4.89084426 Z M18.6194115,5.65960024 C18.6194115,5.35022306 18.8702112,5.09942329 19.1795884,5.09942329 C19.474903,5.09942329 19.7168444,5.32794126 19.7382289,5.61779358 L19.7397654,5.65960024 L19.7396532,6.50371668 C20.5174777,5.57752554 21.6427097,4.94739445 22.9292199,4.81895972 C24.6526492,4.64690654 26.2303824,5.58973072 26.9462687,7.06129156 C27.7068598,5.83469465 29.0091771,4.97176235 30.5397766,4.81895972 C32.749861,4.59832284 34.72035,6.21108875 34.9409869,8.42117321 C34.9498223,8.50967571 34.955718,8.59843477 34.9586667,8.68730383 L34.9608788,8.82067162 L34.9608788,15.5739758 C34.9608788,15.8833529 34.710079,16.1341527 34.4007018,16.1341527 C34.1053873,16.1341527 33.8634459,15.9056347 33.8420614,15.6157824 L33.8405249,15.5739758 L33.8405249,8.82067162 C33.8405249,8.72442486 33.8357355,8.62823771 33.8261746,8.53246701 C33.6670035,6.93807641 32.245461,5.77460105 30.6510704,5.93377206 C28.8066299,6.11790602 27.3950258,7.64848738 27.3513635,9.49240928 L27.3500793,9.57790545 L27.3503221,15.5739758 C27.3503221,15.8692903 27.1218041,16.1112317 26.8319518,16.1326162 L26.7901451,16.1341527 C26.4948305,16.1341527 26.2528892,15.9056347 26.2315047,15.6157824 L26.2299682,15.5739758 L26.2299682,8.82067162 C26.2299682,8.72442486 26.2251788,8.62823771 26.2156178,8.53246701 C26.0564468,6.93807641 24.6349043,5.77460105 23.0405137,5.93377206 C21.1960732,6.11790602 19.7844691,7.64848738 19.7408068,9.49240928 L19.7395153,9.57790545 L19.7397654,15.5739758 C19.7397654,15.8692903 19.5112474,16.1112317 19.2213951,16.1326162 L19.1795884,16.1341527 C18.8842738,16.1341527 18.6423325,15.9056347 18.620948,15.6157824 L18.6194115,15.5739758 L18.6194115,5.65960024 Z M63.836284,4.87259402 C67.1371192,4.87259402 69.5274163,7.02102822 69.447198,10.3974486 L69.4439277,10.5022645 L69.4234418,11.0329079 L68.2295721,11.0487932 L67.1955437,11.0563241 C65.973911,11.0626473 64.4225831,11.0630069 62.5412643,11.0574082 L59.383542,11.0439636 L59.3895447,11.0896099 C59.682846,13.2516155 61.51583,14.9244248 63.7479685,14.9675098 L63.836284,14.9683614 C65.3719815,14.9683614 66.8996321,14.3675375 67.6607531,13.4213103 C67.8546618,13.1802426 68.2072799,13.1420127 68.4483476,13.3359214 C68.6894153,13.5298301 68.7276453,13.8824482 68.5337365,14.123516 C67.5388787,15.3603252 65.6868794,16.0887153 63.836284,16.0887153 C60.7390376,16.0887153 58.2282233,13.577901 58.2282233,10.4806547 C58.2282233,7.3834083 60.7390376,4.87259402 63.836284,4.87259402 Z M54.4365569,2.26876907e-14 C54.7318715,2.26876907e-14 54.9738128,0.228517965 54.9951973,0.518370285 L54.9967338,0.560176947 L54.9967338,15.4080221 C54.9967338,15.7173993 54.7459341,15.9681991 54.4365569,15.9681991 C54.1412423,15.9681991 53.8993009,15.7396811 53.8779164,15.4498288 L53.8763799,15.4080221 L53.8763799,0.560176947 C53.8763799,0.250799762 54.1271797,2.26876907e-14 54.4365569,2.26876907e-14 Z M80.6809857,5.21953693 C80.894393,5.02645038 81.2238124,5.02572966 81.4382478,5.22553375 C81.6526831,5.42533785 81.6752059,5.75398719 81.4976572,5.9804856 L81.4662118,6.01724989 L77.2688475,10.5215235 L81.4662118,15.0261461 C81.6771161,15.2524945 81.6645962,15.6069579 81.4382478,15.8178622 C81.2238124,16.0176663 80.894393,16.0169456 80.6809857,15.823859 L80.6465317,15.7898982 L76.5033657,11.3433031 L72.3603667,15.7898982 L72.3259127,15.823859 C72.1125054,16.0169456 71.783086,16.0176663 71.5686506,15.8178622 C71.3542153,15.6180581 71.3316925,15.2894088 71.5092412,15.0629104 L71.5406866,15.0261461 L75.7376038,10.5215235 L71.5406866,6.01724989 C71.3297823,5.79090146 71.3423022,5.43643807 71.5686506,5.22553375 C71.783086,5.02572966 72.1125054,5.02645038 72.3259127,5.21953693 L72.3603667,5.25349779 L76.5033657,9.69974393 L80.6465317,5.25349779 L80.6809857,5.21953693 Z M44.7738563,5.99294792 C42.2953643,5.99294792 40.2861496,8.00216267 40.2861496,10.4806547 C40.2861496,12.9591467 42.2953643,14.9683614 44.7738563,14.9683614 C47.2523483,14.9683614 49.2615631,12.9591467 49.2615631,10.4806547 C49.2615631,8.00216267 47.2523483,5.99294792 44.7738563,5.99294792 Z M63.836284,5.99294792 C61.5963323,5.99294792 59.7396744,7.63402363 59.403038,9.77944725 L59.3827018,9.92360968 L63.18616,9.93876623 C64.8537169,9.94266065 66.2383549,9.94146089 67.3398392,9.93517117 L68.3197648,9.92725083 L68.3183416,9.89590499 C68.1686544,7.49454302 66.4203438,6.02987796 63.9311642,5.99363655 L63.836284,5.99294792 Z" id="形状" fill="#696B70" fill-rule="nonzero"></path>
                </g>
            </g>
        </g>
    </g>
</svg>