<?xml version="1.0" encoding="UTF-8"?>
<svg width="162px" height="66px" viewBox="0 0 162 66" version="1.1" xmlns="http://www.w3.org/2000/svg" xmlns:xlink="http://www.w3.org/1999/xlink">
    <!-- Generator: Sketch 61 (89581) - https://sketch.com -->
    <title>partners/stellar_logo</title>
    <desc>Created with Sketch.</desc>
    <g id="partners/stellar_logo" stroke="none" stroke-width="1" fill="none" fill-rule="evenodd">
        <g id="stellar_logo">
            <rect id="矩形" stroke="#BFC7D2" stroke-width="0.655092094" fill="#FFFFFF" x="0.327546047" y="0.327546047" width="161.344908" height="65.3449079" rx="7.07539872"></rect>
            <path d="M56.6866478,25.5726715 L56.6866478,28.5983727 L55.4086011,29.2492848 C54.4379269,29.7450461 53.8596755,30.7750014 53.9418196,31.8618501 C53.9700556,32.2393197 53.9849166,32.6212476 53.9849166,33.0031755 C53.9831058,38.5896831 50.8484325,43.703226 45.8708535,46.2395181 C41.0014827,48.7206734 35.1733068,48.3253107 30.6899399,45.2343036 L30.3930663,45.0242449 L33.0175203,43.6867541 L33.1661304,43.6079908 C36.9325526,45.7198244 41.5361349,45.67711 45.2627227,43.4957524 C48.9893105,41.3143948 51.280509,37.3212503 51.2831853,33.0031755 C51.2830597,32.6021504 51.2634825,32.2014463 51.2245453,31.8024739 L51.1791583,31.404131 L21.5611693,46.4954847 L21.5611693,43.4623529 L28.9589791,39.6906291 L56.6866478,25.5726715 Z M124.032278,27.6264628 C128.298749,27.6264628 130.158692,29.5343034 130.206435,33.7587609 L130.207027,34.0315572 L130.178791,37.610088 C130.150817,40.077365 130.251851,41.7811255 130.527736,43.2033298 L130.581524,43.4668112 L127.927348,43.4668112 C127.815179,42.760421 127.747675,42.0476591 127.725238,41.3327705 C126.774134,42.9511342 125.186978,43.8427947 122.416886,43.8427947 C119.502643,43.8427947 117.078812,42.2259171 117.078812,39.3696313 C117.078812,35.8324412 120.937253,34.6922865 126.897462,33.9930247 L127.581087,33.9156414 L127.581087,33.541144 C127.581087,30.6848582 126.023653,29.7619896 124.060514,29.7619896 C121.944101,29.7619896 120.714331,30.8384284 120.527702,32.6515541 L120.511705,32.848621 L117.799571,32.848621 C118.029917,29.501922 121.03184,27.6264628 124.032278,27.6264628 Z M98.4505387,27.6799624 C103.123974,27.6799624 105.907874,31.4905508 105.70657,36.2987164 L105.692308,36.5668452 L93.7470296,36.5668452 C93.8332235,39.9135442 96.2570539,41.5289358 98.5367325,41.5289358 C100.75731,41.5289358 102.016099,40.5685211 102.698872,39.1351919 L102.778064,38.9609536 L105.490198,38.9609536 C104.797675,41.6166157 102.317373,43.8383364 98.5367325,43.8383364 C93.6311138,43.8383364 90.9189798,40.3177636 90.9189798,35.7301704 C90.9189798,30.8007741 94.209207,27.6799624 98.4505387,27.6799624 Z M73.6757522,22.1680145 C77.3646597,22.1680145 80.6220944,23.7917147 81.5505567,27.6105844 L81.6115305,27.880586 L78.7537586,27.880586 C78.0612357,25.4864776 75.6403775,24.6498029 73.5598363,24.6498029 C71.9399865,24.6498029 69.1163949,25.3705618 69.1163949,27.7081983 C69.1163949,29.4894494 70.4636951,30.4098102 72.3254862,30.8623666 L75.3543048,31.5485705 C78.4679577,32.2579011 81.9919723,33.5397817 81.9919723,37.5759076 C81.9919723,41.6448516 78.1890403,43.8383364 74.0279581,43.8383364 C69.1968921,43.8383364 66.1083869,41.2437302 65.466989,37.2292265 L65.4293788,36.9710646 L68.321331,36.9710646 C68.8697022,39.8555863 70.8313553,41.3565481 74.0918604,41.3565481 C77.2082138,41.3565481 78.9677572,39.9165164 78.9677572,37.8359753 C78.9677572,35.7531121 77.3194043,34.8627578 74.9496522,34.2599999 L74.4663578,34.1430148 L71.8582509,33.5946436 C68.9722432,32.9600785 66.1159574,31.3432009 66.1159574,27.880586 C66.1159574,23.871086 70.2993312,22.1680145 73.6757522,22.1680145 Z M87.6302387,24.0434737 L87.6302387,27.9385439 L90.5727183,27.9385439 L90.5727183,30.0458349 L87.6302387,30.0458349 L87.6307345,39.4192231 L87.6360723,39.740483 C87.6706292,40.8996925 87.8901692,41.2421218 89.0842844,41.268645 L89.2456303,41.2703542 L90.5727183,41.2703542 L90.5727183,43.4623529 L88.6690232,43.4623529 L88.2597596,43.4576382 C85.7638035,43.3966143 85.0721104,42.7187024 85.009181,40.011762 L85.0042986,39.5672827 L85.0042986,30.0458349 L82.5507462,30.0458349 L82.5507462,27.9385439 L85.0042986,27.9385439 L85.0042986,24.0434737 L87.6302387,24.0434737 Z M139.660114,27.8523501 C139.833369,27.8498905 140.006632,27.8532591 140.179612,27.8624451 L140.438831,27.880586 L140.438831,30.6863443 C139.9522,30.6093223 139.46028,30.570565 138.967591,30.5704285 C136.609269,30.5704285 135.397536,31.7943937 135.33376,35.0499358 L135.331102,35.325951 L135.331102,43.4623529 L132.705162,43.4623529 L132.705162,27.9385439 L135.27463,27.9385439 L135.27463,30.6506779 C136.020901,28.965873 137.482347,28.0194461 139.40653,27.8676399 L139.660114,27.8523501 Z M110.085222,22.5321092 L110.085222,43.4623529 L107.459282,43.4623529 L107.459282,22.5321092 L110.085222,22.5321092 Z M115.335616,22.5321092 L115.335616,43.4623529 L112.709676,43.4623529 L112.709676,22.5321092 L115.335616,22.5321092 Z M127.783196,36.9755229 L127.783196,35.9932103 L127.144768,36.0579458 C122.752653,36.5238342 119.993056,37.2732159 119.993056,39.3116734 C119.993056,40.7843993 121.118034,41.7652258 122.993493,41.7652258 C125.388628,41.7652258 127.671884,40.691764 127.779253,37.2328876 L127.783196,36.9755229 Z M32.3733166,19.762341 C37.2427114,17.2794833 43.071915,17.6737404 47.5563218,20.7646237 L47.8532647,20.9746756 L45.071284,22.3924157 C41.3058268,20.2894245 36.7084315,20.3370688 32.9873663,22.5176454 C29.2663012,24.698222 26.9777445,28.6858054 26.9720623,32.9987172 C26.9722249,33.3971486 26.9918119,33.7952561 27.0307304,34.1916237 L27.0760893,34.5873589 L51.7290155,22.0298071 L56.6866478,19.5004636 L56.6866478,22.5350814 L21.5611693,40.4336795 L21.5611693,37.3975755 L22.8377299,36.7466634 C23.8092704,36.251635 24.388278,35.2213764 24.3059974,34.1340982 C24.2772662,33.75861 24.2629005,33.3816358 24.2629005,33.0031755 C24.2623236,27.4158555 27.395713,22.3003732 32.3733166,19.762341 Z M98.4505387,29.929919 C96.2071209,29.929919 94.1291856,31.1233562 93.799755,34.0524362 L93.7752655,34.3154025 L102.922216,34.3154025 C102.836022,32.1234038 101.248866,29.929919 98.4505387,29.929919 Z" id="形状" fill="#000000" fill-rule="nonzero"></path>
        </g>
    </g>
</svg>