<?xml version="1.0" encoding="UTF-8"?>
<svg width="162px" height="66px" viewBox="0 0 162 66" version="1.1" xmlns="http://www.w3.org/2000/svg" xmlns:xlink="http://www.w3.org/1999/xlink">
    <!-- Generator: Sketch 61 (89581) - https://sketch.com -->
    <title>partners/tron_logo</title>
    <desc>Created with Sketch.</desc>
    <g id="partners/tron_logo" stroke="none" stroke-width="1" fill="none" fill-rule="evenodd">
        <g id="tron_logo">
            <rect id="矩形" stroke="#BFC7D2" stroke-width="0.655092094" fill="#FFFFFF" x="0.327546047" y="0.327546047" width="161.344908" height="65.3449079" rx="7.07539872"></rect>
            <g id="collection/tron" transform="translate(24.958719, 16.017794)">
                <path d="M24.927782,6.85309115 C22.6999015,8.70970847 20.4792563,10.5601456 18.2587619,12.4107335 C18.265545,12.4236968 18.2723281,12.4366601 18.2791113,12.4494727 C21.7725726,11.816833 25.2660339,11.1840426 28.8099918,10.542208 C27.4987379,9.29607215 26.2220026,8.08294751 24.927782,6.85309115 M15.9006453,12.0789632 C18.2608722,10.1111026 20.6040658,8.15756191 22.9920281,6.16663866 C16.8890224,5.04380498 10.8502302,3.93272873 4.81143803,2.82165247 C4.80540859,2.83702756 4.79952988,2.85225191 4.79365117,2.867627 C8.48970189,5.93299761 12.1859033,8.99821749 15.9006453,12.0789632 M28.4816885,12.4411822 C28.4743024,12.4268623 28.4669163,12.4123916 28.4593795,12.3979209 C28.2295069,12.4399763 27.9996342,12.4824839 27.7696108,12.5239363 C24.172443,13.1736092 20.5752752,13.8241865 16.977203,14.4697895 C16.8147094,14.4990323 16.7634591,14.573496 16.7492899,14.7295079 C16.7116059,15.1411683 16.6579438,15.5513214 16.6083516,15.961776 C16.4458581,17.3040816 16.2815556,18.6463871 16.119665,19.9888434 C15.9586788,21.3243658 15.800858,22.6604911 15.6394196,23.9958628 C15.4647164,25.4426285 15.2872999,26.888942 15.111843,28.3357077 C15.0966187,28.4611201 15.087876,28.587437 15.0759678,28.7133017 C15.0899863,28.7179746 15.103854,28.7224966 15.1177217,28.7271695 C19.5724275,23.2985573 24.0269826,17.8697944 28.4816885,12.4411822 M3.53440126,4.11677758 C3.51962912,4.12491733 3.50500771,4.13335856 3.49023556,4.14149831 C6.74236828,12.3269242 9.99465174,20.5125008 13.2467845,28.6977759 C13.2966781,28.656022 13.3037627,28.6246689 13.3076819,28.5930143 C13.4275171,27.6053909 13.5472016,26.6177676 13.6665847,25.6301443 C13.8272694,24.301405 13.9882556,22.9729672 14.148036,21.6442279 C14.307967,20.3157901 14.4660893,18.9870508 14.6260204,17.6584623 C14.7758521,16.4132308 14.9237243,15.1678486 15.082148,13.9238231 C15.1027988,13.761028 15.0515485,13.6714908 14.9321655,13.5726078 C11.6703857,10.8702099 8.41162055,8.16404356 5.1522525,5.45878164 C4.61306924,5.01124597 4.07373525,4.56401178 3.53440126,4.11677758 M31.9110869,11.0414462 C25.7076909,18.6002618 19.5291663,26.1287795 13.3290864,33.6838267 C8.88372622,22.4995049 4.44982198,11.3439737 -6.02944653e-05,0.14849735 C0.396225078,0.219644819 0.758142606,0.283406216 1.11930645,0.349730128 C3.3786908,0.764857521 5.63792442,1.18028639 7.89715803,1.59616746 C10.2181935,2.02335375 12.5392289,2.45189666 14.8604151,2.87893221 C17.3398742,3.33521058 19.8196349,3.79013232 22.2992447,4.24641068 C23.263504,4.42382715 24.2277632,4.60124361 25.1908166,4.78514173 C25.2803538,4.80232565 25.3769757,4.84980754 25.4428474,4.91221231 C27.4927085,6.8574625 29.5389519,8.80648109 31.586552,10.7541431 C31.6869422,10.8497098 31.7939649,10.9381919 31.9110869,11.0414462" id="Fill-1" fill="#EC0928"></path>
                <path d="M84.4532667,15.6811656 C83.7644024,15.6730258 83.2021565,16.224268 83.1982145,16.9119263 C83.1941675,17.6226474 83.7344059,18.1753969 84.436535,18.1790309 C85.1425831,18.1824815 85.6921672,17.6350077 85.6915648,16.9288088 C85.6909613,16.2337644 85.1508736,15.6896068 84.4532667,15.6811656 L84.4532667,15.6811656 Z M101.848823,18.1675586 C101.301801,17.5469778 100.746489,16.9339338 100.193137,16.319081 C100.16721,16.2902904 100.136309,16.2657204 100.092294,16.2247202 L100.092294,25.6134728 L101.952831,25.6134728 C101.955996,25.5477519 101.960217,25.4993656 101.960217,25.45113 C101.96053,23.1153224 101.961724,20.7795148 101.955996,18.4435565 C101.955695,18.3504016 101.910625,18.2378016 101.848823,18.1675586 L101.848823,18.1675586 Z M46.5764343,25.6098552 L48.4124008,25.6098552 L48.4124008,13.4347445 L46.5764343,13.4347445 L46.5764343,25.6098552 Z M43.1957237,25.614528 L45.030635,25.614528 L45.030635,13.4341416 L43.1957237,13.4341416 L43.1957237,25.614528 Z M38.2013824,10.0944312 L53.4117164,10.0944312 L53.4117164,8.26163015 L38.2013824,8.26163015 L38.2013824,10.0944312 Z M84.4540204,23.7469069 C80.6826016,23.7472084 77.6225067,20.6923893 77.6247665,16.9289595 C77.6268781,13.1756291 80.6889325,10.1079974 84.4348769,10.1066403 C88.222123,10.1052842 91.2671442,13.1759305 91.265035,16.994379 C91.2629236,20.6907312 88.1805198,23.7467562 84.4540204,23.7469069 L84.4540204,23.7469069 Z M84.5167266,8.23886578 C79.6529228,8.23479912 75.7482533,12.1026891 75.7459912,16.927 C75.7437312,21.6797112 79.6408639,25.6241751 84.3403653,25.6256829 C89.2383862,25.6271898 93.1328057,21.7828147 93.1328057,16.9461435 C93.1328057,12.154693 89.261901,8.24278813 84.5167266,8.23886578 L84.5167266,8.23886578 Z M109.998675,8.25771101 L109.998675,21.7932155 C109.9833,21.8003001 109.967774,21.8073847 109.952248,21.8144693 C105.535829,16.9064998 101.119411,11.9983796 96.678271,7.06297618 L96.678271,25.6181457 L98.5374508,25.6181457 L98.5374508,12.0006407 C103.005874,16.964684 107.429226,21.8785322 111.881219,26.8243364 L111.881219,8.25771101 L109.998675,8.25771101 Z M69.0309976,18.5789176 C71.3116358,17.6921367 72.7033828,15.4170758 72.450146,12.988867 C72.1708319,10.311642 69.887782,8.25062641 67.1816156,8.24595359 C63.9469683,8.24037635 60.7121702,8.24459697 57.4773722,8.24459697 L57.2628746,8.24459697 L57.2628746,25.6228185 L59.1047198,25.6228185 L59.1047198,10.1393505 C59.1716467,10.1358836 59.2127976,10.1319645 59.2539486,10.1319645 C61.8711806,10.131663 64.4884126,10.1322659 67.1057953,10.1313615 C67.6543242,10.13106 68.1787353,10.2385349 68.6707382,10.4828783 C70.0957979,11.1911875 70.8582214,12.8073806 70.4972083,14.3463969 C70.1217245,15.946612 68.7696211,17.0267873 67.1409169,17.0270888 C65.064074,17.0273902 62.9870804,17.0270888 60.9100868,17.0270888 L60.6449419,17.0270888 L60.6449419,25.6192008 L62.4864856,25.6192008 L62.4864856,18.9176217 C62.5817509,18.9129489 62.650788,18.9067687 62.7196745,18.906618 C64.0178143,18.9061658 65.3159541,18.9096327 66.614094,18.9020959 C66.7799038,18.9011915 66.8611505,18.9583205 66.9360664,19.1007662 C68.0548302,21.2275027 69.1805279,23.350923 70.2995932,25.4778103 C70.3604906,25.5935757 70.4256086,25.6360833 70.5558446,25.6346145 C71.1590908,25.6274913 71.7626384,25.6317119 72.3660352,25.6306568 C72.4166826,25.630506 72.4671792,25.6199545 72.5368193,25.6119655 C71.3007828,23.2823381 70.0765036,20.9751704 68.8457429,18.6554915 C68.9164381,18.6262487 68.9731149,18.6013773 69.0309976,18.5789176 L69.0309976,18.5789176 Z" id="Fill-3" fill="#000000"></path>
            </g>
        </g>
    </g>
</svg>