<?xml version="1.0" encoding="UTF-8"?>
<svg width="162px" height="66px" viewBox="0 0 162 66" version="1.1" xmlns="http://www.w3.org/2000/svg" xmlns:xlink="http://www.w3.org/1999/xlink">
    <!-- Generator: Sketch 61 (89581) - https://sketch.com -->
    <title>partners/uniswap_logo</title>
    <desc>Created with Sketch.</desc>
    <g id="partners/uniswap_logo" stroke="none" stroke-width="1" fill="none" fill-rule="evenodd">
        <g id="coinpayments_logo">
            <rect id="矩形" stroke="#BFC7D2" stroke-width="0.655092094" fill="#FFFFFF" x="0.327546047" y="0.327546047" width="161.344908" height="65.3449079" rx="7.07539872"></rect>
            <g id="dapps/uniswap" transform="translate(10.240807, 16.017794)" fill="#F5087B">
                <path d="M15.915884,26.8894614 C16.328222,26.9389461 16.7320711,27.0434023 17.1167681,27.2000349 C17.519789,27.3610154 17.8918561,27.5908398 18.2161983,27.8791556 C18.5372278,28.1815506 18.7966602,28.5433687 18.9802091,28.9444227 C19.1458483,29.319906 19.2694566,29.7125744 19.3487563,30.1152847 L19.3625468,30.1883012 C19.5797401,31.3810041 19.5304106,33.1546961 21.0277065,33.4524602 L21.0745097,33.4611965 C21.1567082,33.4771393 21.2396313,33.4888376 21.3229685,33.4963949 L21.5807445,33.5026063 C21.7579785,33.4899763 21.9340736,33.4647164 22.1076842,33.4270334 C22.4673283,33.3424539 22.8179658,33.2227796 23.1543169,33.0698739 L22.9655009,33.2211495 C22.8805686,33.2885641 22.793608,33.3551579 22.7019148,33.416681 C22.5634878,33.5079009 22.4194324,33.5900697 22.270531,33.6627313 L22.19568,33.6982676 C21.8302386,33.8765368 21.4283565,33.9676384 21.0217122,33.9643256 C19.9202116,33.9436207 19.1417073,33.1237067 18.6861995,32.1971624 C18.375626,31.565663 18.1613303,30.8834365 17.7927831,30.2819592 C17.2658434,29.4216706 16.364145,28.7290917 15.3081952,28.8574621 C14.8775332,28.9112948 14.4737877,29.1048856 14.2346461,29.4786091 C13.6052172,30.4548451 14.508986,31.8224037 15.6612137,31.6288129 C15.7592514,31.6139054 15.8551151,31.5875066 15.9469413,31.5501343 C16.038457,31.5111055 16.1238647,31.4592398 16.2005763,31.3958828 C16.3615569,31.2618186 16.4828876,31.0864481 16.5515244,30.8886127 C16.6272008,30.6822884 16.6440753,30.4589861 16.6001809,30.2436551 C16.5528702,30.0185929 16.4200483,29.8207575 16.2295632,29.6918695 C16.4510021,29.7954976 16.6235774,29.981117 16.7109521,30.209492 C16.801536,30.4444926 16.8249326,30.7000946 16.778243,30.9476217 C16.7330028,31.2055012 16.6193329,31.4465063 16.4490351,31.6453768 C16.3585547,31.747659 16.253995,31.8365866 16.1384616,31.9093643 C16.0239635,31.9813138 15.901287,32.0392875 15.7730202,32.0822502 C15.5129666,32.1710742 15.2361421,32.1997505 14.9634586,32.1661051 C14.5805215,32.1115476 14.2193245,31.9549151 13.9178611,31.7126677 C13.8717505,31.6762081 13.8271671,31.6382907 13.7837897,31.5992164 C13.5638949,31.4132598 13.3652294,31.2032382 13.1914868,30.9731069 C13.1211665,30.8956171 13.0494939,30.8192883 12.974753,30.7457489 C12.6056881,30.3584638 12.1701606,30.0404365 11.6889787,29.8067817 C11.3570791,29.6610192 11.009858,29.5533538 10.6537337,29.4858558 C10.4746363,29.448587 10.2934581,29.4216706 10.1122902,29.3988952 C10.0294706,29.3906132 9.62365458,29.3005469 9.56671611,29.3533444 C10.1266801,28.8378959 10.7370709,28.3800071 11.3887576,27.986821 C12.0578365,27.5897011 12.7762965,27.2824404 13.5255033,27.0726997 C14.3023511,26.854056 15.1148114,26.7917342 15.915884,26.8894614 Z M22.5757185,20.6707447 C24.2859432,21.8478183 26.9982851,22.6480626 27.9155121,24.8438173 C28.9642153,27.3449691 27.7643664,30.4972901 25.2373333,31.5408171 C27.7001812,27.428824 21.1263755,24.7154469 22.5757185,20.6707447 Z M8.6477181e-14,0 L6.27047536,6.89990556 L9.39795047,10.3576342 L10.9580957,12.0906343 C11.4757182,12.6734772 11.9933407,13.2376857 12.5109632,13.8505507 L12.5958533,13.9540752 L12.6144877,14.1145382 C12.6396442,14.3321467 12.6270897,14.5524469 12.5772189,14.7657073 C12.5197628,14.986318 12.4195511,15.1935741 12.2821741,15.3754666 C12.0371229,15.693537 11.7160101,15.9444829 11.3489036,16.1055254 L11.3007618,16.1260192 C10.9524019,16.2761298 10.5835441,16.3731322 10.2064768,16.4138173 C10.1246924,16.4241698 10.0398127,16.4303813 9.95802836,16.4365927 C9.71919734,16.4457029 9.48954894,16.5310071 9.30269758,16.6799788 C9.11585656,16.8290541 8.9816267,17.0339291 8.91966728,17.2647887 C8.89130157,17.3795974 8.87021363,17.496166 8.85652769,17.6136663 C8.81925887,17.9180283 8.8130474,18.2348133 8.77991956,18.6178539 C8.70217784,19.2424862 8.52576501,19.8506702 8.25743275,20.419718 L8.22191216,20.4937178 C7.84715348,21.2825745 7.42685437,21.9182149 7.52416739,22.82716 C7.58835258,23.4172497 7.89063377,23.8127133 8.29230882,24.2205998 C9.01698031,24.9618352 10.6392403,25.2931136 10.2768735,27.1192857 C10.0584368,28.2093987 8.25089902,29.3533444 5.71040783,29.752949 C5.9630076,29.7146449 5.38637615,28.7425499 5.35014257,28.6804352 C5.07787314,28.2539142 4.77973294,27.8522392 4.56336673,27.3894847 C4.13891629,26.4919273 3.94220939,25.4535766 4.11613055,24.4700938 C4.29936891,23.4348488 5.06546055,22.6418512 5.70213622,21.850924 C6.45993555,20.9098863 7.25499335,19.6769095 7.43098499,18.4553205 C7.47239479,18.1592404 7.50138165,17.7886227 7.56763733,17.4200755 C7.63080798,17.0117748 7.7587125,16.6162077 7.946537,16.2481781 C8.07474174,16.0068625 8.24353843,15.7893576 8.44552508,15.605291 C8.55084055,15.5075639 8.6203262,15.3773301 8.64284277,15.235398 C8.66536971,15.0935694 8.63963352,14.948221 8.56975448,14.8226458 L4.51987609,7.53865171 L10.3369487,14.7170508 C10.4032044,14.800181 10.4868522,14.8677825 10.5821983,14.9149896 C10.6774408,14.9621968 10.7820005,14.9878709 10.8883202,14.9900449 C10.9946399,14.9923224 11.1001313,14.9712034 11.1973408,14.9281373 C11.2837493,14.8898562 11.3617326,14.8350521 11.4270011,14.7669969 L11.4508723,14.7408614 C11.5245818,14.6549361 11.5663021,14.5462354 11.5690973,14.4330831 C11.571996,14.3199308 11.5356589,14.2092631 11.466401,14.1197144 C11.0864661,13.6341845 10.684791,13.1393374 10.2955389,12.6527723 L8.83168181,10.8410936 L5.89364619,7.22394759 L8.6477181e-14,0 Z M20.9792672,19.8725708 C21.3401536,20.2478471 21.6028988,20.7063571 21.7442097,21.2074157 C21.8856242,21.7085778 21.9012564,22.2367598 21.789864,22.7453757 C21.66315,23.2837031 21.3897418,23.7764797 20.9999721,24.1688375 C20.6141363,24.5489795 20.1487937,24.8388481 19.6375897,25.0177384 C19.1783794,25.1787982 18.7007367,25.280801 18.2160544,25.3214165 L18.1250968,25.3283119 C17.6281792,25.3697217 17.1478255,25.3811094 16.6757538,25.409061 C15.7212579,25.449125 14.7786673,25.6351585 13.8805923,25.9608466 C14.2755383,25.6631101 14.707339,25.4178606 15.1653313,25.2309989 C15.6286035,25.045483 16.1092677,24.9067602 16.6001809,24.8169009 C17.5743464,24.631592 18.5381595,24.5860413 19.3477211,24.2599391 C19.7477398,24.1037206 20.1157693,23.8756562 20.4336931,23.5870298 C20.7413679,23.3010952 20.9769897,22.9463167 21.1210958,22.5517849 C21.2687217,22.1355129 21.3286624,21.6931527 21.2970874,21.2525524 C21.2605433,20.7792384 21.1533954,20.3141028 20.9792672,19.8725708 Z M19.0495705,15.1166554 C20.7453018,16.9272989 24.2837692,16.0090365 26.9992168,17.6871687 C30.046978,19.5692441 29.6018227,23.2257293 28.5665777,24.5715478 C28.76638,19.8321963 18.2710663,21.0713845 19.0495705,15.1166554 Z M14.2657035,16.7360891 C14.515301,16.8626996 14.7242135,17.057015 14.8683196,17.2968813 C15.5381231,18.4760253 14.0401236,18.8414668 13.3371922,18.9087578 C12.2837614,19.011132 12.0564224,18.4119356 12.2527254,17.652774 L12.2595022,17.6271245 C12.3277248,17.3510246 12.4792847,17.1025658 12.6935804,16.9156006 C12.9077726,16.7285318 13.1744517,16.6118597 13.4572806,16.581527 C13.7359686,16.55606 14.0161059,16.6095822 14.2657035,16.7360891 Z M13.6994244,8.23850838 C14.49853,8.5487299 15.2291024,9.01264388 15.8496283,9.60399652 C16.2548232,9.98398319 16.6352757,10.3896232 16.9883978,10.8183182 C19.61792,10.3006957 21.7505247,10.7603445 23.3893175,11.6527256 L23.4265863,11.6713601 C23.9482463,11.9542925 24.437089,12.2938529 24.8842113,12.6838297 C24.9556432,12.7459443 25.0260398,12.808059 25.0912603,12.871209 C25.4403449,13.1919279 25.7653083,13.5380103 26.0633553,13.906454 L26.0861307,13.9364761 C27.0540848,15.1622061 27.532368,16.4365927 27.5334032,17.2088855 L27.5271917,17.1995683 C27.4324668,17.0235766 27.3244908,16.8550387 27.2041953,16.695404 C26.8503486,16.2160855 26.3428715,15.8725913 25.76624,15.7222737 C25.4144551,15.6314568 25.0553632,15.5720431 24.6931903,15.5446705 L24.5943427,15.5380001 C24.1937029,15.5090132 23.7847811,15.4924493 23.3717184,15.4707092 C22.5435224,15.4251584 21.6956567,15.3402683 20.8674607,15.1042324 C20.6604117,15.0452235 20.4533627,14.9810383 20.2535605,14.9033949 C20.150036,14.8661261 20.0537582,14.8257515 19.9512689,14.7822712 C19.8487797,14.7387909 19.7442199,14.6890992 19.6406954,14.6363017 C19.2513398,14.4230412 18.8905569,14.1610207 18.5671464,13.8567622 C17.9294355,13.2635668 17.4283769,12.5906576 16.9262831,11.9384533 C16.4529691,11.2837643 15.9449743,10.654853 15.4044729,10.0543281 C14.8712182,9.46606048 14.2409611,8.97372902 13.541032,8.59877364 C12.8163605,8.23376696 12.0292637,8.00897386 11.2210479,7.93621685 C12.0594929,7.84518776 12.9075656,7.94862943 13.6994244,8.23850838 Z M11.354491,8.70636665 C12.0253298,8.80367968 12.7096267,9.07077288 13.1506411,9.58011342 C13.5664546,10.0603488 13.7347043,10.6768363 13.859305,11.2741668 L13.9173752,11.5553007 C14.0058251,11.9878405 14.0894865,12.4235569 14.2593885,12.8318697 C14.3525605,13.0575531 14.4892128,13.2552849 14.6030898,13.4685453 C14.6972971,13.6455722 14.8691478,13.8048964 14.9354034,13.9943463 C14.9473088,14.0215732 14.9516568,14.0514918 14.9482405,14.0808928 C14.9448242,14.1103972 14.93354,14.1383489 14.9157338,14.1621595 C14.6866427,14.4155788 14.0764089,14.144927 13.8275493,14.0246892 L13.8121626,14.0172252 C13.4005492,13.8131784 13.0318985,13.5320059 12.7261906,13.1890292 C11.7706595,12.1279031 11.2768477,10.6009167 11.3068698,9.21053096 C11.3134953,9.04173426 11.3294381,8.87342413 11.354491,8.70636665 Z" id="形状" fill-rule="nonzero"></path>
                <path d="M133.754186,14.8825996 C134.691793,14.8413324 136.131542,14.7867964 137.14853,14.8541554 C138.75661,14.9606711 140.284745,15.9910683 140.805467,17.693764 C141.326189,19.3964542 140.994526,21.0952066 140.284745,22.1125588 C139.574964,23.129965 138.437911,23.905484 136.994042,23.8485503 C135.929912,23.8485503 134.785836,23.3569436 134.346679,23.1111131 L134.346679,23.1111131 L134.346679,25.282534 C134.363965,26.7635664 134.376389,27.4746974 134.491985,27.7380833 C134.648093,28.0925414 134.999742,28.3108233 135.685756,28.4782753 C135.685756,28.4782753 135.996352,28.5504418 136.076297,28.6274157 C136.156242,28.7043896 136.156242,28.8751907 136.156242,28.8751907 C136.156242,28.8751907 136.172447,29.0349724 136.108167,29.1164837 C136.043887,29.197995 135.919648,29.181682 135.919648,29.181682 L135.919648,29.181682 L132.882284,29.1573744 L131.051115,29.1525129 C131.051115,29.1525129 130.858815,29.1891363 130.786973,29.1123784 C130.714591,29.0356206 130.721613,28.8756228 130.721613,28.8756228 C130.721613,28.8756228 130.737278,28.7033633 130.821544,28.6262273 C130.90581,28.5490913 131.218027,28.4628265 131.218027,28.4628265 C131.924567,28.2660434 132.230842,28.0579167 132.390732,27.6659168 C132.499749,27.3990283 132.517093,26.939508 132.5192,23.9226865 L132.519205,21.6698455 C132.517832,17.4051002 132.508752,16.5923037 132.406396,16.3546067 C132.251368,15.9943742 131.862988,15.8989211 131.309856,15.7630365 C131.200202,15.7360767 131.084065,15.7075288 130.961447,15.6749999 C130.961447,15.6749999 130.764826,15.6491907 130.734037,15.5804651 C130.703787,15.5117396 130.703787,15.2647586 130.703787,15.2647586 L130.703281,15.2500974 C130.703078,15.2228159 130.706218,15.1637972 130.734577,15.1281501 C130.771848,15.0807828 130.785353,15.0795296 130.919854,15.0668411 L130.919854,15.0668411 C131.415188,15.0200896 132.406396,14.941614 133.233934,14.9058008 C133.310637,14.9024788 133.395984,14.8986328 133.488893,14.8944465 Z M86.5094111,14.6040922 C87.1987193,14.4316766 90.3200255,14.5094716 90.8547377,14.7124639 C91.0510887,14.7868181 91.1365432,15.0723238 91.1383798,15.6590434 C91.1396762,16.1211084 91.190506,16.682305 91.2511129,16.906102 C91.3431575,17.2453274 91.2893567,17.3120759 90.9284706,17.3066472 C90.6022092,17.3015805 90.4049399,17.1118249 90.1293462,16.5377723 C89.6892714,15.6208751 89.1563958,15.3292276 87.9148199,15.3257868 C86.3295352,15.3212656 85.1697407,16.3801891 85.3585834,17.659647 C85.4815256,18.4922347 86.3200282,19.3114318 88.201541,20.4376602 C89.9917654,21.5090292 91.0366122,22.390097 91.4529196,23.1794444 C92.5663136,25.2896643 91.6156181,27.5481062 89.1351672,28.6859159 C87.8618834,29.2698914 85.7280582,29.3303362 84.2278499,28.824847 L84.2278499,28.824847 L83.2671613,28.5010164 L83.2671613,26.977905 C83.2671613,25.5985863 83.3002736,25.4545235 83.6170281,25.4545235 C83.8821965,25.4545235 83.9967661,25.6284035 84.089729,26.1730008 C84.321191,27.5271477 85.3583673,28.3492292 86.8355104,28.3492292 C88.2826202,28.3492292 89.2941926,27.5647434 89.681601,26.1423733 C89.8466223,25.536467 89.8182635,25.3129995 89.4908678,24.6445418 C89.0985438,23.8432567 88.4229558,23.3113534 86.1285927,21.9980972 C84.855525,21.2693567 83.9552272,20.2948938 83.6626183,19.3289602 C82.9795219,17.0747154 84.1059881,15.2049242 86.5094111,14.6040922 Z M41.2845544,14.7809046 C43.1432811,14.7863213 43.3911458,14.8328361 43.3425423,15.0735716 C43.3099702,15.2349521 42.9952468,15.4587599 42.6429871,15.5711148 L42.6429871,15.5711148 L42.0025154,15.7753577 L41.9478018,20.388775 C41.9112,23.4672999 41.962624,25.2430478 42.1024303,25.7259039 C42.5178194,27.1616701 43.7848318,27.9874248 45.5726794,27.9874248 C46.8173883,27.9874248 47.5444003,27.698651 48.4579322,26.8412425 C49.4403896,25.9195 49.5970383,25.0436718 49.5939053,20.491569 L49.5935894,20.1982949 C49.5870423,15.9852152 49.4905268,15.6289165 48.5402538,15.5378135 C48.0979643,15.4952969 47.9497423,15.3930755 47.9497423,15.130743 C47.9497423,14.8278738 48.0749201,14.7854375 49.7207282,14.7808124 L50.5608245,14.7807317 C52.2363088,14.784824 52.3415233,14.8248038 52.3415233,15.1421513 C52.3415233,15.3650408 52.2185811,15.5050631 52.0213118,15.506689 C51.1736803,15.5141109 51.1581235,15.5941098 51.044148,20.5176591 C50.9257432,25.6305642 50.8152249,26.2358764 49.7708643,27.4883636 C49.4696667,27.8496819 48.7514595,28.374347 48.1748302,28.654262 C47.2351542,29.1105418 46.9363333,29.1629921 45.2963836,29.1600346 C43.7846697,29.1568342 43.3074314,29.0844517 42.551488,28.7430656 C41.4480493,28.2446527 40.7305389,27.5996922 40.2015092,26.630523 C39.8322288,25.9539087 39.800575,25.587891 39.7151204,21.0039182 C39.617215,15.7569218 39.5698207,15.5039882 38.6863383,15.5039882 C38.3732408,15.5039882 38.2511834,15.4024906 38.2511834,15.1421513 C38.2511834,14.8204741 38.3575089,14.7840609 40.3662145,14.7806355 Z M122.307958,14.8815095 C122.307958,14.8815095 122.60505,14.7603984 122.70066,14.8815095 C122.736311,14.9261436 122.883237,15.3119909 123.28134,16.3288353 C123.678904,17.3456744 124.250401,18.8052512 124.551275,19.5723653 C124.852148,20.3394577 125.446873,21.8573835 125.873066,22.9456057 C126.299258,24.0337739 126.846448,25.4297838 127.088984,26.0477899 C127.331519,26.66585 127.641035,27.3084877 127.728002,27.4257042 C127.937047,27.7088602 128.17148,28.3335103 128.804557,28.4348458 C128.804557,28.4348458 129.19942,28.499666 129.257758,28.5611371 C129.316636,28.6225542 129.3296,28.7341529 129.3296,28.7341529 L129.3296,28.7341529 L129.3296,28.943792 C129.3296,28.943792 129.323118,28.9974307 129.290708,29.0429668 C129.258298,29.088503 129.138921,29.0758631 129.138921,29.0758631 L129.138921,29.0758631 L126.093454,29.0760791 L123.926841,29.0915279 C123.926841,29.0915279 123.851217,29.1006568 123.806383,29.0640874 C123.784237,29.0457757 123.767356,29.0134872 123.756013,28.9857766 L123.738862,28.9349333 L123.738862,28.7769882 C123.738862,28.7769882 123.719957,28.6582052 123.806383,28.5549792 C123.89335,28.4516991 124.241219,28.4396533 124.241219,28.4396533 C124.945598,28.3790465 125.194075,27.7433769 125.319394,27.4844204 C125.461998,27.1894347 125.410682,26.997243 124.765181,25.4202769 C124.339529,24.3795354 124.194224,24.0871965 124.090512,24.0612685 C124.018129,24.0430108 122.884857,24.0363127 121.572249,24.0463058 L121.572249,24.0463058 L119.185247,24.0642934 L119.042643,24.4535384 C118.629955,25.5793563 118.263721,26.6977739 118.208083,27.0001599 C118.095728,27.6153571 118.252917,28.2996958 119.164721,28.4186408 C119.164721,28.4186408 119.502866,28.4648251 119.593074,28.5323461 C119.683282,28.5998671 119.714612,28.7728829 119.714612,28.7728829 L119.714612,28.7728829 L119.714612,28.9323405 C119.714612,28.9323405 119.697326,29.00818 119.635207,29.0592799 C119.573628,29.1103798 119.412118,29.091744 119.412118,29.091744 L119.412118,29.091744 L117.13423,29.091744 L114.930345,29.1166457 C114.930345,29.1166457 114.836355,29.114431 114.767214,29.0778617 C114.697532,29.0412923 114.686189,28.9678835 114.686189,28.9678835 L114.686189,28.9678835 L114.686189,28.8163664 C114.686189,28.8163664 114.674305,28.7180018 114.796923,28.5977605 C114.919541,28.4774651 115.251204,28.4452711 115.251204,28.4452711 C115.897785,28.3419369 116.243493,27.6159513 116.432011,27.2704059 C116.510336,27.1278016 116.860905,26.295889 117.212014,25.4217893 C117.563663,24.5476356 117.957446,23.5697157 118.088166,23.2486399 C118.532184,22.1567985 118.954055,21.1107634 119.592534,19.5185807 C119.943103,18.6444541 120.462204,17.354182 120.745792,16.6513102 L120.745792,16.6513102 L121.261652,15.3733215 L121.978455,15.0061424 C122.177237,14.931421 122.307958,14.8815095 122.307958,14.8815095 Z M96.9655999,14.781051 C98.9049815,14.7865181 99.0045747,14.829875 99.0045747,15.1421513 C99.0045747,15.4202243 98.8824968,15.5039882 98.477911,15.5039882 C97.3257329,15.5039882 97.351661,15.7109427 99.0953229,20.4423597 C99.9828188,22.8506982 100.844387,25.1386333 101.009678,25.5263118 L101.009678,25.5263118 L101.311092,26.231393 L102.708506,22.541128 C104.353857,18.1972923 104.567764,17.394041 104.287957,16.6017984 C104.093496,16.0496334 103.336181,15.5039882 102.764683,15.5039882 C102.603173,15.5039882 102.481095,15.3483982 102.481095,15.1421513 C102.481095,14.828335 102.581357,14.7861381 104.620423,14.7809843 L106.014611,14.7809843 C108.053677,14.7861381 108.153938,14.828335 108.153938,15.1421513 C108.153938,15.3995953 108.031861,15.5039882 107.731527,15.5039882 C106.962328,15.5039882 106.623103,15.9096218 106.733297,16.6977052 C106.847272,17.5089455 109.994831,26.2279359 110.126632,26.0974853 C110.341078,25.8852534 113.826782,16.4992205 113.826782,16.1334026 C113.826782,15.6950347 113.516725,15.5039882 112.805324,15.5039882 C112.485005,15.5039882 112.362927,15.4043002 112.362927,15.1421513 C112.362927,14.8248038 112.468188,14.784824 114.143549,14.7807317 L114.774945,14.7805292 C116.447337,14.7840435 116.754492,14.8325437 116.754492,15.0611099 C116.754492,15.2156141 116.526541,15.4205808 116.247814,15.5166497 C115.620139,15.7328465 115.46295,15.9796222 114.675926,17.9785945 C114.330218,18.8564105 113.248802,21.6036666 112.272719,24.0833073 C111.296095,26.5631641 110.455594,28.7003924 110.404278,28.8324634 C110.352962,28.9647505 110.050468,29.0728921 109.731229,29.0728921 L109.731229,29.0728921 L109.152169,29.0728921 L107.83794,25.6806918 C107.114655,23.8150599 106.26065,21.6047469 105.93979,20.7689452 C105.389899,19.336771 105.343985,19.2745059 105.137101,19.6833698 C105.016103,19.922178 104.147513,22.1364882 103.206541,24.6040292 L103.206541,24.6040292 L101.495829,29.0906096 L100.219412,28.982414 L97.7843355,22.6643943 C96.4236525,19.134489 95.1726237,16.1603624 94.9489942,15.9251679 C94.7286057,15.6934142 94.3666932,15.5039882 94.1446842,15.5039882 C93.8940463,15.5039882 93.7039072,15.3663102 93.6444887,15.1421513 C93.5607796,14.8250552 93.6243569,14.7855231 95.6001908,14.7808978 Z M55.2693953,15.1421513 C55.2693953,14.8029259 55.3863417,14.7812165 57.1450743,14.7951474 L57.1450743,14.7951474 L59.0207533,14.8099859 L59.9181342,15.8354298 C60.4114695,16.3993488 62.0198194,18.1634994 63.491993,19.7555902 C64.9641666,21.347681 66.6542439,23.1997007 67.2476723,23.8714535 C67.8413168,24.5432063 68.4000125,25.0927191 68.4893022,25.0927191 C68.5809687,25.0927191 68.6267209,23.1952173 68.5939867,20.7346985 L68.5939867,20.7346985 L68.5362968,16.3767482 L68.0228672,15.9403682 C67.7405215,15.7002906 67.3082791,15.5039882 67.0621246,15.5039882 C66.7347829,15.5039882 66.6149196,15.4055588 66.6149196,15.1370737 C66.6149196,14.7837391 66.7084227,14.771985 69.1310217,14.8204705 C71.1910059,14.8617177 71.6471777,14.9187162 71.6471777,15.1347348 C71.6471777,15.2886934 71.3924345,15.4502631 71.0354376,15.5224511 C70.699075,15.5904744 70.3285199,15.7402738 70.2120056,15.8553404 C70.0617309,16.0038757 69.9850811,17.92434 69.9479176,22.4782524 L69.9479176,22.4782524 L69.8954132,28.8919359 L69.3650764,28.8919359 C68.9085265,28.8919359 68.3650636,28.3821254 65.4593385,25.2283552 C63.6028895,23.2132589 61.4358979,20.8184786 60.6439038,19.9064591 C59.8516935,18.9944396 59.1419129,18.2413052 59.0665055,18.2329812 C58.8540575,18.2094623 58.9054814,26.3578463 59.122683,27.1312587 C59.2921336,27.733924 59.4084858,27.8377442 60.1282055,28.0280994 C60.7077516,28.181345 60.9421845,28.3367513 60.9421845,28.5676191 C60.9421845,28.8436691 60.7507248,28.8868209 58.834999,28.89146 L57.9180456,28.8915103 C55.9735397,28.8872844 55.8183679,28.8465171 55.8183679,28.5527645 C55.8183679,28.3217347 55.9907895,28.1795085 56.35913,28.1066398 C57.4764673,27.8857111 57.5505783,27.5350882 57.6133458,22.1750022 C57.6485108,19.1730137 57.5968707,17.0725709 57.4770075,16.6327554 C57.266396,15.8593268 56.7415689,15.5039882 55.8097793,15.5039882 C55.3914732,15.5039882 55.2693953,15.4222121 55.2693953,15.1421513 Z M77.921773,14.781051 C79.8737323,14.7865181 79.9733256,14.829875 79.9733256,15.1421513 C79.9733256,15.4075574 79.8512476,15.5039882 79.5158574,15.5039882 C79.2641932,15.5039882 78.890343,15.6700898 78.6850252,15.8730795 C78.3225185,16.2314809 78.3132276,16.4096877 78.3648136,21.9486718 C78.4151573,27.3558064 78.4365479,27.6686177 78.7730725,27.9118013 C78.9685053,28.0528931 79.318372,28.168273 79.5508063,28.168273 C79.8512476,28.168273 79.9733256,28.2726874 79.9733256,28.5301314 C79.9733256,28.8424321 79.8737323,28.8857429 77.921773,28.8912009 L76.747359,28.8915526 C74.6442368,28.8876009 74.4835453,28.8481355 74.4835453,28.5533046 C74.4835453,28.2985615 74.6632592,28.1862065 75.2085586,28.0998877 C76.2913252,27.9287625 76.3468004,27.5781396 76.2792794,21.3238056 C76.2252626,16.3150611 76.2020354,16.0027738 75.8668072,15.7605193 C75.6713745,15.6194058 75.2802929,15.5039882 74.9975691,15.5039882 C74.6056232,15.5039882 74.4835453,15.4180528 74.4835453,15.1421513 C74.4835453,14.829875 74.5831385,14.7865181 76.5350581,14.781051 Z M134.396375,16.8111782 C134.357483,16.9636893 134.340197,18.0306235 134.34992,19.668029 L134.365585,22.2814693 L134.63891,22.4241816 L134.653495,22.431906 C134.802041,22.5095282 134.994341,22.6103235 135.330325,22.6756298 C135.868873,22.7749127 137.461828,22.7703212 138.170528,22.0350447 C138.878688,21.2997682 138.937026,20.1260373 138.937026,19.3821289 C138.858702,18.215712 138.485986,15.8723016 136.3426,15.8723016 C135.715465,15.8403183 134.432026,15.9477361 134.396375,16.8111782 Z M121.450711,17.5980408 C121.432346,17.6283983 121.305946,17.971891 121.169824,18.3613034 C120.286649,20.8834067 119.886385,22.0191097 119.80644,22.2330162 C119.756205,22.367572 119.714612,22.5061791 119.714612,22.541128 C119.714612,22.5789524 120.351,22.6019438 121.452198,22.6045178 L122.033136,22.6042291 C122.930037,22.6016174 123.613003,22.5896795 123.613003,22.5754286 C123.613003,22.5593316 123.517394,22.3185248 123.400717,22.0402303 C123.283501,21.7619898 122.997212,21.0672799 122.7644,20.4964305 C122.531587,19.925581 122.262584,19.2687747 122.166434,19.0368644 C122.070284,18.8049541 121.900671,18.3889979 121.790477,18.1125885 C121.589534,17.6099083 121.512831,17.4941827 121.450711,17.5980408 Z" id="形状结合" fill-rule="evenodd"></path>
            </g>
        </g>
    </g>
</svg>