<?xml version="1.0" encoding="UTF-8"?>
<svg width="162px" height="66px" viewBox="0 0 162 66" version="1.1" xmlns="http://www.w3.org/2000/svg" xmlns:xlink="http://www.w3.org/1999/xlink">
    <!-- Generator: Sketch 61 (89581) - https://sketch.com -->
    <title>partners/walletconnect_logo</title>
    <desc>Created with Sketch.</desc>
    <g id="partners/walletconnect_logo" stroke="none" stroke-width="1" fill="none" fill-rule="evenodd">
        <g id="walletconnect_logo">
            <rect id="矩形" stroke="#BFC7D2" stroke-width="0.655092094" fill="#FFFFFF" x="0.327546047" y="0.327546047" width="161.344908" height="65.3449079" rx="7.07539872"></rect>
            <g id="Commonly/walletconnect_horizontal" transform="translate(15.901542, 22.386121)" fill="#3B99FC">
                <path d="M60.5855376,18.0048849 L62.4034543,18.0048849 L62.4034543,8.67296622 L60.5855376,8.67296622 L60.5855376,18.0048849 Z M63.8156353,17.9875816 L65.6417577,17.9875816 L65.6417577,8.67287703 L63.8156353,8.67287703 L63.8156353,17.9875816 Z M76.7872226,15.3474907 C76.7872226,15.2435817 76.7872226,15.1396727 76.7872226,15.0358529 L76.7872226,12.4721106 L78.02423,12.4721106 L78.02423,11.0391477 L76.7732194,11.0391477 L76.7732194,9.48443741 L74.8817191,9.48443741 L74.8817191,11.0803545 L73.9444868,11.0803545 L73.9444868,12.4777297 L74.9019657,12.4777297 C74.9019657,12.729787 74.901163,12.9057633 74.9020549,13.0817397 C74.9078524,14.2095758 74.9027685,15.3376795 74.9245314,16.4652481 C74.9362156,17.0702392 75.1816727,17.5723024 75.7653468,17.8199001 C76.4969909,18.1302892 77.2599415,18.0946123 78.0245868,17.9864221 L78.0245868,16.6362296 C76.8359215,16.5726355 76.7873117,16.5206365 76.7872226,15.3474907 L76.7872226,15.3474907 Z M128.757055,12.4809406 L130.016004,12.4809406 L130.016004,11.0457479 L128.739841,11.0457479 L128.739841,9.48675641 L126.835497,9.48675641 L126.835497,11.0832979 L125.896124,11.0832979 L125.896124,12.460694 C126.223103,12.476035 126.526089,12.4902166 126.856279,12.5056468 C126.856279,12.7512823 126.854317,12.9574948 126.856547,13.1637073 C126.868944,14.2919003 126.848519,15.4219662 126.906851,16.5478401 C126.948771,17.3555652 127.316154,17.7817258 128.110501,17.9340662 C128.722716,18.0514432 129.36169,18.0289668 130.012436,18.0701736 L130.012436,16.6133072 C129.916912,16.6133072 129.846093,16.6130396 129.775185,16.6133964 C128.930534,16.6168749 128.75991,16.4489259 128.757501,15.6015102 C128.755272,14.8440003 128.757055,14.0864905 128.757055,13.3288914 L128.757055,12.4809406 Z M122.420124,12.4023622 C122.97151,12.452845 123.355305,12.7465551 123.553311,13.2703813 C123.598799,13.3907017 123.643306,13.511468 123.681748,13.614485 L125.384072,13.614485 C125.354103,12.4256414 124.570103,11.4198203 123.392141,11.0795518 C121.548537,10.547074 119.134192,11.1879204 118.836289,14.1155672 C118.537763,17.0495466 121.018111,19.0024111 123.709219,17.9186359 C124.736536,17.5049622 125.473086,16.4323361 125.344024,15.5153505 L123.668013,15.5153505 C123.508804,16.1539671 123.182539,16.5991256 122.515113,16.6819853 C121.9004,16.7583338 121.371936,16.5735275 121.085897,16.0043025 C120.59632,15.0300554 120.59302,14.0274452 121.106768,13.0583713 C121.376128,12.5500646 121.855001,12.3505415 122.420124,12.4023622 L122.420124,12.4023622 Z M101.339444,11.1122854 C100.456708,10.8028774 99.5737045,10.8333812 98.8061159,11.4452401 C98.5505801,11.6489552 98.3665765,11.9425761 98.0920427,12.2625087 L98.0920427,11.0973902 L96.3169383,11.0973902 L96.3169383,18.0026551 L98.183108,18.0026551 C98.183108,17.803132 98.1830188,17.6423183 98.1831972,17.4814155 C98.184535,16.3072886 98.1765969,15.1329833 98.1908677,13.9590347 C98.1991626,13.2793005 98.535239,12.7783968 99.0647735,12.5846712 C100.039377,12.2280805 100.84407,12.7918648 100.866368,13.8850052 C100.891253,15.1032822 100.87386,16.3223621 100.874841,17.5410851 C100.87502,17.6965472 100.874841,17.8520093 100.874841,17.9974819 L102.727186,17.9974819 C102.727186,16.3215593 102.772496,14.6733755 102.708902,13.0293838 C102.67483,12.1503049 102.220485,11.4211582 101.339444,11.1122854 L101.339444,11.1122854 Z M109.993144,11.878982 C109.161783,10.6190522 107.039543,10.5988055 106.137006,11.8200259 C106.044335,11.9454303 105.957819,12.0754726 105.795132,12.3082644 L105.795132,11.0865088 L104.015033,11.0865088 L104.015033,18.0057768 L105.868627,18.0057768 C105.868627,16.6404217 105.857032,15.3205546 105.872551,14.0009551 C105.883343,13.084237 106.454531,12.4919112 107.280362,12.4925356 C108.103696,12.4932491 108.546624,12.9975422 108.554116,13.9731271 C108.563303,15.1612572 108.556792,16.3494765 108.55706,17.5376066 C108.55706,17.6929795 108.55706,17.8483524 108.55706,17.998463 L110.398969,17.998463 C110.398969,16.2808877 110.420732,14.5915862 110.381042,12.9036227 C110.372836,12.5571108 110.191151,12.1790248 109.993144,11.878982 L109.993144,11.878982 Z M93.0813107,15.9454356 C92.8500351,16.4664968 92.4097821,16.7395143 91.8439464,16.740409 C91.2802514,16.7413873 90.8149353,16.4853163 90.6075633,15.9539088 C90.4279301,15.4935876 90.352741,14.9925055 90.2285854,14.4982911 C90.3629981,14.0182584 90.4454118,13.5483936 90.6270964,13.1208059 C90.8411579,12.6172264 91.2776648,12.3644555 91.8339569,12.3635604 C92.4090686,12.3624933 92.8410267,12.6294457 93.0743537,13.1472068 C93.4911491,14.0722197 93.4932005,15.0177469 93.0813107,15.9454356 L93.0813107,15.9454356 Z M93.5417211,11.2912942 C91.2542072,10.1391978 88.750848,11.4145579 88.4309154,13.9414639 C88.1745768,15.9657714 89.0126273,17.8634259 91.3514268,18.1627552 C93.144548,18.3921577 94.661084,17.4877481 95.1163213,15.8379589 C95.2334307,15.4132254 95.2585829,14.9632504 95.3259231,14.5248704 C95.2764214,12.9894257 94.6655436,11.8573975 93.5417211,11.2912942 L93.5417211,11.2912942 Z M113.352125,13.803305 C113.329381,12.9628464 113.967819,12.3071941 114.800964,12.307907 C115.63616,12.3086211 116.233659,12.9285965 116.218764,13.803305 L113.352125,13.803305 Z M115.016988,10.918203 C113.293615,10.775763 111.91274,11.7855085 111.538935,13.5052245 C111.439308,13.9637619 111.400331,14.4514652 111.431637,14.9192786 C111.519135,16.2271047 112.008444,17.325329 113.292544,17.8761804 C114.369987,18.3382855 115.473741,18.3069791 116.534772,17.8182947 C117.323321,17.455193 117.859723,16.8557318 118.011707,15.9059234 C117.533101,15.9059234 117.104711,15.9183211 116.677391,15.9011962 C116.429258,15.8912067 116.283161,15.9701418 116.139651,16.1858087 C115.75657,16.7616339 114.920125,16.9517027 114.218182,16.662363 C113.579119,16.3989782 113.212361,15.7207603 113.331522,14.9782347 L118.078958,14.9782347 C118.078958,14.6320795 118.093942,14.3500536 118.07655,14.0700791 C117.962473,12.2309347 116.830266,11.068046 115.016988,10.918203 L115.016988,10.918203 Z M68.6597562,13.8127594 C68.6245253,12.9760468 69.2686718,12.3105834 70.1019059,12.3078093 C70.9355859,12.3050535 71.5424501,12.9304696 71.5261279,13.8127594 L68.6597562,13.8127594 Z M70.358512,10.9219491 C68.6541371,10.7597975 67.2626486,11.7351149 66.8672593,13.4290543 C66.7476525,13.9414639 66.7085863,14.4932964 66.7481877,15.0183712 C66.8443369,16.2955152 67.3606709,17.3543165 68.6088274,17.8824239 C69.6876078,18.3387315 70.7933243,18.3073358 71.8523932,17.8131215 C72.6366607,17.4470765 73.1725278,16.8472585 73.3149679,15.9064586 C72.7909633,15.9064586 72.3162821,15.8957555 71.8428496,15.914575 C71.7342134,15.9189455 71.596679,15.999932 71.5286253,16.0886783 C71.0366407,16.730595 70.3477197,16.9517027 69.60234,16.6873368 C68.9290276,16.4485691 68.567353,15.8494647 68.60633,14.9578097 L73.388819,14.9578097 C73.388819,14.640642 73.4021087,14.3730652 73.3866784,14.1070939 C73.2793801,12.2550166 72.1733961,11.0947145 70.358512,10.9219491 L70.358512,10.9219491 Z M55.7111806,16.7712667 C55.2167879,16.7266706 54.8792844,16.4463393 54.8312989,16.0406037 C54.7768917,15.5809068 55.0073645,15.2331462 55.5491182,15.1344103 C56.1417116,15.0263093 56.7504488,15.0072222 57.3767569,14.9469282 C57.5174131,16.154859 56.8226945,16.871608 55.7111806,16.7712667 L55.7111806,16.7712667 Z M58.375621,11.4955445 C57.213535,10.6956683 55.2607597,10.7138635 54.1253422,11.5490599 C53.5868885,11.9451627 53.3015625,12.483438 53.2608016,13.1900191 C53.7809709,13.1900191 54.2555629,13.2039331 54.7281927,13.1795836 C54.8378992,13.1739645 54.9793581,13.0606011 55.0406332,12.9577624 C55.3748366,12.3970999 56.1365385,12.1534266 56.7952233,12.4169897 C57.3050463,12.6208833 57.5084938,13.1138489 57.3579373,13.811154 C57.2335141,13.8216787 57.1022231,13.8302411 56.9715564,13.8442443 C56.1760506,13.9291553 55.3675228,13.9532372 54.5888744,14.1182429 C53.7825763,14.2891353 53.1352189,14.7441942 52.9810947,15.6416467 C52.7643575,16.9038064 53.6008025,17.9707242 54.8806223,18.1095074 C55.9186418,18.222068 56.7654331,17.8918783 57.4636301,16.9236963 L57.4636301,18.010504 L59.2227691,18.010504 C59.2227691,16.2428026 59.2483673,14.5230866 59.207874,12.8049761 C59.1949411,12.2532328 58.8396883,11.8148528 58.375621,11.4955445 L58.375621,11.4955445 Z M83.4103722,10.0913907 C84.4752386,10.0872879 85.2199048,10.6572264 85.6218052,11.7589292 C85.6600686,11.8638193 85.805452,11.9960023 85.9063285,12.0006403 C86.4376468,12.0247222 86.9705705,12.0118785 87.5658397,12.0118785 C87.5430064,11.8384887 87.5339088,11.7375231 87.5156244,11.6382521 C87.4915425,11.5072287 87.469958,11.3745106 87.4308026,11.24759 C86.9215148,9.59574935 85.7378443,8.74057396 84.0826143,8.53596691 C82.3635227,8.32342175 80.7920442,8.72514369 79.8461603,10.2771782 C78.6392107,12.2576032 78.6466136,14.3653947 79.8115537,16.3671366 C81.1879687,18.7322477 85.0111949,18.6794459 86.5766083,17.0053964 C87.1500253,16.3921104 87.4779853,15.6720613 87.5562961,14.7929824 C86.974049,14.7929824 86.4260518,14.7826361 85.879214,14.8032395 C85.7881487,14.806718 85.6598011,14.9277519 85.6204673,15.0238119 C85.1787872,16.1030383 84.4636436,16.6094719 83.3872714,16.5847657 C82.3910831,16.5618433 81.6021775,15.9671985 81.2489762,14.9252545 C80.8952397,13.8814375 80.8892638,12.8220118 81.24193,11.7756082 C81.5986099,10.717342 82.4178408,10.095226 83.4103722,10.0913907 L83.4103722,10.0913907 Z M51.1425746,8.67715826 C50.649609,10.9287277 50.1621733,13.1552341 49.6747376,15.3817405 C49.5636932,15.2764044 49.5265892,15.1808795 49.5011694,15.0824113 C49.0517296,13.3451244 48.6063035,11.6069456 48.1536528,9.8705507 C48.049833,9.47221807 48.0379704,8.92859124 47.7738721,8.7273735 C47.5064737,8.52347999 46.9778312,8.67492845 46.5655846,8.6444247 C46.2751746,8.62292936 46.1605625,8.72576804 46.0877816,9.01510773 C45.5811696,11.028623 45.0523487,13.0365192 44.5287009,15.0457532 C44.4997134,15.1572436 44.4537794,15.2643635 44.3738632,15.4939443 C43.8583319,13.1263358 43.3733044,10.8988483 42.8885444,8.67252026 L40.872175,8.67252026 C41.0194314,9.23175573 41.1580362,9.76084422 41.298068,10.2896651 C41.9473877,12.7410252 42.5934072,15.1932772 43.2554814,17.6411588 C43.2949936,17.7873449 43.4560748,17.9998901 43.5736302,18.0087201 C44.1034322,18.0485891 44.6380506,18.0261126 45.189794,18.0261126 C45.4931368,16.9432294 45.7893443,15.8893336 46.0835896,14.8348135 C46.3759618,13.7866261 46.6662826,12.7378143 46.9575846,11.6892701 C46.9898722,11.6904296 47.0220706,11.6914999 47.0543582,11.6927486 C47.1003814,11.8398266 47.1505074,11.9859235 47.1918926,12.1344287 C47.7046589,13.9773191 48.2206362,15.8194069 48.7230562,17.6652407 C48.7969074,17.9363852 48.9087544,18.0576867 49.2071918,18.0340507 C49.5762693,18.0047065 49.9501633,18.0129122 50.3205787,18.0317317 C50.5872636,18.045289 50.7074948,17.9633213 50.7769755,17.6868253 C51.1128736,16.3493873 51.4753509,15.0186388 51.8297118,13.6858388 C52.2713027,12.0251681 52.7143206,10.3648542 53.1639388,8.67715826 L51.1425746,8.67715826 Z M8.53391549,8.01383542 C8.81968749,8.3009453 9.06059579,8.27623905 9.32933207,7.99644293 C9.63802648,7.67499402 9.96027812,7.36612122 10.2841352,7.05974581 C13.4777533,4.03853636 18.2741563,3.411158 22.1507195,5.49005121 C23.3206544,6.11742957 24.2875877,6.98776765 25.2027895,7.92696215 C25.4451249,8.17563018 25.6683731,8.27418763 25.9572668,7.98654259 C26.6734807,7.27345046 27.4069978,6.57757245 28.1216062,5.86296405 C28.4813186,5.50316247 28.4743616,5.13792017 28.1206251,4.76732633 C25.9714484,2.51557852 23.4152874,0.973265947 20.3434167,0.351417507 C19.6041913,0.201752893 18.8521221,0.115414785 18.1060289,0 L16.5005682,0 C16.1931225,0.0398689405 15.8859443,0.0814325339 15.5783202,0.119428437 C11.9663013,0.56538974 8.94714323,2.16906658 6.44940317,4.79221097 C6.04652173,5.21533905 6.03367804,5.54303142 6.43834333,5.94742912 C7.13225911,6.64080976 7.84196193,7.31849255 8.53391549,8.01383542 L8.53391549,8.01383542 Z M32.5313608,9.08316143 C31.9327023,8.49841697 31.6715474,8.49440332 31.0754755,9.07691797 C29.0464408,11.0600187 27.0199034,13.045706 24.9923849,15.0302338 C24.5510616,15.4621027 24.5492778,15.4635298 24.1211549,15.0445045 C22.0829334,13.0495413 20.0456038,11.053686 18.0079174,9.0581876 C17.4437764,8.50581993 17.155507,8.50796054 16.5834278,9.06808794 C14.5241569,11.0840114 12.4604264,13.0953861 10.4110558,15.1212991 C10.1343814,15.3947626 9.96545127,15.3945842 9.68949042,15.119426 C8.3009453,13.7351622 6.89313466,12.3701638 5.49165667,10.9988328 C4.79096227,10.3132119 4.09356799,9.6240233 3.38636256,8.94509181 C2.973224,8.54854302 2.63509615,8.55095121 2.21928183,8.93644016 C1.97971141,9.15852889 1.7436195,9.38525561 1.51823066,9.62161511 C1.00814012,10.1565903 0.505630925,10.6988792 0,11.2382248 L0,11.5058016 C0.144580654,11.6914999 0.269984973,11.8967313 0.436506923,12.0602207 C3.41526085,14.9851025 6.39820681,17.9057031 9.38391773,20.8235387 C9.53929065,20.9753439 9.72748632,21.0937912 9.90034092,21.227758 L10.1679177,21.227758 C10.3980337,21.0471437 10.6469693,20.8857949 10.8554116,20.6829717 C12.8859626,18.7067388 14.9158001,16.7296139 16.9288694,14.7355426 C17.2227579,14.4445082 17.386069,14.4528923 17.6750519,14.7390211 C19.699181,16.7429928 21.7390972,18.7309991 23.7802621,20.7176675 C23.9780014,20.9100552 24.2181961,21.0587387 24.4386794,21.227758 L24.6170639,21.227758 C24.802227,21.1090431 25.0143262,21.0179778 25.1685397,20.8675997 C28.1984007,17.9108762 31.2227319,14.9484445 34.2451009,11.9840505 C34.6935595,11.5441543 34.6920433,11.2072751 34.2499172,10.7675573 C33.6812274,10.2019 33.1052238,9.6435564 32.5313608,9.08316143 L32.5313608,9.08316143 Z" id="Fill-1"></path>
            </g>
        </g>
    </g>
</svg>