<?xml version="1.0" encoding="UTF-8"?>
<svg width="162px" height="66px" viewBox="0 0 162 66" version="1.1" xmlns="http://www.w3.org/2000/svg" xmlns:xlink="http://www.w3.org/1999/xlink">
    <!-- Generator: Sketch 61 (89581) - https://sketch.com -->
    <title>partners/xrp_logo</title>
    <desc>Created with Sketch.</desc>
    <defs>
        <linearGradient x1="74.8274874%" y1="74.3151904%" x2="32.1244139%" y2="12.3856479%" id="linearGradient-1">
            <stop stop-color="#20659B" offset="0%"></stop>
            <stop stop-color="#36A3DB" offset="100%"></stop>
        </linearGradient>
    </defs>
    <g id="partners/xrp_logo" stroke="none" stroke-width="1" fill="none" fill-rule="evenodd">
        <g id="xrp_logo">
            <rect id="矩形" stroke="#BFC7D2" stroke-width="0.655092094" fill="#FFFFFF" x="0.327546047" y="0.327546047" width="161.344908" height="65.3449079" rx="7.07539872"></rect>
            <g id="collection/ripple" transform="translate(25.807829, 17.079181)">
                <g id="编组">
                    <path d="M77.8019829,20.4996731 C75.2127407,20.4996731 73.4533769,18.7402186 73.4533769,16.1510671 C73.4533769,13.5618249 75.2127407,11.8024611 77.8019829,11.8024611 C80.0813361,11.8024611 81.8406999,13.7719253 81.8406999,16.1510671 C81.8406999,18.6352591 79.9762859,20.4996731 77.8019829,20.4996731 L77.8019829,20.4996731 Z M78.3167106,8.06837145 C76.5572561,8.06837145 75.002731,8.6880587 73.7580043,9.6228965 L73.7580043,8.37816972 L69.7192872,8.37816972 L69.7192872,31.7912982 L73.9681046,31.7912982 L73.9681046,22.8840765 C75.2127407,23.8188236 76.5572561,24.3335514 78.216922,24.3335514 C80.4961845,24.3335514 82.7755377,23.298925 84.1200531,21.6393497 C85.3647799,20.1897841 86.0895173,18.3253701 86.0895173,16.1510671 C85.9844671,11.5924514 82.5654373,8.06837145 78.3167106,8.06837145 L78.3167106,8.06837145 Z M105.873516,14.1816029 C105.768465,12.8370875 104.529,11.3823511 102.764375,11.3823511 C100.999749,11.3823511 99.5554454,12.7267757 99.4503952,14.1816029 L105.873516,14.1816029 Z M109.812444,21.5342995 C108.257919,23.2936634 105.773727,24.3335514 103.389324,24.3335514 C98.7256578,24.3335514 95.2068394,21.1246219 95.2068394,16.1510671 C95.2068394,11.8024611 98.21093,7.96858285 102.874687,7.96858285 C107.223293,7.96858285 110.332433,11.5924514 110.332433,15.9462283 C110.332433,16.3611675 110.332433,16.7760159 110.227383,17.1909551 L99.2455564,17.1909551 C99.4503952,19.3652581 101.215021,20.9197832 103.494374,20.9197832 C105.253828,20.9197832 106.703303,19.8851567 107.433302,19.1604193 L109.812444,21.5342995 Z M88.4686591,24.0237531 L92.7174765,24.0237531 L92.7174765,1.02556379 L88.4686591,1.02556379 L88.4686591,24.0237531 Z M58.9475608,20.4996731 C56.3584093,20.4996731 54.5989548,18.7402186 54.5989548,16.1510671 C54.5989548,13.5618249 56.3584093,11.8024611 58.9475608,11.8024611 C61.226914,11.8024611 62.9862778,13.7719253 62.9862778,16.1510671 C62.9862778,18.6352591 61.1218638,20.4996731 58.9475608,20.4996731 L58.9475608,20.4996731 Z M59.4622886,8.06837145 C57.702834,8.06837145 56.148309,8.6880587 54.9035822,9.6228965 L54.9035822,8.37816972 L50.7598149,8.37816972 L50.7598149,31.7912982 L55.0086324,31.7912982 L55.0086324,22.8840765 C56.2533591,23.8188236 57.5978745,24.3335514 59.2574498,24.3335514 C61.536803,24.3335514 63.8160654,23.298925 65.1605808,21.6393497 C66.4053076,20.1897841 67.130045,18.3253701 67.130045,16.1510671 C67.130045,11.5924514 63.711106,8.06837145 59.4622886,8.06837145 L59.4622886,8.06837145 Z M42.7821695,24.0236624 L47.0309869,24.0236624 L47.0309869,8.37816972 L42.7821695,8.37816972 L42.7821695,24.0236624 Z M44.9617341,0.0906352693 C46.4112089,0.0906352693 47.6559357,1.23031187 47.6559357,2.78492763 C47.6559357,4.33945268 46.4112089,5.47912928 44.8566839,5.47912928 C43.3020681,5.47912928 42.057432,4.33945268 42.057432,2.78492763 C42.1623915,1.23031187 43.4071183,0.0906352693 44.9617341,0.0906352693 L44.9617341,0.0906352693 Z M40.1929273,12.1070885 C39.883129,12.0020383 39.2580895,11.9022497 38.6384023,11.9022497 C36.7739882,11.9022497 34.804524,13.3518153 34.804524,15.2162293 L34.804524,24.0236624 L30.5557066,24.0236624 L30.5557066,8.37816972 L34.5944236,8.37816972 L34.5944236,9.93278548 C35.5292614,8.79310888 37.2886253,8.06837145 39.15313,8.06837145 C39.7728173,8.06837145 40.0879678,8.17342164 40.6026049,8.17342164 L40.1929273,12.1070885 Z" id="Fill-1" fill="#474D55"></path>
                    <path d="M16.3702301,2.67986837 C14.6107755,3.7145855 13.5709783,5.57890881 13.5709783,7.54846374 L13.5709783,7.54846374 C13.5709783,8.58309015 13.9859174,9.62288743 14.5058161,10.5525544 L14.5058161,10.5525544 C14.9207552,11.382342 15.1255033,12.8318168 13.6760285,13.5565543 L13.6760285,13.5565543 C12.641402,14.1763322 11.2916251,13.7613931 10.6719378,12.7267667 L10.6719378,12.7267667 C10.0521599,11.896979 9.32742244,11.0671914 8.39258463,10.4474135 L8.39258463,10.4474135 C6.63322079,9.41278705 4.55861567,9.41278705 2.79925183,10.4474135 L2.79925183,10.4474135 C1.03988799,11.4821306 0,13.3518062 0,15.3212704 L0,15.3212704 C0,17.2907346 1.03462641,19.1551487 2.79925183,20.1897751 L2.79925183,20.1897751 C4.55861567,21.2244015 6.63322079,21.2244015 8.39258463,20.1897751 L8.39258463,20.1897751 C9.32742244,19.6698764 10.0521599,18.8452597 10.5668876,17.9104219 L10.5668876,17.9104219 C10.9817361,17.1856844 12.1214127,16.2508466 13.5709783,17.0806343 L13.5709783,17.0806343 C14.6056047,17.7004122 14.9154029,19.0501892 14.4007659,20.0847249 L14.4007659,20.0847249 C13.8808672,21.0195627 13.5709783,22.0541891 13.5709783,23.0889062 L13.5709783,23.0889062 C13.5709783,25.0583704 14.6056047,26.9227845 16.3702301,27.9574109 L16.3702301,27.9574109 C18.1296847,28.9920373 20.2041991,28.9920373 21.9635629,27.9574109 L21.9635629,27.9574109 C23.7229267,26.9227845 24.7628147,25.0583704 24.7628147,23.0889062 L24.7628147,23.0889062 C24.7628147,21.1193513 23.7281883,19.2549373 21.9635629,18.2203109 L21.9635629,18.2203109 C21.0287251,17.7004122 19.9940987,17.4955734 18.8544221,17.4955734 L18.8544221,17.4955734 C17.9195843,17.4955734 16.6801191,16.8758862 16.6801191,15.3212704 L16.6801191,15.3212704 C16.6801191,14.0765436 17.6149569,13.1469674 18.8544221,13.1469674 L18.8544221,13.1469674 C19.8890485,13.1469674 21.0287251,12.9421286 21.9635629,12.4221393 L21.9635629,12.4221393 C23.7229267,11.3876036 24.7628147,9.52309882 24.7628147,7.55372532 L24.7628147,7.55372532 C24.7628147,5.58417039 23.7281883,3.71975636 21.9635629,2.68522067 L21.9635629,2.68522067 C21.1336846,2.1651406 20.0990582,1.96030181 19.1642204,1.96030181 L19.1642204,1.96030181 C19.1528807,1.96030181 19.1413597,1.96030181 19.1299294,1.96030181 L19.1299294,1.96030181 C18.209062,1.96030181 17.1846866,2.17149078 16.3702301,2.67986837" id="Fill-3" fill="url(#linearGradient-1)"></path>
                </g>
            </g>
        </g>
    </g>
</svg>