<?xml version="1.0" encoding="UTF-8"?>
<svg width="162px" height="66px" viewBox="0 0 162 66" version="1.1" xmlns="http://www.w3.org/2000/svg" xmlns:xlink="http://www.w3.org/1999/xlink">
    <!-- Generator: Sketch 61 (89581) - https://sketch.com -->
    <title>partners/zcash_logo</title>
    <desc>Created with Sketch.</desc>
    <g id="partners/zcash_logo" stroke="none" stroke-width="1" fill="none" fill-rule="evenodd">
        <g id="zcash_logo">
            <rect id="矩形" stroke="#BFC7D2" stroke-width="0.655092094" fill="#FFFFFF" x="0.327546047" y="0.327546047" width="161.344908" height="65.3449079" rx="7.07539872"></rect>
            <g id="collection/zcash" transform="translate(24.180368, 9.649466)">
                <g id="zcash-logo-horizontal-fullcolor" transform="translate(0.000000, 0.000000)">
                    <polygon id="路径" fill="#000000" fill-rule="nonzero" points="66.3672954 14.5978177 66.3672954 16.0615825 54.9260318 30.569782 66.6062775 30.569782 66.6062775 31.9837589 53.0739212 31.9837589 53.0739212 30.5199941 64.5151849 16.0117946 53.8506127 16.0117946 53.8506127 14.5978177"></polygon>
                    <path d="M75.8369576,21.1499078 C75.2693753,20.6121983 74.4727686,20.3433435 73.4471375,20.3433435 C72.7799794,20.3333859 72.1128213,20.4927073 71.5253238,20.81135 C70.9876143,21.1100775 70.5096503,21.528296 70.1511773,22.0261752 C69.7827467,22.5439695 69.4939767,23.1215094 69.3246978,23.7388796 C68.9562672,25.0234079 68.9562672,26.3776393 69.3246978,27.6621676 C69.5039343,28.2795377 69.7827467,28.8570776 70.1511773,29.374872 C70.5196079,29.8727511 70.9876143,30.2909697 71.5253238,30.5896972 C72.1128213,30.9083398 72.7799794,31.0676612 73.4471375,31.047746 C73.9051863,31.047746 74.3632352,30.9581278 74.7914113,30.7788913 C75.2096298,30.5996548 75.588018,30.3507152 75.9066606,30.0320725 C76.2352609,29.7034722 76.5140733,29.325084 76.7132249,28.8969079 C76.9223342,28.4488167 77.0617404,27.9608951 77.1015707,27.4630159 L78.6350386,27.4630159 C78.4259293,28.9865262 77.8683046,30.1814362 76.9522069,31.0278309 C76.0361092,31.8742255 74.8710719,32.3024016 73.4471375,32.3024016 C72.4912094,32.3024016 71.6448148,32.1231651 70.9079536,31.7846072 C70.1910076,31.456007 69.5537222,30.9680853 69.0458855,30.3606727 C68.5280911,29.7433026 68.1397454,29.0263565 67.9007633,28.2596226 C67.382969,26.5867485 67.382969,24.7943834 67.9007633,23.1215094 C68.1397454,22.3547754 68.5280911,21.6378294 69.0458855,21.0204592 C69.5537222,20.4130466 70.1910076,19.925125 70.9079536,19.5865672 C71.6448148,19.2280942 72.4912094,19.0488576 73.4471375,19.0488576 C74.7914113,19.0488576 75.9365334,19.4073307 76.8625887,20.1242767 C77.7986016,20.8412227 78.3562262,21.9166418 78.5255052,23.3604914 L76.9920373,23.3604914 C76.7928856,22.4244785 76.4045398,21.6876173 75.8369576,21.1499078 Z" id="路径" fill="#000000" fill-rule="nonzero"></path>
                    <path d="M80.8456222,21.3689746 C81.0846042,20.8511803 81.4530348,20.403089 81.901126,20.0545736 C82.3691325,19.7060582 82.906842,19.447161 83.4744243,19.2977972 C84.1216672,19.1285183 84.7987829,19.0488576 85.465941,19.0588152 C86.0235657,19.0588152 86.5811904,19.1185607 87.1288575,19.2181366 C87.6566094,19.3177124 88.1644462,19.5168641 88.6125375,19.8155916 C89.0705863,20.1242767 89.4390169,20.5524528 89.6879565,21.050332 C89.9667689,21.5780839 90.106175,22.2651572 90.106175,23.1015942 L90.106175,29.7731753 C90.106175,30.3905455 90.4049025,30.6992306 91.0023576,30.6992306 C91.1716365,30.6992306 91.3309578,30.6693578 91.4902792,30.5996548 L91.4902792,31.8841831 C91.3110427,31.9140558 91.1517213,31.9439286 91.0123151,31.9538861 C90.8430362,31.9738013 90.6637997,31.9837589 90.4945208,31.9738013 C90.1758781,31.9837589 89.8572354,31.933971 89.5585079,31.81448 C89.3394411,31.7248617 89.150247,31.5655404 89.0108408,31.3663887 C88.8714346,31.1572794 88.791774,30.9182974 88.7519436,30.6693578 C88.7121133,30.3706303 88.6921981,30.0818604 88.6921981,29.7831329 L88.6424102,29.7831329 C88.383513,30.1615211 88.1047007,30.5199941 87.8059732,30.8685095 C87.5271608,31.1771946 87.2085182,31.4460494 86.8600027,31.6551586 C86.4915721,31.8742255 86.0833112,32.0435044 85.6650927,32.1430802 C85.1472983,32.2625712 84.6095888,32.3223167 84.0718793,32.3123591 C83.5142546,32.3123591 82.9665875,32.2426561 82.428878,32.1032499 C81.9409564,31.9738013 81.4829075,31.7547345 81.0945618,31.4460494 C80.706216,31.1373643 80.4074885,30.7490185 80.1983792,30.3009272 C79.9693548,29.7831329 79.8598214,29.2255082 79.869779,28.6579259 C79.869779,27.7816586 80.0689306,27.0945853 80.4572764,26.6066637 C80.8655373,26.0988269 81.3932893,25.7104811 82.0007019,25.4714991 C82.6977327,25.2026444 83.4246364,25.0134503 84.1714551,24.923832 C84.9780194,24.8142986 85.7845837,24.7147228 86.6210207,24.6251045 C86.949621,24.5952318 87.2284333,24.5554014 87.4773729,24.5056135 C87.6964398,24.4657832 87.905549,24.3761649 88.0847855,24.2467163 C88.2540645,24.1172678 88.383513,23.9479888 88.4631737,23.7488372 C88.5627495,23.4799824 88.6025799,23.2011701 88.5926223,22.9223577 C88.5926223,22.4045634 88.503004,21.9763873 88.3337251,21.647787 C88.1744038,21.3291443 87.9254642,21.050332 87.6267367,20.8611379 C87.308094,20.6619862 86.949621,20.52258 86.5811904,20.4628345 C86.1629719,20.3831739 85.7347958,20.3533011 85.3066197,20.3533011 C84.3307765,20.3533011 83.5341698,20.5823255 82.9167996,21.050332 C82.2994294,21.5183384 81.9807867,22.2551996 81.9409564,23.2808307 L80.4074885,23.2808307 C80.4174461,22.6136726 80.5767674,21.9664297 80.8456222,21.3689746 Z M88.5129616,25.1130261 C88.4133858,25.2922626 88.2241917,25.4217112 87.9553369,25.5013719 C87.7163549,25.571075 87.4674153,25.6308205 87.2284333,25.6706508 C86.5811904,25.7801842 85.9140323,25.8897177 85.2170014,25.9693783 C84.5797161,26.049039 83.9424307,26.1784876 83.3350181,26.3676817 C82.8172237,26.5170454 82.3392597,26.7759426 81.9309988,27.1344156 C81.5625682,27.4630159 81.3833317,27.9409799 81.3833317,28.5583501 C81.3733741,28.9168231 81.4530348,29.2752961 81.6123561,29.5939388 C81.7617199,29.8926663 81.9708291,30.1615211 82.2297263,30.3706303 C82.4985811,30.5896972 82.7973086,30.7589761 83.1259088,30.8685095 C83.4644667,30.9780429 83.8129821,31.0377884 84.1714551,31.0377884 C84.7390374,31.0377884 85.3066197,30.9481702 85.8542868,30.7689337 C86.3720811,30.5996548 86.8400876,30.3407576 87.2583061,29.9922421 C88.1047007,29.2752961 88.5826647,28.2098347 88.5627495,27.0945853 L88.5627495,25.1030685 L88.5129616,25.1130261 Z" id="形状" fill="#000000" fill-rule="nonzero"></path>
                    <path d="M100.153377,21.8668538 C99.9840981,21.528296 99.7351585,21.2295685 99.436431,21.0005441 C99.1277459,20.7715196 98.7792304,20.6022407 98.4008423,20.5026649 C97.9925813,20.3931314 97.5743628,20.3433435 97.1561443,20.3433435 C96.8076289,20.3433435 96.4591134,20.3831739 96.1205556,20.4528769 C95.7819977,20.52258 95.4533975,20.642071 95.15467,20.8213075 C94.8659,20.9806289 94.626918,21.2096533 94.4476815,21.4884657 C94.2584874,21.7971507 94.1688692,22.1556238 94.1788268,22.5140968 C94.1688692,22.8227819 94.2584874,23.1215094 94.4377239,23.3804066 C94.6070029,23.6193886 94.8360273,23.8185402 95.0849669,23.9778616 C95.3538216,24.1471405 95.6425916,24.2765891 95.9313615,24.3761649 C96.2400466,24.4856984 96.5288165,24.565359 96.7877137,24.6350621 L98.8290184,25.093111 C99.2771096,25.162814 99.7152433,25.282305 100.133462,25.4416264 C100.55168,25.6009477 100.930069,25.8299722 101.278584,26.1087845 C101.617142,26.3875968 101.895954,26.7361123 102.095106,27.1344156 C102.314173,27.5825069 102.423706,28.0704285 102.413748,28.5683077 C102.413748,29.2454234 102.254427,29.8329208 101.945742,30.3108848 C101.647015,30.7788913 101.238754,31.1871522 100.76079,31.4858797 C100.26291,31.7945648 99.7152433,32.0136316 99.1377035,32.1331226 C98.550206,32.2625712 97.9627086,32.3322743 97.3652535,32.3322743 C95.8915312,32.3322743 94.6966211,31.9837589 93.7805234,31.286728 C92.8644257,30.5896972 92.3466314,29.4744478 92.2072252,27.9310223 L93.7406931,27.9310223 C93.8103962,28.966611 94.1887843,29.7532601 94.8758576,30.2810121 C95.5629309,30.808764 96.4192831,31.0676612 97.4449142,31.0676612 C97.83326,31.0676612 98.2216057,31.0278309 98.5999939,30.9481702 C98.9883397,30.8685095 99.3667279,30.7291033 99.7052857,30.5299517 C100.033886,30.3407576 100.322656,30.091818 100.541723,29.7831329 C100.770747,29.4545326 100.880281,29.0661869 100.870323,28.6778411 C100.880281,28.3492408 100.80062,28.0206406 100.641299,27.7418282 C100.481977,27.482931 100.272868,27.2738218 100.023928,27.1045429 C99.7451161,26.9253064 99.4463885,26.7859002 99.1377035,26.6763668 C98.8091032,26.5668333 98.4705453,26.4672575 98.1220299,26.3875968 L96.1504283,25.9494632 C95.6724643,25.8299722 95.2144155,25.6706508 94.7563666,25.4914143 C94.3580633,25.332093 93.9896327,25.1229837 93.6510748,24.8541289 C93.3423897,24.6051894 93.0834926,24.2865467 92.904256,23.9280737 C92.715062,23.4998976 92.6254437,23.0418487 92.6354013,22.5738423 C92.6154861,21.9963024 92.7648499,21.4386777 93.0635774,20.9407985 C93.3423897,20.4927073 93.7207779,20.1143191 94.1688692,19.8454643 C94.6368756,19.566652 95.15467,19.3575427 95.6923795,19.2380517 C96.2400466,19.1086031 96.7976713,19.0389001 97.355296,19.0389001 C97.952751,19.0289425 98.550206,19.1185607 99.1177883,19.2778821 C99.6455402,19.4272458 100.133462,19.686143 100.55168,20.0346584 C100.969899,20.3831739 101.308457,20.81135 101.537481,21.2992716 C101.796378,21.8568963 101.935784,22.4643089 101.9557,23.0717215 L100.422232,23.0717215 C100.432189,22.6634605 100.332613,22.245242 100.153377,21.8668538 Z" id="路径" fill="#000000" fill-rule="nonzero"></path>
                    <path d="M105.898903,14.5978177 L105.898903,21.5880415 L105.948691,21.5880415 C106.247418,20.8213075 106.795085,20.1740646 107.502074,19.7458885 C108.238935,19.2878397 109.095287,19.0389001 109.961597,19.0488576 C110.837864,19.0488576 111.574726,19.1583911 112.162223,19.3874155 C112.70989,19.5865672 113.197812,19.9151674 113.586157,20.3533011 C113.954588,20.7914348 114.213485,21.3092291 114.342934,21.8768114 C114.492298,22.5439695 114.571958,23.2210852 114.562001,23.8982009 L114.562001,31.9837589 L113.028533,31.9837589 L113.028533,24.1471405 C113.028533,23.6492613 112.978745,23.1414245 112.879169,22.6535029 C112.789551,22.2253268 112.620272,21.8071083 112.371332,21.4486353 C112.122393,21.1001199 111.783835,20.8213075 111.385531,20.642071 C110.967313,20.4429194 110.459476,20.3533011 109.842106,20.3533011 C109.274524,20.3433435 108.716899,20.4528769 108.199105,20.6819014 C107.731098,20.8910106 107.322837,21.1996957 106.984279,21.5880415 C106.635764,21.9863448 106.376867,22.4543513 106.207588,22.9522305 C106.018394,23.4998976 105.90886,24.087395 105.898903,24.6649349 L105.898903,31.9937165 L104.365435,31.9937165 L104.365435,14.5978177 L105.898903,14.5978177 Z" id="路径" fill="#000000" fill-rule="nonzero"></path>
                    <path d="M23.3405762,3.88345765 C12.606301,3.88345765 3.87350006,12.6162586 3.87350006,23.3405762 C3.87350006,34.0648939 12.606301,42.8076524 23.3405762,42.8076524 C34.0748515,42.8076524 42.8076524,34.0848091 42.8076524,23.3505338 C42.8076524,12.6162586 34.0748515,3.88345765 23.3405762,3.88345765 Z M23.3405762,41.7222758 C13.1937984,41.7222758 4.96883427,33.4973116 4.96883427,23.3505338 C4.96883427,13.203756 13.1937984,4.96883427 23.3405762,4.96883427 C33.487354,4.96883427 41.7123182,13.1937984 41.7123182,23.3405762 C41.7123182,33.487354 33.487354,41.7222758 23.3405762,41.7222758 Z" id="形状"></path>
                    <path d="M23.3405762,4.96883427 C13.1937984,4.96883427 4.96883427,13.1937984 4.96883427,23.3405762 C4.96883427,33.487354 13.1937984,41.7222758 23.3405762,41.7222758 C33.487354,41.7222758 41.7123182,33.4973116 41.7123182,23.3505338 C41.7123182,13.203756 33.487354,4.96883427 23.3405762,4.96883427 Z M31.6551586,16.0814977 L29.8627936,18.3617844 L21.7971507,29.4644902 L31.6551586,29.4644902 L31.6551586,34.1744273 L25.2922626,34.1744273 L25.2922626,38.0678425 L24.8242562,38.0678425 L24.8242562,38.0877577 L21.8568963,38.0877577 L21.8568963,38.0678425 L21.3888898,38.0678425 L21.3888898,34.1744273 L15.0259938,34.1744273 L15.0259938,30.6195699 L16.8183589,28.3392832 L24.8840017,17.2365774 L15.0259938,17.2365774 L15.0259938,12.5266403 L21.3888898,12.5266403 L21.3888898,8.61330991 L25.2922626,8.61330991 L25.2922626,12.5166827 L31.6551586,12.5166827 L31.6551586,16.0814977 Z" id="形状" fill="#F4B728" fill-rule="nonzero"></path>
                    <path d="M23.3405762,0.0298727511 C10.4853357,0.0298727511 0.0298727511,10.4853357 0.0298727511,23.3405762 C0.0298727511,36.1958168 10.4853357,46.6512797 23.3405762,46.6512797 C36.1958168,46.6512797 46.6512797,36.1958168 46.6512797,23.3405762 C46.6512797,10.4853357 36.1958168,0.0298727511 23.3405762,0.0298727511 Z M23.3405762,42.8076524 C12.606301,42.8076524 3.87350006,34.0748515 3.87350006,23.3405762 C3.87350006,12.606301 12.606301,3.88345765 23.3405762,3.88345765 C34.0748515,3.88345765 42.8076524,12.6162586 42.8076524,23.3505338 C42.8076524,34.0848091 34.0748515,42.8076524 23.3405762,42.8076524 Z M25.2922626,12.5266403 L31.6551586,12.5266403 L31.6551586,16.0814977 L21.7971507,29.4644902 L31.6551586,29.4644902 L31.6551586,34.1744273 L25.2922626,34.1744273 L25.2922626,38.0678425 L21.3888898,38.0678425 L21.3888898,34.1744273 L15.0259938,34.1744273 L15.0259938,30.6195699 L24.8840017,17.2365774 L15.0259938,17.2365774 L15.0259938,12.5266403 L21.3888898,12.5266403 L21.3888898,8.61330991 L25.2922626,8.61330991 L25.2922626,12.5266403 Z" id="形状" fill="#231F20" fill-rule="nonzero"></path>
                </g>
            </g>
        </g>
    </g>
</svg>